M48
;GenerationSoftware,Autodesk,EAGLE,9.3.1*%
;CreationDate,2019-05-05T11:04:45Z*%
FMAT,2
ICI,OFF
METRIC,TZ,000.000
T5C0.350
T4C0.700
T3C0.800
T2C0.900
T1C1.200
%
G90
M71
T1
X135750Y53000
X128750Y53000
X25250Y9000
X25250Y53000
X18250Y9000
X18250Y53000
T2
X87240Y58730
X89780Y58730
X84700Y37775
X82160Y37775
X79620Y37775
X77080Y37775
X74540Y37775
X87240Y37775
X89780Y37775
X92320Y37775
X97400Y37775
X99940Y37775
X94860Y37775
X83985Y3570
X70015Y3570
X84700Y58730
T3
X129750Y55500
X134750Y55500
X24250Y6500
X19250Y6500
X19250Y55500
X24250Y55500
T4
X40750Y55000
X42750Y7000
X40750Y7000
X38750Y7000
X36750Y55000
X38750Y55000
T5
X40000Y35000
X45000Y34000
X41000Y33500
X42000Y32000
X14000Y23000
X16000Y23000
X12000Y23000
X15000Y26000
X14000Y27000
X50000Y10000
X47000Y24000
X48000Y12000
X12000Y25000
X49500Y15000
X54000Y16000
X141750Y17500
X87000Y32000
X45000Y23000
X64000Y26000
X52000Y10000
X145750Y17500
X110000Y8000
X90000Y28000
X90000Y34000
X47000Y18000
X36000Y31000
X52000Y18000
X90000Y31000
X54000Y10000
X67000Y31000
X68000Y30000
X43000Y38000
X44000Y36000
X87000Y34000
M30