G04 EAGLE Gerber RS-274X export*
G75*
%MOMM*%
%FSLAX34Y34*%
%LPD*%
%INBottom Copper*%
%IPPOS*%
%AMOC8*
5,1,8,0,0,1.08239X$1,22.5*%
G01*
%ADD10C,2.200000*%
%ADD11C,1.700000*%
%ADD12R,1.778000X1.778000*%
%ADD13R,1.524000X1.778000*%
%ADD14R,2.032000X1.778000*%
%ADD15C,1.778000*%
%ADD16R,1.100000X1.400000*%
%ADD17C,1.500000*%
%ADD18C,1.676400*%
%ADD19C,1.422400*%
%ADD20C,1.100000*%
%ADD21C,0.756400*%
%ADD22C,0.152400*%
%ADD23C,0.304800*%

G36*
X1440026Y10926D02*
X1440026Y10926D01*
X1440067Y10924D01*
X1447697Y11257D01*
X1447743Y11265D01*
X1447895Y11279D01*
X1462925Y13929D01*
X1462935Y13932D01*
X1462946Y13933D01*
X1463182Y13998D01*
X1477523Y19218D01*
X1477532Y19222D01*
X1477543Y19225D01*
X1477764Y19330D01*
X1490981Y26961D01*
X1490989Y26967D01*
X1490999Y26971D01*
X1491198Y27113D01*
X1502889Y36923D01*
X1502896Y36931D01*
X1502905Y36937D01*
X1503077Y37111D01*
X1512887Y48802D01*
X1512893Y48811D01*
X1512900Y48818D01*
X1513039Y49019D01*
X1520670Y62236D01*
X1520674Y62246D01*
X1520680Y62255D01*
X1520782Y62477D01*
X1526002Y76818D01*
X1526004Y76829D01*
X1526009Y76838D01*
X1526071Y77075D01*
X1528721Y92105D01*
X1528724Y92151D01*
X1528743Y92303D01*
X1529076Y99934D01*
X1529074Y99959D01*
X1529077Y100000D01*
X1529077Y520000D01*
X1529074Y520026D01*
X1529076Y520066D01*
X1528743Y527697D01*
X1528735Y527743D01*
X1528721Y527895D01*
X1526071Y542925D01*
X1526068Y542935D01*
X1526067Y542946D01*
X1526002Y543182D01*
X1520782Y557523D01*
X1520778Y557532D01*
X1520775Y557543D01*
X1520670Y557764D01*
X1513039Y570981D01*
X1513033Y570989D01*
X1513029Y570999D01*
X1512887Y571198D01*
X1503077Y582889D01*
X1503069Y582896D01*
X1503063Y582905D01*
X1502889Y583077D01*
X1491198Y592887D01*
X1491189Y592893D01*
X1491182Y592900D01*
X1490981Y593039D01*
X1477764Y600670D01*
X1477754Y600674D01*
X1477745Y600680D01*
X1477523Y600782D01*
X1463182Y606002D01*
X1463171Y606004D01*
X1463162Y606009D01*
X1462925Y606071D01*
X1447895Y608721D01*
X1447849Y608724D01*
X1447697Y608743D01*
X1440066Y609076D01*
X1440041Y609074D01*
X1440000Y609077D01*
X1210909Y609077D01*
X1210834Y609069D01*
X1210759Y609070D01*
X1210662Y609049D01*
X1210563Y609037D01*
X1210492Y609012D01*
X1210418Y608996D01*
X1210329Y608953D01*
X1210235Y608920D01*
X1210172Y608879D01*
X1210103Y608847D01*
X1210026Y608785D01*
X1209942Y608731D01*
X1209890Y608677D01*
X1209831Y608630D01*
X1209769Y608552D01*
X1209700Y608480D01*
X1209661Y608415D01*
X1209614Y608356D01*
X1209572Y608266D01*
X1209521Y608181D01*
X1209498Y608109D01*
X1209466Y608041D01*
X1209445Y607944D01*
X1209415Y607849D01*
X1209409Y607774D01*
X1209393Y607700D01*
X1209395Y607601D01*
X1209387Y607502D01*
X1209398Y607427D01*
X1209400Y607352D01*
X1209424Y607255D01*
X1209439Y607157D01*
X1209467Y607087D01*
X1209485Y607014D01*
X1209531Y606925D01*
X1209567Y606833D01*
X1209610Y606771D01*
X1209645Y606704D01*
X1209710Y606628D01*
X1209766Y606547D01*
X1209822Y606497D01*
X1209871Y606439D01*
X1209990Y606345D01*
X1210025Y606314D01*
X1210041Y606305D01*
X1210063Y606287D01*
X1210126Y606246D01*
X1211246Y605126D01*
X1212126Y603809D01*
X1212564Y602749D01*
X1206226Y602749D01*
X1206200Y602746D01*
X1206174Y602748D01*
X1206027Y602726D01*
X1205880Y602709D01*
X1205855Y602701D01*
X1205829Y602697D01*
X1205692Y602642D01*
X1205552Y602592D01*
X1205530Y602578D01*
X1205505Y602568D01*
X1205384Y602483D01*
X1205259Y602403D01*
X1205241Y602384D01*
X1205219Y602369D01*
X1205120Y602259D01*
X1205017Y602152D01*
X1205003Y602130D01*
X1204997Y602122D01*
X1204951Y602193D01*
X1204932Y602211D01*
X1204917Y602233D01*
X1204807Y602332D01*
X1204700Y602435D01*
X1204677Y602449D01*
X1204658Y602466D01*
X1204528Y602538D01*
X1204401Y602614D01*
X1204376Y602622D01*
X1204353Y602635D01*
X1204210Y602675D01*
X1204069Y602720D01*
X1204043Y602722D01*
X1204018Y602730D01*
X1203774Y602749D01*
X1197436Y602749D01*
X1197874Y603809D01*
X1198754Y605126D01*
X1199874Y606246D01*
X1199937Y606287D01*
X1199994Y606336D01*
X1200058Y606377D01*
X1200127Y606449D01*
X1200203Y606513D01*
X1200248Y606574D01*
X1200300Y606628D01*
X1200351Y606713D01*
X1200410Y606793D01*
X1200440Y606862D01*
X1200479Y606927D01*
X1200509Y607021D01*
X1200549Y607113D01*
X1200562Y607187D01*
X1200585Y607259D01*
X1200593Y607358D01*
X1200611Y607456D01*
X1200607Y607531D01*
X1200613Y607606D01*
X1200598Y607704D01*
X1200593Y607804D01*
X1200573Y607876D01*
X1200561Y607951D01*
X1200525Y608043D01*
X1200497Y608139D01*
X1200461Y608205D01*
X1200433Y608275D01*
X1200376Y608356D01*
X1200328Y608443D01*
X1200277Y608499D01*
X1200234Y608561D01*
X1200160Y608627D01*
X1200093Y608701D01*
X1200031Y608744D01*
X1199975Y608794D01*
X1199888Y608842D01*
X1199806Y608899D01*
X1199736Y608926D01*
X1199670Y608963D01*
X1199574Y608990D01*
X1199482Y609026D01*
X1199407Y609037D01*
X1199334Y609058D01*
X1199183Y609070D01*
X1199137Y609077D01*
X1199119Y609075D01*
X1199091Y609077D01*
X1188127Y609077D01*
X1188027Y609066D01*
X1187927Y609064D01*
X1187854Y609046D01*
X1187781Y609037D01*
X1187686Y609004D01*
X1187589Y608979D01*
X1187522Y608945D01*
X1187452Y608920D01*
X1187368Y608865D01*
X1187279Y608819D01*
X1187222Y608771D01*
X1187160Y608731D01*
X1187090Y608659D01*
X1187013Y608594D01*
X1186969Y608534D01*
X1186917Y608480D01*
X1186866Y608394D01*
X1186806Y608313D01*
X1186777Y608245D01*
X1186739Y608181D01*
X1186708Y608085D01*
X1186668Y607993D01*
X1186655Y607920D01*
X1186632Y607849D01*
X1186624Y607749D01*
X1186607Y607650D01*
X1186610Y607576D01*
X1186604Y607502D01*
X1186619Y607402D01*
X1186624Y607302D01*
X1186645Y607231D01*
X1186656Y607157D01*
X1186693Y607064D01*
X1186721Y606967D01*
X1186757Y606902D01*
X1186785Y606833D01*
X1186842Y606751D01*
X1186891Y606663D01*
X1186956Y606587D01*
X1186984Y606547D01*
X1187010Y606523D01*
X1187050Y606477D01*
X1188109Y605418D01*
X1189565Y601903D01*
X1189565Y598097D01*
X1188109Y594582D01*
X1186035Y592508D01*
X1185956Y592409D01*
X1185872Y592315D01*
X1185848Y592273D01*
X1185818Y592235D01*
X1185764Y592121D01*
X1185703Y592010D01*
X1185690Y591964D01*
X1185669Y591920D01*
X1185643Y591797D01*
X1185608Y591675D01*
X1185603Y591614D01*
X1185596Y591580D01*
X1185597Y591531D01*
X1185589Y591431D01*
X1185589Y576220D01*
X1185597Y576144D01*
X1185596Y576068D01*
X1185617Y575972D01*
X1185629Y575874D01*
X1185654Y575802D01*
X1185671Y575727D01*
X1185713Y575639D01*
X1185746Y575546D01*
X1185788Y575482D01*
X1185820Y575413D01*
X1185882Y575336D01*
X1185935Y575253D01*
X1185990Y575200D01*
X1186038Y575140D01*
X1186115Y575079D01*
X1186186Y575011D01*
X1186251Y574972D01*
X1186311Y574924D01*
X1186444Y574857D01*
X1186485Y574832D01*
X1186503Y574826D01*
X1186529Y574813D01*
X1186551Y574804D01*
X1189804Y571551D01*
X1191565Y567300D01*
X1191565Y562700D01*
X1189804Y558449D01*
X1186551Y555196D01*
X1182300Y553435D01*
X1177700Y553435D01*
X1173449Y555196D01*
X1170196Y558449D01*
X1170187Y558471D01*
X1170150Y558538D01*
X1170122Y558609D01*
X1170065Y558689D01*
X1170018Y558775D01*
X1169966Y558832D01*
X1169923Y558895D01*
X1169850Y558961D01*
X1169784Y559034D01*
X1169721Y559077D01*
X1169664Y559128D01*
X1169578Y559176D01*
X1169497Y559232D01*
X1169426Y559260D01*
X1169359Y559297D01*
X1169264Y559324D01*
X1169173Y559360D01*
X1169097Y559371D01*
X1169023Y559392D01*
X1168874Y559404D01*
X1168828Y559410D01*
X1168809Y559409D01*
X1168780Y559411D01*
X1137946Y559411D01*
X1137820Y559397D01*
X1137694Y559390D01*
X1137648Y559377D01*
X1137600Y559371D01*
X1137481Y559329D01*
X1137359Y559294D01*
X1137317Y559270D01*
X1137272Y559254D01*
X1137165Y559185D01*
X1137055Y559124D01*
X1137009Y559084D01*
X1136979Y559065D01*
X1136945Y559030D01*
X1136869Y558965D01*
X1093166Y515262D01*
X1091112Y514411D01*
X1012946Y514411D01*
X1012820Y514397D01*
X1012694Y514390D01*
X1012648Y514377D01*
X1012600Y514371D01*
X1012481Y514329D01*
X1012359Y514294D01*
X1012317Y514270D01*
X1012272Y514254D01*
X1012165Y514185D01*
X1012055Y514124D01*
X1012009Y514084D01*
X1011979Y514065D01*
X1011945Y514030D01*
X1011869Y513965D01*
X913166Y415262D01*
X911112Y414411D01*
X618888Y414411D01*
X616834Y415262D01*
X502008Y530088D01*
X501969Y530119D01*
X501935Y530157D01*
X501832Y530228D01*
X501735Y530305D01*
X501690Y530326D01*
X501648Y530355D01*
X501532Y530401D01*
X501420Y530454D01*
X501371Y530464D01*
X501324Y530483D01*
X501201Y530501D01*
X501079Y530527D01*
X501029Y530526D01*
X500979Y530534D01*
X500855Y530523D01*
X500731Y530521D01*
X500682Y530509D01*
X500632Y530505D01*
X500513Y530466D01*
X500393Y530436D01*
X500348Y530413D01*
X500300Y530398D01*
X500194Y530334D01*
X500083Y530276D01*
X500045Y530244D01*
X500002Y530218D01*
X499913Y530131D01*
X499818Y530051D01*
X499788Y530010D01*
X499752Y529975D01*
X499684Y529870D01*
X499611Y529770D01*
X499591Y529724D01*
X499563Y529682D01*
X499522Y529564D01*
X499473Y529450D01*
X499464Y529401D01*
X499447Y529353D01*
X499433Y529230D01*
X499411Y529107D01*
X499413Y529057D01*
X499408Y529007D01*
X499422Y528883D01*
X499429Y528759D01*
X499443Y528711D01*
X499449Y528661D01*
X499524Y528428D01*
X500409Y526292D01*
X500409Y219995D01*
X500417Y219919D01*
X500416Y219843D01*
X500437Y219746D01*
X500449Y219649D01*
X500474Y219577D01*
X500491Y219502D01*
X500533Y219413D01*
X500566Y219321D01*
X500608Y219256D01*
X500640Y219187D01*
X500702Y219111D01*
X500755Y219028D01*
X500810Y218975D01*
X500858Y218915D01*
X500935Y218854D01*
X501006Y218786D01*
X501071Y218746D01*
X501131Y218699D01*
X501264Y218631D01*
X501305Y218607D01*
X501323Y218601D01*
X501349Y218588D01*
X502158Y218252D01*
X505802Y214608D01*
X506113Y213859D01*
X506161Y213772D01*
X506201Y213679D01*
X506246Y213620D01*
X506282Y213555D01*
X506349Y213480D01*
X506409Y213400D01*
X506466Y213352D01*
X506516Y213297D01*
X506599Y213240D01*
X506675Y213175D01*
X506742Y213141D01*
X506803Y213098D01*
X506896Y213062D01*
X506986Y213016D01*
X507058Y212998D01*
X507127Y212971D01*
X507227Y212956D01*
X507324Y212932D01*
X507398Y212931D01*
X507472Y212920D01*
X507572Y212928D01*
X507672Y212927D01*
X507745Y212943D01*
X507819Y212949D01*
X507915Y212980D01*
X508013Y213001D01*
X508080Y213033D01*
X508151Y213056D01*
X508237Y213108D01*
X508328Y213151D01*
X508386Y213197D01*
X508449Y213235D01*
X508521Y213305D01*
X508600Y213368D01*
X508646Y213426D01*
X508699Y213478D01*
X508754Y213563D01*
X508816Y213642D01*
X508862Y213731D01*
X508888Y213772D01*
X508900Y213805D01*
X508927Y213859D01*
X509238Y214608D01*
X512882Y218252D01*
X517643Y220225D01*
X522797Y220225D01*
X527558Y218252D01*
X531202Y214608D01*
X531513Y213859D01*
X531561Y213772D01*
X531601Y213679D01*
X531646Y213620D01*
X531682Y213555D01*
X531749Y213480D01*
X531809Y213400D01*
X531866Y213352D01*
X531916Y213297D01*
X531999Y213240D01*
X532075Y213175D01*
X532142Y213141D01*
X532203Y213098D01*
X532296Y213062D01*
X532386Y213016D01*
X532458Y212998D01*
X532527Y212971D01*
X532627Y212956D01*
X532724Y212932D01*
X532798Y212931D01*
X532872Y212920D01*
X532972Y212928D01*
X533072Y212927D01*
X533145Y212943D01*
X533219Y212949D01*
X533315Y212980D01*
X533413Y213001D01*
X533480Y213033D01*
X533551Y213056D01*
X533637Y213108D01*
X533728Y213151D01*
X533786Y213197D01*
X533849Y213235D01*
X533921Y213305D01*
X534000Y213368D01*
X534046Y213426D01*
X534099Y213478D01*
X534154Y213563D01*
X534216Y213642D01*
X534262Y213731D01*
X534288Y213772D01*
X534300Y213805D01*
X534327Y213859D01*
X534638Y214608D01*
X538282Y218252D01*
X541531Y219598D01*
X541532Y219599D01*
X541534Y219600D01*
X541685Y219684D01*
X541835Y219768D01*
X541837Y219769D01*
X541838Y219770D01*
X542025Y219928D01*
X726834Y404738D01*
X728888Y405589D01*
X927462Y405589D01*
X929516Y404738D01*
X931302Y402952D01*
X943943Y390311D01*
X944002Y390264D01*
X944056Y390209D01*
X944139Y390155D01*
X944216Y390094D01*
X944285Y390062D01*
X944349Y390020D01*
X944442Y389987D01*
X944531Y389945D01*
X944605Y389929D01*
X944678Y389904D01*
X944776Y389893D01*
X944871Y389872D01*
X944948Y389873D01*
X945024Y389865D01*
X945122Y389876D01*
X945220Y389878D01*
X945294Y389897D01*
X945370Y389906D01*
X945512Y389952D01*
X945558Y389963D01*
X945575Y389972D01*
X945603Y389981D01*
X946124Y390197D01*
X951076Y390197D01*
X955651Y388302D01*
X959152Y384801D01*
X960740Y380965D01*
X960818Y380825D01*
X960893Y380684D01*
X960903Y380673D01*
X960910Y380661D01*
X961017Y380542D01*
X961122Y380422D01*
X961134Y380413D01*
X961144Y380403D01*
X961276Y380311D01*
X961405Y380218D01*
X961419Y380213D01*
X961431Y380204D01*
X961579Y380146D01*
X961727Y380084D01*
X961741Y380082D01*
X961755Y380077D01*
X961913Y380053D01*
X962071Y380027D01*
X962085Y380028D01*
X962100Y380026D01*
X962259Y380039D01*
X962418Y380049D01*
X962432Y380053D01*
X962447Y380055D01*
X962599Y380104D01*
X962752Y380150D01*
X962765Y380157D01*
X962778Y380162D01*
X962916Y380244D01*
X963054Y380324D01*
X963065Y380334D01*
X963077Y380341D01*
X963192Y380453D01*
X963309Y380562D01*
X963317Y380574D01*
X963327Y380584D01*
X963413Y380719D01*
X963502Y380852D01*
X963509Y380868D01*
X963515Y380878D01*
X963528Y380914D01*
X963596Y381078D01*
X963877Y381943D01*
X964658Y383475D01*
X965669Y384866D01*
X966884Y386081D01*
X968275Y387092D01*
X969807Y387872D01*
X971442Y388404D01*
X971751Y388453D01*
X971751Y378476D01*
X971754Y378450D01*
X971752Y378424D01*
X971774Y378277D01*
X971791Y378130D01*
X971799Y378105D01*
X971803Y378079D01*
X971858Y377942D01*
X971908Y377802D01*
X971922Y377780D01*
X971932Y377755D01*
X971941Y377743D01*
X971886Y377651D01*
X971878Y377626D01*
X971865Y377603D01*
X971825Y377460D01*
X971780Y377319D01*
X971777Y377293D01*
X971770Y377268D01*
X971751Y377024D01*
X971751Y367047D01*
X971442Y367096D01*
X969807Y367628D01*
X968275Y368408D01*
X966884Y369419D01*
X965669Y370634D01*
X964658Y372025D01*
X963878Y373557D01*
X963596Y374422D01*
X963530Y374567D01*
X963466Y374714D01*
X963457Y374726D01*
X963451Y374739D01*
X963353Y374866D01*
X963258Y374994D01*
X963247Y375003D01*
X963238Y375015D01*
X963114Y375116D01*
X962992Y375219D01*
X962979Y375226D01*
X962968Y375235D01*
X962824Y375306D01*
X962682Y375378D01*
X962668Y375382D01*
X962655Y375388D01*
X962498Y375424D01*
X962344Y375462D01*
X962329Y375462D01*
X962315Y375466D01*
X962155Y375465D01*
X961995Y375467D01*
X961981Y375464D01*
X961967Y375464D01*
X961811Y375427D01*
X961655Y375393D01*
X961642Y375387D01*
X961628Y375383D01*
X961485Y375312D01*
X961340Y375243D01*
X961329Y375234D01*
X961316Y375228D01*
X961193Y375126D01*
X961068Y375026D01*
X961059Y375015D01*
X961048Y375005D01*
X960951Y374878D01*
X960852Y374752D01*
X960844Y374737D01*
X960837Y374728D01*
X960821Y374693D01*
X960740Y374535D01*
X959152Y370699D01*
X955651Y367198D01*
X951076Y365303D01*
X946124Y365303D01*
X941549Y367198D01*
X938048Y370699D01*
X937307Y372488D01*
X937259Y372576D01*
X937218Y372668D01*
X937174Y372728D01*
X937138Y372793D01*
X937071Y372867D01*
X937011Y372948D01*
X936954Y372996D01*
X936904Y373051D01*
X936821Y373108D01*
X936745Y373173D01*
X936678Y373207D01*
X936617Y373249D01*
X936524Y373286D01*
X936434Y373332D01*
X936362Y373350D01*
X936293Y373377D01*
X936194Y373392D01*
X936096Y373416D01*
X936022Y373417D01*
X935948Y373428D01*
X935848Y373419D01*
X935748Y373421D01*
X935675Y373405D01*
X935601Y373399D01*
X935505Y373368D01*
X935407Y373347D01*
X935340Y373315D01*
X935269Y373292D01*
X935183Y373240D01*
X935092Y373197D01*
X935034Y373150D01*
X934971Y373112D01*
X934899Y373042D01*
X934820Y372979D01*
X934774Y372921D01*
X934721Y372869D01*
X934666Y372785D01*
X934604Y372706D01*
X934558Y372616D01*
X934532Y372576D01*
X934520Y372542D01*
X934493Y372488D01*
X933752Y370699D01*
X930251Y367198D01*
X925676Y365303D01*
X923838Y365303D01*
X923712Y365289D01*
X923586Y365282D01*
X923540Y365269D01*
X923492Y365263D01*
X923373Y365221D01*
X923251Y365186D01*
X923209Y365162D01*
X923164Y365146D01*
X923057Y365077D01*
X922947Y365016D01*
X922901Y364976D01*
X922871Y364957D01*
X922837Y364922D01*
X922761Y364857D01*
X903166Y345262D01*
X901112Y344411D01*
X878946Y344411D01*
X878797Y344394D01*
X878647Y344382D01*
X878623Y344374D01*
X878600Y344371D01*
X878458Y344321D01*
X878315Y344275D01*
X878294Y344262D01*
X878271Y344254D01*
X878145Y344172D01*
X878016Y344095D01*
X877999Y344078D01*
X877979Y344065D01*
X877874Y343957D01*
X877766Y343852D01*
X877753Y343832D01*
X877736Y343814D01*
X877659Y343685D01*
X877578Y343559D01*
X877570Y343536D01*
X877558Y343515D01*
X877512Y343372D01*
X877461Y343230D01*
X877459Y343206D01*
X877451Y343183D01*
X877439Y343034D01*
X877422Y342884D01*
X877425Y342860D01*
X877423Y342836D01*
X877446Y342687D01*
X877463Y342538D01*
X877472Y342510D01*
X877475Y342491D01*
X877493Y342447D01*
X877538Y342305D01*
X877847Y341561D01*
X877847Y338439D01*
X876652Y335555D01*
X874445Y333348D01*
X871561Y332153D01*
X868439Y332153D01*
X865555Y333348D01*
X864938Y333965D01*
X864839Y334044D01*
X864745Y334128D01*
X864703Y334152D01*
X864665Y334182D01*
X864551Y334236D01*
X864440Y334297D01*
X864393Y334310D01*
X864350Y334331D01*
X864226Y334357D01*
X864105Y334392D01*
X864044Y334397D01*
X864009Y334404D01*
X863961Y334403D01*
X863861Y334411D01*
X822946Y334411D01*
X822820Y334397D01*
X822694Y334390D01*
X822648Y334377D01*
X822600Y334371D01*
X822481Y334329D01*
X822359Y334294D01*
X822317Y334270D01*
X822272Y334254D01*
X822165Y334185D01*
X822055Y334124D01*
X822009Y334084D01*
X821979Y334065D01*
X821945Y334030D01*
X821869Y333965D01*
X786035Y298131D01*
X785956Y298032D01*
X785872Y297938D01*
X785848Y297896D01*
X785818Y297858D01*
X785764Y297744D01*
X785703Y297633D01*
X785690Y297587D01*
X785669Y297543D01*
X785643Y297420D01*
X785608Y297298D01*
X785603Y297237D01*
X785596Y297202D01*
X785597Y297154D01*
X785589Y297054D01*
X785589Y218888D01*
X784704Y216752D01*
X784690Y216703D01*
X784668Y216658D01*
X784642Y216537D01*
X784608Y216417D01*
X784606Y216366D01*
X784595Y216317D01*
X784597Y216193D01*
X784591Y216069D01*
X784600Y216019D01*
X784601Y215969D01*
X784631Y215848D01*
X784654Y215726D01*
X784674Y215680D01*
X784686Y215631D01*
X784743Y215520D01*
X784793Y215406D01*
X784823Y215366D01*
X784846Y215321D01*
X784926Y215226D01*
X785000Y215126D01*
X785039Y215094D01*
X785072Y215056D01*
X785172Y214982D01*
X785266Y214901D01*
X785311Y214878D01*
X785352Y214848D01*
X785466Y214799D01*
X785577Y214742D01*
X785626Y214730D01*
X785672Y214710D01*
X785794Y214688D01*
X785915Y214658D01*
X785965Y214658D01*
X786015Y214649D01*
X786139Y214655D01*
X786263Y214653D01*
X786313Y214664D01*
X786363Y214667D01*
X786482Y214701D01*
X786604Y214728D01*
X786649Y214749D01*
X786698Y214763D01*
X786806Y214824D01*
X786919Y214877D01*
X786958Y214909D01*
X787002Y214933D01*
X787188Y215092D01*
X827719Y255623D01*
X827798Y255722D01*
X827882Y255816D01*
X827906Y255858D01*
X827936Y255896D01*
X827990Y256010D01*
X828051Y256121D01*
X828064Y256167D01*
X828085Y256211D01*
X828111Y256334D01*
X828146Y256456D01*
X828151Y256517D01*
X828158Y256552D01*
X828157Y256600D01*
X828165Y256700D01*
X828165Y274874D01*
X830546Y277255D01*
X832738Y277255D01*
X832764Y277258D01*
X832790Y277256D01*
X832937Y277278D01*
X833084Y277295D01*
X833109Y277303D01*
X833135Y277307D01*
X833273Y277362D01*
X833412Y277412D01*
X833434Y277426D01*
X833459Y277436D01*
X833580Y277521D01*
X833705Y277601D01*
X833723Y277620D01*
X833745Y277635D01*
X833844Y277745D01*
X833947Y277852D01*
X833961Y277874D01*
X833978Y277894D01*
X834050Y278024D01*
X834126Y278151D01*
X834134Y278176D01*
X834147Y278199D01*
X834187Y278342D01*
X834232Y278483D01*
X834234Y278509D01*
X834242Y278534D01*
X834261Y278778D01*
X834261Y287204D01*
X834247Y287330D01*
X834240Y287456D01*
X834227Y287502D01*
X834221Y287550D01*
X834179Y287669D01*
X834144Y287791D01*
X834120Y287833D01*
X834104Y287878D01*
X834035Y287985D01*
X833974Y288095D01*
X833934Y288141D01*
X833915Y288171D01*
X833880Y288205D01*
X833815Y288281D01*
X828131Y293965D01*
X828032Y294044D01*
X827938Y294128D01*
X827896Y294152D01*
X827858Y294182D01*
X827744Y294236D01*
X827633Y294297D01*
X827587Y294310D01*
X827543Y294331D01*
X827420Y294357D01*
X827298Y294392D01*
X827237Y294397D01*
X827202Y294404D01*
X827154Y294403D01*
X827054Y294411D01*
X818569Y294411D01*
X818443Y294397D01*
X818317Y294390D01*
X818271Y294377D01*
X818223Y294371D01*
X818104Y294329D01*
X817982Y294294D01*
X817940Y294270D01*
X817895Y294254D01*
X817788Y294185D01*
X817678Y294124D01*
X817632Y294084D01*
X817602Y294065D01*
X817568Y294030D01*
X817492Y293965D01*
X815418Y291891D01*
X811903Y290435D01*
X808097Y290435D01*
X804582Y291891D01*
X801891Y294582D01*
X800435Y298097D01*
X800435Y301903D01*
X801891Y305418D01*
X804582Y308109D01*
X808097Y309565D01*
X811903Y309565D01*
X815418Y308109D01*
X817492Y306035D01*
X817591Y305956D01*
X817685Y305872D01*
X817727Y305848D01*
X817765Y305818D01*
X817879Y305764D01*
X817990Y305703D01*
X818036Y305690D01*
X818080Y305669D01*
X818203Y305643D01*
X818325Y305608D01*
X818386Y305603D01*
X818421Y305596D01*
X818469Y305597D01*
X818569Y305589D01*
X831112Y305589D01*
X833166Y304738D01*
X844588Y293316D01*
X845439Y291262D01*
X845439Y278778D01*
X845442Y278752D01*
X845440Y278726D01*
X845462Y278579D01*
X845479Y278432D01*
X845487Y278407D01*
X845491Y278381D01*
X845546Y278243D01*
X845596Y278104D01*
X845610Y278082D01*
X845620Y278057D01*
X845705Y277936D01*
X845785Y277811D01*
X845804Y277793D01*
X845819Y277771D01*
X845929Y277672D01*
X846036Y277569D01*
X846058Y277555D01*
X846078Y277538D01*
X846208Y277466D01*
X846335Y277390D01*
X846360Y277382D01*
X846383Y277369D01*
X846526Y277329D01*
X846667Y277284D01*
X846693Y277282D01*
X846718Y277274D01*
X846962Y277255D01*
X849154Y277255D01*
X851535Y274874D01*
X851535Y253726D01*
X849154Y251345D01*
X839880Y251345D01*
X839754Y251331D01*
X839628Y251324D01*
X839582Y251311D01*
X839534Y251305D01*
X839415Y251263D01*
X839293Y251228D01*
X839251Y251204D01*
X839206Y251188D01*
X839099Y251119D01*
X838989Y251058D01*
X838943Y251018D01*
X838913Y250999D01*
X838879Y250964D01*
X838803Y250899D01*
X663166Y75262D01*
X661112Y74411D01*
X442553Y74411D01*
X440414Y75297D01*
X440381Y75323D01*
X440336Y75345D01*
X440294Y75373D01*
X440179Y75419D01*
X440066Y75472D01*
X440017Y75482D01*
X439970Y75501D01*
X439847Y75519D01*
X439726Y75545D01*
X439675Y75544D01*
X439625Y75552D01*
X439501Y75541D01*
X439377Y75539D01*
X439328Y75527D01*
X439278Y75523D01*
X439160Y75485D01*
X439039Y75454D01*
X438994Y75431D01*
X438947Y75416D01*
X438840Y75352D01*
X438729Y75295D01*
X438691Y75262D01*
X438648Y75236D01*
X438559Y75149D01*
X438464Y75069D01*
X438434Y75028D01*
X438398Y74993D01*
X438331Y74889D01*
X438257Y74789D01*
X438237Y74742D01*
X438210Y74700D01*
X438168Y74583D01*
X438119Y74469D01*
X438110Y74419D01*
X438093Y74372D01*
X438079Y74248D01*
X438057Y74126D01*
X438060Y74075D01*
X438054Y74025D01*
X438069Y73902D01*
X438075Y73777D01*
X438089Y73729D01*
X438095Y73679D01*
X438170Y73446D01*
X438677Y72223D01*
X438677Y67777D01*
X436975Y63669D01*
X433831Y60525D01*
X429723Y58823D01*
X425277Y58823D01*
X421169Y60525D01*
X418577Y63117D01*
X418557Y63133D01*
X418540Y63153D01*
X418420Y63241D01*
X418304Y63333D01*
X418280Y63344D01*
X418259Y63360D01*
X418123Y63419D01*
X417989Y63482D01*
X417963Y63488D01*
X417939Y63498D01*
X417793Y63524D01*
X417648Y63556D01*
X417622Y63555D01*
X417596Y63560D01*
X417448Y63552D01*
X417300Y63550D01*
X417274Y63543D01*
X417248Y63542D01*
X417106Y63501D01*
X416962Y63465D01*
X416939Y63453D01*
X416913Y63445D01*
X416784Y63373D01*
X416652Y63305D01*
X416632Y63288D01*
X416609Y63275D01*
X416423Y63117D01*
X413831Y60525D01*
X409723Y58823D01*
X405277Y58823D01*
X401169Y60525D01*
X398577Y63117D01*
X398557Y63133D01*
X398540Y63153D01*
X398420Y63241D01*
X398304Y63333D01*
X398280Y63344D01*
X398259Y63360D01*
X398123Y63419D01*
X397989Y63482D01*
X397963Y63488D01*
X397939Y63498D01*
X397793Y63524D01*
X397648Y63556D01*
X397622Y63555D01*
X397596Y63560D01*
X397448Y63552D01*
X397300Y63550D01*
X397274Y63543D01*
X397248Y63542D01*
X397106Y63501D01*
X396962Y63465D01*
X396939Y63453D01*
X396913Y63445D01*
X396784Y63373D01*
X396652Y63305D01*
X396632Y63288D01*
X396609Y63275D01*
X396423Y63117D01*
X393831Y60525D01*
X389723Y58823D01*
X385277Y58823D01*
X381169Y60525D01*
X378025Y63669D01*
X376323Y67777D01*
X376323Y72312D01*
X376337Y72360D01*
X376341Y72437D01*
X376354Y72512D01*
X376349Y72610D01*
X376354Y72708D01*
X376340Y72784D01*
X376336Y72860D01*
X376309Y72954D01*
X376291Y73051D01*
X376261Y73121D01*
X376240Y73195D01*
X376192Y73281D01*
X376153Y73371D01*
X376107Y73432D01*
X376070Y73499D01*
X375973Y73613D01*
X375945Y73650D01*
X375930Y73663D01*
X375911Y73685D01*
X375631Y73965D01*
X375532Y74044D01*
X375438Y74128D01*
X375396Y74152D01*
X375358Y74182D01*
X375244Y74236D01*
X375133Y74297D01*
X375087Y74310D01*
X375043Y74331D01*
X374920Y74357D01*
X374798Y74392D01*
X374737Y74397D01*
X374702Y74404D01*
X374654Y74403D01*
X374554Y74411D01*
X288888Y74411D01*
X286834Y75262D01*
X270165Y91931D01*
X270087Y91994D01*
X270014Y92063D01*
X269950Y92102D01*
X269892Y92148D01*
X269801Y92191D01*
X269715Y92242D01*
X269644Y92265D01*
X269577Y92297D01*
X269479Y92318D01*
X269383Y92349D01*
X269309Y92355D01*
X269236Y92370D01*
X269136Y92368D01*
X269036Y92377D01*
X268962Y92365D01*
X268888Y92364D01*
X268791Y92340D01*
X268691Y92325D01*
X268622Y92297D01*
X268550Y92279D01*
X268460Y92233D01*
X268367Y92196D01*
X268306Y92154D01*
X268240Y92120D01*
X268163Y92054D01*
X268081Y91997D01*
X268031Y91942D01*
X267975Y91894D01*
X267915Y91813D01*
X267848Y91738D01*
X267812Y91673D01*
X267767Y91613D01*
X267728Y91521D01*
X267679Y91433D01*
X267659Y91362D01*
X267629Y91293D01*
X267612Y91195D01*
X267584Y91098D01*
X267576Y90998D01*
X267568Y90950D01*
X267570Y90915D01*
X267565Y90854D01*
X267565Y87003D01*
X265271Y81466D01*
X261034Y77229D01*
X255497Y74935D01*
X251856Y74935D01*
X251756Y74924D01*
X251656Y74922D01*
X251584Y74904D01*
X251510Y74895D01*
X251415Y74862D01*
X251318Y74837D01*
X251252Y74803D01*
X251182Y74778D01*
X251097Y74723D01*
X251008Y74677D01*
X250952Y74629D01*
X250889Y74589D01*
X250819Y74517D01*
X250743Y74451D01*
X250698Y74392D01*
X250647Y74338D01*
X250595Y74252D01*
X250536Y74171D01*
X250506Y74103D01*
X250468Y74039D01*
X250437Y73943D01*
X250398Y73851D01*
X250384Y73778D01*
X250362Y73707D01*
X250354Y73607D01*
X250336Y73508D01*
X250340Y73434D01*
X250334Y73360D01*
X250349Y73261D01*
X250354Y73160D01*
X250374Y73089D01*
X250385Y73015D01*
X250423Y72922D01*
X250450Y72825D01*
X250487Y72760D01*
X250514Y72691D01*
X250572Y72609D01*
X250621Y72521D01*
X250686Y72445D01*
X250713Y72405D01*
X250740Y72381D01*
X250746Y72374D01*
X250749Y72369D01*
X250752Y72366D01*
X250779Y72335D01*
X250921Y72192D01*
X251943Y70787D01*
X252732Y69238D01*
X253269Y67586D01*
X253362Y66999D01*
X242976Y66999D01*
X242950Y66996D01*
X242924Y66998D01*
X242777Y66976D01*
X242630Y66959D01*
X242605Y66951D01*
X242579Y66947D01*
X242498Y66914D01*
X242460Y66925D01*
X242319Y66970D01*
X242293Y66972D01*
X242268Y66980D01*
X242024Y66999D01*
X231638Y66999D01*
X231731Y67586D01*
X232268Y69238D01*
X233057Y70787D01*
X234079Y72193D01*
X235307Y73421D01*
X236713Y74443D01*
X238262Y75232D01*
X239914Y75769D01*
X241720Y76055D01*
X241870Y76096D01*
X242020Y76134D01*
X242037Y76143D01*
X242056Y76148D01*
X242192Y76223D01*
X242330Y76294D01*
X242344Y76306D01*
X242361Y76316D01*
X242477Y76419D01*
X242595Y76520D01*
X242607Y76535D01*
X242621Y76548D01*
X242710Y76675D01*
X242802Y76800D01*
X242810Y76818D01*
X242821Y76834D01*
X242879Y76978D01*
X242940Y77120D01*
X242944Y77139D01*
X242951Y77157D01*
X242975Y77311D01*
X243002Y77463D01*
X243001Y77482D01*
X243004Y77502D01*
X242992Y77656D01*
X242984Y77811D01*
X242979Y77830D01*
X242977Y77849D01*
X242930Y77997D01*
X242887Y78146D01*
X242878Y78163D01*
X242872Y78181D01*
X242793Y78315D01*
X242717Y78450D01*
X242702Y78468D01*
X242694Y78481D01*
X242664Y78513D01*
X242559Y78636D01*
X239729Y81466D01*
X237435Y87003D01*
X237435Y92997D01*
X239729Y98534D01*
X243966Y102771D01*
X249503Y105065D01*
X253354Y105065D01*
X253454Y105076D01*
X253554Y105078D01*
X253626Y105096D01*
X253700Y105105D01*
X253795Y105138D01*
X253892Y105163D01*
X253958Y105197D01*
X254028Y105222D01*
X254113Y105277D01*
X254202Y105323D01*
X254259Y105371D01*
X254321Y105411D01*
X254391Y105483D01*
X254468Y105548D01*
X254512Y105608D01*
X254563Y105662D01*
X254615Y105748D01*
X254675Y105829D01*
X254704Y105897D01*
X254742Y105961D01*
X254773Y106057D01*
X254813Y106149D01*
X254826Y106222D01*
X254849Y106293D01*
X254857Y106393D01*
X254874Y106492D01*
X254871Y106566D01*
X254877Y106640D01*
X254862Y106740D01*
X254856Y106840D01*
X254836Y106911D01*
X254825Y106985D01*
X254788Y107078D01*
X254760Y107175D01*
X254724Y107240D01*
X254696Y107309D01*
X254639Y107391D01*
X254590Y107479D01*
X254525Y107555D01*
X254497Y107595D01*
X254471Y107619D01*
X254431Y107665D01*
X248131Y113965D01*
X248032Y114044D01*
X247938Y114128D01*
X247896Y114152D01*
X247858Y114182D01*
X247744Y114236D01*
X247633Y114297D01*
X247587Y114310D01*
X247543Y114331D01*
X247420Y114357D01*
X247298Y114392D01*
X247237Y114397D01*
X247202Y114404D01*
X247154Y114403D01*
X247054Y114411D01*
X138888Y114411D01*
X136834Y115262D01*
X125262Y126834D01*
X124411Y128888D01*
X124411Y131431D01*
X124397Y131557D01*
X124390Y131683D01*
X124377Y131729D01*
X124371Y131777D01*
X124329Y131896D01*
X124294Y132018D01*
X124270Y132060D01*
X124254Y132105D01*
X124185Y132212D01*
X124124Y132322D01*
X124084Y132368D01*
X124065Y132398D01*
X124030Y132432D01*
X123965Y132508D01*
X121891Y134582D01*
X121407Y135751D01*
X121358Y135839D01*
X121318Y135931D01*
X121274Y135990D01*
X121238Y136055D01*
X121170Y136130D01*
X121111Y136210D01*
X121054Y136258D01*
X121004Y136314D01*
X120921Y136371D01*
X120845Y136436D01*
X120778Y136469D01*
X120717Y136512D01*
X120624Y136549D01*
X120534Y136594D01*
X120462Y136612D01*
X120393Y136640D01*
X120294Y136654D01*
X120196Y136678D01*
X120122Y136679D01*
X120048Y136690D01*
X119948Y136682D01*
X119848Y136683D01*
X119775Y136668D01*
X119701Y136661D01*
X119605Y136631D01*
X119507Y136609D01*
X119440Y136577D01*
X119369Y136554D01*
X119283Y136503D01*
X119192Y136459D01*
X119134Y136413D01*
X119071Y136375D01*
X118999Y136305D01*
X118920Y136242D01*
X118874Y136184D01*
X118821Y136132D01*
X118766Y136047D01*
X118704Y135968D01*
X118658Y135879D01*
X118632Y135839D01*
X118620Y135805D01*
X118593Y135751D01*
X118109Y134582D01*
X115418Y131891D01*
X111903Y130435D01*
X108097Y130435D01*
X104582Y131891D01*
X101891Y134582D01*
X100435Y138097D01*
X100435Y142108D01*
X100421Y142233D01*
X100414Y142360D01*
X100401Y142406D01*
X100395Y142454D01*
X100353Y142573D01*
X100318Y142694D01*
X100294Y142737D01*
X100278Y142782D01*
X100209Y142888D01*
X100148Y142999D01*
X100108Y143045D01*
X100089Y143075D01*
X100054Y143108D01*
X99989Y143185D01*
X95908Y147266D01*
X95173Y149040D01*
X95173Y194410D01*
X95908Y196184D01*
X97480Y197756D01*
X100419Y200695D01*
X100498Y200794D01*
X100582Y200888D01*
X100606Y200930D01*
X100636Y200968D01*
X100690Y201082D01*
X100751Y201193D01*
X100764Y201240D01*
X100785Y201283D01*
X100811Y201407D01*
X100846Y201528D01*
X100851Y201589D01*
X100858Y201624D01*
X100857Y201672D01*
X100865Y201772D01*
X100865Y217844D01*
X103308Y220287D01*
X103423Y220332D01*
X103562Y220382D01*
X103584Y220396D01*
X103609Y220406D01*
X103730Y220491D01*
X103855Y220571D01*
X103873Y220590D01*
X103895Y220605D01*
X103994Y220715D01*
X104097Y220822D01*
X104111Y220844D01*
X104128Y220864D01*
X104200Y220994D01*
X104276Y221121D01*
X104284Y221146D01*
X104297Y221169D01*
X104337Y221312D01*
X104382Y221453D01*
X104384Y221479D01*
X104392Y221504D01*
X104411Y221748D01*
X104411Y261112D01*
X105262Y263166D01*
X126834Y284738D01*
X128888Y285589D01*
X210388Y285589D01*
X210414Y285592D01*
X210440Y285590D01*
X210587Y285612D01*
X210734Y285629D01*
X210759Y285637D01*
X210785Y285641D01*
X210923Y285696D01*
X211062Y285746D01*
X211084Y285760D01*
X211109Y285770D01*
X211230Y285855D01*
X211355Y285935D01*
X211373Y285954D01*
X211395Y285969D01*
X211494Y286079D01*
X211597Y286186D01*
X211611Y286208D01*
X211628Y286228D01*
X211700Y286358D01*
X211776Y286485D01*
X211784Y286510D01*
X211797Y286533D01*
X211837Y286676D01*
X211882Y286817D01*
X211884Y286843D01*
X211892Y286868D01*
X211911Y287112D01*
X211911Y571112D01*
X212762Y573166D01*
X224334Y584738D01*
X226388Y585589D01*
X251112Y585589D01*
X253166Y584738D01*
X291869Y546035D01*
X291968Y545956D01*
X292062Y545872D01*
X292104Y545848D01*
X292142Y545818D01*
X292256Y545764D01*
X292367Y545703D01*
X292413Y545690D01*
X292457Y545669D01*
X292580Y545643D01*
X292702Y545608D01*
X292763Y545603D01*
X292798Y545596D01*
X292846Y545597D01*
X292946Y545589D01*
X354554Y545589D01*
X354680Y545603D01*
X354806Y545610D01*
X354852Y545623D01*
X354900Y545629D01*
X355019Y545671D01*
X355141Y545706D01*
X355183Y545730D01*
X355228Y545746D01*
X355335Y545815D01*
X355445Y545876D01*
X355491Y545916D01*
X355521Y545935D01*
X355555Y545970D01*
X355631Y546035D01*
X355911Y546315D01*
X355959Y546375D01*
X356014Y546428D01*
X356067Y546511D01*
X356128Y546588D01*
X356160Y546657D01*
X356202Y546721D01*
X356235Y546814D01*
X356277Y546903D01*
X356293Y546978D01*
X356318Y547050D01*
X356329Y547147D01*
X356350Y547243D01*
X356349Y547320D01*
X356357Y547396D01*
X356346Y547494D01*
X356344Y547592D01*
X356325Y547666D01*
X356323Y547684D01*
X356323Y552223D01*
X358025Y556331D01*
X361169Y559475D01*
X365277Y561177D01*
X369723Y561177D01*
X373831Y559475D01*
X376423Y556883D01*
X376443Y556867D01*
X376460Y556847D01*
X376580Y556759D01*
X376696Y556667D01*
X376720Y556656D01*
X376741Y556640D01*
X376877Y556581D01*
X377011Y556518D01*
X377037Y556512D01*
X377061Y556502D01*
X377207Y556476D01*
X377352Y556444D01*
X377378Y556445D01*
X377404Y556440D01*
X377552Y556448D01*
X377700Y556450D01*
X377726Y556457D01*
X377752Y556458D01*
X377894Y556499D01*
X378038Y556535D01*
X378061Y556547D01*
X378087Y556555D01*
X378216Y556627D01*
X378348Y556695D01*
X378368Y556712D01*
X378391Y556725D01*
X378577Y556883D01*
X381169Y559475D01*
X385277Y561177D01*
X389723Y561177D01*
X393831Y559475D01*
X396423Y556883D01*
X396443Y556867D01*
X396460Y556847D01*
X396580Y556759D01*
X396696Y556667D01*
X396720Y556656D01*
X396741Y556640D01*
X396877Y556581D01*
X397011Y556518D01*
X397037Y556512D01*
X397061Y556502D01*
X397207Y556476D01*
X397352Y556444D01*
X397378Y556445D01*
X397404Y556440D01*
X397552Y556448D01*
X397700Y556450D01*
X397726Y556457D01*
X397752Y556458D01*
X397894Y556499D01*
X398038Y556535D01*
X398061Y556547D01*
X398087Y556555D01*
X398216Y556627D01*
X398348Y556695D01*
X398368Y556712D01*
X398391Y556725D01*
X398577Y556883D01*
X401169Y559475D01*
X405277Y561177D01*
X409723Y561177D01*
X413831Y559475D01*
X416975Y556331D01*
X418677Y552223D01*
X418677Y549858D01*
X418691Y549732D01*
X418698Y549606D01*
X418711Y549560D01*
X418717Y549512D01*
X418759Y549393D01*
X418794Y549271D01*
X418818Y549229D01*
X418834Y549184D01*
X418903Y549077D01*
X418964Y548967D01*
X419004Y548921D01*
X419023Y548891D01*
X419058Y548857D01*
X419123Y548781D01*
X421869Y546035D01*
X421968Y545956D01*
X422062Y545872D01*
X422104Y545848D01*
X422142Y545818D01*
X422256Y545764D01*
X422367Y545703D01*
X422413Y545690D01*
X422457Y545669D01*
X422580Y545643D01*
X422702Y545608D01*
X422763Y545603D01*
X422798Y545596D01*
X422846Y545597D01*
X422946Y545589D01*
X501112Y545589D01*
X503166Y544738D01*
X621869Y426035D01*
X621968Y425956D01*
X622062Y425872D01*
X622104Y425848D01*
X622142Y425818D01*
X622256Y425764D01*
X622367Y425703D01*
X622413Y425690D01*
X622457Y425669D01*
X622580Y425643D01*
X622702Y425608D01*
X622763Y425603D01*
X622798Y425596D01*
X622846Y425597D01*
X622946Y425589D01*
X907054Y425589D01*
X907180Y425603D01*
X907306Y425610D01*
X907352Y425623D01*
X907400Y425629D01*
X907519Y425671D01*
X907641Y425706D01*
X907683Y425730D01*
X907728Y425746D01*
X907835Y425815D01*
X907945Y425876D01*
X907991Y425916D01*
X908021Y425935D01*
X908055Y425970D01*
X908131Y426035D01*
X1006834Y524738D01*
X1008888Y525589D01*
X1087054Y525589D01*
X1087180Y525603D01*
X1087306Y525610D01*
X1087352Y525623D01*
X1087400Y525629D01*
X1087519Y525671D01*
X1087641Y525706D01*
X1087683Y525730D01*
X1087728Y525746D01*
X1087835Y525815D01*
X1087945Y525876D01*
X1087991Y525916D01*
X1088021Y525935D01*
X1088055Y525970D01*
X1088131Y526035D01*
X1131834Y569738D01*
X1133888Y570589D01*
X1168780Y570589D01*
X1168856Y570597D01*
X1168932Y570596D01*
X1169028Y570617D01*
X1169126Y570629D01*
X1169198Y570654D01*
X1169273Y570671D01*
X1169361Y570713D01*
X1169454Y570746D01*
X1169518Y570788D01*
X1169587Y570820D01*
X1169664Y570882D01*
X1169747Y570935D01*
X1169800Y570990D01*
X1169860Y571038D01*
X1169921Y571115D01*
X1169989Y571186D01*
X1170028Y571251D01*
X1170076Y571311D01*
X1170143Y571444D01*
X1170168Y571485D01*
X1170174Y571503D01*
X1170187Y571529D01*
X1170196Y571551D01*
X1173449Y574804D01*
X1173471Y574813D01*
X1173538Y574850D01*
X1173609Y574878D01*
X1173689Y574935D01*
X1173775Y574982D01*
X1173832Y575034D01*
X1173895Y575077D01*
X1173961Y575150D01*
X1174034Y575216D01*
X1174077Y575279D01*
X1174128Y575336D01*
X1174176Y575422D01*
X1174232Y575503D01*
X1174260Y575574D01*
X1174297Y575641D01*
X1174324Y575736D01*
X1174360Y575827D01*
X1174371Y575903D01*
X1174392Y575977D01*
X1174404Y576126D01*
X1174410Y576172D01*
X1174409Y576191D01*
X1174411Y576220D01*
X1174411Y591431D01*
X1174397Y591557D01*
X1174390Y591683D01*
X1174377Y591729D01*
X1174371Y591777D01*
X1174329Y591896D01*
X1174294Y592018D01*
X1174270Y592060D01*
X1174254Y592106D01*
X1174185Y592212D01*
X1174124Y592322D01*
X1174084Y592368D01*
X1174065Y592398D01*
X1174030Y592432D01*
X1173965Y592508D01*
X1171891Y594582D01*
X1170435Y598097D01*
X1170435Y601903D01*
X1171891Y605418D01*
X1172950Y606477D01*
X1173013Y606556D01*
X1173083Y606628D01*
X1173121Y606692D01*
X1173167Y606750D01*
X1173210Y606841D01*
X1173261Y606927D01*
X1173284Y606998D01*
X1173316Y607065D01*
X1173337Y607163D01*
X1173368Y607259D01*
X1173374Y607333D01*
X1173389Y607406D01*
X1173388Y607506D01*
X1173396Y607606D01*
X1173385Y607680D01*
X1173383Y607754D01*
X1173359Y607851D01*
X1173344Y607951D01*
X1173316Y608020D01*
X1173298Y608092D01*
X1173252Y608181D01*
X1173215Y608275D01*
X1173173Y608336D01*
X1173139Y608402D01*
X1173074Y608478D01*
X1173016Y608561D01*
X1172961Y608611D01*
X1172913Y608667D01*
X1172832Y608727D01*
X1172757Y608794D01*
X1172692Y608830D01*
X1172633Y608875D01*
X1172540Y608914D01*
X1172452Y608963D01*
X1172381Y608983D01*
X1172313Y609013D01*
X1172214Y609030D01*
X1172117Y609058D01*
X1172017Y609066D01*
X1171970Y609074D01*
X1171934Y609072D01*
X1171873Y609077D01*
X1108127Y609077D01*
X1108027Y609066D01*
X1107927Y609064D01*
X1107854Y609046D01*
X1107781Y609037D01*
X1107686Y609004D01*
X1107589Y608979D01*
X1107522Y608945D01*
X1107452Y608920D01*
X1107368Y608865D01*
X1107279Y608819D01*
X1107222Y608771D01*
X1107160Y608731D01*
X1107090Y608659D01*
X1107013Y608594D01*
X1106969Y608534D01*
X1106917Y608480D01*
X1106866Y608394D01*
X1106806Y608313D01*
X1106777Y608245D01*
X1106739Y608181D01*
X1106708Y608085D01*
X1106668Y607993D01*
X1106655Y607920D01*
X1106632Y607849D01*
X1106624Y607749D01*
X1106607Y607650D01*
X1106610Y607576D01*
X1106604Y607502D01*
X1106619Y607402D01*
X1106624Y607302D01*
X1106645Y607231D01*
X1106656Y607157D01*
X1106693Y607064D01*
X1106721Y606967D01*
X1106757Y606902D01*
X1106785Y606833D01*
X1106842Y606751D01*
X1106891Y606663D01*
X1106956Y606587D01*
X1106984Y606547D01*
X1107010Y606523D01*
X1107050Y606477D01*
X1108109Y605418D01*
X1109565Y601903D01*
X1109565Y598097D01*
X1108109Y594582D01*
X1106035Y592508D01*
X1105956Y592409D01*
X1105872Y592315D01*
X1105848Y592273D01*
X1105818Y592235D01*
X1105764Y592121D01*
X1105703Y592010D01*
X1105690Y591964D01*
X1105669Y591920D01*
X1105643Y591797D01*
X1105608Y591675D01*
X1105603Y591614D01*
X1105596Y591580D01*
X1105597Y591531D01*
X1105589Y591431D01*
X1105589Y576220D01*
X1105597Y576145D01*
X1105596Y576068D01*
X1105617Y575972D01*
X1105629Y575874D01*
X1105654Y575802D01*
X1105671Y575728D01*
X1105713Y575639D01*
X1105746Y575546D01*
X1105788Y575482D01*
X1105820Y575413D01*
X1105882Y575336D01*
X1105935Y575253D01*
X1105990Y575200D01*
X1106038Y575140D01*
X1106115Y575080D01*
X1106186Y575011D01*
X1106251Y574972D01*
X1106311Y574925D01*
X1106444Y574856D01*
X1106485Y574832D01*
X1106503Y574826D01*
X1106529Y574813D01*
X1106551Y574804D01*
X1109804Y571551D01*
X1111565Y567300D01*
X1111565Y562700D01*
X1109804Y558449D01*
X1106551Y555196D01*
X1102300Y553435D01*
X1101970Y553435D01*
X1101844Y553421D01*
X1101718Y553414D01*
X1101672Y553401D01*
X1101624Y553395D01*
X1101505Y553353D01*
X1101383Y553318D01*
X1101341Y553294D01*
X1101296Y553278D01*
X1101189Y553209D01*
X1101079Y553148D01*
X1101033Y553108D01*
X1101003Y553089D01*
X1100969Y553054D01*
X1100893Y552989D01*
X1083166Y535262D01*
X1081112Y534411D01*
X1028888Y534411D01*
X1026834Y535262D01*
X1008131Y553965D01*
X1008032Y554044D01*
X1007938Y554128D01*
X1007896Y554152D01*
X1007858Y554182D01*
X1007744Y554236D01*
X1007633Y554297D01*
X1007587Y554310D01*
X1007543Y554331D01*
X1007420Y554357D01*
X1007298Y554392D01*
X1007237Y554397D01*
X1007202Y554404D01*
X1007154Y554403D01*
X1007054Y554411D01*
X873188Y554411D01*
X871134Y555262D01*
X851657Y574739D01*
X851597Y574786D01*
X851544Y574841D01*
X851461Y574895D01*
X851384Y574956D01*
X851315Y574988D01*
X851251Y575030D01*
X851158Y575063D01*
X851069Y575105D01*
X850995Y575121D01*
X850922Y575146D01*
X850824Y575157D01*
X850728Y575178D01*
X850652Y575177D01*
X850576Y575185D01*
X850478Y575174D01*
X850380Y575172D01*
X850306Y575153D01*
X850230Y575144D01*
X850088Y575099D01*
X850042Y575087D01*
X850025Y575078D01*
X849997Y575069D01*
X849476Y574853D01*
X844524Y574853D01*
X839949Y576748D01*
X836448Y580249D01*
X834553Y584824D01*
X834553Y589776D01*
X836448Y594351D01*
X839949Y597852D01*
X844524Y599747D01*
X849476Y599747D01*
X854051Y597852D01*
X857552Y594351D01*
X858293Y592562D01*
X858341Y592474D01*
X858381Y592382D01*
X858426Y592322D01*
X858462Y592257D01*
X858529Y592183D01*
X858589Y592102D01*
X858646Y592054D01*
X858696Y591999D01*
X858779Y591942D01*
X858855Y591877D01*
X858922Y591843D01*
X858983Y591801D01*
X859076Y591764D01*
X859166Y591718D01*
X859238Y591700D01*
X859307Y591673D01*
X859406Y591658D01*
X859504Y591634D01*
X859578Y591633D01*
X859652Y591622D01*
X859752Y591631D01*
X859852Y591629D01*
X859925Y591645D01*
X859999Y591651D01*
X860095Y591682D01*
X860193Y591703D01*
X860260Y591735D01*
X860331Y591758D01*
X860417Y591810D01*
X860508Y591853D01*
X860566Y591900D01*
X860629Y591938D01*
X860702Y592008D01*
X860780Y592071D01*
X860826Y592129D01*
X860879Y592181D01*
X860934Y592265D01*
X860996Y592344D01*
X861042Y592434D01*
X861068Y592474D01*
X861080Y592508D01*
X861107Y592562D01*
X861848Y594351D01*
X865349Y597852D01*
X869924Y599747D01*
X874876Y599747D01*
X879451Y597852D01*
X882952Y594351D01*
X883693Y592562D01*
X883741Y592474D01*
X883781Y592382D01*
X883826Y592322D01*
X883862Y592257D01*
X883929Y592183D01*
X883989Y592102D01*
X884046Y592054D01*
X884096Y591999D01*
X884179Y591942D01*
X884255Y591877D01*
X884322Y591843D01*
X884383Y591801D01*
X884476Y591764D01*
X884566Y591718D01*
X884638Y591700D01*
X884707Y591673D01*
X884806Y591658D01*
X884904Y591634D01*
X884978Y591633D01*
X885052Y591622D01*
X885152Y591631D01*
X885252Y591629D01*
X885325Y591645D01*
X885399Y591651D01*
X885495Y591682D01*
X885593Y591703D01*
X885660Y591735D01*
X885731Y591758D01*
X885817Y591810D01*
X885908Y591853D01*
X885966Y591900D01*
X886029Y591938D01*
X886102Y592008D01*
X886180Y592071D01*
X886226Y592129D01*
X886279Y592181D01*
X886334Y592265D01*
X886396Y592344D01*
X886442Y592434D01*
X886468Y592474D01*
X886480Y592508D01*
X886507Y592562D01*
X887248Y594351D01*
X890749Y597852D01*
X895324Y599747D01*
X900276Y599747D01*
X904851Y597852D01*
X908352Y594351D01*
X910247Y589776D01*
X910247Y586912D01*
X910250Y586886D01*
X910248Y586860D01*
X910270Y586713D01*
X910287Y586566D01*
X910295Y586541D01*
X910299Y586515D01*
X910354Y586377D01*
X910404Y586238D01*
X910418Y586216D01*
X910428Y586191D01*
X910513Y586070D01*
X910593Y585945D01*
X910612Y585927D01*
X910627Y585905D01*
X910737Y585806D01*
X910844Y585703D01*
X910866Y585689D01*
X910886Y585672D01*
X911016Y585600D01*
X911143Y585524D01*
X911168Y585516D01*
X911191Y585503D01*
X911334Y585463D01*
X911475Y585418D01*
X911501Y585416D01*
X911526Y585408D01*
X911770Y585389D01*
X1031312Y585389D01*
X1033366Y584538D01*
X1041811Y576093D01*
X1041889Y576030D01*
X1041962Y575961D01*
X1042026Y575922D01*
X1042084Y575876D01*
X1042175Y575833D01*
X1042261Y575782D01*
X1042332Y575759D01*
X1042399Y575727D01*
X1042497Y575706D01*
X1042593Y575675D01*
X1042667Y575669D01*
X1042740Y575654D01*
X1042840Y575656D01*
X1042940Y575647D01*
X1043014Y575659D01*
X1043088Y575660D01*
X1043185Y575684D01*
X1043285Y575699D01*
X1043354Y575727D01*
X1043426Y575745D01*
X1043516Y575791D01*
X1043609Y575828D01*
X1043670Y575870D01*
X1043736Y575904D01*
X1043813Y575970D01*
X1043895Y576027D01*
X1043945Y576082D01*
X1044001Y576130D01*
X1044061Y576211D01*
X1044128Y576286D01*
X1044164Y576351D01*
X1044209Y576411D01*
X1044248Y576503D01*
X1044297Y576591D01*
X1044317Y576662D01*
X1044347Y576731D01*
X1044364Y576829D01*
X1044392Y576926D01*
X1044400Y577026D01*
X1044408Y577074D01*
X1044406Y577109D01*
X1044411Y577170D01*
X1044411Y591431D01*
X1044397Y591557D01*
X1044390Y591683D01*
X1044377Y591729D01*
X1044371Y591777D01*
X1044329Y591896D01*
X1044294Y592018D01*
X1044270Y592060D01*
X1044254Y592106D01*
X1044185Y592212D01*
X1044124Y592322D01*
X1044084Y592368D01*
X1044065Y592398D01*
X1044030Y592432D01*
X1043965Y592508D01*
X1041891Y594582D01*
X1040435Y598097D01*
X1040435Y601903D01*
X1041891Y605418D01*
X1042950Y606477D01*
X1043013Y606556D01*
X1043083Y606628D01*
X1043121Y606692D01*
X1043167Y606750D01*
X1043210Y606841D01*
X1043261Y606927D01*
X1043284Y606998D01*
X1043316Y607065D01*
X1043337Y607163D01*
X1043368Y607259D01*
X1043374Y607333D01*
X1043389Y607406D01*
X1043388Y607506D01*
X1043396Y607606D01*
X1043385Y607680D01*
X1043383Y607754D01*
X1043359Y607851D01*
X1043344Y607951D01*
X1043316Y608020D01*
X1043298Y608092D01*
X1043252Y608181D01*
X1043215Y608275D01*
X1043173Y608336D01*
X1043139Y608402D01*
X1043074Y608478D01*
X1043016Y608561D01*
X1042961Y608611D01*
X1042913Y608667D01*
X1042832Y608727D01*
X1042757Y608794D01*
X1042692Y608830D01*
X1042633Y608875D01*
X1042540Y608914D01*
X1042452Y608963D01*
X1042381Y608983D01*
X1042313Y609013D01*
X1042214Y609030D01*
X1042117Y609058D01*
X1042017Y609066D01*
X1041970Y609074D01*
X1041934Y609072D01*
X1041873Y609077D01*
X822446Y609077D01*
X822420Y609074D01*
X822394Y609076D01*
X822247Y609054D01*
X822100Y609037D01*
X822075Y609029D01*
X822049Y609025D01*
X821911Y608970D01*
X821772Y608920D01*
X821750Y608906D01*
X821725Y608896D01*
X821604Y608811D01*
X821479Y608731D01*
X821461Y608712D01*
X821439Y608697D01*
X821340Y608587D01*
X821237Y608480D01*
X821223Y608458D01*
X821206Y608438D01*
X821134Y608308D01*
X821058Y608181D01*
X821050Y608156D01*
X821037Y608133D01*
X820997Y607990D01*
X820952Y607849D01*
X820950Y607823D01*
X820942Y607798D01*
X820923Y607554D01*
X820923Y437827D01*
X819260Y433813D01*
X816187Y430740D01*
X812173Y429077D01*
X727827Y429077D01*
X723813Y430740D01*
X720740Y433813D01*
X719077Y437827D01*
X719077Y607554D01*
X719074Y607580D01*
X719076Y607606D01*
X719054Y607753D01*
X719037Y607900D01*
X719029Y607925D01*
X719025Y607951D01*
X718970Y608089D01*
X718920Y608228D01*
X718906Y608250D01*
X718896Y608275D01*
X718811Y608396D01*
X718731Y608521D01*
X718712Y608539D01*
X718697Y608561D01*
X718587Y608660D01*
X718480Y608763D01*
X718458Y608777D01*
X718438Y608794D01*
X718308Y608866D01*
X718181Y608942D01*
X718156Y608950D01*
X718133Y608963D01*
X717990Y609003D01*
X717849Y609048D01*
X717823Y609050D01*
X717798Y609058D01*
X717554Y609077D01*
X100000Y609077D01*
X99974Y609074D01*
X99934Y609076D01*
X92303Y608743D01*
X92257Y608735D01*
X92105Y608721D01*
X77075Y606071D01*
X77065Y606068D01*
X77054Y606067D01*
X76818Y606002D01*
X62477Y600782D01*
X62468Y600778D01*
X62457Y600775D01*
X62236Y600670D01*
X49019Y593039D01*
X49011Y593033D01*
X49001Y593029D01*
X48802Y592887D01*
X37111Y583077D01*
X37104Y583069D01*
X37095Y583063D01*
X36923Y582889D01*
X27113Y571198D01*
X27107Y571189D01*
X27100Y571182D01*
X26961Y570981D01*
X19330Y557764D01*
X19326Y557754D01*
X19320Y557745D01*
X19218Y557523D01*
X13998Y543182D01*
X13996Y543171D01*
X13991Y543162D01*
X13929Y542925D01*
X11279Y527895D01*
X11276Y527849D01*
X11257Y527697D01*
X10924Y520066D01*
X10926Y520041D01*
X10923Y520000D01*
X10923Y100000D01*
X10926Y99974D01*
X10924Y99934D01*
X11257Y92303D01*
X11265Y92257D01*
X11279Y92105D01*
X13929Y77075D01*
X13932Y77065D01*
X13933Y77054D01*
X13998Y76818D01*
X19218Y62477D01*
X19222Y62468D01*
X19225Y62457D01*
X19330Y62236D01*
X26961Y49019D01*
X26967Y49011D01*
X26971Y49001D01*
X27113Y48802D01*
X36923Y37111D01*
X36931Y37104D01*
X36937Y37095D01*
X37111Y36923D01*
X48802Y27113D01*
X48811Y27107D01*
X48818Y27100D01*
X49019Y26961D01*
X62236Y19330D01*
X62246Y19326D01*
X62255Y19320D01*
X62477Y19218D01*
X76818Y13998D01*
X76829Y13996D01*
X76838Y13991D01*
X77075Y13929D01*
X92105Y11279D01*
X92151Y11276D01*
X92303Y11257D01*
X99933Y10924D01*
X99959Y10926D01*
X100000Y10923D01*
X1440000Y10923D01*
X1440026Y10926D01*
G37*
G36*
X420170Y207274D02*
X420170Y207274D01*
X420196Y207272D01*
X420343Y207294D01*
X420490Y207311D01*
X420515Y207320D01*
X420541Y207323D01*
X420679Y207378D01*
X420818Y207428D01*
X420840Y207442D01*
X420865Y207452D01*
X420986Y207537D01*
X421111Y207617D01*
X421129Y207636D01*
X421151Y207651D01*
X421250Y207761D01*
X421353Y207868D01*
X421367Y207890D01*
X421384Y207910D01*
X421456Y208040D01*
X421532Y208167D01*
X421540Y208192D01*
X421553Y208215D01*
X421593Y208358D01*
X421638Y208499D01*
X421640Y208525D01*
X421648Y208550D01*
X421667Y208794D01*
X421667Y218299D01*
X423008Y217863D01*
X424611Y217046D01*
X426067Y215989D01*
X427339Y214717D01*
X428396Y213261D01*
X429148Y211785D01*
X429171Y211751D01*
X429187Y211714D01*
X429267Y211606D01*
X429341Y211495D01*
X429371Y211467D01*
X429395Y211434D01*
X429497Y211348D01*
X429595Y211256D01*
X429630Y211235D01*
X429661Y211209D01*
X429780Y211148D01*
X429896Y211081D01*
X429935Y211069D01*
X429971Y211050D01*
X430101Y211018D01*
X430229Y210978D01*
X430270Y210976D01*
X430310Y210966D01*
X430444Y210964D01*
X430577Y210955D01*
X430617Y210961D01*
X430658Y210961D01*
X430789Y210989D01*
X430921Y211011D01*
X430959Y211026D01*
X430999Y211035D01*
X431119Y211093D01*
X431243Y211144D01*
X431277Y211167D01*
X431313Y211185D01*
X431418Y211268D01*
X431527Y211346D01*
X431554Y211377D01*
X431586Y211402D01*
X431669Y211507D01*
X431757Y211608D01*
X431776Y211644D01*
X431802Y211676D01*
X431913Y211894D01*
X433038Y214608D01*
X436682Y218252D01*
X441443Y220225D01*
X446597Y220225D01*
X451358Y218252D01*
X455002Y214608D01*
X455313Y213859D01*
X455361Y213772D01*
X455401Y213679D01*
X455446Y213620D01*
X455482Y213555D01*
X455549Y213480D01*
X455609Y213400D01*
X455666Y213352D01*
X455716Y213297D01*
X455799Y213240D01*
X455875Y213175D01*
X455942Y213141D01*
X456003Y213098D01*
X456096Y213062D01*
X456186Y213016D01*
X456258Y212998D01*
X456327Y212971D01*
X456427Y212956D01*
X456524Y212932D01*
X456598Y212931D01*
X456672Y212920D01*
X456772Y212928D01*
X456872Y212927D01*
X456945Y212943D01*
X457019Y212949D01*
X457115Y212980D01*
X457213Y213001D01*
X457280Y213033D01*
X457351Y213056D01*
X457437Y213108D01*
X457528Y213151D01*
X457586Y213197D01*
X457649Y213235D01*
X457721Y213305D01*
X457800Y213368D01*
X457846Y213426D01*
X457899Y213478D01*
X457954Y213563D01*
X458016Y213642D01*
X458062Y213731D01*
X458088Y213772D01*
X458100Y213805D01*
X458127Y213859D01*
X458438Y214608D01*
X462082Y218252D01*
X462891Y218588D01*
X462958Y218625D01*
X463029Y218653D01*
X463109Y218709D01*
X463196Y218757D01*
X463252Y218808D01*
X463315Y218852D01*
X463381Y218925D01*
X463454Y218991D01*
X463497Y219054D01*
X463548Y219111D01*
X463596Y219197D01*
X463652Y219278D01*
X463680Y219349D01*
X463717Y219416D01*
X463744Y219511D01*
X463780Y219602D01*
X463791Y219678D01*
X463812Y219751D01*
X463824Y219900D01*
X463831Y219947D01*
X463829Y219966D01*
X463831Y219995D01*
X463831Y234441D01*
X463817Y234566D01*
X463810Y234693D01*
X463797Y234739D01*
X463791Y234787D01*
X463749Y234906D01*
X463714Y235027D01*
X463690Y235070D01*
X463674Y235115D01*
X463605Y235221D01*
X463544Y235332D01*
X463504Y235378D01*
X463485Y235408D01*
X463450Y235441D01*
X463385Y235518D01*
X463348Y235555D01*
X462153Y238439D01*
X462153Y241561D01*
X463348Y244445D01*
X465555Y246652D01*
X468439Y247847D01*
X471561Y247847D01*
X474445Y246652D01*
X476652Y244445D01*
X477847Y241561D01*
X477847Y238439D01*
X476652Y235555D01*
X475455Y234358D01*
X475387Y234272D01*
X475359Y234243D01*
X475353Y234233D01*
X475292Y234165D01*
X475268Y234123D01*
X475238Y234085D01*
X475184Y233971D01*
X475123Y233860D01*
X475110Y233813D01*
X475089Y233770D01*
X475063Y233646D01*
X475028Y233525D01*
X475023Y233464D01*
X475016Y233429D01*
X475017Y233381D01*
X475009Y233281D01*
X475009Y219995D01*
X475017Y219919D01*
X475016Y219843D01*
X475037Y219746D01*
X475049Y219649D01*
X475074Y219577D01*
X475091Y219502D01*
X475133Y219413D01*
X475166Y219321D01*
X475208Y219256D01*
X475240Y219187D01*
X475302Y219111D01*
X475355Y219028D01*
X475410Y218975D01*
X475458Y218915D01*
X475535Y218854D01*
X475606Y218786D01*
X475671Y218746D01*
X475731Y218699D01*
X475864Y218631D01*
X475905Y218607D01*
X475923Y218601D01*
X475949Y218588D01*
X476758Y218252D01*
X480402Y214608D01*
X480713Y213859D01*
X480761Y213772D01*
X480801Y213679D01*
X480846Y213620D01*
X480882Y213555D01*
X480949Y213480D01*
X481009Y213400D01*
X481066Y213352D01*
X481116Y213297D01*
X481199Y213240D01*
X481275Y213175D01*
X481342Y213141D01*
X481403Y213098D01*
X481496Y213062D01*
X481586Y213016D01*
X481658Y212998D01*
X481727Y212971D01*
X481827Y212956D01*
X481924Y212932D01*
X481998Y212931D01*
X482072Y212920D01*
X482172Y212928D01*
X482272Y212927D01*
X482345Y212943D01*
X482419Y212949D01*
X482515Y212980D01*
X482613Y213001D01*
X482680Y213033D01*
X482751Y213056D01*
X482837Y213108D01*
X482928Y213151D01*
X482986Y213197D01*
X483049Y213235D01*
X483121Y213305D01*
X483200Y213368D01*
X483246Y213426D01*
X483299Y213478D01*
X483354Y213563D01*
X483416Y213642D01*
X483462Y213731D01*
X483488Y213772D01*
X483500Y213805D01*
X483527Y213859D01*
X483838Y214608D01*
X487482Y218252D01*
X488291Y218588D01*
X488358Y218625D01*
X488429Y218653D01*
X488509Y218709D01*
X488596Y218757D01*
X488652Y218808D01*
X488715Y218852D01*
X488781Y218925D01*
X488854Y218991D01*
X488897Y219054D01*
X488948Y219111D01*
X488996Y219197D01*
X489052Y219278D01*
X489080Y219349D01*
X489117Y219416D01*
X489144Y219511D01*
X489180Y219602D01*
X489191Y219678D01*
X489212Y219751D01*
X489224Y219900D01*
X489231Y219947D01*
X489229Y219966D01*
X489231Y219995D01*
X489231Y522234D01*
X489217Y522360D01*
X489210Y522486D01*
X489197Y522532D01*
X489191Y522580D01*
X489149Y522699D01*
X489114Y522821D01*
X489090Y522863D01*
X489074Y522908D01*
X489005Y523015D01*
X488944Y523125D01*
X488904Y523171D01*
X488885Y523201D01*
X488850Y523235D01*
X488785Y523311D01*
X488131Y523965D01*
X488032Y524044D01*
X487938Y524128D01*
X487896Y524152D01*
X487858Y524182D01*
X487744Y524236D01*
X487633Y524297D01*
X487587Y524310D01*
X487543Y524331D01*
X487420Y524357D01*
X487298Y524392D01*
X487237Y524397D01*
X487202Y524404D01*
X487154Y524403D01*
X487054Y524411D01*
X278888Y524411D01*
X276834Y525262D01*
X270165Y531931D01*
X270087Y531994D01*
X270014Y532063D01*
X269950Y532102D01*
X269892Y532148D01*
X269801Y532191D01*
X269715Y532242D01*
X269644Y532265D01*
X269577Y532297D01*
X269479Y532318D01*
X269383Y532349D01*
X269309Y532355D01*
X269236Y532370D01*
X269136Y532368D01*
X269036Y532377D01*
X268962Y532365D01*
X268888Y532364D01*
X268791Y532340D01*
X268691Y532325D01*
X268622Y532297D01*
X268550Y532279D01*
X268460Y532233D01*
X268367Y532196D01*
X268306Y532154D01*
X268240Y532120D01*
X268163Y532054D01*
X268081Y531997D01*
X268031Y531942D01*
X267975Y531894D01*
X267915Y531813D01*
X267848Y531738D01*
X267812Y531673D01*
X267767Y531613D01*
X267728Y531521D01*
X267679Y531433D01*
X267659Y531362D01*
X267629Y531293D01*
X267612Y531195D01*
X267584Y531098D01*
X267576Y530998D01*
X267568Y530950D01*
X267570Y530915D01*
X267565Y530854D01*
X267565Y527003D01*
X265271Y521466D01*
X261034Y517229D01*
X255497Y514935D01*
X249503Y514935D01*
X243966Y517229D01*
X239729Y521466D01*
X237435Y527003D01*
X237435Y532997D01*
X239729Y538534D01*
X241030Y539835D01*
X241093Y539914D01*
X241162Y539986D01*
X241201Y540050D01*
X241247Y540108D01*
X241290Y540199D01*
X241341Y540285D01*
X241364Y540356D01*
X241396Y540423D01*
X241417Y540521D01*
X241447Y540617D01*
X241453Y540691D01*
X241469Y540764D01*
X241467Y540864D01*
X241475Y540964D01*
X241464Y541038D01*
X241463Y541112D01*
X241439Y541209D01*
X241424Y541309D01*
X241396Y541378D01*
X241378Y541450D01*
X241332Y541539D01*
X241295Y541633D01*
X241253Y541694D01*
X241218Y541760D01*
X241153Y541836D01*
X241096Y541919D01*
X241041Y541969D01*
X240993Y542025D01*
X240912Y542085D01*
X240837Y542152D01*
X240772Y542188D01*
X240712Y542233D01*
X240620Y542272D01*
X240532Y542321D01*
X240461Y542341D01*
X240392Y542371D01*
X240294Y542388D01*
X240197Y542416D01*
X240097Y542424D01*
X240049Y542432D01*
X240014Y542430D01*
X240012Y542431D01*
X235383Y544348D01*
X231848Y547883D01*
X229935Y552501D01*
X229935Y557499D01*
X231848Y562117D01*
X235383Y565652D01*
X240001Y567565D01*
X244999Y567565D01*
X249617Y565652D01*
X253152Y562117D01*
X253396Y561529D01*
X253433Y561462D01*
X253461Y561391D01*
X253517Y561310D01*
X253565Y561224D01*
X253616Y561168D01*
X253660Y561105D01*
X253733Y561039D01*
X253799Y560966D01*
X253862Y560923D01*
X253919Y560872D01*
X254005Y560824D01*
X254086Y560768D01*
X254157Y560740D01*
X254224Y560703D01*
X254318Y560676D01*
X254410Y560640D01*
X254485Y560629D01*
X254559Y560608D01*
X254708Y560596D01*
X254755Y560589D01*
X254774Y560591D01*
X254803Y560589D01*
X256112Y560589D01*
X258248Y559704D01*
X258297Y559690D01*
X258342Y559668D01*
X258463Y559642D01*
X258583Y559608D01*
X258634Y559606D01*
X258683Y559595D01*
X258807Y559597D01*
X258931Y559591D01*
X258981Y559600D01*
X259031Y559601D01*
X259152Y559631D01*
X259274Y559654D01*
X259320Y559674D01*
X259369Y559686D01*
X259480Y559743D01*
X259594Y559793D01*
X259634Y559823D01*
X259679Y559846D01*
X259774Y559926D01*
X259874Y560000D01*
X259906Y560039D01*
X259944Y560072D01*
X260018Y560172D01*
X260099Y560266D01*
X260122Y560311D01*
X260152Y560352D01*
X260201Y560466D01*
X260258Y560577D01*
X260270Y560626D01*
X260290Y560672D01*
X260312Y560794D01*
X260342Y560915D01*
X260342Y560965D01*
X260351Y561015D01*
X260345Y561139D01*
X260347Y561263D01*
X260336Y561313D01*
X260333Y561363D01*
X260299Y561482D01*
X260272Y561604D01*
X260251Y561649D01*
X260237Y561698D01*
X260176Y561806D01*
X260123Y561919D01*
X260091Y561958D01*
X260067Y562002D01*
X259908Y562188D01*
X248131Y573965D01*
X248032Y574044D01*
X247938Y574128D01*
X247896Y574152D01*
X247858Y574182D01*
X247744Y574236D01*
X247633Y574297D01*
X247587Y574310D01*
X247543Y574331D01*
X247420Y574357D01*
X247298Y574392D01*
X247237Y574397D01*
X247202Y574404D01*
X247154Y574403D01*
X247054Y574411D01*
X230446Y574411D01*
X230320Y574397D01*
X230194Y574390D01*
X230148Y574377D01*
X230100Y574371D01*
X229981Y574329D01*
X229859Y574294D01*
X229817Y574270D01*
X229772Y574254D01*
X229665Y574185D01*
X229555Y574124D01*
X229509Y574084D01*
X229479Y574065D01*
X229445Y574030D01*
X229369Y573965D01*
X223535Y568131D01*
X223456Y568032D01*
X223372Y567938D01*
X223348Y567896D01*
X223318Y567858D01*
X223264Y567744D01*
X223203Y567633D01*
X223190Y567587D01*
X223169Y567543D01*
X223143Y567420D01*
X223108Y567298D01*
X223103Y567237D01*
X223096Y567202D01*
X223097Y567154D01*
X223089Y567054D01*
X223089Y287112D01*
X223092Y287086D01*
X223090Y287060D01*
X223112Y286913D01*
X223129Y286766D01*
X223137Y286741D01*
X223141Y286715D01*
X223196Y286577D01*
X223246Y286438D01*
X223260Y286416D01*
X223270Y286391D01*
X223355Y286270D01*
X223435Y286145D01*
X223454Y286127D01*
X223469Y286105D01*
X223579Y286006D01*
X223686Y285903D01*
X223708Y285889D01*
X223728Y285872D01*
X223858Y285800D01*
X223985Y285724D01*
X224010Y285716D01*
X224033Y285703D01*
X224176Y285663D01*
X224317Y285618D01*
X224343Y285616D01*
X224368Y285608D01*
X224612Y285589D01*
X327054Y285589D01*
X327180Y285603D01*
X327306Y285610D01*
X327352Y285623D01*
X327400Y285629D01*
X327519Y285671D01*
X327641Y285706D01*
X327683Y285730D01*
X327728Y285746D01*
X327835Y285815D01*
X327945Y285876D01*
X327991Y285916D01*
X328021Y285935D01*
X328055Y285970D01*
X328131Y286035D01*
X351707Y309611D01*
X351786Y309710D01*
X351870Y309804D01*
X351894Y309846D01*
X351924Y309884D01*
X351978Y309998D01*
X352039Y310109D01*
X352052Y310155D01*
X352073Y310199D01*
X352099Y310322D01*
X352134Y310444D01*
X352139Y310505D01*
X352146Y310540D01*
X352145Y310588D01*
X352153Y310688D01*
X352153Y311561D01*
X353348Y314445D01*
X355555Y316652D01*
X358439Y317847D01*
X361561Y317847D01*
X364445Y316652D01*
X366652Y314445D01*
X367847Y311561D01*
X367847Y309428D01*
X367858Y309328D01*
X367860Y309228D01*
X367878Y309156D01*
X367887Y309082D01*
X367920Y308987D01*
X367945Y308890D01*
X367979Y308824D01*
X368004Y308754D01*
X368059Y308669D01*
X368105Y308580D01*
X368153Y308523D01*
X368193Y308461D01*
X368265Y308391D01*
X368330Y308314D01*
X368390Y308270D01*
X368444Y308219D01*
X368530Y308167D01*
X368611Y308107D01*
X368679Y308078D01*
X368743Y308040D01*
X368839Y308009D01*
X368931Y307969D01*
X369004Y307956D01*
X369075Y307933D01*
X369175Y307925D01*
X369274Y307908D01*
X369348Y307911D01*
X369422Y307905D01*
X369522Y307920D01*
X369622Y307926D01*
X369693Y307946D01*
X369767Y307957D01*
X369860Y307994D01*
X369957Y308022D01*
X370022Y308058D01*
X370091Y308086D01*
X370173Y308143D01*
X370261Y308192D01*
X370337Y308257D01*
X370377Y308285D01*
X370401Y308311D01*
X370447Y308351D01*
X393965Y331869D01*
X394044Y331968D01*
X394128Y332062D01*
X394152Y332104D01*
X394182Y332142D01*
X394236Y332256D01*
X394297Y332367D01*
X394310Y332413D01*
X394331Y332457D01*
X394357Y332580D01*
X394392Y332702D01*
X394397Y332763D01*
X394404Y332798D01*
X394403Y332846D01*
X394411Y332946D01*
X394411Y343861D01*
X394397Y343986D01*
X394390Y344113D01*
X394377Y344159D01*
X394371Y344207D01*
X394329Y344326D01*
X394294Y344447D01*
X394270Y344490D01*
X394254Y344535D01*
X394185Y344641D01*
X394124Y344752D01*
X394084Y344798D01*
X394065Y344828D01*
X394030Y344861D01*
X393965Y344938D01*
X393348Y345555D01*
X392153Y348439D01*
X392153Y351561D01*
X393348Y354445D01*
X395555Y356652D01*
X398439Y357847D01*
X401561Y357847D01*
X404445Y356652D01*
X406652Y354445D01*
X407847Y351561D01*
X407847Y348439D01*
X406652Y345555D01*
X406180Y345083D01*
X406149Y345043D01*
X406111Y345010D01*
X406040Y344907D01*
X405963Y344810D01*
X405942Y344764D01*
X405913Y344723D01*
X405867Y344607D01*
X405814Y344495D01*
X405804Y344445D01*
X405785Y344399D01*
X405767Y344276D01*
X405741Y344154D01*
X405742Y344104D01*
X405734Y344054D01*
X405745Y343930D01*
X405747Y343806D01*
X405759Y343757D01*
X405763Y343707D01*
X405802Y343588D01*
X405832Y343468D01*
X405855Y343423D01*
X405870Y343375D01*
X405934Y343269D01*
X405991Y343158D01*
X406024Y343119D01*
X406050Y343076D01*
X406137Y342987D01*
X406217Y342892D01*
X406258Y342862D01*
X406293Y342826D01*
X406398Y342759D01*
X406498Y342685D01*
X406544Y342665D01*
X406586Y342638D01*
X406703Y342596D01*
X406818Y342547D01*
X406867Y342538D01*
X406915Y342521D01*
X407038Y342508D01*
X407161Y342486D01*
X407211Y342488D01*
X407261Y342483D01*
X407384Y342497D01*
X407509Y342503D01*
X407557Y342517D01*
X407607Y342523D01*
X407840Y342598D01*
X408439Y342847D01*
X411561Y342847D01*
X414445Y341652D01*
X416652Y339445D01*
X417847Y336561D01*
X417847Y333439D01*
X416652Y330555D01*
X416180Y330083D01*
X416149Y330043D01*
X416111Y330010D01*
X416040Y329907D01*
X415963Y329810D01*
X415942Y329764D01*
X415913Y329723D01*
X415867Y329607D01*
X415814Y329495D01*
X415804Y329445D01*
X415785Y329399D01*
X415767Y329276D01*
X415741Y329154D01*
X415742Y329104D01*
X415734Y329054D01*
X415745Y328930D01*
X415747Y328806D01*
X415759Y328757D01*
X415763Y328707D01*
X415802Y328588D01*
X415832Y328468D01*
X415855Y328423D01*
X415870Y328375D01*
X415934Y328269D01*
X415991Y328158D01*
X416024Y328119D01*
X416050Y328076D01*
X416137Y327987D01*
X416217Y327892D01*
X416258Y327862D01*
X416293Y327826D01*
X416398Y327759D01*
X416498Y327685D01*
X416544Y327665D01*
X416586Y327638D01*
X416703Y327596D01*
X416818Y327547D01*
X416867Y327538D01*
X416915Y327521D01*
X417038Y327508D01*
X417161Y327486D01*
X417211Y327488D01*
X417261Y327483D01*
X417384Y327497D01*
X417509Y327503D01*
X417557Y327517D01*
X417607Y327523D01*
X417840Y327598D01*
X418439Y327847D01*
X421561Y327847D01*
X422305Y327538D01*
X422450Y327497D01*
X422593Y327451D01*
X422617Y327449D01*
X422640Y327443D01*
X422791Y327435D01*
X422940Y327423D01*
X422964Y327427D01*
X422988Y327426D01*
X423136Y327453D01*
X423285Y327475D01*
X423307Y327484D01*
X423331Y327488D01*
X423469Y327548D01*
X423609Y327604D01*
X423629Y327618D01*
X423651Y327627D01*
X423772Y327717D01*
X423895Y327803D01*
X423911Y327821D01*
X423931Y327835D01*
X424028Y327950D01*
X424128Y328062D01*
X424140Y328083D01*
X424156Y328101D01*
X424224Y328235D01*
X424297Y328367D01*
X424303Y328390D01*
X424314Y328411D01*
X424351Y328557D01*
X424392Y328702D01*
X424394Y328731D01*
X424399Y328750D01*
X424399Y328797D01*
X424411Y328946D01*
X424411Y373861D01*
X424397Y373986D01*
X424390Y374113D01*
X424377Y374159D01*
X424371Y374207D01*
X424329Y374326D01*
X424294Y374447D01*
X424270Y374490D01*
X424254Y374535D01*
X424185Y374641D01*
X424124Y374752D01*
X424084Y374798D01*
X424065Y374828D01*
X424030Y374861D01*
X423965Y374938D01*
X423348Y375555D01*
X422153Y378439D01*
X422153Y381561D01*
X423348Y384445D01*
X425555Y386652D01*
X428439Y387847D01*
X431561Y387847D01*
X434445Y386652D01*
X436652Y384445D01*
X437847Y381561D01*
X437847Y378439D01*
X436652Y375555D01*
X436035Y374938D01*
X435956Y374839D01*
X435872Y374745D01*
X435848Y374703D01*
X435818Y374665D01*
X435764Y374551D01*
X435703Y374440D01*
X435690Y374393D01*
X435669Y374350D01*
X435643Y374226D01*
X435608Y374105D01*
X435603Y374044D01*
X435596Y374009D01*
X435597Y373961D01*
X435589Y373861D01*
X435589Y368946D01*
X435606Y368797D01*
X435618Y368647D01*
X435626Y368623D01*
X435629Y368600D01*
X435679Y368458D01*
X435725Y368315D01*
X435738Y368294D01*
X435746Y368271D01*
X435828Y368145D01*
X435905Y368016D01*
X435922Y367999D01*
X435935Y367979D01*
X436043Y367874D01*
X436148Y367766D01*
X436168Y367753D01*
X436186Y367736D01*
X436315Y367659D01*
X436441Y367578D01*
X436464Y367570D01*
X436485Y367558D01*
X436628Y367512D01*
X436770Y367461D01*
X436794Y367459D01*
X436817Y367451D01*
X436966Y367439D01*
X437116Y367422D01*
X437140Y367425D01*
X437164Y367423D01*
X437313Y367446D01*
X437462Y367463D01*
X437490Y367472D01*
X437509Y367475D01*
X437553Y367493D01*
X437695Y367538D01*
X438439Y367847D01*
X441561Y367847D01*
X444445Y366652D01*
X446652Y364445D01*
X447847Y361561D01*
X447847Y358439D01*
X446652Y355555D01*
X446035Y354938D01*
X445956Y354839D01*
X445872Y354745D01*
X445848Y354703D01*
X445818Y354665D01*
X445764Y354551D01*
X445703Y354440D01*
X445690Y354393D01*
X445669Y354350D01*
X445643Y354226D01*
X445608Y354105D01*
X445603Y354044D01*
X445596Y354009D01*
X445597Y353961D01*
X445589Y353861D01*
X445589Y348946D01*
X445606Y348797D01*
X445618Y348647D01*
X445626Y348623D01*
X445629Y348600D01*
X445679Y348458D01*
X445725Y348315D01*
X445738Y348294D01*
X445746Y348271D01*
X445828Y348145D01*
X445905Y348016D01*
X445922Y347999D01*
X445935Y347979D01*
X446043Y347874D01*
X446148Y347766D01*
X446168Y347753D01*
X446186Y347736D01*
X446315Y347659D01*
X446441Y347578D01*
X446464Y347570D01*
X446485Y347558D01*
X446628Y347512D01*
X446770Y347461D01*
X446794Y347459D01*
X446817Y347451D01*
X446966Y347439D01*
X447116Y347422D01*
X447140Y347425D01*
X447164Y347423D01*
X447313Y347446D01*
X447462Y347463D01*
X447490Y347472D01*
X447509Y347475D01*
X447553Y347493D01*
X447695Y347538D01*
X448439Y347847D01*
X451561Y347847D01*
X454445Y346652D01*
X456652Y344445D01*
X457847Y341561D01*
X457847Y338439D01*
X456652Y335555D01*
X456035Y334938D01*
X455956Y334839D01*
X455872Y334745D01*
X455848Y334703D01*
X455818Y334665D01*
X455764Y334551D01*
X455734Y334495D01*
X455724Y334479D01*
X455723Y334476D01*
X455703Y334440D01*
X455690Y334393D01*
X455669Y334350D01*
X455643Y334226D01*
X455641Y334219D01*
X455618Y334147D01*
X455617Y334134D01*
X455608Y334105D01*
X455603Y334044D01*
X455596Y334009D01*
X455597Y333961D01*
X455589Y333861D01*
X455589Y278888D01*
X454738Y276834D01*
X411193Y233289D01*
X411114Y233190D01*
X411030Y233096D01*
X411006Y233054D01*
X410976Y233016D01*
X410922Y232902D01*
X410861Y232791D01*
X410848Y232745D01*
X410827Y232701D01*
X410801Y232578D01*
X410766Y232456D01*
X410761Y232395D01*
X410754Y232360D01*
X410755Y232312D01*
X410747Y232212D01*
X410747Y218573D01*
X410751Y218537D01*
X410748Y218502D01*
X410771Y218364D01*
X410787Y218227D01*
X410799Y218193D01*
X410804Y218158D01*
X410857Y218029D01*
X410904Y217899D01*
X410924Y217869D01*
X410937Y217835D01*
X411018Y217723D01*
X411093Y217606D01*
X411119Y217581D01*
X411140Y217552D01*
X411244Y217460D01*
X411344Y217364D01*
X411375Y217345D01*
X411402Y217322D01*
X411524Y217256D01*
X411643Y217185D01*
X411677Y217174D01*
X411709Y217157D01*
X411843Y217121D01*
X411975Y217079D01*
X412010Y217076D01*
X412045Y217066D01*
X412184Y217062D01*
X412322Y217051D01*
X412358Y217056D01*
X412394Y217055D01*
X412529Y217082D01*
X412667Y217102D01*
X412700Y217116D01*
X412735Y217123D01*
X412962Y217216D01*
X414232Y217863D01*
X415573Y218299D01*
X415573Y208794D01*
X415576Y208768D01*
X415574Y208742D01*
X415596Y208595D01*
X415613Y208448D01*
X415621Y208423D01*
X415625Y208397D01*
X415680Y208259D01*
X415730Y208120D01*
X415744Y208098D01*
X415754Y208073D01*
X415839Y207952D01*
X415919Y207827D01*
X415938Y207809D01*
X415953Y207787D01*
X416063Y207688D01*
X416170Y207585D01*
X416192Y207571D01*
X416212Y207554D01*
X416342Y207482D01*
X416469Y207406D01*
X416494Y207398D01*
X416517Y207385D01*
X416660Y207345D01*
X416801Y207300D01*
X416827Y207298D01*
X416852Y207290D01*
X417096Y207271D01*
X420144Y207271D01*
X420170Y207274D01*
G37*
G36*
X709050Y187473D02*
X709050Y187473D01*
X709176Y187480D01*
X709222Y187493D01*
X709270Y187499D01*
X709389Y187541D01*
X709511Y187576D01*
X709553Y187600D01*
X709598Y187616D01*
X709705Y187685D01*
X709815Y187746D01*
X709861Y187786D01*
X709891Y187805D01*
X709925Y187840D01*
X710001Y187905D01*
X753965Y231869D01*
X754044Y231968D01*
X754128Y232062D01*
X754152Y232104D01*
X754182Y232142D01*
X754236Y232256D01*
X754297Y232367D01*
X754310Y232413D01*
X754331Y232457D01*
X754357Y232580D01*
X754392Y232702D01*
X754397Y232763D01*
X754404Y232798D01*
X754403Y232846D01*
X754411Y232946D01*
X754411Y301112D01*
X755262Y303166D01*
X806834Y354738D01*
X808888Y355589D01*
X897054Y355589D01*
X897180Y355603D01*
X897306Y355610D01*
X897352Y355623D01*
X897400Y355629D01*
X897519Y355671D01*
X897641Y355706D01*
X897683Y355730D01*
X897728Y355746D01*
X897835Y355815D01*
X897945Y355876D01*
X897991Y355916D01*
X898021Y355935D01*
X898055Y355970D01*
X898131Y356035D01*
X911972Y369875D01*
X912019Y369935D01*
X912074Y369989D01*
X912127Y370071D01*
X912188Y370148D01*
X912221Y370218D01*
X912262Y370282D01*
X912295Y370375D01*
X912337Y370463D01*
X912353Y370538D01*
X912379Y370610D01*
X912390Y370708D01*
X912411Y370804D01*
X912409Y370880D01*
X912418Y370957D01*
X912406Y371054D01*
X912405Y371153D01*
X912386Y371227D01*
X912377Y371303D01*
X912331Y371445D01*
X912320Y371491D01*
X912311Y371508D01*
X912302Y371535D01*
X911907Y372488D01*
X911859Y372576D01*
X911818Y372668D01*
X911774Y372728D01*
X911738Y372793D01*
X911671Y372867D01*
X911611Y372948D01*
X911554Y372996D01*
X911504Y373051D01*
X911421Y373108D01*
X911345Y373173D01*
X911278Y373207D01*
X911217Y373249D01*
X911124Y373286D01*
X911034Y373332D01*
X910962Y373350D01*
X910893Y373377D01*
X910793Y373392D01*
X910696Y373416D01*
X910622Y373417D01*
X910548Y373428D01*
X910448Y373419D01*
X910348Y373421D01*
X910275Y373405D01*
X910201Y373399D01*
X910105Y373368D01*
X910007Y373347D01*
X909940Y373315D01*
X909869Y373292D01*
X909783Y373240D01*
X909692Y373197D01*
X909634Y373150D01*
X909571Y373112D01*
X909498Y373042D01*
X909420Y372979D01*
X909374Y372921D01*
X909321Y372869D01*
X909266Y372785D01*
X909204Y372706D01*
X909158Y372616D01*
X909132Y372576D01*
X909120Y372542D01*
X909093Y372488D01*
X908352Y370699D01*
X904851Y367198D01*
X900276Y365303D01*
X895324Y365303D01*
X890749Y367198D01*
X887248Y370699D01*
X885660Y374535D01*
X885582Y374675D01*
X885507Y374816D01*
X885497Y374827D01*
X885490Y374839D01*
X885383Y374958D01*
X885278Y375078D01*
X885266Y375087D01*
X885256Y375097D01*
X885125Y375188D01*
X884995Y375282D01*
X884981Y375287D01*
X884969Y375296D01*
X884821Y375354D01*
X884673Y375416D01*
X884659Y375418D01*
X884645Y375423D01*
X884487Y375447D01*
X884329Y375473D01*
X884315Y375472D01*
X884300Y375474D01*
X884141Y375461D01*
X883982Y375451D01*
X883968Y375446D01*
X883953Y375445D01*
X883801Y375396D01*
X883648Y375350D01*
X883635Y375343D01*
X883622Y375338D01*
X883485Y375256D01*
X883346Y375176D01*
X883335Y375166D01*
X883323Y375158D01*
X883208Y375047D01*
X883091Y374938D01*
X883083Y374926D01*
X883073Y374916D01*
X882986Y374781D01*
X882898Y374648D01*
X882891Y374632D01*
X882885Y374622D01*
X882872Y374586D01*
X882804Y374422D01*
X882522Y373557D01*
X881742Y372025D01*
X880731Y370634D01*
X879516Y369419D01*
X878125Y368408D01*
X876593Y367628D01*
X874958Y367096D01*
X874649Y367047D01*
X874649Y377024D01*
X874646Y377050D01*
X874648Y377076D01*
X874626Y377223D01*
X874609Y377370D01*
X874601Y377395D01*
X874597Y377421D01*
X874542Y377558D01*
X874492Y377698D01*
X874478Y377720D01*
X874468Y377745D01*
X874459Y377757D01*
X874514Y377849D01*
X874522Y377874D01*
X874535Y377897D01*
X874575Y378040D01*
X874620Y378181D01*
X874622Y378207D01*
X874630Y378232D01*
X874649Y378476D01*
X874649Y388453D01*
X874958Y388404D01*
X876593Y387872D01*
X878125Y387092D01*
X879516Y386081D01*
X880731Y384866D01*
X881742Y383475D01*
X882522Y381943D01*
X882804Y381078D01*
X882870Y380933D01*
X882934Y380786D01*
X882943Y380774D01*
X882949Y380761D01*
X883047Y380634D01*
X883142Y380506D01*
X883153Y380497D01*
X883162Y380485D01*
X883286Y380384D01*
X883408Y380281D01*
X883421Y380274D01*
X883432Y380265D01*
X883576Y380194D01*
X883718Y380122D01*
X883732Y380118D01*
X883745Y380112D01*
X883902Y380076D01*
X884056Y380038D01*
X884071Y380038D01*
X884085Y380034D01*
X884245Y380035D01*
X884405Y380033D01*
X884419Y380036D01*
X884433Y380036D01*
X884589Y380073D01*
X884745Y380107D01*
X884758Y380113D01*
X884772Y380117D01*
X884915Y380188D01*
X885060Y380257D01*
X885071Y380266D01*
X885084Y380272D01*
X885207Y380374D01*
X885332Y380474D01*
X885341Y380485D01*
X885352Y380495D01*
X885449Y380622D01*
X885548Y380748D01*
X885556Y380763D01*
X885563Y380772D01*
X885579Y380807D01*
X885660Y380965D01*
X887248Y384801D01*
X890749Y388302D01*
X895324Y390197D01*
X900276Y390197D01*
X904851Y388302D01*
X908352Y384801D01*
X909093Y383012D01*
X909141Y382924D01*
X909181Y382832D01*
X909226Y382772D01*
X909262Y382707D01*
X909329Y382633D01*
X909389Y382552D01*
X909446Y382504D01*
X909496Y382449D01*
X909579Y382392D01*
X909655Y382327D01*
X909722Y382293D01*
X909783Y382251D01*
X909876Y382214D01*
X909966Y382168D01*
X910038Y382150D01*
X910107Y382123D01*
X910206Y382108D01*
X910304Y382084D01*
X910378Y382083D01*
X910452Y382072D01*
X910552Y382081D01*
X910652Y382079D01*
X910725Y382095D01*
X910799Y382101D01*
X910895Y382132D01*
X910993Y382153D01*
X911060Y382185D01*
X911131Y382208D01*
X911217Y382260D01*
X911308Y382303D01*
X911366Y382350D01*
X911429Y382388D01*
X911501Y382458D01*
X911580Y382521D01*
X911626Y382579D01*
X911679Y382631D01*
X911734Y382715D01*
X911796Y382794D01*
X911842Y382883D01*
X911868Y382924D01*
X911880Y382958D01*
X911907Y383012D01*
X912648Y384801D01*
X916149Y388302D01*
X920724Y390197D01*
X924572Y390197D01*
X924672Y390208D01*
X924772Y390210D01*
X924844Y390228D01*
X924918Y390237D01*
X925013Y390271D01*
X925110Y390295D01*
X925176Y390329D01*
X925246Y390354D01*
X925331Y390409D01*
X925420Y390455D01*
X925477Y390503D01*
X925539Y390543D01*
X925609Y390615D01*
X925686Y390680D01*
X925730Y390740D01*
X925781Y390794D01*
X925833Y390880D01*
X925893Y390961D01*
X925922Y391029D01*
X925960Y391093D01*
X925991Y391189D01*
X926031Y391281D01*
X926044Y391354D01*
X926067Y391425D01*
X926075Y391525D01*
X926092Y391624D01*
X926089Y391698D01*
X926095Y391772D01*
X926080Y391872D01*
X926074Y391972D01*
X926054Y392043D01*
X926043Y392117D01*
X926006Y392210D01*
X925978Y392307D01*
X925942Y392372D01*
X925914Y392441D01*
X925857Y392523D01*
X925808Y392611D01*
X925743Y392687D01*
X925715Y392727D01*
X925703Y392738D01*
X925700Y392742D01*
X925683Y392757D01*
X925649Y392797D01*
X924481Y393965D01*
X924382Y394044D01*
X924288Y394128D01*
X924246Y394152D01*
X924208Y394182D01*
X924094Y394236D01*
X923983Y394297D01*
X923937Y394310D01*
X923893Y394331D01*
X923770Y394357D01*
X923648Y394392D01*
X923587Y394397D01*
X923552Y394404D01*
X923504Y394403D01*
X923404Y394411D01*
X732946Y394411D01*
X732820Y394397D01*
X732694Y394390D01*
X732648Y394377D01*
X732600Y394371D01*
X732481Y394329D01*
X732359Y394294D01*
X732317Y394270D01*
X732272Y394254D01*
X732165Y394185D01*
X732055Y394124D01*
X732009Y394084D01*
X731979Y394065D01*
X731945Y394030D01*
X731869Y393965D01*
X555634Y217731D01*
X555618Y217710D01*
X555598Y217693D01*
X555510Y217574D01*
X555418Y217458D01*
X555407Y217434D01*
X555391Y217413D01*
X555332Y217277D01*
X555269Y217143D01*
X555263Y217117D01*
X555253Y217093D01*
X555227Y216947D01*
X555195Y216802D01*
X555196Y216776D01*
X555191Y216750D01*
X555199Y216601D01*
X555201Y216453D01*
X555208Y216428D01*
X555209Y216402D01*
X555250Y216259D01*
X555286Y216115D01*
X555298Y216092D01*
X555306Y216067D01*
X555378Y215938D01*
X555446Y215806D01*
X555463Y215786D01*
X555476Y215763D01*
X555634Y215576D01*
X556602Y214608D01*
X556913Y213859D01*
X556961Y213772D01*
X557001Y213679D01*
X557046Y213620D01*
X557082Y213555D01*
X557149Y213480D01*
X557209Y213400D01*
X557266Y213352D01*
X557316Y213297D01*
X557399Y213240D01*
X557475Y213175D01*
X557542Y213141D01*
X557603Y213098D01*
X557696Y213062D01*
X557786Y213016D01*
X557858Y212998D01*
X557927Y212971D01*
X558027Y212956D01*
X558124Y212932D01*
X558198Y212931D01*
X558272Y212920D01*
X558372Y212928D01*
X558472Y212927D01*
X558545Y212943D01*
X558619Y212949D01*
X558715Y212980D01*
X558813Y213001D01*
X558880Y213033D01*
X558951Y213056D01*
X559037Y213108D01*
X559128Y213151D01*
X559186Y213197D01*
X559249Y213235D01*
X559321Y213305D01*
X559400Y213368D01*
X559446Y213426D01*
X559499Y213478D01*
X559554Y213563D01*
X559616Y213642D01*
X559662Y213731D01*
X559688Y213772D01*
X559700Y213805D01*
X559727Y213859D01*
X560038Y214608D01*
X563682Y218252D01*
X568443Y220225D01*
X573597Y220225D01*
X578358Y218252D01*
X582002Y214608D01*
X583127Y211894D01*
X583147Y211858D01*
X583160Y211819D01*
X583231Y211706D01*
X583296Y211589D01*
X583324Y211559D01*
X583345Y211524D01*
X583441Y211430D01*
X583530Y211331D01*
X583564Y211308D01*
X583593Y211279D01*
X583707Y211209D01*
X583817Y211133D01*
X583855Y211118D01*
X583890Y211096D01*
X584017Y211054D01*
X584141Y211005D01*
X584182Y210999D01*
X584220Y210986D01*
X584354Y210974D01*
X584486Y210954D01*
X584527Y210957D01*
X584567Y210954D01*
X584700Y210972D01*
X584833Y210983D01*
X584872Y210995D01*
X584913Y211001D01*
X585037Y211049D01*
X585165Y211090D01*
X585200Y211111D01*
X585238Y211126D01*
X585349Y211200D01*
X585464Y211270D01*
X585493Y211298D01*
X585527Y211321D01*
X585618Y211419D01*
X585714Y211512D01*
X585736Y211547D01*
X585763Y211577D01*
X585892Y211785D01*
X586644Y213261D01*
X587701Y214717D01*
X588973Y215989D01*
X590429Y217046D01*
X592032Y217863D01*
X593373Y218299D01*
X593373Y208794D01*
X593376Y208768D01*
X593374Y208742D01*
X593396Y208595D01*
X593413Y208448D01*
X593421Y208423D01*
X593425Y208397D01*
X593480Y208259D01*
X593530Y208120D01*
X593544Y208098D01*
X593554Y208073D01*
X593639Y207952D01*
X593719Y207827D01*
X593738Y207809D01*
X593753Y207787D01*
X593863Y207688D01*
X593970Y207585D01*
X593992Y207571D01*
X594012Y207554D01*
X594142Y207482D01*
X594269Y207406D01*
X594294Y207398D01*
X594317Y207385D01*
X594460Y207345D01*
X594601Y207300D01*
X594627Y207298D01*
X594652Y207290D01*
X594896Y207271D01*
X596421Y207271D01*
X596421Y207269D01*
X594896Y207269D01*
X594870Y207266D01*
X594844Y207268D01*
X594697Y207246D01*
X594550Y207229D01*
X594525Y207220D01*
X594499Y207217D01*
X594361Y207162D01*
X594222Y207112D01*
X594200Y207098D01*
X594175Y207088D01*
X594054Y207003D01*
X593929Y206923D01*
X593911Y206904D01*
X593889Y206889D01*
X593790Y206779D01*
X593687Y206672D01*
X593673Y206650D01*
X593656Y206630D01*
X593584Y206500D01*
X593508Y206373D01*
X593500Y206348D01*
X593487Y206325D01*
X593447Y206182D01*
X593402Y206041D01*
X593400Y206015D01*
X593392Y205990D01*
X593373Y205746D01*
X593373Y196348D01*
X593376Y196322D01*
X593374Y196296D01*
X593396Y196149D01*
X593413Y196002D01*
X593421Y195977D01*
X593425Y195951D01*
X593480Y195813D01*
X593530Y195674D01*
X593544Y195652D01*
X593554Y195627D01*
X593639Y195506D01*
X593719Y195381D01*
X593738Y195363D01*
X593753Y195341D01*
X593863Y195242D01*
X593970Y195139D01*
X593992Y195125D01*
X594012Y195108D01*
X594142Y195036D01*
X594269Y194960D01*
X594294Y194952D01*
X594317Y194939D01*
X594460Y194899D01*
X594601Y194854D01*
X594627Y194852D01*
X594652Y194844D01*
X594896Y194825D01*
X597944Y194825D01*
X597970Y194828D01*
X597996Y194826D01*
X598143Y194848D01*
X598290Y194865D01*
X598315Y194873D01*
X598341Y194877D01*
X598479Y194932D01*
X598618Y194982D01*
X598640Y194996D01*
X598665Y195006D01*
X598786Y195091D01*
X598911Y195171D01*
X598929Y195190D01*
X598951Y195205D01*
X599050Y195315D01*
X599153Y195422D01*
X599167Y195444D01*
X599184Y195464D01*
X599256Y195594D01*
X599332Y195721D01*
X599340Y195746D01*
X599353Y195769D01*
X599393Y195912D01*
X599438Y196053D01*
X599440Y196079D01*
X599448Y196104D01*
X599467Y196348D01*
X599467Y204223D01*
X607449Y204223D01*
X607013Y202882D01*
X606196Y201279D01*
X605139Y199823D01*
X603867Y198551D01*
X602411Y197494D01*
X600935Y196742D01*
X600901Y196719D01*
X600864Y196703D01*
X600756Y196623D01*
X600645Y196549D01*
X600617Y196519D01*
X600584Y196495D01*
X600498Y196393D01*
X600406Y196295D01*
X600385Y196260D01*
X600359Y196229D01*
X600298Y196110D01*
X600231Y195994D01*
X600219Y195955D01*
X600200Y195919D01*
X600168Y195789D01*
X600128Y195661D01*
X600126Y195620D01*
X600116Y195580D01*
X600114Y195446D01*
X600105Y195313D01*
X600111Y195273D01*
X600111Y195232D01*
X600139Y195101D01*
X600161Y194969D01*
X600176Y194931D01*
X600185Y194891D01*
X600243Y194771D01*
X600294Y194647D01*
X600317Y194613D01*
X600335Y194577D01*
X600418Y194472D01*
X600496Y194363D01*
X600527Y194336D01*
X600552Y194304D01*
X600657Y194221D01*
X600758Y194133D01*
X600794Y194114D01*
X600826Y194088D01*
X601044Y193977D01*
X603758Y192852D01*
X607402Y189208D01*
X607738Y188399D01*
X607775Y188332D01*
X607803Y188261D01*
X607859Y188181D01*
X607907Y188094D01*
X607958Y188038D01*
X608002Y187975D01*
X608075Y187909D01*
X608141Y187836D01*
X608204Y187793D01*
X608261Y187742D01*
X608347Y187694D01*
X608428Y187638D01*
X608499Y187610D01*
X608566Y187573D01*
X608661Y187546D01*
X608752Y187510D01*
X608828Y187499D01*
X608901Y187478D01*
X609050Y187466D01*
X609097Y187459D01*
X609116Y187461D01*
X609145Y187459D01*
X708924Y187459D01*
X709050Y187473D01*
G37*
G36*
X647180Y95603D02*
X647180Y95603D01*
X647306Y95610D01*
X647352Y95623D01*
X647400Y95629D01*
X647519Y95671D01*
X647641Y95706D01*
X647683Y95730D01*
X647728Y95746D01*
X647835Y95815D01*
X647945Y95876D01*
X647991Y95916D01*
X648021Y95935D01*
X648055Y95970D01*
X648131Y96035D01*
X773965Y221869D01*
X774044Y221968D01*
X774128Y222062D01*
X774152Y222104D01*
X774182Y222142D01*
X774236Y222256D01*
X774297Y222367D01*
X774310Y222413D01*
X774331Y222457D01*
X774357Y222580D01*
X774392Y222702D01*
X774397Y222763D01*
X774404Y222798D01*
X774403Y222846D01*
X774411Y222946D01*
X774411Y301112D01*
X775296Y303248D01*
X775310Y303297D01*
X775332Y303342D01*
X775358Y303463D01*
X775392Y303583D01*
X775394Y303634D01*
X775405Y303683D01*
X775403Y303807D01*
X775409Y303931D01*
X775400Y303981D01*
X775399Y304031D01*
X775369Y304152D01*
X775346Y304274D01*
X775326Y304320D01*
X775314Y304369D01*
X775257Y304480D01*
X775207Y304594D01*
X775177Y304634D01*
X775154Y304679D01*
X775074Y304774D01*
X775000Y304874D01*
X774961Y304906D01*
X774928Y304944D01*
X774828Y305018D01*
X774734Y305099D01*
X774689Y305122D01*
X774648Y305152D01*
X774534Y305201D01*
X774423Y305258D01*
X774374Y305270D01*
X774328Y305290D01*
X774206Y305312D01*
X774085Y305342D01*
X774035Y305342D01*
X773985Y305351D01*
X773861Y305345D01*
X773737Y305347D01*
X773687Y305336D01*
X773637Y305333D01*
X773518Y305299D01*
X773396Y305272D01*
X773351Y305251D01*
X773302Y305237D01*
X773194Y305176D01*
X773081Y305123D01*
X773042Y305091D01*
X772998Y305067D01*
X772812Y304908D01*
X766035Y298131D01*
X765956Y298032D01*
X765872Y297938D01*
X765848Y297896D01*
X765818Y297858D01*
X765764Y297744D01*
X765703Y297633D01*
X765690Y297587D01*
X765669Y297543D01*
X765643Y297420D01*
X765608Y297298D01*
X765603Y297237D01*
X765596Y297202D01*
X765597Y297154D01*
X765589Y297054D01*
X765589Y228888D01*
X764738Y226834D01*
X715036Y177132D01*
X712982Y176281D01*
X609145Y176281D01*
X609069Y176273D01*
X608993Y176274D01*
X608896Y176253D01*
X608799Y176241D01*
X608727Y176216D01*
X608652Y176199D01*
X608563Y176157D01*
X608471Y176124D01*
X608406Y176082D01*
X608337Y176050D01*
X608261Y175988D01*
X608178Y175935D01*
X608125Y175880D01*
X608065Y175832D01*
X608004Y175755D01*
X607936Y175684D01*
X607896Y175619D01*
X607849Y175559D01*
X607781Y175426D01*
X607757Y175385D01*
X607751Y175367D01*
X607738Y175341D01*
X607402Y174532D01*
X603758Y170888D01*
X602187Y170237D01*
X602120Y170200D01*
X602049Y170171D01*
X601968Y170115D01*
X601882Y170067D01*
X601826Y170016D01*
X601763Y169972D01*
X601697Y169899D01*
X601624Y169833D01*
X601581Y169770D01*
X601530Y169714D01*
X601482Y169627D01*
X601426Y169547D01*
X601398Y169476D01*
X601361Y169409D01*
X601334Y169314D01*
X601298Y169222D01*
X601287Y169147D01*
X601266Y169073D01*
X601254Y168924D01*
X601247Y168878D01*
X601249Y168858D01*
X601247Y168829D01*
X601247Y145460D01*
X600512Y143686D01*
X600011Y143185D01*
X599932Y143086D01*
X599848Y142992D01*
X599824Y142950D01*
X599794Y142912D01*
X599740Y142798D01*
X599679Y142687D01*
X599666Y142641D01*
X599645Y142597D01*
X599619Y142473D01*
X599584Y142352D01*
X599579Y142291D01*
X599572Y142256D01*
X599573Y142208D01*
X599565Y142108D01*
X599565Y138097D01*
X598109Y134582D01*
X595418Y131891D01*
X591903Y130435D01*
X588097Y130435D01*
X584582Y131891D01*
X581891Y134582D01*
X580583Y137742D01*
X580534Y137830D01*
X580494Y137922D01*
X580449Y137982D01*
X580413Y138047D01*
X580346Y138121D01*
X580286Y138202D01*
X580229Y138250D01*
X580179Y138305D01*
X580096Y138362D01*
X580020Y138427D01*
X579954Y138461D01*
X579892Y138503D01*
X579799Y138540D01*
X579710Y138586D01*
X579637Y138603D01*
X579568Y138631D01*
X579469Y138645D01*
X579371Y138670D01*
X579297Y138671D01*
X579223Y138682D01*
X579123Y138673D01*
X579023Y138675D01*
X578950Y138659D01*
X578876Y138653D01*
X578780Y138622D01*
X578682Y138600D01*
X578615Y138568D01*
X578544Y138546D01*
X578458Y138494D01*
X578368Y138451D01*
X578310Y138404D01*
X578246Y138366D01*
X578174Y138296D01*
X578095Y138233D01*
X578049Y138175D01*
X577996Y138123D01*
X577942Y138038D01*
X577879Y137960D01*
X577834Y137870D01*
X577808Y137830D01*
X577796Y137796D01*
X577768Y137742D01*
X577126Y136191D01*
X576246Y134874D01*
X575126Y133754D01*
X573809Y132874D01*
X572749Y132436D01*
X572749Y138774D01*
X572746Y138800D01*
X572748Y138826D01*
X572726Y138973D01*
X572709Y139120D01*
X572701Y139145D01*
X572697Y139171D01*
X572642Y139308D01*
X572592Y139448D01*
X572578Y139470D01*
X572568Y139495D01*
X572483Y139616D01*
X572403Y139741D01*
X572384Y139759D01*
X572369Y139781D01*
X572259Y139880D01*
X572152Y139983D01*
X572130Y139997D01*
X572122Y140003D01*
X572193Y140049D01*
X572211Y140068D01*
X572233Y140083D01*
X572332Y140193D01*
X572435Y140300D01*
X572449Y140323D01*
X572466Y140342D01*
X572538Y140472D01*
X572614Y140599D01*
X572622Y140624D01*
X572635Y140647D01*
X572675Y140790D01*
X572720Y140931D01*
X572722Y140957D01*
X572730Y140982D01*
X572749Y141226D01*
X572749Y147564D01*
X573809Y147126D01*
X575126Y146246D01*
X576246Y145126D01*
X577126Y143809D01*
X577768Y142258D01*
X577817Y142170D01*
X577857Y142078D01*
X577901Y142018D01*
X577937Y141953D01*
X578005Y141879D01*
X578065Y141798D01*
X578121Y141750D01*
X578171Y141695D01*
X578254Y141638D01*
X578331Y141573D01*
X578397Y141539D01*
X578458Y141497D01*
X578551Y141460D01*
X578641Y141415D01*
X578713Y141397D01*
X578782Y141369D01*
X578882Y141355D01*
X578979Y141330D01*
X579053Y141329D01*
X579127Y141318D01*
X579227Y141327D01*
X579328Y141325D01*
X579400Y141341D01*
X579474Y141347D01*
X579570Y141378D01*
X579668Y141400D01*
X579735Y141432D01*
X579806Y141454D01*
X579892Y141506D01*
X579983Y141549D01*
X580041Y141596D01*
X580105Y141634D01*
X580177Y141704D01*
X580255Y141767D01*
X580301Y141825D01*
X580355Y141877D01*
X580409Y141962D01*
X580471Y142040D01*
X580517Y142130D01*
X580543Y142170D01*
X580555Y142204D01*
X580583Y142258D01*
X581891Y145418D01*
X584582Y148109D01*
X588097Y149565D01*
X590070Y149565D01*
X590096Y149568D01*
X590122Y149566D01*
X590269Y149588D01*
X590416Y149605D01*
X590441Y149613D01*
X590467Y149617D01*
X590605Y149672D01*
X590744Y149722D01*
X590766Y149736D01*
X590791Y149746D01*
X590912Y149831D01*
X591037Y149911D01*
X591055Y149930D01*
X591077Y149945D01*
X591176Y150055D01*
X591279Y150162D01*
X591293Y150184D01*
X591310Y150204D01*
X591382Y150334D01*
X591458Y150461D01*
X591466Y150486D01*
X591479Y150509D01*
X591519Y150652D01*
X591564Y150793D01*
X591566Y150819D01*
X591574Y150844D01*
X591593Y151088D01*
X591593Y168829D01*
X591585Y168905D01*
X591586Y168982D01*
X591565Y169078D01*
X591553Y169176D01*
X591528Y169248D01*
X591511Y169322D01*
X591469Y169411D01*
X591436Y169504D01*
X591394Y169568D01*
X591362Y169637D01*
X591300Y169714D01*
X591247Y169797D01*
X591192Y169850D01*
X591144Y169909D01*
X591067Y169970D01*
X590996Y170039D01*
X590931Y170078D01*
X590871Y170125D01*
X590738Y170193D01*
X590697Y170218D01*
X590679Y170223D01*
X590653Y170237D01*
X589082Y170888D01*
X585438Y174532D01*
X585127Y175281D01*
X585078Y175368D01*
X585038Y175461D01*
X584994Y175520D01*
X584958Y175585D01*
X584890Y175660D01*
X584831Y175740D01*
X584774Y175788D01*
X584724Y175843D01*
X584641Y175900D01*
X584565Y175965D01*
X584498Y175999D01*
X584437Y176042D01*
X584344Y176078D01*
X584254Y176124D01*
X584182Y176142D01*
X584113Y176169D01*
X584013Y176184D01*
X583916Y176208D01*
X583842Y176209D01*
X583768Y176220D01*
X583668Y176212D01*
X583568Y176213D01*
X583495Y176197D01*
X583421Y176191D01*
X583325Y176160D01*
X583227Y176139D01*
X583160Y176107D01*
X583089Y176084D01*
X583003Y176032D01*
X582912Y175989D01*
X582854Y175943D01*
X582791Y175905D01*
X582718Y175834D01*
X582640Y175772D01*
X582594Y175714D01*
X582541Y175662D01*
X582486Y175577D01*
X582424Y175498D01*
X582378Y175409D01*
X582352Y175368D01*
X582340Y175335D01*
X582313Y175281D01*
X582002Y174532D01*
X578358Y170888D01*
X573597Y168915D01*
X568443Y168915D01*
X566229Y169832D01*
X566084Y169874D01*
X565941Y169920D01*
X565917Y169921D01*
X565894Y169928D01*
X565743Y169935D01*
X565594Y169947D01*
X565570Y169944D01*
X565546Y169945D01*
X565398Y169918D01*
X565249Y169896D01*
X565227Y169887D01*
X565203Y169883D01*
X565065Y169823D01*
X564925Y169767D01*
X564905Y169753D01*
X564883Y169744D01*
X564762Y169654D01*
X564639Y169568D01*
X564623Y169550D01*
X564603Y169536D01*
X564506Y169421D01*
X564406Y169309D01*
X564394Y169288D01*
X564378Y169270D01*
X564310Y169136D01*
X564237Y169004D01*
X564231Y168981D01*
X564220Y168959D01*
X564183Y168814D01*
X564142Y168669D01*
X564140Y168640D01*
X564135Y168621D01*
X564135Y168574D01*
X564123Y168425D01*
X564123Y148548D01*
X564140Y148399D01*
X564152Y148249D01*
X564160Y148226D01*
X564163Y148202D01*
X564213Y148060D01*
X564260Y147918D01*
X564272Y147897D01*
X564280Y147874D01*
X564362Y147748D01*
X564439Y147619D01*
X564456Y147602D01*
X564469Y147581D01*
X564577Y147477D01*
X564682Y147369D01*
X564702Y147356D01*
X564720Y147339D01*
X564849Y147262D01*
X564975Y147181D01*
X564998Y147173D01*
X565019Y147160D01*
X565162Y147115D01*
X565304Y147064D01*
X565328Y147061D01*
X565351Y147054D01*
X565500Y147042D01*
X565650Y147025D01*
X565674Y147028D01*
X565698Y147026D01*
X565847Y147048D01*
X565996Y147066D01*
X566024Y147075D01*
X566043Y147078D01*
X566087Y147095D01*
X566229Y147141D01*
X567251Y147564D01*
X567251Y141226D01*
X567254Y141200D01*
X567252Y141174D01*
X567274Y141027D01*
X567291Y140880D01*
X567299Y140855D01*
X567303Y140829D01*
X567358Y140692D01*
X567408Y140552D01*
X567422Y140530D01*
X567432Y140505D01*
X567517Y140384D01*
X567597Y140259D01*
X567616Y140241D01*
X567631Y140219D01*
X567741Y140120D01*
X567848Y140017D01*
X567870Y140003D01*
X567878Y139997D01*
X567807Y139951D01*
X567789Y139932D01*
X567767Y139917D01*
X567668Y139807D01*
X567565Y139700D01*
X567551Y139677D01*
X567534Y139658D01*
X567462Y139528D01*
X567386Y139401D01*
X567378Y139376D01*
X567365Y139353D01*
X567325Y139210D01*
X567280Y139069D01*
X567277Y139043D01*
X567270Y139018D01*
X567251Y138774D01*
X567251Y132436D01*
X566191Y132874D01*
X564874Y133754D01*
X563754Y134874D01*
X562874Y136191D01*
X562232Y137742D01*
X562183Y137830D01*
X562143Y137922D01*
X562099Y137982D01*
X562063Y138047D01*
X561995Y138121D01*
X561935Y138202D01*
X561879Y138250D01*
X561829Y138305D01*
X561746Y138362D01*
X561669Y138427D01*
X561603Y138461D01*
X561542Y138503D01*
X561449Y138540D01*
X561359Y138585D01*
X561287Y138603D01*
X561218Y138631D01*
X561118Y138645D01*
X561021Y138670D01*
X560947Y138671D01*
X560873Y138682D01*
X560773Y138673D01*
X560672Y138675D01*
X560600Y138659D01*
X560526Y138653D01*
X560430Y138622D01*
X560332Y138600D01*
X560265Y138568D01*
X560194Y138546D01*
X560108Y138494D01*
X560017Y138451D01*
X559959Y138404D01*
X559895Y138366D01*
X559823Y138296D01*
X559745Y138233D01*
X559699Y138175D01*
X559645Y138123D01*
X559591Y138038D01*
X559529Y137960D01*
X559483Y137870D01*
X559457Y137830D01*
X559445Y137796D01*
X559417Y137742D01*
X558109Y134582D01*
X555418Y131891D01*
X551903Y130435D01*
X548097Y130435D01*
X544582Y131891D01*
X541891Y134582D01*
X541407Y135751D01*
X541358Y135839D01*
X541318Y135931D01*
X541274Y135990D01*
X541238Y136055D01*
X541170Y136130D01*
X541111Y136210D01*
X541054Y136258D01*
X541004Y136314D01*
X540921Y136371D01*
X540845Y136436D01*
X540778Y136469D01*
X540717Y136512D01*
X540624Y136549D01*
X540534Y136594D01*
X540462Y136612D01*
X540393Y136640D01*
X540294Y136654D01*
X540196Y136678D01*
X540122Y136679D01*
X540048Y136690D01*
X539948Y136682D01*
X539848Y136683D01*
X539775Y136668D01*
X539701Y136661D01*
X539605Y136631D01*
X539507Y136609D01*
X539440Y136577D01*
X539369Y136554D01*
X539283Y136503D01*
X539192Y136459D01*
X539134Y136413D01*
X539071Y136375D01*
X538999Y136305D01*
X538920Y136242D01*
X538874Y136184D01*
X538821Y136132D01*
X538766Y136047D01*
X538704Y135968D01*
X538658Y135879D01*
X538632Y135839D01*
X538620Y135805D01*
X538593Y135751D01*
X538109Y134582D01*
X535418Y131891D01*
X531903Y130435D01*
X528097Y130435D01*
X524582Y131891D01*
X521891Y134582D01*
X521407Y135751D01*
X521358Y135839D01*
X521318Y135931D01*
X521274Y135990D01*
X521238Y136055D01*
X521170Y136130D01*
X521111Y136210D01*
X521054Y136258D01*
X521004Y136314D01*
X520921Y136371D01*
X520845Y136436D01*
X520778Y136469D01*
X520717Y136512D01*
X520624Y136549D01*
X520534Y136594D01*
X520462Y136612D01*
X520393Y136640D01*
X520294Y136654D01*
X520196Y136678D01*
X520122Y136679D01*
X520048Y136690D01*
X519948Y136682D01*
X519848Y136683D01*
X519775Y136668D01*
X519701Y136661D01*
X519605Y136631D01*
X519507Y136609D01*
X519440Y136577D01*
X519369Y136554D01*
X519283Y136503D01*
X519192Y136459D01*
X519134Y136413D01*
X519071Y136375D01*
X518999Y136305D01*
X518920Y136242D01*
X518874Y136184D01*
X518821Y136132D01*
X518766Y136047D01*
X518704Y135968D01*
X518658Y135879D01*
X518632Y135839D01*
X518620Y135805D01*
X518593Y135751D01*
X518109Y134582D01*
X516792Y133266D01*
X516776Y133245D01*
X516756Y133228D01*
X516668Y133109D01*
X516576Y132993D01*
X516564Y132969D01*
X516549Y132948D01*
X516490Y132812D01*
X516427Y132678D01*
X516421Y132652D01*
X516411Y132628D01*
X516384Y132482D01*
X516353Y132337D01*
X516354Y132311D01*
X516349Y132285D01*
X516357Y132136D01*
X516359Y131988D01*
X516366Y131963D01*
X516367Y131937D01*
X516408Y131794D01*
X516444Y131650D01*
X516456Y131627D01*
X516464Y131602D01*
X516536Y131473D01*
X516604Y131341D01*
X516621Y131321D01*
X516634Y131298D01*
X516792Y131111D01*
X539611Y108293D01*
X539710Y108214D01*
X539804Y108130D01*
X539846Y108106D01*
X539884Y108076D01*
X539998Y108022D01*
X540109Y107961D01*
X540155Y107948D01*
X540199Y107927D01*
X540322Y107901D01*
X540444Y107866D01*
X540505Y107861D01*
X540540Y107854D01*
X540588Y107855D01*
X540688Y107847D01*
X541561Y107847D01*
X544445Y106652D01*
X546652Y104445D01*
X547847Y101561D01*
X547847Y98439D01*
X547538Y97695D01*
X547497Y97550D01*
X547451Y97407D01*
X547449Y97383D01*
X547443Y97360D01*
X547435Y97209D01*
X547423Y97060D01*
X547427Y97036D01*
X547426Y97012D01*
X547453Y96864D01*
X547475Y96715D01*
X547484Y96693D01*
X547488Y96669D01*
X547548Y96531D01*
X547604Y96391D01*
X547618Y96371D01*
X547627Y96349D01*
X547717Y96228D01*
X547803Y96105D01*
X547821Y96089D01*
X547835Y96069D01*
X547950Y95972D01*
X548062Y95872D01*
X548083Y95860D01*
X548101Y95844D01*
X548235Y95776D01*
X548367Y95703D01*
X548390Y95697D01*
X548411Y95686D01*
X548557Y95649D01*
X548702Y95608D01*
X548731Y95606D01*
X548750Y95601D01*
X548797Y95601D01*
X548946Y95589D01*
X647054Y95589D01*
X647180Y95603D01*
G37*
%LPC*%
G36*
X1415939Y167153D02*
X1415939Y167153D01*
X1413055Y168348D01*
X1412438Y168965D01*
X1412339Y169044D01*
X1412245Y169128D01*
X1412203Y169152D01*
X1412165Y169182D01*
X1412051Y169236D01*
X1411940Y169297D01*
X1411893Y169310D01*
X1411850Y169331D01*
X1411726Y169357D01*
X1411605Y169392D01*
X1411544Y169397D01*
X1411509Y169404D01*
X1411461Y169403D01*
X1411361Y169411D01*
X1403888Y169411D01*
X1401834Y170262D01*
X1258131Y313965D01*
X1258032Y314044D01*
X1257938Y314128D01*
X1257896Y314152D01*
X1257858Y314182D01*
X1257744Y314236D01*
X1257633Y314297D01*
X1257587Y314310D01*
X1257543Y314331D01*
X1257420Y314357D01*
X1257298Y314392D01*
X1257237Y314397D01*
X1257202Y314404D01*
X1257154Y314403D01*
X1257054Y314411D01*
X1188888Y314411D01*
X1186834Y315262D01*
X1175262Y326834D01*
X1174411Y328888D01*
X1174411Y331431D01*
X1174397Y331557D01*
X1174390Y331683D01*
X1174377Y331729D01*
X1174371Y331777D01*
X1174329Y331896D01*
X1174294Y332018D01*
X1174270Y332060D01*
X1174254Y332105D01*
X1174185Y332212D01*
X1174124Y332322D01*
X1174084Y332368D01*
X1174065Y332398D01*
X1174030Y332432D01*
X1173965Y332508D01*
X1171891Y334582D01*
X1170435Y338097D01*
X1170435Y341903D01*
X1171891Y345418D01*
X1173965Y347492D01*
X1174044Y347591D01*
X1174128Y347685D01*
X1174152Y347727D01*
X1174182Y347765D01*
X1174236Y347879D01*
X1174297Y347990D01*
X1174310Y348036D01*
X1174331Y348080D01*
X1174357Y348203D01*
X1174392Y348325D01*
X1174397Y348386D01*
X1174404Y348421D01*
X1174403Y348469D01*
X1174411Y348569D01*
X1174411Y363780D01*
X1174403Y363855D01*
X1174404Y363932D01*
X1174383Y364028D01*
X1174371Y364126D01*
X1174346Y364198D01*
X1174329Y364272D01*
X1174287Y364361D01*
X1174254Y364454D01*
X1174212Y364518D01*
X1174180Y364587D01*
X1174118Y364664D01*
X1174065Y364747D01*
X1174010Y364800D01*
X1173962Y364860D01*
X1173885Y364920D01*
X1173814Y364989D01*
X1173749Y365028D01*
X1173689Y365075D01*
X1173556Y365144D01*
X1173515Y365168D01*
X1173497Y365174D01*
X1173471Y365187D01*
X1173449Y365196D01*
X1170196Y368449D01*
X1168435Y372700D01*
X1168435Y377300D01*
X1170196Y381551D01*
X1173449Y384804D01*
X1177700Y386565D01*
X1182300Y386565D01*
X1186551Y384804D01*
X1189804Y381551D01*
X1191093Y378440D01*
X1191141Y378352D01*
X1191181Y378260D01*
X1191226Y378200D01*
X1191262Y378135D01*
X1191329Y378061D01*
X1191389Y377980D01*
X1191446Y377932D01*
X1191496Y377877D01*
X1191579Y377820D01*
X1191655Y377755D01*
X1191722Y377721D01*
X1191783Y377679D01*
X1191876Y377642D01*
X1191966Y377596D01*
X1192038Y377578D01*
X1192107Y377551D01*
X1192207Y377536D01*
X1192304Y377512D01*
X1192378Y377511D01*
X1192452Y377500D01*
X1192552Y377509D01*
X1192652Y377507D01*
X1192725Y377523D01*
X1192799Y377529D01*
X1192895Y377560D01*
X1192993Y377582D01*
X1193060Y377613D01*
X1193131Y377636D01*
X1193217Y377688D01*
X1193308Y377731D01*
X1193366Y377778D01*
X1193429Y377816D01*
X1193502Y377886D01*
X1193580Y377949D01*
X1193626Y378007D01*
X1193679Y378059D01*
X1193734Y378143D01*
X1193796Y378222D01*
X1193842Y378312D01*
X1193868Y378352D01*
X1193880Y378386D01*
X1193907Y378440D01*
X1195196Y381551D01*
X1198449Y384804D01*
X1202700Y386565D01*
X1207300Y386565D01*
X1211551Y384804D01*
X1214804Y381551D01*
X1216565Y377300D01*
X1216565Y372700D01*
X1214804Y368449D01*
X1211551Y365196D01*
X1211529Y365187D01*
X1211462Y365150D01*
X1211391Y365121D01*
X1211310Y365065D01*
X1211224Y365018D01*
X1211168Y364966D01*
X1211105Y364923D01*
X1211039Y364850D01*
X1210966Y364783D01*
X1210923Y364720D01*
X1210872Y364664D01*
X1210824Y364578D01*
X1210768Y364497D01*
X1210740Y364426D01*
X1210703Y364359D01*
X1210676Y364264D01*
X1210640Y364172D01*
X1210629Y364097D01*
X1210608Y364023D01*
X1210596Y363874D01*
X1210589Y363828D01*
X1210591Y363809D01*
X1210589Y363780D01*
X1210589Y348569D01*
X1210603Y348443D01*
X1210610Y348317D01*
X1210623Y348271D01*
X1210629Y348223D01*
X1210671Y348104D01*
X1210706Y347982D01*
X1210730Y347940D01*
X1210746Y347894D01*
X1210815Y347788D01*
X1210876Y347678D01*
X1210916Y347632D01*
X1210935Y347602D01*
X1210970Y347568D01*
X1211035Y347492D01*
X1212492Y346035D01*
X1212591Y345956D01*
X1212685Y345872D01*
X1212727Y345848D01*
X1212765Y345818D01*
X1212879Y345764D01*
X1212990Y345703D01*
X1213036Y345690D01*
X1213080Y345669D01*
X1213203Y345643D01*
X1213325Y345608D01*
X1213386Y345603D01*
X1213421Y345596D01*
X1213469Y345597D01*
X1213569Y345589D01*
X1281112Y345589D01*
X1283166Y344738D01*
X1446869Y181035D01*
X1446968Y180956D01*
X1447062Y180872D01*
X1447104Y180848D01*
X1447142Y180818D01*
X1447256Y180764D01*
X1447367Y180703D01*
X1447413Y180690D01*
X1447457Y180669D01*
X1447580Y180643D01*
X1447702Y180608D01*
X1447763Y180603D01*
X1447798Y180596D01*
X1447846Y180597D01*
X1447946Y180589D01*
X1451361Y180589D01*
X1451486Y180603D01*
X1451613Y180610D01*
X1451659Y180623D01*
X1451707Y180629D01*
X1451826Y180671D01*
X1451947Y180706D01*
X1451990Y180730D01*
X1452035Y180746D01*
X1452141Y180815D01*
X1452252Y180876D01*
X1452298Y180916D01*
X1452328Y180935D01*
X1452361Y180970D01*
X1452438Y181035D01*
X1453055Y181652D01*
X1455939Y182847D01*
X1459061Y182847D01*
X1461945Y181652D01*
X1464152Y179445D01*
X1465347Y176561D01*
X1465347Y173439D01*
X1464152Y170555D01*
X1461945Y168348D01*
X1459061Y167153D01*
X1455939Y167153D01*
X1453055Y168348D01*
X1452438Y168965D01*
X1452339Y169044D01*
X1452245Y169128D01*
X1452203Y169152D01*
X1452165Y169182D01*
X1452051Y169236D01*
X1451940Y169297D01*
X1451893Y169310D01*
X1451850Y169331D01*
X1451726Y169357D01*
X1451605Y169392D01*
X1451544Y169397D01*
X1451509Y169404D01*
X1451461Y169403D01*
X1451361Y169411D01*
X1443888Y169411D01*
X1441834Y170262D01*
X1278131Y333965D01*
X1278032Y334044D01*
X1277938Y334128D01*
X1277896Y334152D01*
X1277858Y334182D01*
X1277744Y334236D01*
X1277633Y334297D01*
X1277587Y334310D01*
X1277543Y334331D01*
X1277420Y334357D01*
X1277298Y334392D01*
X1277237Y334397D01*
X1277202Y334404D01*
X1277154Y334403D01*
X1277054Y334411D01*
X1213569Y334411D01*
X1213443Y334397D01*
X1213317Y334390D01*
X1213271Y334377D01*
X1213223Y334371D01*
X1213104Y334329D01*
X1212982Y334294D01*
X1212940Y334270D01*
X1212894Y334254D01*
X1212788Y334185D01*
X1212678Y334124D01*
X1212632Y334084D01*
X1212602Y334065D01*
X1212568Y334030D01*
X1212492Y333965D01*
X1210418Y331891D01*
X1206903Y330435D01*
X1203097Y330435D01*
X1199582Y331891D01*
X1196891Y334582D01*
X1195435Y338097D01*
X1195435Y341903D01*
X1196891Y345418D01*
X1198965Y347492D01*
X1199044Y347591D01*
X1199128Y347685D01*
X1199152Y347727D01*
X1199182Y347765D01*
X1199236Y347879D01*
X1199297Y347990D01*
X1199310Y348036D01*
X1199331Y348080D01*
X1199357Y348203D01*
X1199392Y348325D01*
X1199397Y348386D01*
X1199404Y348420D01*
X1199403Y348469D01*
X1199411Y348569D01*
X1199411Y363780D01*
X1199403Y363855D01*
X1199404Y363932D01*
X1199383Y364028D01*
X1199371Y364126D01*
X1199346Y364198D01*
X1199329Y364272D01*
X1199287Y364361D01*
X1199254Y364454D01*
X1199212Y364518D01*
X1199180Y364587D01*
X1199118Y364664D01*
X1199065Y364747D01*
X1199010Y364800D01*
X1198962Y364860D01*
X1198885Y364920D01*
X1198814Y364989D01*
X1198749Y365028D01*
X1198689Y365075D01*
X1198556Y365144D01*
X1198515Y365168D01*
X1198497Y365174D01*
X1198471Y365187D01*
X1198449Y365196D01*
X1195196Y368449D01*
X1193907Y371560D01*
X1193859Y371648D01*
X1193818Y371740D01*
X1193774Y371800D01*
X1193738Y371865D01*
X1193671Y371939D01*
X1193611Y372020D01*
X1193554Y372068D01*
X1193504Y372123D01*
X1193421Y372180D01*
X1193345Y372245D01*
X1193278Y372279D01*
X1193217Y372321D01*
X1193124Y372358D01*
X1193034Y372404D01*
X1192962Y372422D01*
X1192893Y372449D01*
X1192794Y372464D01*
X1192696Y372488D01*
X1192622Y372489D01*
X1192548Y372500D01*
X1192448Y372491D01*
X1192348Y372493D01*
X1192275Y372477D01*
X1192201Y372471D01*
X1192105Y372440D01*
X1192007Y372418D01*
X1191940Y372387D01*
X1191869Y372364D01*
X1191783Y372312D01*
X1191692Y372269D01*
X1191634Y372222D01*
X1191571Y372184D01*
X1191498Y372114D01*
X1191420Y372051D01*
X1191374Y371993D01*
X1191321Y371941D01*
X1191266Y371857D01*
X1191204Y371778D01*
X1191158Y371688D01*
X1191132Y371648D01*
X1191120Y371614D01*
X1191093Y371560D01*
X1189804Y368449D01*
X1186551Y365196D01*
X1186529Y365187D01*
X1186462Y365150D01*
X1186391Y365121D01*
X1186310Y365065D01*
X1186224Y365018D01*
X1186168Y364966D01*
X1186105Y364923D01*
X1186039Y364850D01*
X1185966Y364783D01*
X1185923Y364720D01*
X1185872Y364664D01*
X1185824Y364578D01*
X1185768Y364497D01*
X1185740Y364426D01*
X1185703Y364359D01*
X1185676Y364264D01*
X1185640Y364172D01*
X1185629Y364097D01*
X1185608Y364023D01*
X1185596Y363874D01*
X1185589Y363828D01*
X1185591Y363809D01*
X1185589Y363780D01*
X1185589Y348569D01*
X1185603Y348443D01*
X1185610Y348317D01*
X1185623Y348271D01*
X1185629Y348223D01*
X1185671Y348104D01*
X1185706Y347982D01*
X1185730Y347940D01*
X1185746Y347895D01*
X1185815Y347788D01*
X1185876Y347678D01*
X1185916Y347632D01*
X1185935Y347602D01*
X1185970Y347568D01*
X1186035Y347492D01*
X1188109Y345418D01*
X1189565Y341903D01*
X1189565Y338097D01*
X1188109Y334582D01*
X1186792Y333266D01*
X1186776Y333245D01*
X1186756Y333228D01*
X1186668Y333109D01*
X1186576Y332993D01*
X1186564Y332969D01*
X1186549Y332948D01*
X1186490Y332812D01*
X1186427Y332678D01*
X1186421Y332652D01*
X1186411Y332628D01*
X1186385Y332482D01*
X1186353Y332337D01*
X1186354Y332311D01*
X1186349Y332285D01*
X1186357Y332136D01*
X1186359Y331988D01*
X1186366Y331963D01*
X1186367Y331937D01*
X1186408Y331794D01*
X1186444Y331650D01*
X1186456Y331627D01*
X1186464Y331602D01*
X1186536Y331472D01*
X1186604Y331341D01*
X1186621Y331321D01*
X1186634Y331298D01*
X1186792Y331111D01*
X1191869Y326035D01*
X1191968Y325956D01*
X1192062Y325872D01*
X1192104Y325848D01*
X1192142Y325818D01*
X1192256Y325764D01*
X1192367Y325703D01*
X1192413Y325690D01*
X1192457Y325669D01*
X1192580Y325643D01*
X1192702Y325608D01*
X1192763Y325603D01*
X1192798Y325596D01*
X1192846Y325597D01*
X1192946Y325589D01*
X1261112Y325589D01*
X1263166Y324738D01*
X1406869Y181035D01*
X1406968Y180956D01*
X1407062Y180872D01*
X1407104Y180848D01*
X1407142Y180818D01*
X1407256Y180764D01*
X1407367Y180703D01*
X1407413Y180690D01*
X1407457Y180669D01*
X1407580Y180643D01*
X1407702Y180608D01*
X1407763Y180603D01*
X1407798Y180596D01*
X1407846Y180597D01*
X1407946Y180589D01*
X1411361Y180589D01*
X1411486Y180603D01*
X1411613Y180610D01*
X1411659Y180623D01*
X1411707Y180629D01*
X1411826Y180671D01*
X1411947Y180706D01*
X1411990Y180730D01*
X1412035Y180746D01*
X1412141Y180815D01*
X1412252Y180876D01*
X1412298Y180916D01*
X1412328Y180935D01*
X1412361Y180970D01*
X1412438Y181035D01*
X1413055Y181652D01*
X1415939Y182847D01*
X1419061Y182847D01*
X1421945Y181652D01*
X1424152Y179445D01*
X1425347Y176561D01*
X1425347Y173439D01*
X1424152Y170555D01*
X1421945Y168348D01*
X1419061Y167153D01*
X1415939Y167153D01*
G37*
%LPD*%
%LPC*%
G36*
X888888Y294411D02*
X888888Y294411D01*
X886834Y295262D01*
X870389Y311707D01*
X870290Y311786D01*
X870196Y311870D01*
X870154Y311894D01*
X870116Y311924D01*
X870002Y311978D01*
X869891Y312039D01*
X869845Y312052D01*
X869801Y312073D01*
X869678Y312099D01*
X869556Y312134D01*
X869495Y312139D01*
X869460Y312146D01*
X869412Y312145D01*
X869312Y312153D01*
X868439Y312153D01*
X865555Y313348D01*
X863348Y315555D01*
X862153Y318439D01*
X862153Y321561D01*
X863348Y324445D01*
X865555Y326652D01*
X868439Y327847D01*
X871561Y327847D01*
X874445Y326652D01*
X876652Y324445D01*
X877847Y321561D01*
X877847Y320688D01*
X877861Y320562D01*
X877868Y320436D01*
X877881Y320390D01*
X877887Y320342D01*
X877929Y320223D01*
X877964Y320101D01*
X877988Y320059D01*
X878004Y320014D01*
X878073Y319907D01*
X878134Y319797D01*
X878174Y319751D01*
X878193Y319721D01*
X878228Y319687D01*
X878293Y319611D01*
X889553Y308351D01*
X889631Y308288D01*
X889704Y308219D01*
X889768Y308180D01*
X889826Y308134D01*
X889917Y308091D01*
X890003Y308040D01*
X890074Y308017D01*
X890141Y307985D01*
X890239Y307964D01*
X890335Y307933D01*
X890409Y307927D01*
X890482Y307912D01*
X890582Y307914D01*
X890682Y307905D01*
X890756Y307917D01*
X890830Y307918D01*
X890927Y307942D01*
X891027Y307957D01*
X891096Y307985D01*
X891168Y308003D01*
X891258Y308049D01*
X891351Y308086D01*
X891412Y308128D01*
X891478Y308162D01*
X891555Y308228D01*
X891637Y308285D01*
X891687Y308340D01*
X891743Y308388D01*
X891803Y308469D01*
X891870Y308544D01*
X891906Y308609D01*
X891951Y308669D01*
X891990Y308761D01*
X892039Y308849D01*
X892059Y308920D01*
X892089Y308989D01*
X892106Y309087D01*
X892134Y309184D01*
X892142Y309284D01*
X892150Y309332D01*
X892148Y309367D01*
X892153Y309428D01*
X892153Y311561D01*
X893348Y314445D01*
X895555Y316652D01*
X898439Y317847D01*
X901561Y317847D01*
X904445Y316652D01*
X905062Y316035D01*
X905161Y315956D01*
X905255Y315872D01*
X905297Y315848D01*
X905335Y315818D01*
X905449Y315764D01*
X905560Y315703D01*
X905607Y315690D01*
X905650Y315669D01*
X905774Y315643D01*
X905895Y315608D01*
X905956Y315603D01*
X905991Y315596D01*
X906039Y315597D01*
X906139Y315589D01*
X1022054Y315589D01*
X1022180Y315603D01*
X1022306Y315610D01*
X1022352Y315623D01*
X1022400Y315629D01*
X1022519Y315671D01*
X1022641Y315706D01*
X1022683Y315730D01*
X1022728Y315746D01*
X1022835Y315815D01*
X1022945Y315876D01*
X1022991Y315916D01*
X1023021Y315935D01*
X1023055Y315970D01*
X1023131Y316035D01*
X1044989Y337893D01*
X1045068Y337992D01*
X1045152Y338086D01*
X1045176Y338128D01*
X1045206Y338166D01*
X1045260Y338280D01*
X1045321Y338391D01*
X1045334Y338437D01*
X1045355Y338481D01*
X1045381Y338604D01*
X1045416Y338726D01*
X1045421Y338787D01*
X1045428Y338822D01*
X1045427Y338870D01*
X1045435Y338970D01*
X1045435Y341903D01*
X1046891Y345418D01*
X1048965Y347492D01*
X1049044Y347591D01*
X1049128Y347685D01*
X1049152Y347727D01*
X1049182Y347765D01*
X1049236Y347879D01*
X1049297Y347990D01*
X1049310Y348036D01*
X1049331Y348080D01*
X1049357Y348203D01*
X1049392Y348325D01*
X1049397Y348386D01*
X1049404Y348420D01*
X1049403Y348469D01*
X1049411Y348569D01*
X1049411Y363780D01*
X1049403Y363856D01*
X1049404Y363932D01*
X1049383Y364028D01*
X1049371Y364126D01*
X1049346Y364198D01*
X1049329Y364273D01*
X1049287Y364361D01*
X1049254Y364454D01*
X1049212Y364518D01*
X1049180Y364587D01*
X1049118Y364664D01*
X1049065Y364747D01*
X1049010Y364800D01*
X1048962Y364860D01*
X1048885Y364921D01*
X1048814Y364989D01*
X1048749Y365028D01*
X1048689Y365076D01*
X1048556Y365143D01*
X1048515Y365168D01*
X1048497Y365174D01*
X1048471Y365187D01*
X1048449Y365196D01*
X1045196Y368449D01*
X1043435Y372700D01*
X1043435Y377300D01*
X1045196Y381551D01*
X1048449Y384804D01*
X1052700Y386565D01*
X1057300Y386565D01*
X1061551Y384804D01*
X1064804Y381551D01*
X1066093Y378440D01*
X1066141Y378352D01*
X1066181Y378260D01*
X1066226Y378200D01*
X1066262Y378135D01*
X1066329Y378061D01*
X1066389Y377980D01*
X1066446Y377932D01*
X1066496Y377877D01*
X1066579Y377820D01*
X1066655Y377755D01*
X1066722Y377721D01*
X1066783Y377679D01*
X1066876Y377642D01*
X1066966Y377596D01*
X1067038Y377578D01*
X1067107Y377551D01*
X1067207Y377536D01*
X1067304Y377512D01*
X1067378Y377511D01*
X1067452Y377500D01*
X1067552Y377509D01*
X1067652Y377507D01*
X1067725Y377523D01*
X1067799Y377529D01*
X1067895Y377560D01*
X1067993Y377582D01*
X1068060Y377613D01*
X1068131Y377636D01*
X1068217Y377688D01*
X1068308Y377731D01*
X1068366Y377778D01*
X1068429Y377816D01*
X1068502Y377886D01*
X1068580Y377949D01*
X1068626Y378007D01*
X1068679Y378059D01*
X1068734Y378143D01*
X1068796Y378222D01*
X1068842Y378312D01*
X1068868Y378352D01*
X1068880Y378386D01*
X1068907Y378440D01*
X1070196Y381551D01*
X1073449Y384804D01*
X1077700Y386565D01*
X1082300Y386565D01*
X1086551Y384804D01*
X1089804Y381551D01*
X1091565Y377300D01*
X1091565Y372700D01*
X1089804Y368449D01*
X1086551Y365196D01*
X1086529Y365187D01*
X1086462Y365150D01*
X1086391Y365121D01*
X1086310Y365065D01*
X1086224Y365018D01*
X1086168Y364966D01*
X1086105Y364923D01*
X1086039Y364850D01*
X1085966Y364783D01*
X1085923Y364720D01*
X1085872Y364664D01*
X1085824Y364578D01*
X1085768Y364497D01*
X1085740Y364426D01*
X1085703Y364359D01*
X1085676Y364264D01*
X1085640Y364172D01*
X1085629Y364097D01*
X1085608Y364023D01*
X1085596Y363874D01*
X1085589Y363828D01*
X1085591Y363809D01*
X1085589Y363780D01*
X1085589Y348569D01*
X1085603Y348443D01*
X1085610Y348317D01*
X1085623Y348271D01*
X1085629Y348223D01*
X1085671Y348104D01*
X1085706Y347982D01*
X1085730Y347940D01*
X1085746Y347894D01*
X1085815Y347788D01*
X1085876Y347678D01*
X1085916Y347632D01*
X1085935Y347602D01*
X1085970Y347568D01*
X1086035Y347492D01*
X1088109Y345418D01*
X1089565Y341903D01*
X1089565Y338097D01*
X1088109Y334582D01*
X1085418Y331891D01*
X1081903Y330435D01*
X1078970Y330435D01*
X1078844Y330421D01*
X1078718Y330414D01*
X1078672Y330401D01*
X1078624Y330395D01*
X1078505Y330353D01*
X1078383Y330318D01*
X1078341Y330294D01*
X1078296Y330278D01*
X1078189Y330209D01*
X1078079Y330148D01*
X1078033Y330108D01*
X1078003Y330089D01*
X1077969Y330054D01*
X1077893Y329989D01*
X1043166Y295262D01*
X1041112Y294411D01*
X888888Y294411D01*
G37*
%LPD*%
G36*
X513981Y114600D02*
X513981Y114600D01*
X514031Y114601D01*
X514152Y114631D01*
X514274Y114654D01*
X514320Y114674D01*
X514369Y114686D01*
X514480Y114743D01*
X514594Y114793D01*
X514634Y114823D01*
X514679Y114846D01*
X514774Y114926D01*
X514874Y115000D01*
X514906Y115039D01*
X514944Y115072D01*
X515018Y115172D01*
X515099Y115266D01*
X515122Y115311D01*
X515152Y115352D01*
X515201Y115466D01*
X515258Y115577D01*
X515270Y115626D01*
X515290Y115672D01*
X515312Y115794D01*
X515342Y115915D01*
X515342Y115965D01*
X515351Y116015D01*
X515345Y116139D01*
X515347Y116263D01*
X515336Y116313D01*
X515333Y116363D01*
X515299Y116482D01*
X515272Y116604D01*
X515251Y116649D01*
X515237Y116698D01*
X515176Y116806D01*
X515123Y116919D01*
X515091Y116958D01*
X515067Y117002D01*
X514908Y117188D01*
X507048Y125048D01*
X505262Y126834D01*
X504411Y128888D01*
X504411Y131431D01*
X504397Y131557D01*
X504390Y131683D01*
X504377Y131729D01*
X504371Y131777D01*
X504329Y131896D01*
X504294Y132018D01*
X504270Y132060D01*
X504254Y132105D01*
X504185Y132212D01*
X504124Y132322D01*
X504084Y132368D01*
X504065Y132398D01*
X504030Y132432D01*
X503965Y132508D01*
X501891Y134582D01*
X501407Y135751D01*
X501359Y135838D01*
X501319Y135931D01*
X501274Y135990D01*
X501238Y136055D01*
X501171Y136130D01*
X501111Y136210D01*
X501054Y136258D01*
X501004Y136313D01*
X500921Y136371D01*
X500845Y136435D01*
X500778Y136469D01*
X500717Y136512D01*
X500624Y136549D01*
X500534Y136594D01*
X500462Y136612D01*
X500393Y136640D01*
X500293Y136654D01*
X500196Y136678D01*
X500122Y136679D01*
X500048Y136690D01*
X499948Y136682D01*
X499848Y136683D01*
X499775Y136668D01*
X499701Y136661D01*
X499605Y136631D01*
X499507Y136609D01*
X499440Y136577D01*
X499369Y136554D01*
X499283Y136503D01*
X499192Y136459D01*
X499134Y136413D01*
X499071Y136375D01*
X498999Y136305D01*
X498920Y136242D01*
X498874Y136184D01*
X498821Y136132D01*
X498766Y136047D01*
X498704Y135968D01*
X498658Y135879D01*
X498632Y135839D01*
X498620Y135805D01*
X498593Y135751D01*
X498109Y134582D01*
X495418Y131891D01*
X491903Y130435D01*
X488097Y130435D01*
X484582Y131891D01*
X481891Y134582D01*
X481407Y135751D01*
X481358Y135839D01*
X481318Y135931D01*
X481274Y135990D01*
X481238Y136055D01*
X481170Y136130D01*
X481111Y136210D01*
X481054Y136258D01*
X481004Y136314D01*
X480921Y136371D01*
X480845Y136436D01*
X480778Y136469D01*
X480717Y136512D01*
X480624Y136549D01*
X480534Y136594D01*
X480462Y136612D01*
X480393Y136640D01*
X480294Y136654D01*
X480196Y136678D01*
X480122Y136679D01*
X480048Y136690D01*
X479948Y136682D01*
X479848Y136683D01*
X479775Y136668D01*
X479701Y136661D01*
X479605Y136631D01*
X479507Y136609D01*
X479440Y136577D01*
X479369Y136554D01*
X479283Y136503D01*
X479192Y136459D01*
X479134Y136413D01*
X479071Y136375D01*
X478999Y136305D01*
X478920Y136242D01*
X478874Y136184D01*
X478821Y136132D01*
X478766Y136047D01*
X478704Y135968D01*
X478658Y135879D01*
X478632Y135839D01*
X478620Y135805D01*
X478593Y135751D01*
X478109Y134582D01*
X475418Y131891D01*
X471903Y130435D01*
X468097Y130435D01*
X464582Y131891D01*
X461891Y134582D01*
X461407Y135751D01*
X461359Y135838D01*
X461319Y135931D01*
X461274Y135990D01*
X461238Y136055D01*
X461171Y136130D01*
X461111Y136210D01*
X461054Y136258D01*
X461004Y136313D01*
X460921Y136371D01*
X460845Y136435D01*
X460778Y136469D01*
X460717Y136512D01*
X460624Y136549D01*
X460534Y136594D01*
X460462Y136612D01*
X460393Y136640D01*
X460293Y136654D01*
X460196Y136678D01*
X460122Y136679D01*
X460048Y136690D01*
X459948Y136682D01*
X459848Y136683D01*
X459775Y136668D01*
X459701Y136661D01*
X459605Y136631D01*
X459507Y136609D01*
X459440Y136577D01*
X459369Y136554D01*
X459283Y136503D01*
X459192Y136459D01*
X459134Y136413D01*
X459071Y136375D01*
X458999Y136305D01*
X458920Y136242D01*
X458874Y136184D01*
X458821Y136132D01*
X458766Y136047D01*
X458704Y135968D01*
X458658Y135879D01*
X458632Y135839D01*
X458620Y135805D01*
X458593Y135751D01*
X458109Y134582D01*
X455418Y131891D01*
X451903Y130435D01*
X448097Y130435D01*
X444582Y131891D01*
X441891Y134582D01*
X441407Y135751D01*
X441358Y135839D01*
X441318Y135931D01*
X441274Y135990D01*
X441238Y136055D01*
X441170Y136130D01*
X441111Y136210D01*
X441054Y136258D01*
X441004Y136314D01*
X440921Y136371D01*
X440845Y136436D01*
X440778Y136469D01*
X440717Y136512D01*
X440624Y136549D01*
X440534Y136594D01*
X440462Y136612D01*
X440393Y136640D01*
X440294Y136654D01*
X440196Y136678D01*
X440122Y136679D01*
X440048Y136690D01*
X439948Y136682D01*
X439848Y136683D01*
X439775Y136668D01*
X439701Y136661D01*
X439605Y136631D01*
X439507Y136609D01*
X439440Y136577D01*
X439369Y136554D01*
X439283Y136503D01*
X439192Y136459D01*
X439134Y136413D01*
X439071Y136375D01*
X438999Y136305D01*
X438920Y136242D01*
X438874Y136184D01*
X438821Y136132D01*
X438766Y136047D01*
X438704Y135968D01*
X438658Y135879D01*
X438632Y135839D01*
X438620Y135805D01*
X438593Y135751D01*
X438109Y134582D01*
X435418Y131891D01*
X431903Y130435D01*
X428097Y130435D01*
X424582Y131891D01*
X421891Y134582D01*
X421407Y135751D01*
X421359Y135838D01*
X421319Y135931D01*
X421274Y135990D01*
X421238Y136055D01*
X421171Y136130D01*
X421111Y136210D01*
X421054Y136258D01*
X421004Y136313D01*
X420921Y136371D01*
X420845Y136435D01*
X420778Y136469D01*
X420717Y136512D01*
X420624Y136549D01*
X420534Y136594D01*
X420462Y136612D01*
X420393Y136640D01*
X420293Y136654D01*
X420196Y136678D01*
X420122Y136679D01*
X420048Y136690D01*
X419948Y136682D01*
X419848Y136683D01*
X419775Y136668D01*
X419701Y136661D01*
X419605Y136631D01*
X419507Y136609D01*
X419440Y136577D01*
X419369Y136554D01*
X419283Y136503D01*
X419192Y136459D01*
X419134Y136413D01*
X419071Y136375D01*
X418999Y136305D01*
X418920Y136242D01*
X418874Y136184D01*
X418821Y136132D01*
X418766Y136047D01*
X418704Y135968D01*
X418658Y135879D01*
X418632Y135839D01*
X418620Y135805D01*
X418593Y135751D01*
X418109Y134582D01*
X415418Y131891D01*
X411903Y130435D01*
X408097Y130435D01*
X404582Y131891D01*
X401891Y134582D01*
X401407Y135751D01*
X401358Y135839D01*
X401318Y135931D01*
X401274Y135990D01*
X401238Y136055D01*
X401170Y136130D01*
X401111Y136210D01*
X401054Y136258D01*
X401004Y136314D01*
X400921Y136371D01*
X400845Y136436D01*
X400778Y136469D01*
X400717Y136512D01*
X400624Y136549D01*
X400534Y136594D01*
X400462Y136612D01*
X400393Y136640D01*
X400294Y136654D01*
X400196Y136678D01*
X400122Y136679D01*
X400048Y136690D01*
X399948Y136682D01*
X399848Y136683D01*
X399775Y136668D01*
X399701Y136661D01*
X399605Y136631D01*
X399507Y136609D01*
X399440Y136577D01*
X399369Y136554D01*
X399283Y136503D01*
X399192Y136459D01*
X399134Y136413D01*
X399071Y136375D01*
X398999Y136305D01*
X398920Y136242D01*
X398874Y136184D01*
X398821Y136132D01*
X398766Y136047D01*
X398704Y135968D01*
X398658Y135879D01*
X398632Y135839D01*
X398620Y135805D01*
X398593Y135751D01*
X398109Y134582D01*
X395418Y131891D01*
X391903Y130435D01*
X388097Y130435D01*
X384582Y131891D01*
X381891Y134582D01*
X381407Y135751D01*
X381358Y135839D01*
X381318Y135931D01*
X381274Y135990D01*
X381238Y136055D01*
X381170Y136130D01*
X381111Y136210D01*
X381054Y136258D01*
X381004Y136314D01*
X380921Y136371D01*
X380845Y136436D01*
X380778Y136469D01*
X380717Y136512D01*
X380624Y136549D01*
X380534Y136594D01*
X380462Y136612D01*
X380393Y136640D01*
X380294Y136654D01*
X380196Y136678D01*
X380122Y136679D01*
X380048Y136690D01*
X379948Y136682D01*
X379848Y136683D01*
X379775Y136668D01*
X379701Y136661D01*
X379605Y136631D01*
X379507Y136609D01*
X379440Y136577D01*
X379369Y136554D01*
X379283Y136503D01*
X379192Y136459D01*
X379134Y136413D01*
X379071Y136375D01*
X378999Y136305D01*
X378920Y136242D01*
X378874Y136184D01*
X378821Y136132D01*
X378766Y136047D01*
X378704Y135968D01*
X378658Y135879D01*
X378632Y135839D01*
X378620Y135805D01*
X378593Y135751D01*
X378109Y134582D01*
X375418Y131891D01*
X371903Y130435D01*
X368097Y130435D01*
X364582Y131891D01*
X361891Y134582D01*
X361407Y135751D01*
X361359Y135838D01*
X361319Y135931D01*
X361274Y135990D01*
X361238Y136055D01*
X361171Y136130D01*
X361111Y136210D01*
X361054Y136258D01*
X361004Y136313D01*
X360921Y136371D01*
X360845Y136435D01*
X360778Y136469D01*
X360717Y136512D01*
X360624Y136549D01*
X360534Y136594D01*
X360462Y136612D01*
X360393Y136640D01*
X360293Y136654D01*
X360196Y136678D01*
X360122Y136679D01*
X360048Y136690D01*
X359948Y136682D01*
X359848Y136683D01*
X359775Y136668D01*
X359701Y136661D01*
X359605Y136631D01*
X359507Y136609D01*
X359440Y136577D01*
X359369Y136554D01*
X359283Y136503D01*
X359192Y136459D01*
X359134Y136413D01*
X359071Y136375D01*
X358999Y136305D01*
X358920Y136242D01*
X358874Y136184D01*
X358821Y136132D01*
X358766Y136047D01*
X358704Y135968D01*
X358658Y135879D01*
X358632Y135839D01*
X358620Y135805D01*
X358593Y135751D01*
X358109Y134582D01*
X355418Y131891D01*
X351903Y130435D01*
X348097Y130435D01*
X344582Y131891D01*
X341891Y134582D01*
X341407Y135751D01*
X341359Y135838D01*
X341319Y135931D01*
X341274Y135990D01*
X341238Y136055D01*
X341171Y136130D01*
X341111Y136210D01*
X341054Y136258D01*
X341004Y136313D01*
X340921Y136371D01*
X340845Y136435D01*
X340778Y136469D01*
X340717Y136512D01*
X340624Y136549D01*
X340534Y136594D01*
X340462Y136612D01*
X340393Y136640D01*
X340293Y136654D01*
X340196Y136678D01*
X340122Y136679D01*
X340048Y136690D01*
X339948Y136682D01*
X339848Y136683D01*
X339775Y136668D01*
X339701Y136661D01*
X339605Y136631D01*
X339507Y136609D01*
X339440Y136577D01*
X339369Y136554D01*
X339283Y136503D01*
X339192Y136459D01*
X339134Y136413D01*
X339071Y136375D01*
X338999Y136305D01*
X338920Y136242D01*
X338874Y136184D01*
X338821Y136132D01*
X338766Y136047D01*
X338704Y135968D01*
X338658Y135879D01*
X338632Y135839D01*
X338620Y135805D01*
X338593Y135751D01*
X338109Y134582D01*
X335418Y131891D01*
X331903Y130435D01*
X328097Y130435D01*
X324582Y131891D01*
X321891Y134582D01*
X321407Y135751D01*
X321359Y135838D01*
X321319Y135931D01*
X321274Y135990D01*
X321238Y136055D01*
X321171Y136130D01*
X321111Y136210D01*
X321054Y136258D01*
X321004Y136313D01*
X320921Y136371D01*
X320845Y136435D01*
X320778Y136469D01*
X320717Y136512D01*
X320624Y136549D01*
X320534Y136594D01*
X320462Y136612D01*
X320393Y136640D01*
X320293Y136654D01*
X320196Y136678D01*
X320122Y136679D01*
X320048Y136690D01*
X319948Y136682D01*
X319848Y136683D01*
X319775Y136668D01*
X319701Y136661D01*
X319605Y136631D01*
X319507Y136609D01*
X319440Y136577D01*
X319369Y136554D01*
X319283Y136503D01*
X319192Y136459D01*
X319134Y136413D01*
X319071Y136375D01*
X318999Y136305D01*
X318920Y136242D01*
X318874Y136184D01*
X318821Y136132D01*
X318766Y136047D01*
X318704Y135968D01*
X318658Y135879D01*
X318632Y135839D01*
X318620Y135805D01*
X318593Y135751D01*
X318109Y134582D01*
X316792Y133266D01*
X316776Y133245D01*
X316756Y133228D01*
X316668Y133109D01*
X316576Y132993D01*
X316564Y132969D01*
X316549Y132948D01*
X316490Y132812D01*
X316427Y132678D01*
X316421Y132652D01*
X316411Y132628D01*
X316385Y132482D01*
X316353Y132337D01*
X316354Y132311D01*
X316349Y132285D01*
X316357Y132136D01*
X316359Y131988D01*
X316366Y131963D01*
X316367Y131937D01*
X316408Y131794D01*
X316444Y131650D01*
X316456Y131627D01*
X316464Y131602D01*
X316536Y131472D01*
X316604Y131341D01*
X316621Y131321D01*
X316634Y131298D01*
X316792Y131111D01*
X331869Y116035D01*
X331968Y115956D01*
X332062Y115872D01*
X332104Y115848D01*
X332142Y115818D01*
X332256Y115764D01*
X332367Y115703D01*
X332413Y115690D01*
X332457Y115669D01*
X332580Y115643D01*
X332702Y115608D01*
X332763Y115603D01*
X332798Y115596D01*
X332846Y115597D01*
X332946Y115589D01*
X511112Y115589D01*
X513248Y114704D01*
X513297Y114690D01*
X513342Y114668D01*
X513463Y114642D01*
X513583Y114608D01*
X513634Y114606D01*
X513683Y114595D01*
X513807Y114597D01*
X513931Y114591D01*
X513981Y114600D01*
G37*
%LPC*%
G36*
X678439Y292153D02*
X678439Y292153D01*
X675555Y293348D01*
X673348Y295555D01*
X672153Y298439D01*
X672153Y300630D01*
X672150Y300656D01*
X672152Y300682D01*
X672130Y300829D01*
X672113Y300976D01*
X672105Y301001D01*
X672101Y301027D01*
X672046Y301165D01*
X671996Y301304D01*
X671982Y301326D01*
X671972Y301351D01*
X671887Y301472D01*
X671807Y301597D01*
X671788Y301615D01*
X671773Y301637D01*
X671663Y301736D01*
X671556Y301839D01*
X671534Y301853D01*
X671514Y301870D01*
X671384Y301942D01*
X671257Y302018D01*
X671232Y302026D01*
X671209Y302039D01*
X671066Y302079D01*
X670925Y302124D01*
X670899Y302126D01*
X670874Y302134D01*
X670630Y302153D01*
X668439Y302153D01*
X665555Y303348D01*
X663348Y305555D01*
X662153Y308439D01*
X662153Y311561D01*
X663348Y314445D01*
X665555Y316652D01*
X668439Y317847D01*
X669312Y317847D01*
X669438Y317861D01*
X669564Y317868D01*
X669610Y317881D01*
X669658Y317887D01*
X669777Y317929D01*
X669899Y317964D01*
X669941Y317988D01*
X669986Y318004D01*
X670093Y318073D01*
X670203Y318134D01*
X670249Y318174D01*
X670279Y318193D01*
X670313Y318228D01*
X670389Y318293D01*
X696834Y344738D01*
X698888Y345589D01*
X718912Y345589D01*
X718938Y345592D01*
X718964Y345590D01*
X719111Y345612D01*
X719258Y345629D01*
X719283Y345637D01*
X719309Y345641D01*
X719447Y345696D01*
X719586Y345746D01*
X719608Y345760D01*
X719633Y345770D01*
X719754Y345855D01*
X719879Y345935D01*
X719897Y345954D01*
X719919Y345969D01*
X720018Y346079D01*
X720121Y346186D01*
X720135Y346208D01*
X720152Y346228D01*
X720224Y346358D01*
X720300Y346485D01*
X720308Y346510D01*
X720321Y346533D01*
X720361Y346676D01*
X720406Y346817D01*
X720408Y346843D01*
X720416Y346868D01*
X720435Y347112D01*
X720435Y348684D01*
X722816Y351065D01*
X737184Y351065D01*
X738923Y349326D01*
X738944Y349309D01*
X738960Y349289D01*
X739080Y349201D01*
X739196Y349109D01*
X739220Y349098D01*
X739241Y349082D01*
X739377Y349023D01*
X739511Y348960D01*
X739537Y348954D01*
X739561Y348944D01*
X739707Y348918D01*
X739852Y348887D01*
X739878Y348887D01*
X739904Y348882D01*
X740052Y348890D01*
X740200Y348893D01*
X740226Y348899D01*
X740252Y348900D01*
X740394Y348941D01*
X740538Y348978D01*
X740561Y348990D01*
X740587Y348997D01*
X740716Y349069D01*
X740848Y349137D01*
X740868Y349154D01*
X740891Y349167D01*
X741077Y349326D01*
X742816Y351065D01*
X757184Y351065D01*
X759565Y348684D01*
X759565Y331316D01*
X757184Y328935D01*
X754280Y328935D01*
X754155Y328921D01*
X754029Y328914D01*
X753982Y328901D01*
X753934Y328895D01*
X753815Y328853D01*
X753694Y328818D01*
X753652Y328794D01*
X753606Y328778D01*
X753500Y328709D01*
X753390Y328648D01*
X753343Y328608D01*
X753313Y328589D01*
X753280Y328554D01*
X753203Y328489D01*
X741715Y317000D01*
X739928Y315214D01*
X737874Y314363D01*
X702898Y314363D01*
X702772Y314349D01*
X702646Y314342D01*
X702600Y314329D01*
X702552Y314323D01*
X702433Y314281D01*
X702311Y314246D01*
X702269Y314222D01*
X702224Y314206D01*
X702117Y314137D01*
X702007Y314076D01*
X701961Y314036D01*
X701931Y314017D01*
X701897Y313982D01*
X701821Y313917D01*
X688293Y300389D01*
X688214Y300290D01*
X688130Y300196D01*
X688106Y300154D01*
X688076Y300116D01*
X688022Y300002D01*
X687961Y299891D01*
X687948Y299845D01*
X687927Y299801D01*
X687901Y299678D01*
X687866Y299556D01*
X687861Y299495D01*
X687854Y299460D01*
X687855Y299412D01*
X687847Y299312D01*
X687847Y298439D01*
X686652Y295555D01*
X684445Y293348D01*
X681561Y292153D01*
X678439Y292153D01*
G37*
%LPD*%
%LPC*%
G36*
X72913Y55092D02*
X72913Y55092D01*
X64394Y59334D01*
X57982Y66367D01*
X54545Y75241D01*
X54545Y84759D01*
X57982Y93633D01*
X64394Y100666D01*
X72913Y104908D01*
X82389Y105786D01*
X91543Y103181D01*
X99138Y97446D01*
X104148Y89355D01*
X105896Y80000D01*
X104148Y70645D01*
X99138Y62554D01*
X91543Y56819D01*
X82389Y54214D01*
X72913Y55092D01*
G37*
%LPD*%
%LPC*%
G36*
X1452913Y55092D02*
X1452913Y55092D01*
X1444394Y59334D01*
X1437982Y66367D01*
X1434545Y75241D01*
X1434545Y84759D01*
X1437982Y93633D01*
X1444394Y100666D01*
X1452913Y104908D01*
X1462389Y105786D01*
X1471543Y103181D01*
X1479138Y97446D01*
X1484148Y89355D01*
X1485896Y80000D01*
X1484148Y70645D01*
X1479138Y62554D01*
X1471543Y56819D01*
X1462389Y54214D01*
X1452913Y55092D01*
G37*
%LPD*%
%LPC*%
G36*
X1452913Y515092D02*
X1452913Y515092D01*
X1444394Y519334D01*
X1437982Y526367D01*
X1434545Y535241D01*
X1434545Y544759D01*
X1437982Y553633D01*
X1444394Y560666D01*
X1452913Y564908D01*
X1462389Y565786D01*
X1471543Y563181D01*
X1479138Y557446D01*
X1484148Y549355D01*
X1485896Y540000D01*
X1484148Y530645D01*
X1479138Y522554D01*
X1471543Y516819D01*
X1462389Y514214D01*
X1452913Y515092D01*
G37*
%LPD*%
%LPC*%
G36*
X72913Y515092D02*
X72913Y515092D01*
X64394Y519334D01*
X57982Y526367D01*
X54545Y535241D01*
X54545Y544758D01*
X57982Y553633D01*
X64394Y560666D01*
X72913Y564908D01*
X82389Y565786D01*
X91543Y563181D01*
X99138Y557446D01*
X104148Y549355D01*
X105896Y540000D01*
X104148Y530645D01*
X99138Y522554D01*
X91543Y516819D01*
X82389Y514214D01*
X72913Y515092D01*
G37*
%LPD*%
%LPC*%
G36*
X190001Y52435D02*
X190001Y52435D01*
X185383Y54348D01*
X181848Y57883D01*
X179935Y62501D01*
X179935Y67499D01*
X181848Y72117D01*
X182066Y72335D01*
X182128Y72413D01*
X182198Y72486D01*
X182236Y72550D01*
X182282Y72608D01*
X182325Y72699D01*
X182377Y72785D01*
X182399Y72856D01*
X182431Y72923D01*
X182452Y73021D01*
X182483Y73117D01*
X182489Y73191D01*
X182505Y73264D01*
X182503Y73364D01*
X182511Y73464D01*
X182500Y73538D01*
X182499Y73612D01*
X182474Y73710D01*
X182459Y73809D01*
X182432Y73878D01*
X182414Y73950D01*
X182368Y74039D01*
X182331Y74133D01*
X182288Y74194D01*
X182254Y74260D01*
X182189Y74336D01*
X182132Y74419D01*
X182076Y74469D01*
X182028Y74525D01*
X181947Y74585D01*
X181873Y74652D01*
X181808Y74688D01*
X181748Y74733D01*
X181656Y74772D01*
X181568Y74821D01*
X181496Y74841D01*
X181428Y74871D01*
X181329Y74888D01*
X181232Y74916D01*
X181132Y74924D01*
X181085Y74932D01*
X181049Y74930D01*
X180989Y74935D01*
X179503Y74935D01*
X173966Y77229D01*
X169729Y81466D01*
X167435Y87003D01*
X167435Y92997D01*
X169729Y98534D01*
X173966Y102771D01*
X179503Y105065D01*
X185497Y105065D01*
X191034Y102771D01*
X195271Y98534D01*
X197565Y92997D01*
X197565Y87003D01*
X195271Y81466D01*
X193970Y80165D01*
X193907Y80086D01*
X193838Y80014D01*
X193799Y79950D01*
X193753Y79892D01*
X193710Y79801D01*
X193659Y79715D01*
X193636Y79644D01*
X193604Y79577D01*
X193583Y79479D01*
X193553Y79383D01*
X193547Y79309D01*
X193531Y79236D01*
X193533Y79136D01*
X193525Y79036D01*
X193536Y78962D01*
X193537Y78888D01*
X193561Y78791D01*
X193576Y78691D01*
X193604Y78622D01*
X193622Y78550D01*
X193668Y78461D01*
X193705Y78367D01*
X193747Y78306D01*
X193782Y78240D01*
X193847Y78164D01*
X193904Y78081D01*
X193959Y78031D01*
X194007Y77975D01*
X194088Y77915D01*
X194163Y77848D01*
X194228Y77812D01*
X194288Y77767D01*
X194380Y77728D01*
X194468Y77679D01*
X194539Y77659D01*
X194608Y77629D01*
X194706Y77612D01*
X194803Y77584D01*
X194903Y77576D01*
X194951Y77568D01*
X194986Y77570D01*
X194988Y77569D01*
X199617Y75652D01*
X203152Y72117D01*
X205065Y67499D01*
X205065Y62501D01*
X203152Y57883D01*
X199617Y54348D01*
X194999Y52435D01*
X190001Y52435D01*
G37*
%LPD*%
%LPC*%
G36*
X1354503Y514935D02*
X1354503Y514935D01*
X1348966Y517229D01*
X1344729Y521466D01*
X1342435Y527003D01*
X1342435Y532997D01*
X1344729Y538534D01*
X1346030Y539835D01*
X1346093Y539914D01*
X1346162Y539986D01*
X1346201Y540050D01*
X1346247Y540108D01*
X1346290Y540199D01*
X1346341Y540285D01*
X1346364Y540356D01*
X1346396Y540423D01*
X1346417Y540521D01*
X1346447Y540617D01*
X1346453Y540691D01*
X1346469Y540764D01*
X1346467Y540864D01*
X1346475Y540964D01*
X1346464Y541038D01*
X1346463Y541112D01*
X1346439Y541209D01*
X1346424Y541309D01*
X1346396Y541378D01*
X1346378Y541450D01*
X1346332Y541539D01*
X1346295Y541633D01*
X1346253Y541694D01*
X1346218Y541760D01*
X1346153Y541836D01*
X1346096Y541919D01*
X1346041Y541969D01*
X1345993Y542025D01*
X1345912Y542085D01*
X1345837Y542152D01*
X1345772Y542188D01*
X1345712Y542233D01*
X1345620Y542272D01*
X1345532Y542321D01*
X1345461Y542341D01*
X1345392Y542371D01*
X1345294Y542388D01*
X1345197Y542416D01*
X1345097Y542424D01*
X1345049Y542432D01*
X1345014Y542430D01*
X1345012Y542431D01*
X1340383Y544348D01*
X1336848Y547883D01*
X1334935Y552501D01*
X1334935Y557499D01*
X1336848Y562117D01*
X1340383Y565652D01*
X1345001Y567565D01*
X1349999Y567565D01*
X1354617Y565652D01*
X1358152Y562117D01*
X1360065Y557499D01*
X1360065Y552501D01*
X1358152Y547883D01*
X1357934Y547665D01*
X1357872Y547587D01*
X1357802Y547514D01*
X1357764Y547450D01*
X1357718Y547392D01*
X1357675Y547301D01*
X1357623Y547215D01*
X1357601Y547144D01*
X1357569Y547077D01*
X1357548Y546979D01*
X1357517Y546883D01*
X1357511Y546809D01*
X1357495Y546736D01*
X1357497Y546636D01*
X1357489Y546536D01*
X1357500Y546462D01*
X1357501Y546388D01*
X1357526Y546290D01*
X1357541Y546191D01*
X1357568Y546122D01*
X1357586Y546050D01*
X1357632Y545961D01*
X1357669Y545867D01*
X1357712Y545806D01*
X1357746Y545740D01*
X1357811Y545664D01*
X1357868Y545581D01*
X1357924Y545531D01*
X1357972Y545475D01*
X1358053Y545415D01*
X1358127Y545348D01*
X1358192Y545312D01*
X1358252Y545267D01*
X1358344Y545228D01*
X1358432Y545179D01*
X1358504Y545159D01*
X1358572Y545129D01*
X1358671Y545112D01*
X1358768Y545084D01*
X1358868Y545076D01*
X1358915Y545068D01*
X1358951Y545070D01*
X1359011Y545065D01*
X1360497Y545065D01*
X1366034Y542771D01*
X1370271Y538534D01*
X1372565Y532997D01*
X1372565Y527003D01*
X1370271Y521466D01*
X1366034Y517229D01*
X1360497Y514935D01*
X1354503Y514935D01*
G37*
%LPD*%
%LPC*%
G36*
X742924Y365303D02*
X742924Y365303D01*
X738349Y367198D01*
X734848Y370699D01*
X732953Y375274D01*
X732953Y380226D01*
X734848Y384801D01*
X738349Y388302D01*
X742924Y390197D01*
X747876Y390197D01*
X752451Y388302D01*
X755952Y384801D01*
X756693Y383012D01*
X756741Y382924D01*
X756782Y382832D01*
X756826Y382772D01*
X756862Y382707D01*
X756929Y382633D01*
X756989Y382552D01*
X757046Y382504D01*
X757096Y382449D01*
X757179Y382392D01*
X757255Y382327D01*
X757322Y382293D01*
X757383Y382251D01*
X757476Y382214D01*
X757566Y382168D01*
X757638Y382150D01*
X757707Y382123D01*
X757806Y382108D01*
X757904Y382084D01*
X757978Y382083D01*
X758052Y382072D01*
X758152Y382081D01*
X758252Y382079D01*
X758325Y382095D01*
X758399Y382101D01*
X758495Y382132D01*
X758593Y382153D01*
X758660Y382185D01*
X758731Y382208D01*
X758817Y382260D01*
X758908Y382303D01*
X758966Y382350D01*
X759029Y382388D01*
X759101Y382458D01*
X759180Y382521D01*
X759226Y382579D01*
X759279Y382631D01*
X759334Y382715D01*
X759396Y382794D01*
X759442Y382884D01*
X759468Y382924D01*
X759480Y382958D01*
X759507Y383012D01*
X760248Y384801D01*
X763749Y388302D01*
X768324Y390197D01*
X773276Y390197D01*
X777851Y388302D01*
X781352Y384801D01*
X782940Y380965D01*
X783018Y380825D01*
X783093Y380684D01*
X783103Y380673D01*
X783110Y380661D01*
X783217Y380542D01*
X783322Y380422D01*
X783334Y380413D01*
X783344Y380403D01*
X783475Y380312D01*
X783605Y380218D01*
X783619Y380213D01*
X783631Y380204D01*
X783779Y380146D01*
X783927Y380084D01*
X783941Y380082D01*
X783955Y380077D01*
X784113Y380053D01*
X784271Y380027D01*
X784285Y380028D01*
X784300Y380026D01*
X784459Y380039D01*
X784618Y380049D01*
X784632Y380054D01*
X784647Y380055D01*
X784799Y380104D01*
X784952Y380150D01*
X784965Y380157D01*
X784978Y380162D01*
X785115Y380244D01*
X785254Y380324D01*
X785265Y380334D01*
X785277Y380342D01*
X785392Y380453D01*
X785509Y380562D01*
X785517Y380574D01*
X785527Y380584D01*
X785614Y380719D01*
X785702Y380852D01*
X785709Y380868D01*
X785715Y380878D01*
X785728Y380914D01*
X785796Y381078D01*
X786078Y381943D01*
X786858Y383475D01*
X787869Y384866D01*
X789084Y386081D01*
X790475Y387092D01*
X792007Y387872D01*
X793642Y388404D01*
X793951Y388453D01*
X793951Y378476D01*
X793954Y378450D01*
X793952Y378424D01*
X793974Y378277D01*
X793991Y378130D01*
X793999Y378105D01*
X794003Y378079D01*
X794058Y377942D01*
X794108Y377802D01*
X794122Y377780D01*
X794132Y377755D01*
X794141Y377743D01*
X794086Y377651D01*
X794078Y377626D01*
X794065Y377603D01*
X794025Y377460D01*
X793980Y377319D01*
X793977Y377293D01*
X793970Y377268D01*
X793951Y377024D01*
X793951Y367047D01*
X793642Y367096D01*
X792007Y367628D01*
X790475Y368408D01*
X789084Y369419D01*
X787869Y370634D01*
X786858Y372025D01*
X786078Y373557D01*
X785796Y374422D01*
X785730Y374567D01*
X785666Y374714D01*
X785657Y374726D01*
X785651Y374739D01*
X785553Y374866D01*
X785458Y374994D01*
X785447Y375003D01*
X785438Y375015D01*
X785314Y375116D01*
X785192Y375219D01*
X785179Y375226D01*
X785168Y375235D01*
X785024Y375306D01*
X784882Y375378D01*
X784868Y375382D01*
X784855Y375388D01*
X784698Y375424D01*
X784544Y375462D01*
X784529Y375462D01*
X784515Y375466D01*
X784355Y375465D01*
X784195Y375467D01*
X784181Y375464D01*
X784167Y375464D01*
X784011Y375427D01*
X783855Y375393D01*
X783842Y375387D01*
X783828Y375383D01*
X783685Y375312D01*
X783540Y375243D01*
X783529Y375234D01*
X783516Y375228D01*
X783393Y375126D01*
X783268Y375026D01*
X783259Y375015D01*
X783248Y375005D01*
X783151Y374878D01*
X783052Y374752D01*
X783044Y374737D01*
X783037Y374728D01*
X783021Y374693D01*
X782940Y374535D01*
X781352Y370699D01*
X777851Y367198D01*
X773276Y365303D01*
X768324Y365303D01*
X763749Y367198D01*
X760248Y370699D01*
X759507Y372488D01*
X759459Y372576D01*
X759419Y372668D01*
X759374Y372728D01*
X759338Y372793D01*
X759271Y372867D01*
X759211Y372948D01*
X759154Y372996D01*
X759104Y373051D01*
X759021Y373108D01*
X758945Y373173D01*
X758878Y373207D01*
X758817Y373249D01*
X758724Y373286D01*
X758634Y373332D01*
X758562Y373350D01*
X758493Y373377D01*
X758394Y373392D01*
X758296Y373416D01*
X758222Y373417D01*
X758148Y373428D01*
X758048Y373419D01*
X757948Y373421D01*
X757875Y373405D01*
X757801Y373399D01*
X757705Y373368D01*
X757607Y373347D01*
X757540Y373315D01*
X757469Y373292D01*
X757383Y373240D01*
X757292Y373197D01*
X757234Y373150D01*
X757171Y373112D01*
X757099Y373042D01*
X757020Y372979D01*
X756974Y372921D01*
X756921Y372869D01*
X756866Y372785D01*
X756804Y372706D01*
X756758Y372617D01*
X756732Y372576D01*
X756720Y372542D01*
X756693Y372488D01*
X755952Y370699D01*
X752451Y367198D01*
X747876Y365303D01*
X742924Y365303D01*
G37*
%LPD*%
%LPC*%
G36*
X179503Y514935D02*
X179503Y514935D01*
X173966Y517229D01*
X169729Y521466D01*
X167435Y527003D01*
X167435Y532997D01*
X169729Y538534D01*
X173966Y542771D01*
X179503Y545065D01*
X183144Y545065D01*
X183244Y545076D01*
X183344Y545078D01*
X183416Y545096D01*
X183490Y545105D01*
X183585Y545138D01*
X183682Y545163D01*
X183748Y545197D01*
X183818Y545222D01*
X183903Y545277D01*
X183992Y545323D01*
X184048Y545371D01*
X184111Y545411D01*
X184181Y545483D01*
X184257Y545549D01*
X184302Y545608D01*
X184353Y545662D01*
X184405Y545748D01*
X184464Y545829D01*
X184494Y545897D01*
X184532Y545961D01*
X184563Y546057D01*
X184602Y546149D01*
X184616Y546222D01*
X184638Y546293D01*
X184646Y546393D01*
X184664Y546492D01*
X184660Y546566D01*
X184666Y546640D01*
X184651Y546739D01*
X184646Y546840D01*
X184626Y546911D01*
X184615Y546985D01*
X184577Y547078D01*
X184550Y547175D01*
X184513Y547240D01*
X184486Y547309D01*
X184428Y547391D01*
X184379Y547479D01*
X184314Y547555D01*
X184287Y547595D01*
X184260Y547619D01*
X184221Y547665D01*
X184079Y547808D01*
X183057Y549213D01*
X182268Y550762D01*
X181731Y552414D01*
X181638Y553001D01*
X192024Y553001D01*
X192050Y553004D01*
X192076Y553002D01*
X192223Y553024D01*
X192370Y553041D01*
X192395Y553049D01*
X192421Y553053D01*
X192502Y553086D01*
X192540Y553075D01*
X192681Y553030D01*
X192707Y553027D01*
X192732Y553020D01*
X192976Y553001D01*
X203362Y553001D01*
X203269Y552414D01*
X202732Y550762D01*
X201943Y549213D01*
X200921Y547807D01*
X199693Y546579D01*
X198287Y545557D01*
X196738Y544768D01*
X195086Y544231D01*
X193280Y543945D01*
X193131Y543904D01*
X192980Y543866D01*
X192963Y543857D01*
X192944Y543852D01*
X192809Y543777D01*
X192670Y543706D01*
X192656Y543694D01*
X192639Y543684D01*
X192523Y543581D01*
X192405Y543480D01*
X192393Y543465D01*
X192379Y543452D01*
X192290Y543325D01*
X192198Y543200D01*
X192190Y543182D01*
X192179Y543166D01*
X192121Y543022D01*
X192060Y542880D01*
X192056Y542861D01*
X192049Y542843D01*
X192026Y542690D01*
X191998Y542537D01*
X191999Y542518D01*
X191996Y542498D01*
X192008Y542343D01*
X192016Y542189D01*
X192021Y542170D01*
X192023Y542151D01*
X192069Y542004D01*
X192113Y541854D01*
X192122Y541837D01*
X192128Y541819D01*
X192207Y541686D01*
X192283Y541550D01*
X192298Y541532D01*
X192306Y541519D01*
X192336Y541487D01*
X192441Y541364D01*
X195271Y538534D01*
X197565Y532997D01*
X197565Y527003D01*
X195271Y521466D01*
X191034Y517229D01*
X185497Y514935D01*
X179503Y514935D01*
G37*
%LPD*%
%LPC*%
G36*
X1284503Y514935D02*
X1284503Y514935D01*
X1278966Y517229D01*
X1274729Y521466D01*
X1272435Y527003D01*
X1272435Y532997D01*
X1274729Y538534D01*
X1278966Y542771D01*
X1284503Y545065D01*
X1288144Y545065D01*
X1288244Y545076D01*
X1288344Y545078D01*
X1288416Y545096D01*
X1288490Y545105D01*
X1288585Y545138D01*
X1288682Y545163D01*
X1288748Y545197D01*
X1288818Y545222D01*
X1288903Y545277D01*
X1288992Y545323D01*
X1289048Y545371D01*
X1289111Y545411D01*
X1289181Y545483D01*
X1289257Y545549D01*
X1289302Y545608D01*
X1289353Y545662D01*
X1289405Y545748D01*
X1289464Y545829D01*
X1289494Y545897D01*
X1289532Y545961D01*
X1289563Y546057D01*
X1289602Y546149D01*
X1289616Y546222D01*
X1289638Y546293D01*
X1289646Y546393D01*
X1289664Y546492D01*
X1289660Y546566D01*
X1289666Y546640D01*
X1289651Y546739D01*
X1289646Y546840D01*
X1289626Y546911D01*
X1289615Y546985D01*
X1289577Y547078D01*
X1289550Y547175D01*
X1289513Y547240D01*
X1289486Y547309D01*
X1289428Y547391D01*
X1289379Y547479D01*
X1289314Y547555D01*
X1289287Y547595D01*
X1289260Y547619D01*
X1289221Y547665D01*
X1289079Y547808D01*
X1288057Y549213D01*
X1287268Y550762D01*
X1286731Y552414D01*
X1286638Y553001D01*
X1297024Y553001D01*
X1297050Y553004D01*
X1297076Y553002D01*
X1297223Y553024D01*
X1297370Y553041D01*
X1297395Y553049D01*
X1297421Y553053D01*
X1297502Y553086D01*
X1297540Y553075D01*
X1297681Y553030D01*
X1297707Y553027D01*
X1297732Y553020D01*
X1297976Y553001D01*
X1308362Y553001D01*
X1308269Y552414D01*
X1307732Y550762D01*
X1306943Y549213D01*
X1305921Y547807D01*
X1304693Y546579D01*
X1303287Y545557D01*
X1301738Y544768D01*
X1300086Y544231D01*
X1298280Y543945D01*
X1298131Y543904D01*
X1297980Y543866D01*
X1297963Y543857D01*
X1297944Y543852D01*
X1297808Y543777D01*
X1297670Y543706D01*
X1297656Y543694D01*
X1297639Y543684D01*
X1297523Y543581D01*
X1297405Y543480D01*
X1297393Y543465D01*
X1297379Y543452D01*
X1297290Y543325D01*
X1297198Y543200D01*
X1297190Y543182D01*
X1297179Y543166D01*
X1297121Y543022D01*
X1297060Y542880D01*
X1297056Y542861D01*
X1297049Y542843D01*
X1297025Y542689D01*
X1296998Y542537D01*
X1296999Y542518D01*
X1296996Y542498D01*
X1297008Y542343D01*
X1297016Y542189D01*
X1297021Y542170D01*
X1297023Y542151D01*
X1297069Y542003D01*
X1297112Y541854D01*
X1297122Y541837D01*
X1297128Y541819D01*
X1297207Y541685D01*
X1297283Y541550D01*
X1297298Y541532D01*
X1297306Y541519D01*
X1297336Y541487D01*
X1297441Y541364D01*
X1300271Y538534D01*
X1302565Y532997D01*
X1302565Y527003D01*
X1300271Y521466D01*
X1296034Y517229D01*
X1290497Y514935D01*
X1284503Y514935D01*
G37*
%LPD*%
%LPC*%
G36*
X722596Y251345D02*
X722596Y251345D01*
X720215Y253726D01*
X720215Y274874D01*
X722596Y277255D01*
X746284Y277255D01*
X748665Y274874D01*
X748665Y253726D01*
X746284Y251345D01*
X722596Y251345D01*
G37*
%LPD*%
%LPC*%
G36*
X792446Y251345D02*
X792446Y251345D01*
X790065Y253726D01*
X790065Y274874D01*
X792446Y277255D01*
X816134Y277255D01*
X818515Y274874D01*
X818515Y253726D01*
X816134Y251345D01*
X792446Y251345D01*
G37*
%LPD*%
%LPC*%
G36*
X689576Y22745D02*
X689576Y22745D01*
X687195Y25126D01*
X687195Y46274D01*
X689576Y48655D01*
X710724Y48655D01*
X713105Y46274D01*
X713105Y25126D01*
X710724Y22745D01*
X689576Y22745D01*
G37*
%LPD*%
%LPC*%
G36*
X829276Y22745D02*
X829276Y22745D01*
X826895Y25126D01*
X826895Y46274D01*
X829276Y48655D01*
X850424Y48655D01*
X852805Y46274D01*
X852805Y25126D01*
X850424Y22745D01*
X829276Y22745D01*
G37*
%LPD*%
%LPC*%
G36*
X996924Y365303D02*
X996924Y365303D01*
X992349Y367198D01*
X988848Y370699D01*
X987260Y374535D01*
X987182Y374675D01*
X987107Y374816D01*
X987097Y374827D01*
X987090Y374839D01*
X986983Y374958D01*
X986878Y375078D01*
X986866Y375087D01*
X986856Y375097D01*
X986724Y375189D01*
X986595Y375282D01*
X986581Y375287D01*
X986569Y375296D01*
X986421Y375354D01*
X986273Y375416D01*
X986259Y375418D01*
X986245Y375423D01*
X986087Y375447D01*
X985929Y375473D01*
X985915Y375472D01*
X985900Y375474D01*
X985741Y375461D01*
X985582Y375451D01*
X985568Y375447D01*
X985553Y375445D01*
X985401Y375396D01*
X985248Y375350D01*
X985235Y375343D01*
X985222Y375338D01*
X985084Y375256D01*
X984946Y375176D01*
X984935Y375166D01*
X984923Y375159D01*
X984808Y375047D01*
X984691Y374938D01*
X984683Y374926D01*
X984673Y374916D01*
X984587Y374781D01*
X984498Y374648D01*
X984491Y374632D01*
X984485Y374622D01*
X984472Y374586D01*
X984404Y374422D01*
X984123Y373557D01*
X983342Y372025D01*
X982331Y370634D01*
X981116Y369419D01*
X979725Y368408D01*
X978193Y367628D01*
X976558Y367096D01*
X976249Y367047D01*
X976249Y377024D01*
X976246Y377050D01*
X976248Y377076D01*
X976226Y377223D01*
X976209Y377370D01*
X976201Y377395D01*
X976197Y377421D01*
X976142Y377558D01*
X976092Y377698D01*
X976078Y377720D01*
X976068Y377745D01*
X976059Y377757D01*
X976114Y377849D01*
X976122Y377874D01*
X976135Y377897D01*
X976175Y378040D01*
X976220Y378181D01*
X976222Y378207D01*
X976230Y378232D01*
X976249Y378476D01*
X976249Y388453D01*
X976558Y388404D01*
X978193Y387872D01*
X979725Y387092D01*
X981116Y386081D01*
X982331Y384866D01*
X983342Y383475D01*
X984123Y381943D01*
X984404Y381078D01*
X984470Y380933D01*
X984534Y380785D01*
X984542Y380774D01*
X984549Y380761D01*
X984646Y380634D01*
X984742Y380506D01*
X984753Y380496D01*
X984762Y380485D01*
X984886Y380384D01*
X985008Y380281D01*
X985021Y380274D01*
X985032Y380265D01*
X985176Y380195D01*
X985318Y380122D01*
X985332Y380118D01*
X985345Y380112D01*
X985502Y380076D01*
X985656Y380038D01*
X985671Y380038D01*
X985685Y380034D01*
X985845Y380035D01*
X986005Y380033D01*
X986019Y380036D01*
X986033Y380036D01*
X986189Y380073D01*
X986345Y380107D01*
X986358Y380113D01*
X986372Y380117D01*
X986516Y380188D01*
X986660Y380257D01*
X986671Y380266D01*
X986684Y380272D01*
X986807Y380374D01*
X986932Y380474D01*
X986941Y380485D01*
X986952Y380495D01*
X987049Y380622D01*
X987148Y380748D01*
X987156Y380763D01*
X987163Y380772D01*
X987179Y380808D01*
X987260Y380965D01*
X988848Y384801D01*
X992349Y388302D01*
X996924Y390197D01*
X1001876Y390197D01*
X1006451Y388302D01*
X1009952Y384801D01*
X1011847Y380226D01*
X1011847Y375274D01*
X1009952Y370699D01*
X1006451Y367198D01*
X1001876Y365303D01*
X996924Y365303D01*
G37*
%LPD*%
G36*
X504398Y148149D02*
X504398Y148149D01*
X504422Y148147D01*
X504570Y148169D01*
X504720Y148187D01*
X504748Y148196D01*
X504767Y148199D01*
X504810Y148216D01*
X504953Y148262D01*
X508097Y149565D01*
X511030Y149565D01*
X511156Y149579D01*
X511282Y149586D01*
X511328Y149599D01*
X511376Y149605D01*
X511495Y149647D01*
X511617Y149682D01*
X511659Y149706D01*
X511704Y149722D01*
X511811Y149791D01*
X511921Y149852D01*
X511967Y149892D01*
X511997Y149911D01*
X512031Y149946D01*
X512107Y150011D01*
X526123Y164027D01*
X526202Y164126D01*
X526286Y164220D01*
X526310Y164262D01*
X526340Y164300D01*
X526394Y164414D01*
X526455Y164525D01*
X526468Y164571D01*
X526489Y164615D01*
X526515Y164738D01*
X526550Y164860D01*
X526555Y164921D01*
X526562Y164956D01*
X526561Y165004D01*
X526569Y165104D01*
X526569Y169817D01*
X526559Y169908D01*
X526558Y169999D01*
X526539Y170080D01*
X526529Y170164D01*
X526499Y170249D01*
X526478Y170338D01*
X526440Y170413D01*
X526412Y170492D01*
X526363Y170568D01*
X526322Y170649D01*
X526268Y170714D01*
X526223Y170785D01*
X526158Y170848D01*
X526100Y170918D01*
X526033Y170968D01*
X525972Y171027D01*
X525894Y171073D01*
X525822Y171128D01*
X525745Y171162D01*
X525673Y171206D01*
X525587Y171233D01*
X525504Y171270D01*
X525421Y171286D01*
X525341Y171312D01*
X525251Y171319D01*
X525161Y171336D01*
X525077Y171333D01*
X524994Y171340D01*
X524904Y171326D01*
X524813Y171323D01*
X524699Y171296D01*
X524649Y171288D01*
X524622Y171277D01*
X524575Y171266D01*
X523267Y170841D01*
X523267Y180346D01*
X523264Y180372D01*
X523266Y180398D01*
X523244Y180545D01*
X523227Y180692D01*
X523218Y180717D01*
X523215Y180743D01*
X523160Y180881D01*
X523110Y181020D01*
X523096Y181042D01*
X523086Y181067D01*
X523001Y181188D01*
X522921Y181313D01*
X522902Y181331D01*
X522887Y181353D01*
X522777Y181452D01*
X522670Y181555D01*
X522648Y181569D01*
X522628Y181586D01*
X522498Y181658D01*
X522371Y181734D01*
X522346Y181742D01*
X522323Y181755D01*
X522180Y181795D01*
X522039Y181840D01*
X522013Y181842D01*
X521988Y181850D01*
X521744Y181869D01*
X518696Y181869D01*
X518670Y181866D01*
X518644Y181868D01*
X518497Y181846D01*
X518350Y181829D01*
X518325Y181820D01*
X518299Y181817D01*
X518161Y181762D01*
X518022Y181712D01*
X518000Y181698D01*
X517975Y181688D01*
X517854Y181603D01*
X517729Y181523D01*
X517711Y181504D01*
X517689Y181489D01*
X517590Y181379D01*
X517487Y181272D01*
X517473Y181250D01*
X517456Y181230D01*
X517384Y181100D01*
X517308Y180973D01*
X517300Y180948D01*
X517287Y180925D01*
X517247Y180782D01*
X517202Y180641D01*
X517200Y180615D01*
X517192Y180590D01*
X517173Y180346D01*
X517173Y170841D01*
X515832Y171277D01*
X514229Y172094D01*
X512773Y173151D01*
X511501Y174423D01*
X510444Y175879D01*
X509692Y177355D01*
X509669Y177389D01*
X509653Y177426D01*
X509573Y177534D01*
X509499Y177645D01*
X509469Y177673D01*
X509445Y177706D01*
X509343Y177792D01*
X509245Y177884D01*
X509210Y177905D01*
X509179Y177931D01*
X509060Y177992D01*
X508944Y178059D01*
X508905Y178071D01*
X508869Y178090D01*
X508739Y178122D01*
X508611Y178162D01*
X508570Y178164D01*
X508530Y178174D01*
X508396Y178176D01*
X508263Y178185D01*
X508223Y178179D01*
X508182Y178179D01*
X508051Y178151D01*
X507919Y178129D01*
X507881Y178114D01*
X507841Y178105D01*
X507721Y178047D01*
X507597Y177996D01*
X507563Y177973D01*
X507527Y177955D01*
X507422Y177872D01*
X507313Y177794D01*
X507286Y177763D01*
X507254Y177738D01*
X507171Y177633D01*
X507083Y177532D01*
X507064Y177496D01*
X507038Y177464D01*
X506927Y177246D01*
X505802Y174532D01*
X502158Y170888D01*
X501529Y170627D01*
X501462Y170590D01*
X501391Y170562D01*
X501311Y170505D01*
X501224Y170458D01*
X501168Y170406D01*
X501105Y170363D01*
X501039Y170290D01*
X500966Y170223D01*
X500923Y170161D01*
X500872Y170104D01*
X500824Y170018D01*
X500768Y169937D01*
X500740Y169866D01*
X500703Y169799D01*
X500676Y169704D01*
X500640Y169613D01*
X500629Y169537D01*
X500608Y169463D01*
X500596Y169315D01*
X500589Y169268D01*
X500591Y169249D01*
X500589Y169220D01*
X500589Y156139D01*
X500603Y156014D01*
X500610Y155887D01*
X500623Y155841D01*
X500629Y155793D01*
X500671Y155674D01*
X500706Y155552D01*
X500730Y155510D01*
X500746Y155465D01*
X500815Y155359D01*
X500876Y155248D01*
X500916Y155202D01*
X500935Y155172D01*
X500970Y155139D01*
X501035Y155062D01*
X501652Y154445D01*
X502847Y151561D01*
X502847Y149670D01*
X502864Y149521D01*
X502876Y149370D01*
X502884Y149347D01*
X502887Y149323D01*
X502937Y149182D01*
X502983Y149039D01*
X502996Y149018D01*
X503004Y148995D01*
X503086Y148869D01*
X503163Y148740D01*
X503180Y148723D01*
X503193Y148702D01*
X503302Y148597D01*
X503406Y148490D01*
X503426Y148477D01*
X503444Y148460D01*
X503573Y148383D01*
X503699Y148302D01*
X503722Y148294D01*
X503743Y148281D01*
X503886Y148236D01*
X504028Y148185D01*
X504052Y148182D01*
X504075Y148175D01*
X504224Y148163D01*
X504374Y148146D01*
X504398Y148149D01*
G37*
G36*
X216970Y207274D02*
X216970Y207274D01*
X216996Y207272D01*
X217143Y207294D01*
X217290Y207311D01*
X217315Y207320D01*
X217341Y207323D01*
X217479Y207378D01*
X217618Y207428D01*
X217640Y207442D01*
X217665Y207452D01*
X217786Y207537D01*
X217911Y207617D01*
X217929Y207636D01*
X217951Y207651D01*
X218050Y207761D01*
X218153Y207868D01*
X218167Y207890D01*
X218184Y207910D01*
X218256Y208040D01*
X218332Y208167D01*
X218340Y208192D01*
X218353Y208215D01*
X218393Y208358D01*
X218438Y208499D01*
X218440Y208525D01*
X218448Y208550D01*
X218467Y208794D01*
X218467Y218299D01*
X219808Y217863D01*
X221411Y217046D01*
X222867Y215989D01*
X224139Y214717D01*
X225196Y213261D01*
X225948Y211785D01*
X225971Y211751D01*
X225987Y211714D01*
X226067Y211606D01*
X226141Y211495D01*
X226171Y211467D01*
X226195Y211434D01*
X226297Y211348D01*
X226395Y211256D01*
X226430Y211235D01*
X226461Y211209D01*
X226580Y211148D01*
X226696Y211081D01*
X226735Y211069D01*
X226771Y211050D01*
X226901Y211018D01*
X227029Y210978D01*
X227070Y210976D01*
X227110Y210966D01*
X227244Y210964D01*
X227377Y210955D01*
X227417Y210961D01*
X227458Y210961D01*
X227589Y210989D01*
X227721Y211011D01*
X227759Y211026D01*
X227799Y211035D01*
X227919Y211093D01*
X228043Y211144D01*
X228077Y211167D01*
X228113Y211185D01*
X228218Y211268D01*
X228327Y211346D01*
X228354Y211377D01*
X228386Y211402D01*
X228469Y211507D01*
X228557Y211608D01*
X228576Y211644D01*
X228602Y211676D01*
X228713Y211894D01*
X229838Y214608D01*
X232586Y217356D01*
X232602Y217377D01*
X232622Y217394D01*
X232710Y217513D01*
X232802Y217629D01*
X232813Y217653D01*
X232829Y217674D01*
X232888Y217810D01*
X232951Y217945D01*
X232957Y217970D01*
X232967Y217994D01*
X232993Y218140D01*
X233025Y218285D01*
X233024Y218311D01*
X233029Y218337D01*
X233021Y218486D01*
X233019Y218634D01*
X233012Y218659D01*
X233011Y218685D01*
X232970Y218828D01*
X232934Y218972D01*
X232922Y218995D01*
X232914Y219020D01*
X232842Y219150D01*
X232774Y219281D01*
X232757Y219301D01*
X232744Y219324D01*
X232586Y219511D01*
X209146Y242950D01*
X209107Y242981D01*
X209073Y243019D01*
X208970Y243090D01*
X208873Y243167D01*
X208828Y243188D01*
X208786Y243217D01*
X208670Y243263D01*
X208558Y243316D01*
X208509Y243326D01*
X208462Y243345D01*
X208339Y243363D01*
X208217Y243389D01*
X208167Y243388D01*
X208117Y243396D01*
X207993Y243385D01*
X207869Y243383D01*
X207820Y243371D01*
X207770Y243367D01*
X207651Y243328D01*
X207531Y243298D01*
X207486Y243275D01*
X207438Y243260D01*
X207332Y243196D01*
X207221Y243138D01*
X207183Y243106D01*
X207140Y243080D01*
X207051Y242993D01*
X206956Y242913D01*
X206926Y242872D01*
X206890Y242837D01*
X206822Y242732D01*
X206749Y242632D01*
X206729Y242586D01*
X206701Y242544D01*
X206660Y242426D01*
X206611Y242312D01*
X206602Y242263D01*
X206585Y242215D01*
X206571Y242092D01*
X206549Y241969D01*
X206551Y241919D01*
X206546Y241869D01*
X206560Y241745D01*
X206567Y241621D01*
X206581Y241573D01*
X206587Y241523D01*
X206662Y241290D01*
X207547Y239154D01*
X207547Y218573D01*
X207551Y218537D01*
X207548Y218502D01*
X207571Y218364D01*
X207587Y218227D01*
X207599Y218193D01*
X207604Y218158D01*
X207657Y218029D01*
X207704Y217899D01*
X207724Y217869D01*
X207737Y217835D01*
X207818Y217723D01*
X207893Y217606D01*
X207919Y217581D01*
X207940Y217552D01*
X208044Y217460D01*
X208144Y217364D01*
X208175Y217345D01*
X208202Y217322D01*
X208324Y217256D01*
X208443Y217185D01*
X208477Y217174D01*
X208509Y217157D01*
X208643Y217121D01*
X208775Y217079D01*
X208810Y217076D01*
X208845Y217066D01*
X208984Y217062D01*
X209122Y217051D01*
X209158Y217056D01*
X209194Y217055D01*
X209329Y217082D01*
X209467Y217102D01*
X209500Y217116D01*
X209535Y217123D01*
X209762Y217216D01*
X211032Y217863D01*
X212373Y218299D01*
X212373Y208794D01*
X212376Y208768D01*
X212374Y208742D01*
X212396Y208595D01*
X212413Y208448D01*
X212421Y208423D01*
X212425Y208397D01*
X212480Y208259D01*
X212530Y208120D01*
X212544Y208098D01*
X212554Y208073D01*
X212639Y207952D01*
X212719Y207827D01*
X212738Y207809D01*
X212753Y207787D01*
X212863Y207688D01*
X212970Y207585D01*
X212992Y207571D01*
X213012Y207554D01*
X213142Y207482D01*
X213269Y207406D01*
X213294Y207398D01*
X213317Y207385D01*
X213460Y207345D01*
X213601Y207300D01*
X213627Y207298D01*
X213652Y207290D01*
X213896Y207271D01*
X216944Y207271D01*
X216970Y207274D01*
G37*
G36*
X160052Y143318D02*
X160052Y143318D01*
X160152Y143317D01*
X160225Y143332D01*
X160299Y143339D01*
X160395Y143369D01*
X160493Y143391D01*
X160560Y143423D01*
X160631Y143446D01*
X160717Y143497D01*
X160808Y143541D01*
X160866Y143587D01*
X160929Y143625D01*
X161001Y143695D01*
X161080Y143758D01*
X161126Y143816D01*
X161179Y143868D01*
X161234Y143953D01*
X161296Y144032D01*
X161342Y144121D01*
X161368Y144161D01*
X161380Y144195D01*
X161407Y144249D01*
X161891Y145418D01*
X164582Y148109D01*
X168097Y149565D01*
X170663Y149565D01*
X170789Y149579D01*
X170915Y149586D01*
X170961Y149599D01*
X171009Y149605D01*
X171128Y149647D01*
X171250Y149682D01*
X171292Y149706D01*
X171337Y149722D01*
X171444Y149791D01*
X171554Y149852D01*
X171600Y149892D01*
X171630Y149911D01*
X171664Y149946D01*
X171740Y150011D01*
X173023Y151294D01*
X173102Y151393D01*
X173186Y151487D01*
X173210Y151529D01*
X173240Y151567D01*
X173294Y151681D01*
X173355Y151792D01*
X173368Y151838D01*
X173389Y151882D01*
X173415Y152005D01*
X173450Y152127D01*
X173455Y152188D01*
X173462Y152223D01*
X173461Y152271D01*
X173469Y152371D01*
X173469Y171181D01*
X173452Y171335D01*
X173438Y171489D01*
X173432Y171508D01*
X173429Y171527D01*
X173377Y171673D01*
X173328Y171820D01*
X173318Y171837D01*
X173312Y171855D01*
X173228Y171985D01*
X173147Y172118D01*
X173133Y172132D01*
X173123Y172148D01*
X173011Y172256D01*
X172902Y172366D01*
X172886Y172377D01*
X172872Y172390D01*
X172739Y172470D01*
X172608Y172553D01*
X172590Y172559D01*
X172573Y172569D01*
X172426Y172616D01*
X172279Y172667D01*
X172260Y172669D01*
X172241Y172675D01*
X172087Y172687D01*
X171932Y172704D01*
X171913Y172702D01*
X171894Y172703D01*
X171740Y172680D01*
X171586Y172661D01*
X171568Y172654D01*
X171549Y172651D01*
X171405Y172594D01*
X171259Y172540D01*
X171240Y172528D01*
X171225Y172523D01*
X171189Y172498D01*
X171051Y172413D01*
X170611Y172093D01*
X169008Y171277D01*
X167667Y170841D01*
X167667Y180346D01*
X167664Y180372D01*
X167666Y180398D01*
X167644Y180545D01*
X167627Y180692D01*
X167618Y180717D01*
X167615Y180743D01*
X167560Y180881D01*
X167510Y181020D01*
X167496Y181042D01*
X167486Y181067D01*
X167401Y181188D01*
X167321Y181313D01*
X167302Y181331D01*
X167287Y181353D01*
X167177Y181452D01*
X167070Y181555D01*
X167048Y181569D01*
X167028Y181586D01*
X166898Y181658D01*
X166771Y181734D01*
X166746Y181742D01*
X166723Y181755D01*
X166580Y181795D01*
X166439Y181840D01*
X166413Y181842D01*
X166388Y181850D01*
X166144Y181869D01*
X163096Y181869D01*
X163070Y181866D01*
X163044Y181868D01*
X162897Y181846D01*
X162750Y181829D01*
X162725Y181820D01*
X162699Y181817D01*
X162561Y181762D01*
X162422Y181712D01*
X162400Y181698D01*
X162375Y181688D01*
X162254Y181603D01*
X162129Y181523D01*
X162111Y181504D01*
X162089Y181489D01*
X161990Y181379D01*
X161887Y181272D01*
X161873Y181250D01*
X161856Y181230D01*
X161784Y181100D01*
X161708Y180973D01*
X161700Y180948D01*
X161687Y180925D01*
X161647Y180782D01*
X161602Y180641D01*
X161600Y180615D01*
X161592Y180590D01*
X161573Y180346D01*
X161573Y170841D01*
X160232Y171277D01*
X159938Y171427D01*
X159904Y171439D01*
X159873Y171458D01*
X159741Y171500D01*
X159611Y171548D01*
X159575Y171553D01*
X159541Y171564D01*
X159403Y171575D01*
X159265Y171593D01*
X159230Y171589D01*
X159194Y171592D01*
X159057Y171571D01*
X158919Y171557D01*
X158885Y171546D01*
X158849Y171540D01*
X158720Y171489D01*
X158589Y171444D01*
X158559Y171425D01*
X158525Y171412D01*
X158411Y171332D01*
X158294Y171259D01*
X158268Y171233D01*
X158239Y171213D01*
X158146Y171110D01*
X158049Y171011D01*
X158030Y170981D01*
X158006Y170954D01*
X157938Y170832D01*
X157866Y170714D01*
X157854Y170680D01*
X157837Y170649D01*
X157799Y170515D01*
X157755Y170384D01*
X157752Y170348D01*
X157742Y170313D01*
X157723Y170070D01*
X157723Y146435D01*
X157737Y146309D01*
X157744Y146183D01*
X157757Y146136D01*
X157763Y146089D01*
X157805Y145970D01*
X157840Y145848D01*
X157864Y145806D01*
X157880Y145760D01*
X157949Y145654D01*
X158010Y145544D01*
X158050Y145498D01*
X158069Y145468D01*
X158101Y145437D01*
X158593Y144249D01*
X158641Y144161D01*
X158681Y144069D01*
X158726Y144010D01*
X158762Y143945D01*
X158829Y143870D01*
X158889Y143790D01*
X158946Y143742D01*
X158996Y143687D01*
X159079Y143629D01*
X159155Y143565D01*
X159222Y143531D01*
X159283Y143488D01*
X159376Y143451D01*
X159466Y143406D01*
X159538Y143388D01*
X159607Y143360D01*
X159707Y143346D01*
X159804Y143322D01*
X159878Y143321D01*
X159952Y143310D01*
X160052Y143318D01*
G37*
G36*
X462246Y146267D02*
X462246Y146267D01*
X462346Y146272D01*
X462417Y146293D01*
X462491Y146304D01*
X462584Y146341D01*
X462681Y146369D01*
X462746Y146405D01*
X462815Y146433D01*
X462897Y146490D01*
X462985Y146539D01*
X463061Y146604D01*
X463101Y146632D01*
X463125Y146658D01*
X463171Y146698D01*
X464582Y148109D01*
X468097Y149565D01*
X472108Y149565D01*
X472233Y149579D01*
X472360Y149586D01*
X472406Y149599D01*
X472454Y149605D01*
X472573Y149647D01*
X472694Y149682D01*
X472737Y149706D01*
X472782Y149722D01*
X472888Y149791D01*
X472999Y149852D01*
X473045Y149892D01*
X473075Y149911D01*
X473108Y149946D01*
X473185Y150011D01*
X475871Y152697D01*
X475950Y152796D01*
X476034Y152890D01*
X476058Y152932D01*
X476088Y152970D01*
X476142Y153084D01*
X476203Y153195D01*
X476216Y153242D01*
X476237Y153285D01*
X476263Y153409D01*
X476298Y153530D01*
X476303Y153591D01*
X476310Y153626D01*
X476309Y153674D01*
X476317Y153774D01*
X476317Y170070D01*
X476313Y170105D01*
X476316Y170141D01*
X476293Y170278D01*
X476277Y170416D01*
X476265Y170450D01*
X476259Y170485D01*
X476207Y170613D01*
X476160Y170744D01*
X476140Y170774D01*
X476127Y170807D01*
X476046Y170920D01*
X475971Y171037D01*
X475945Y171062D01*
X475924Y171091D01*
X475820Y171183D01*
X475720Y171279D01*
X475689Y171297D01*
X475662Y171321D01*
X475540Y171387D01*
X475421Y171458D01*
X475387Y171469D01*
X475355Y171486D01*
X475221Y171522D01*
X475089Y171564D01*
X475053Y171567D01*
X475019Y171576D01*
X474880Y171581D01*
X474742Y171592D01*
X474706Y171587D01*
X474670Y171588D01*
X474534Y171561D01*
X474397Y171540D01*
X474364Y171527D01*
X474329Y171520D01*
X474102Y171427D01*
X473808Y171277D01*
X472467Y170841D01*
X472467Y180346D01*
X472464Y180372D01*
X472466Y180398D01*
X472444Y180545D01*
X472427Y180692D01*
X472418Y180717D01*
X472415Y180743D01*
X472360Y180881D01*
X472310Y181020D01*
X472296Y181042D01*
X472286Y181067D01*
X472201Y181188D01*
X472121Y181313D01*
X472102Y181331D01*
X472087Y181353D01*
X471977Y181452D01*
X471870Y181555D01*
X471848Y181569D01*
X471828Y181586D01*
X471698Y181658D01*
X471571Y181734D01*
X471546Y181742D01*
X471523Y181755D01*
X471380Y181795D01*
X471239Y181840D01*
X471213Y181842D01*
X471188Y181850D01*
X470944Y181869D01*
X467896Y181869D01*
X467870Y181866D01*
X467844Y181868D01*
X467697Y181846D01*
X467550Y181829D01*
X467525Y181820D01*
X467499Y181817D01*
X467361Y181762D01*
X467222Y181712D01*
X467200Y181698D01*
X467175Y181688D01*
X467054Y181603D01*
X466929Y181523D01*
X466911Y181504D01*
X466889Y181489D01*
X466790Y181379D01*
X466687Y181272D01*
X466673Y181250D01*
X466656Y181230D01*
X466584Y181100D01*
X466508Y180973D01*
X466500Y180948D01*
X466487Y180925D01*
X466447Y180782D01*
X466402Y180641D01*
X466400Y180615D01*
X466392Y180590D01*
X466373Y180346D01*
X466373Y170841D01*
X465032Y171277D01*
X463429Y172093D01*
X462989Y172413D01*
X462854Y172489D01*
X462721Y172569D01*
X462703Y172575D01*
X462686Y172584D01*
X462537Y172628D01*
X462389Y172675D01*
X462370Y172677D01*
X462351Y172682D01*
X462196Y172691D01*
X462042Y172703D01*
X462023Y172700D01*
X462003Y172701D01*
X461851Y172674D01*
X461697Y172651D01*
X461679Y172644D01*
X461660Y172641D01*
X461518Y172580D01*
X461373Y172523D01*
X461357Y172512D01*
X461340Y172504D01*
X461214Y172412D01*
X461087Y172324D01*
X461074Y172309D01*
X461059Y172298D01*
X460957Y172180D01*
X460854Y172065D01*
X460844Y172048D01*
X460832Y172033D01*
X460760Y171896D01*
X460685Y171760D01*
X460680Y171741D01*
X460671Y171724D01*
X460633Y171574D01*
X460590Y171424D01*
X460588Y171401D01*
X460585Y171386D01*
X460584Y171343D01*
X460571Y171181D01*
X460571Y147775D01*
X460582Y147675D01*
X460584Y147575D01*
X460602Y147502D01*
X460611Y147429D01*
X460644Y147334D01*
X460669Y147237D01*
X460703Y147170D01*
X460728Y147100D01*
X460783Y147016D01*
X460829Y146927D01*
X460877Y146870D01*
X460917Y146808D01*
X460989Y146738D01*
X461054Y146661D01*
X461114Y146617D01*
X461168Y146565D01*
X461254Y146514D01*
X461335Y146454D01*
X461403Y146425D01*
X461467Y146387D01*
X461563Y146356D01*
X461655Y146316D01*
X461728Y146303D01*
X461799Y146280D01*
X461899Y146272D01*
X461998Y146255D01*
X462072Y146258D01*
X462146Y146252D01*
X462246Y146267D01*
G37*
G36*
X272646Y149418D02*
X272646Y149418D01*
X272670Y149417D01*
X272818Y149444D01*
X272967Y149466D01*
X272989Y149475D01*
X273013Y149480D01*
X273151Y149540D01*
X273291Y149595D01*
X273311Y149609D01*
X273333Y149619D01*
X273454Y149708D01*
X273577Y149794D01*
X273593Y149812D01*
X273613Y149826D01*
X273710Y149941D01*
X273810Y150053D01*
X273822Y150074D01*
X273838Y150092D01*
X273906Y150226D01*
X273979Y150358D01*
X273985Y150381D01*
X273996Y150403D01*
X274033Y150548D01*
X274074Y150693D01*
X274076Y150722D01*
X274081Y150741D01*
X274081Y150788D01*
X274093Y150937D01*
X274093Y170567D01*
X274089Y170603D01*
X274092Y170638D01*
X274069Y170775D01*
X274053Y170913D01*
X274041Y170947D01*
X274036Y170982D01*
X273983Y171111D01*
X273936Y171241D01*
X273916Y171271D01*
X273903Y171305D01*
X273822Y171417D01*
X273747Y171534D01*
X273721Y171559D01*
X273700Y171588D01*
X273596Y171680D01*
X273496Y171776D01*
X273465Y171795D01*
X273438Y171818D01*
X273316Y171884D01*
X273197Y171955D01*
X273163Y171966D01*
X273131Y171983D01*
X272997Y172019D01*
X272865Y172061D01*
X272830Y172064D01*
X272795Y172074D01*
X272656Y172078D01*
X272518Y172089D01*
X272482Y172084D01*
X272446Y172085D01*
X272311Y172058D01*
X272173Y172038D01*
X272140Y172024D01*
X272105Y172017D01*
X271878Y171924D01*
X270608Y171277D01*
X269267Y170841D01*
X269267Y180346D01*
X269264Y180372D01*
X269266Y180398D01*
X269244Y180545D01*
X269227Y180692D01*
X269218Y180717D01*
X269215Y180743D01*
X269160Y180881D01*
X269110Y181020D01*
X269096Y181042D01*
X269086Y181067D01*
X269001Y181188D01*
X268921Y181313D01*
X268902Y181331D01*
X268887Y181353D01*
X268777Y181452D01*
X268670Y181555D01*
X268648Y181569D01*
X268628Y181586D01*
X268498Y181658D01*
X268371Y181734D01*
X268346Y181742D01*
X268323Y181755D01*
X268180Y181795D01*
X268039Y181840D01*
X268013Y181842D01*
X267988Y181850D01*
X267744Y181869D01*
X264696Y181869D01*
X264670Y181866D01*
X264644Y181868D01*
X264497Y181846D01*
X264350Y181829D01*
X264325Y181820D01*
X264299Y181817D01*
X264161Y181762D01*
X264022Y181712D01*
X264000Y181698D01*
X263975Y181688D01*
X263854Y181603D01*
X263729Y181523D01*
X263711Y181504D01*
X263689Y181489D01*
X263590Y181379D01*
X263487Y181272D01*
X263473Y181250D01*
X263456Y181230D01*
X263384Y181100D01*
X263308Y180973D01*
X263300Y180948D01*
X263287Y180925D01*
X263247Y180782D01*
X263202Y180641D01*
X263200Y180615D01*
X263192Y180590D01*
X263173Y180346D01*
X263173Y170841D01*
X261832Y171277D01*
X260229Y172094D01*
X259789Y172413D01*
X259654Y172489D01*
X259521Y172569D01*
X259503Y172575D01*
X259486Y172584D01*
X259337Y172628D01*
X259189Y172675D01*
X259170Y172677D01*
X259151Y172682D01*
X258996Y172691D01*
X258842Y172703D01*
X258823Y172700D01*
X258803Y172701D01*
X258650Y172674D01*
X258497Y172651D01*
X258479Y172644D01*
X258460Y172641D01*
X258317Y172580D01*
X258173Y172523D01*
X258157Y172512D01*
X258140Y172504D01*
X258014Y172412D01*
X257887Y172324D01*
X257874Y172309D01*
X257859Y172298D01*
X257757Y172180D01*
X257654Y172065D01*
X257644Y172048D01*
X257632Y172033D01*
X257560Y171895D01*
X257485Y171760D01*
X257480Y171741D01*
X257471Y171724D01*
X257433Y171574D01*
X257390Y171424D01*
X257388Y171401D01*
X257385Y171386D01*
X257384Y171343D01*
X257371Y171181D01*
X257371Y160086D01*
X257385Y159961D01*
X257392Y159834D01*
X257405Y159788D01*
X257411Y159740D01*
X257453Y159621D01*
X257488Y159500D01*
X257512Y159457D01*
X257528Y159412D01*
X257597Y159306D01*
X257658Y159195D01*
X257698Y159149D01*
X257717Y159119D01*
X257752Y159086D01*
X257817Y159009D01*
X266815Y150011D01*
X266914Y149932D01*
X267008Y149848D01*
X267050Y149824D01*
X267088Y149794D01*
X267202Y149740D01*
X267313Y149679D01*
X267360Y149666D01*
X267403Y149645D01*
X267527Y149619D01*
X267648Y149584D01*
X267709Y149579D01*
X267744Y149572D01*
X267792Y149573D01*
X267892Y149565D01*
X271903Y149565D01*
X271987Y149530D01*
X272132Y149488D01*
X272275Y149443D01*
X272299Y149441D01*
X272322Y149434D01*
X272473Y149427D01*
X272622Y149415D01*
X272646Y149418D01*
G37*
G36*
X350032Y149576D02*
X350032Y149576D01*
X350132Y149578D01*
X350204Y149596D01*
X350278Y149605D01*
X350373Y149638D01*
X350470Y149663D01*
X350536Y149697D01*
X350606Y149722D01*
X350690Y149777D01*
X350780Y149823D01*
X350837Y149871D01*
X350899Y149911D01*
X350969Y149983D01*
X351045Y150048D01*
X351089Y150108D01*
X351141Y150162D01*
X351193Y150248D01*
X351252Y150329D01*
X351282Y150397D01*
X351320Y150461D01*
X351351Y150556D01*
X351390Y150649D01*
X351404Y150722D01*
X351426Y150793D01*
X351434Y150893D01*
X351452Y150992D01*
X351448Y151066D01*
X351454Y151140D01*
X351439Y151239D01*
X351434Y151340D01*
X351413Y151411D01*
X351402Y151485D01*
X351365Y151578D01*
X351338Y151675D01*
X351301Y151740D01*
X351274Y151809D01*
X351216Y151891D01*
X351167Y151979D01*
X351102Y152055D01*
X351075Y152095D01*
X351048Y152119D01*
X351009Y152165D01*
X350908Y152266D01*
X350173Y154040D01*
X350173Y170506D01*
X350169Y170541D01*
X350172Y170577D01*
X350149Y170714D01*
X350133Y170852D01*
X350121Y170886D01*
X350116Y170921D01*
X350063Y171049D01*
X350016Y171180D01*
X349996Y171210D01*
X349983Y171243D01*
X349902Y171356D01*
X349827Y171473D01*
X349801Y171498D01*
X349780Y171527D01*
X349676Y171619D01*
X349576Y171715D01*
X349545Y171734D01*
X349518Y171757D01*
X349396Y171823D01*
X349277Y171894D01*
X349243Y171905D01*
X349211Y171922D01*
X349077Y171958D01*
X348945Y172000D01*
X348909Y172003D01*
X348875Y172012D01*
X348736Y172017D01*
X348598Y172028D01*
X348562Y172023D01*
X348526Y172024D01*
X348391Y171997D01*
X348253Y171976D01*
X348220Y171963D01*
X348185Y171956D01*
X347958Y171863D01*
X346808Y171277D01*
X345467Y170841D01*
X345467Y180346D01*
X345464Y180372D01*
X345466Y180398D01*
X345444Y180545D01*
X345427Y180692D01*
X345418Y180717D01*
X345415Y180743D01*
X345360Y180881D01*
X345310Y181020D01*
X345296Y181042D01*
X345286Y181067D01*
X345201Y181188D01*
X345121Y181313D01*
X345102Y181331D01*
X345087Y181353D01*
X344977Y181452D01*
X344870Y181555D01*
X344848Y181569D01*
X344828Y181586D01*
X344698Y181658D01*
X344571Y181734D01*
X344546Y181742D01*
X344523Y181755D01*
X344380Y181795D01*
X344239Y181840D01*
X344213Y181842D01*
X344188Y181850D01*
X343944Y181869D01*
X340896Y181869D01*
X340870Y181866D01*
X340844Y181868D01*
X340697Y181846D01*
X340550Y181829D01*
X340525Y181820D01*
X340499Y181817D01*
X340361Y181762D01*
X340222Y181712D01*
X340200Y181698D01*
X340175Y181688D01*
X340054Y181603D01*
X339929Y181523D01*
X339911Y181504D01*
X339889Y181489D01*
X339790Y181379D01*
X339687Y181272D01*
X339673Y181250D01*
X339656Y181230D01*
X339584Y181100D01*
X339508Y180973D01*
X339500Y180948D01*
X339487Y180925D01*
X339447Y180782D01*
X339402Y180641D01*
X339400Y180615D01*
X339392Y180590D01*
X339373Y180346D01*
X339373Y170841D01*
X338032Y171277D01*
X337042Y171781D01*
X337008Y171794D01*
X336977Y171812D01*
X336845Y171855D01*
X336715Y171903D01*
X336679Y171908D01*
X336645Y171919D01*
X336507Y171930D01*
X336369Y171947D01*
X336333Y171944D01*
X336298Y171947D01*
X336161Y171926D01*
X336023Y171912D01*
X335989Y171900D01*
X335953Y171895D01*
X335824Y171844D01*
X335693Y171799D01*
X335663Y171779D01*
X335629Y171766D01*
X335515Y171687D01*
X335398Y171613D01*
X335373Y171588D01*
X335343Y171567D01*
X335250Y171464D01*
X335152Y171366D01*
X335134Y171335D01*
X335110Y171308D01*
X335043Y171187D01*
X334970Y171069D01*
X334958Y171035D01*
X334941Y171003D01*
X334903Y170870D01*
X334859Y170738D01*
X334856Y170703D01*
X334846Y170668D01*
X334827Y170424D01*
X334827Y162630D01*
X334841Y162505D01*
X334848Y162378D01*
X334861Y162332D01*
X334867Y162284D01*
X334909Y162165D01*
X334944Y162044D01*
X334968Y162001D01*
X334984Y161956D01*
X335053Y161850D01*
X335114Y161739D01*
X335154Y161693D01*
X335173Y161663D01*
X335208Y161630D01*
X335273Y161553D01*
X346815Y150011D01*
X346914Y149932D01*
X347008Y149848D01*
X347050Y149824D01*
X347088Y149794D01*
X347202Y149740D01*
X347313Y149679D01*
X347360Y149666D01*
X347403Y149645D01*
X347527Y149619D01*
X347648Y149584D01*
X347709Y149579D01*
X347744Y149572D01*
X347792Y149573D01*
X347892Y149565D01*
X349932Y149565D01*
X350032Y149576D01*
G37*
G36*
X521770Y181874D02*
X521770Y181874D01*
X521796Y181872D01*
X521943Y181894D01*
X522090Y181911D01*
X522115Y181920D01*
X522141Y181923D01*
X522279Y181978D01*
X522418Y182028D01*
X522440Y182042D01*
X522465Y182052D01*
X522586Y182137D01*
X522711Y182217D01*
X522729Y182236D01*
X522751Y182251D01*
X522850Y182361D01*
X522953Y182468D01*
X522967Y182490D01*
X522984Y182510D01*
X523056Y182640D01*
X523132Y182767D01*
X523140Y182792D01*
X523153Y182815D01*
X523193Y182958D01*
X523238Y183099D01*
X523240Y183125D01*
X523248Y183150D01*
X523267Y183394D01*
X523267Y192792D01*
X523264Y192818D01*
X523266Y192844D01*
X523244Y192991D01*
X523227Y193138D01*
X523218Y193163D01*
X523215Y193189D01*
X523160Y193327D01*
X523110Y193466D01*
X523096Y193488D01*
X523086Y193513D01*
X523001Y193634D01*
X522921Y193759D01*
X522902Y193777D01*
X522887Y193799D01*
X522777Y193898D01*
X522670Y194001D01*
X522648Y194015D01*
X522628Y194032D01*
X522498Y194104D01*
X522371Y194180D01*
X522346Y194188D01*
X522323Y194201D01*
X522180Y194241D01*
X522039Y194286D01*
X522013Y194288D01*
X521988Y194296D01*
X521744Y194315D01*
X518696Y194315D01*
X518670Y194312D01*
X518644Y194314D01*
X518497Y194292D01*
X518350Y194275D01*
X518325Y194267D01*
X518299Y194263D01*
X518161Y194208D01*
X518022Y194158D01*
X518000Y194144D01*
X517975Y194134D01*
X517854Y194049D01*
X517729Y193969D01*
X517711Y193950D01*
X517689Y193935D01*
X517590Y193825D01*
X517487Y193718D01*
X517473Y193696D01*
X517456Y193676D01*
X517384Y193546D01*
X517308Y193419D01*
X517300Y193394D01*
X517287Y193371D01*
X517247Y193228D01*
X517202Y193087D01*
X517200Y193061D01*
X517192Y193036D01*
X517173Y192792D01*
X517173Y183394D01*
X517176Y183368D01*
X517174Y183342D01*
X517196Y183195D01*
X517213Y183048D01*
X517221Y183023D01*
X517225Y182997D01*
X517280Y182859D01*
X517330Y182720D01*
X517344Y182698D01*
X517354Y182673D01*
X517439Y182552D01*
X517519Y182427D01*
X517538Y182409D01*
X517553Y182387D01*
X517663Y182288D01*
X517770Y182185D01*
X517792Y182171D01*
X517812Y182154D01*
X517942Y182082D01*
X518069Y182006D01*
X518094Y181998D01*
X518117Y181985D01*
X518260Y181945D01*
X518401Y181900D01*
X518427Y181898D01*
X518452Y181890D01*
X518696Y181871D01*
X521744Y181871D01*
X521770Y181874D01*
G37*
G36*
X470970Y181874D02*
X470970Y181874D01*
X470996Y181872D01*
X471143Y181894D01*
X471290Y181911D01*
X471315Y181920D01*
X471341Y181923D01*
X471479Y181978D01*
X471618Y182028D01*
X471640Y182042D01*
X471665Y182052D01*
X471786Y182137D01*
X471911Y182217D01*
X471929Y182236D01*
X471951Y182251D01*
X472050Y182361D01*
X472153Y182468D01*
X472167Y182490D01*
X472184Y182510D01*
X472256Y182640D01*
X472332Y182767D01*
X472340Y182792D01*
X472353Y182815D01*
X472393Y182958D01*
X472438Y183099D01*
X472440Y183125D01*
X472448Y183150D01*
X472467Y183394D01*
X472467Y192792D01*
X472464Y192818D01*
X472466Y192844D01*
X472444Y192991D01*
X472427Y193138D01*
X472418Y193163D01*
X472415Y193189D01*
X472360Y193327D01*
X472310Y193466D01*
X472296Y193488D01*
X472286Y193513D01*
X472201Y193634D01*
X472121Y193759D01*
X472102Y193777D01*
X472087Y193799D01*
X471977Y193898D01*
X471870Y194001D01*
X471848Y194015D01*
X471828Y194032D01*
X471698Y194104D01*
X471571Y194180D01*
X471546Y194188D01*
X471523Y194201D01*
X471380Y194241D01*
X471239Y194286D01*
X471213Y194288D01*
X471188Y194296D01*
X470944Y194315D01*
X468517Y194315D01*
X468391Y194301D01*
X468265Y194294D01*
X468219Y194281D01*
X468171Y194275D01*
X468052Y194233D01*
X467930Y194198D01*
X467888Y194174D01*
X467843Y194158D01*
X467736Y194089D01*
X467626Y194028D01*
X467580Y193988D01*
X467550Y193969D01*
X467516Y193934D01*
X467440Y193869D01*
X466819Y193248D01*
X466754Y193166D01*
X466705Y193116D01*
X466695Y193099D01*
X466656Y193055D01*
X466632Y193013D01*
X466602Y192975D01*
X466548Y192861D01*
X466487Y192750D01*
X466474Y192704D01*
X466453Y192660D01*
X466427Y192536D01*
X466392Y192415D01*
X466388Y192354D01*
X466380Y192319D01*
X466381Y192271D01*
X466373Y192171D01*
X466373Y183394D01*
X466376Y183368D01*
X466374Y183342D01*
X466396Y183195D01*
X466413Y183048D01*
X466421Y183023D01*
X466425Y182997D01*
X466480Y182859D01*
X466530Y182720D01*
X466544Y182698D01*
X466554Y182673D01*
X466639Y182552D01*
X466719Y182427D01*
X466738Y182409D01*
X466753Y182387D01*
X466863Y182288D01*
X466970Y182185D01*
X466992Y182171D01*
X467012Y182154D01*
X467142Y182082D01*
X467269Y182006D01*
X467294Y181998D01*
X467317Y181985D01*
X467460Y181945D01*
X467601Y181900D01*
X467627Y181898D01*
X467652Y181890D01*
X467896Y181871D01*
X470944Y181871D01*
X470970Y181874D01*
G37*
%LPC*%
G36*
X703197Y267347D02*
X703197Y267347D01*
X703197Y275731D01*
X708105Y275731D01*
X708751Y275558D01*
X709330Y275223D01*
X709803Y274750D01*
X710138Y274171D01*
X710311Y273525D01*
X710311Y267347D01*
X703197Y267347D01*
G37*
%LPD*%
%LPC*%
G36*
X703197Y252869D02*
X703197Y252869D01*
X703197Y261253D01*
X710311Y261253D01*
X710311Y255075D01*
X710138Y254429D01*
X709803Y253850D01*
X709330Y253377D01*
X708751Y253042D01*
X708105Y252869D01*
X703197Y252869D01*
G37*
%LPD*%
%LPC*%
G36*
X689989Y267347D02*
X689989Y267347D01*
X689989Y273525D01*
X690162Y274171D01*
X690497Y274750D01*
X690970Y275223D01*
X691549Y275558D01*
X692195Y275731D01*
X697103Y275731D01*
X697103Y267347D01*
X689989Y267347D01*
G37*
%LPD*%
%LPC*%
G36*
X692195Y252869D02*
X692195Y252869D01*
X691549Y253042D01*
X690970Y253377D01*
X690497Y253850D01*
X690162Y254429D01*
X689989Y255075D01*
X689989Y261253D01*
X697103Y261253D01*
X697103Y252869D01*
X692195Y252869D01*
G37*
%LPD*%
%LPC*%
G36*
X194499Y556999D02*
X194499Y556999D01*
X194499Y565862D01*
X195086Y565769D01*
X196738Y565232D01*
X198287Y564443D01*
X199693Y563421D01*
X200921Y562193D01*
X201943Y560787D01*
X202732Y559238D01*
X203269Y557586D01*
X203362Y556999D01*
X194499Y556999D01*
G37*
%LPD*%
%LPC*%
G36*
X1299499Y556999D02*
X1299499Y556999D01*
X1299499Y565862D01*
X1300086Y565769D01*
X1301738Y565232D01*
X1303287Y564443D01*
X1304693Y563421D01*
X1305921Y562193D01*
X1306943Y560787D01*
X1307732Y559238D01*
X1308269Y557586D01*
X1308362Y556999D01*
X1299499Y556999D01*
G37*
%LPD*%
%LPC*%
G36*
X181638Y556999D02*
X181638Y556999D01*
X181731Y557586D01*
X182268Y559238D01*
X183057Y560787D01*
X184079Y562193D01*
X185307Y563421D01*
X186713Y564443D01*
X188262Y565232D01*
X189914Y565769D01*
X190501Y565862D01*
X190501Y556999D01*
X181638Y556999D01*
G37*
%LPD*%
%LPC*%
G36*
X1286638Y556999D02*
X1286638Y556999D01*
X1286731Y557586D01*
X1287268Y559238D01*
X1288057Y560787D01*
X1289079Y562193D01*
X1290307Y563421D01*
X1291713Y564443D01*
X1293262Y565232D01*
X1294914Y565769D01*
X1295501Y565862D01*
X1295501Y556999D01*
X1286638Y556999D01*
G37*
%LPD*%
%LPC*%
G36*
X244499Y63001D02*
X244499Y63001D01*
X253362Y63001D01*
X253269Y62414D01*
X252732Y60762D01*
X251943Y59213D01*
X250921Y57807D01*
X249693Y56579D01*
X248287Y55557D01*
X246738Y54768D01*
X245086Y54231D01*
X244499Y54138D01*
X244499Y63001D01*
G37*
%LPD*%
%LPC*%
G36*
X239914Y54231D02*
X239914Y54231D01*
X238262Y54768D01*
X236713Y55557D01*
X235307Y56579D01*
X234079Y57807D01*
X233057Y59213D01*
X232268Y60762D01*
X231731Y62414D01*
X231638Y63001D01*
X240501Y63001D01*
X240501Y54138D01*
X239914Y54231D01*
G37*
%LPD*%
%LPC*%
G36*
X823849Y379999D02*
X823849Y379999D01*
X823849Y388453D01*
X824158Y388404D01*
X825793Y387872D01*
X827325Y387092D01*
X828716Y386081D01*
X829931Y384866D01*
X830942Y383475D01*
X831722Y381943D01*
X832254Y380308D01*
X832303Y379999D01*
X823849Y379999D01*
G37*
%LPD*%
%LPC*%
G36*
X849249Y379999D02*
X849249Y379999D01*
X849249Y388453D01*
X849558Y388404D01*
X851193Y387872D01*
X852725Y387092D01*
X854116Y386081D01*
X855331Y384866D01*
X856342Y383475D01*
X857122Y381943D01*
X857654Y380308D01*
X857703Y379999D01*
X849249Y379999D01*
G37*
%LPD*%
%LPC*%
G36*
X798449Y379999D02*
X798449Y379999D01*
X798449Y388453D01*
X798758Y388404D01*
X800393Y387872D01*
X801925Y387092D01*
X803316Y386081D01*
X804531Y384866D01*
X805542Y383475D01*
X806322Y381943D01*
X806854Y380308D01*
X806903Y379999D01*
X798449Y379999D01*
G37*
%LPD*%
%LPC*%
G36*
X861697Y379999D02*
X861697Y379999D01*
X861746Y380308D01*
X862278Y381943D01*
X863058Y383475D01*
X864069Y384866D01*
X865284Y386081D01*
X866675Y387092D01*
X868207Y387872D01*
X869842Y388404D01*
X870151Y388453D01*
X870151Y379999D01*
X861697Y379999D01*
G37*
%LPD*%
%LPC*%
G36*
X849249Y375501D02*
X849249Y375501D01*
X857703Y375501D01*
X857654Y375192D01*
X857122Y373557D01*
X856342Y372025D01*
X855331Y370634D01*
X854116Y369419D01*
X852725Y368408D01*
X851193Y367628D01*
X849558Y367096D01*
X849249Y367047D01*
X849249Y375501D01*
G37*
%LPD*%
%LPC*%
G36*
X836297Y379999D02*
X836297Y379999D01*
X836346Y380308D01*
X836878Y381943D01*
X837658Y383475D01*
X838669Y384866D01*
X839884Y386081D01*
X841275Y387092D01*
X842807Y387872D01*
X844442Y388404D01*
X844751Y388453D01*
X844751Y379999D01*
X836297Y379999D01*
G37*
%LPD*%
%LPC*%
G36*
X798449Y375501D02*
X798449Y375501D01*
X806903Y375501D01*
X806854Y375192D01*
X806322Y373557D01*
X805542Y372025D01*
X804531Y370634D01*
X803316Y369419D01*
X801925Y368408D01*
X800393Y367628D01*
X798758Y367096D01*
X798449Y367047D01*
X798449Y375501D01*
G37*
%LPD*%
%LPC*%
G36*
X823849Y375501D02*
X823849Y375501D01*
X832303Y375501D01*
X832254Y375192D01*
X831722Y373557D01*
X830942Y372025D01*
X829931Y370634D01*
X828716Y369419D01*
X827325Y368408D01*
X825793Y367628D01*
X824158Y367096D01*
X823849Y367047D01*
X823849Y375501D01*
G37*
%LPD*%
%LPC*%
G36*
X810897Y379999D02*
X810897Y379999D01*
X810946Y380308D01*
X811478Y381943D01*
X812258Y383475D01*
X813269Y384866D01*
X814484Y386081D01*
X815875Y387092D01*
X817407Y387872D01*
X819042Y388404D01*
X819351Y388453D01*
X819351Y379999D01*
X810897Y379999D01*
G37*
%LPD*%
%LPC*%
G36*
X819042Y367096D02*
X819042Y367096D01*
X817407Y367628D01*
X815875Y368408D01*
X814484Y369419D01*
X813269Y370634D01*
X812258Y372025D01*
X811478Y373557D01*
X810946Y375192D01*
X810897Y375501D01*
X819351Y375501D01*
X819351Y367047D01*
X819042Y367096D01*
G37*
%LPD*%
%LPC*%
G36*
X844442Y367096D02*
X844442Y367096D01*
X842807Y367628D01*
X841275Y368408D01*
X839884Y369419D01*
X838669Y370634D01*
X837658Y372025D01*
X836878Y373557D01*
X836346Y375192D01*
X836297Y375501D01*
X844751Y375501D01*
X844751Y367047D01*
X844442Y367096D01*
G37*
%LPD*%
%LPC*%
G36*
X869842Y367096D02*
X869842Y367096D01*
X868207Y367628D01*
X866675Y368408D01*
X865284Y369419D01*
X864069Y370634D01*
X863058Y372025D01*
X862278Y373557D01*
X861746Y375192D01*
X861697Y375501D01*
X870151Y375501D01*
X870151Y367047D01*
X869842Y367096D01*
G37*
%LPD*%
%LPC*%
G36*
X599467Y210317D02*
X599467Y210317D01*
X599467Y218299D01*
X600808Y217863D01*
X602411Y217046D01*
X603867Y215989D01*
X605139Y214717D01*
X606196Y213261D01*
X607013Y211658D01*
X607449Y210317D01*
X599467Y210317D01*
G37*
%LPD*%
%LPC*%
G36*
X1208047Y568047D02*
X1208047Y568047D01*
X1208047Y574567D01*
X1208854Y574305D01*
X1210263Y573588D01*
X1211541Y572659D01*
X1212659Y571541D01*
X1213588Y570263D01*
X1214305Y568854D01*
X1214567Y568047D01*
X1208047Y568047D01*
G37*
%LPD*%
%LPC*%
G36*
X1195433Y568047D02*
X1195433Y568047D01*
X1195695Y568854D01*
X1196412Y570263D01*
X1197341Y571541D01*
X1198459Y572659D01*
X1199737Y573588D01*
X1201146Y574305D01*
X1201953Y574567D01*
X1201953Y568047D01*
X1195433Y568047D01*
G37*
%LPD*%
%LPC*%
G36*
X1208047Y561953D02*
X1208047Y561953D01*
X1214567Y561953D01*
X1214305Y561146D01*
X1213588Y559737D01*
X1212659Y558459D01*
X1211541Y557341D01*
X1210263Y556412D01*
X1208854Y555695D01*
X1208047Y555433D01*
X1208047Y561953D01*
G37*
%LPD*%
%LPC*%
G36*
X1201146Y555695D02*
X1201146Y555695D01*
X1199737Y556412D01*
X1198459Y557341D01*
X1197341Y558459D01*
X1196412Y559737D01*
X1195695Y561146D01*
X1195433Y561953D01*
X1201953Y561953D01*
X1201953Y555433D01*
X1201146Y555695D01*
G37*
%LPD*%
%LPC*%
G36*
X732749Y302749D02*
X732749Y302749D01*
X732749Y307564D01*
X733809Y307126D01*
X735126Y306246D01*
X736246Y305126D01*
X737126Y303809D01*
X737564Y302749D01*
X732749Y302749D01*
G37*
%LPD*%
%LPC*%
G36*
X722436Y302749D02*
X722436Y302749D01*
X722874Y303809D01*
X723754Y305126D01*
X724874Y306246D01*
X726191Y307126D01*
X727251Y307564D01*
X727251Y302749D01*
X722436Y302749D01*
G37*
%LPD*%
%LPC*%
G36*
X1207749Y597251D02*
X1207749Y597251D01*
X1212564Y597251D01*
X1212126Y596191D01*
X1211246Y594874D01*
X1210126Y593754D01*
X1208809Y592874D01*
X1207749Y592436D01*
X1207749Y597251D01*
G37*
%LPD*%
%LPC*%
G36*
X732749Y297251D02*
X732749Y297251D01*
X737564Y297251D01*
X737126Y296191D01*
X736246Y294874D01*
X735126Y293754D01*
X733809Y292874D01*
X732749Y292436D01*
X732749Y297251D01*
G37*
%LPD*%
%LPC*%
G36*
X726191Y292874D02*
X726191Y292874D01*
X724874Y293754D01*
X723754Y294874D01*
X722874Y296191D01*
X722436Y297251D01*
X727251Y297251D01*
X727251Y292436D01*
X726191Y292874D01*
G37*
%LPD*%
%LPC*%
G36*
X1201191Y592874D02*
X1201191Y592874D01*
X1199874Y593754D01*
X1198754Y594874D01*
X1197874Y596191D01*
X1197436Y597251D01*
X1202251Y597251D01*
X1202251Y592436D01*
X1201191Y592874D01*
G37*
%LPD*%
%LPC*%
G36*
X1204999Y564999D02*
X1204999Y564999D01*
X1204999Y565001D01*
X1205001Y565001D01*
X1205001Y564999D01*
X1204999Y564999D01*
G37*
%LPD*%
%LPC*%
G36*
X700149Y264299D02*
X700149Y264299D01*
X700149Y264301D01*
X700151Y264301D01*
X700151Y264299D01*
X700149Y264299D01*
G37*
%LPD*%
D10*
X182500Y530000D03*
X252500Y530000D03*
D11*
X192500Y555000D03*
X242500Y555000D03*
D10*
X1287500Y530000D03*
X1357500Y530000D03*
D11*
X1297500Y555000D03*
X1347500Y555000D03*
D10*
X252500Y90000D03*
X182500Y90000D03*
D11*
X242500Y65000D03*
X192500Y65000D03*
D12*
X839850Y35700D03*
X700150Y35700D03*
D13*
X839850Y264300D03*
D14*
X804290Y264300D03*
X734440Y264300D03*
D13*
X700150Y264300D03*
D12*
X113820Y207270D03*
D15*
X113820Y181870D03*
X139220Y207270D03*
X139220Y181870D03*
X164620Y207270D03*
X164620Y181870D03*
X190020Y207270D03*
X190020Y181870D03*
X215420Y207270D03*
X215420Y181870D03*
X240820Y207270D03*
X240820Y181870D03*
X266220Y207270D03*
X266220Y181870D03*
X291620Y207270D03*
X291620Y181870D03*
X317020Y207270D03*
X317020Y181870D03*
X342420Y207270D03*
X342420Y181870D03*
X367820Y207270D03*
X367820Y181870D03*
X393220Y207270D03*
X393220Y181870D03*
X418620Y207270D03*
X418620Y181870D03*
X444020Y207270D03*
X444020Y181870D03*
X469420Y207270D03*
X469420Y181870D03*
X494820Y207270D03*
X494820Y181870D03*
X520220Y207270D03*
X520220Y181870D03*
X545620Y207270D03*
X545620Y181870D03*
X571020Y207270D03*
X571020Y181870D03*
X596420Y207270D03*
X596420Y181870D03*
D16*
X750000Y340000D03*
X730000Y340000D03*
D17*
X1050000Y565000D03*
X1075000Y565000D03*
X1205000Y565000D03*
X1180000Y565000D03*
X1055000Y375000D03*
X1080000Y375000D03*
X1180000Y375000D03*
X1205000Y375000D03*
X1100000Y565000D03*
D18*
X847000Y587300D03*
X872400Y587300D03*
X897800Y587300D03*
X847000Y377750D03*
X821600Y377750D03*
X796200Y377750D03*
X770800Y377750D03*
X745400Y377750D03*
X872400Y377750D03*
X897800Y377750D03*
X923200Y377750D03*
X948600Y377750D03*
X974000Y377750D03*
X999400Y377750D03*
D19*
X427500Y70000D03*
X407500Y70000D03*
X387500Y70000D03*
X367500Y550000D03*
X387500Y550000D03*
X407500Y550000D03*
D20*
X110000Y140000D03*
X370000Y140000D03*
X350000Y140000D03*
X430000Y140000D03*
X390000Y140000D03*
X410000Y140000D03*
X330000Y140000D03*
X150000Y140000D03*
X170000Y140000D03*
X230000Y140000D03*
X270000Y140000D03*
X290000Y140000D03*
X510000Y140000D03*
X210000Y140000D03*
X310000Y140000D03*
X530000Y140000D03*
X190000Y140000D03*
X130000Y140000D03*
X250000Y140000D03*
X590000Y140000D03*
X550000Y140000D03*
X470000Y140000D03*
X490000Y140000D03*
X450000Y140000D03*
X570000Y140000D03*
X1050000Y600000D03*
X1075000Y600000D03*
X1100000Y600000D03*
X1055000Y340000D03*
X1080000Y340000D03*
X1180000Y340000D03*
X1205000Y340000D03*
X1180000Y600000D03*
X1205000Y600000D03*
X730000Y300000D03*
X810000Y300000D03*
D21*
X450000Y230000D03*
X640000Y260000D03*
X1100000Y80000D03*
X900000Y280000D03*
X900000Y340000D03*
X480000Y120000D03*
D22*
X596420Y202675D02*
X596420Y207270D01*
X596420Y202675D02*
X582744Y188999D01*
X582744Y152744D01*
X570000Y140000D01*
D23*
X1205000Y565000D02*
X1205000Y600000D01*
X730000Y300000D02*
X710000Y300000D01*
X700150Y290150D01*
X700150Y264300D01*
D21*
X470000Y180000D03*
X520000Y180000D03*
D23*
X110000Y211090D02*
X110000Y260000D01*
X110000Y211090D02*
X113820Y207270D01*
D21*
X360000Y310000D03*
D23*
X700000Y340000D02*
X730000Y340000D01*
X700000Y340000D02*
X670000Y310000D01*
D21*
X670000Y310000D03*
D23*
X367500Y550000D02*
X357500Y540000D01*
X290000Y540000D02*
X250000Y580000D01*
X227500Y580000D01*
X217500Y570000D01*
X290000Y540000D02*
X357500Y540000D01*
X130000Y280000D02*
X110000Y260000D01*
X130000Y280000D02*
X217500Y280000D01*
X330000Y280000D01*
X360000Y310000D01*
X217500Y280000D02*
X217500Y570000D01*
D22*
X113820Y207270D02*
X100000Y193450D01*
X100000Y150000D01*
X110000Y140000D01*
D21*
X680000Y300000D03*
D23*
X750000Y333190D02*
X750000Y340000D01*
X750000Y333190D02*
X736763Y319952D01*
X699952Y319952D02*
X680000Y300000D01*
X699952Y319952D02*
X736763Y319952D01*
X380000Y196550D02*
X367820Y184370D01*
X367820Y181870D01*
X430000Y300000D02*
X430000Y380000D01*
X430000Y300000D02*
X380000Y250000D01*
X380000Y196550D01*
D21*
X430000Y380000D03*
D22*
X367820Y181870D02*
X367820Y162180D01*
X390000Y140000D01*
D23*
X393220Y207270D02*
X393220Y243220D01*
X440000Y290000D02*
X440000Y360000D01*
X440000Y290000D02*
X393220Y243220D01*
D21*
X440000Y360000D03*
D22*
X393220Y207270D02*
X392500Y206550D01*
X380000Y187500D02*
X380000Y170000D01*
X392500Y200000D02*
X392500Y206550D01*
X380000Y170000D02*
X410000Y140000D01*
X380000Y187500D02*
X392500Y200000D01*
D23*
X317020Y182980D02*
X317020Y181870D01*
X317020Y182980D02*
X305000Y195000D01*
X400000Y330000D02*
X400000Y350000D01*
X400000Y330000D02*
X305000Y235000D01*
X305000Y195000D01*
D21*
X400000Y350000D03*
D22*
X317020Y181870D02*
X317020Y152980D01*
X330000Y140000D01*
D23*
X394703Y181870D02*
X405158Y192325D01*
X394703Y181870D02*
X393220Y181870D01*
X450000Y280000D02*
X450000Y340000D01*
X450000Y280000D02*
X405158Y235158D01*
X405158Y192325D01*
D21*
X450000Y340000D03*
D22*
X393220Y181870D02*
X393220Y176780D01*
X430000Y140000D01*
D23*
X410000Y320000D02*
X410000Y335000D01*
X410000Y320000D02*
X342420Y252420D01*
X342420Y207270D01*
D21*
X410000Y335000D03*
D22*
X342420Y207270D02*
X330000Y194850D01*
X330000Y160000D01*
X350000Y140000D01*
D23*
X367820Y207270D02*
X367820Y257820D01*
X420000Y310000D02*
X420000Y320000D01*
X420000Y310000D02*
X367820Y257820D01*
D21*
X420000Y320000D03*
D22*
X367820Y207270D02*
X355000Y194450D01*
X355000Y155000D02*
X370000Y140000D01*
X355000Y155000D02*
X355000Y194450D01*
D23*
X139220Y207270D02*
X139220Y229220D01*
X140000Y230000D01*
D21*
X140000Y230000D03*
D22*
X152896Y139741D02*
X150000Y136845D01*
X150000Y140000D01*
X152896Y193594D02*
X139220Y207270D01*
X152896Y193594D02*
X152896Y139741D01*
D23*
X160000Y211890D02*
X160000Y230000D01*
X160000Y211890D02*
X164620Y207270D01*
D21*
X160000Y230000D03*
D22*
X178296Y149741D02*
X170000Y141445D01*
X170000Y140000D01*
X178296Y193594D02*
X164620Y207270D01*
X178296Y193594D02*
X178296Y149741D01*
D23*
X190020Y207270D02*
X190000Y207290D01*
X190000Y230000D01*
X180000Y240000D01*
X130000Y240000D01*
X120000Y230000D01*
D21*
X120000Y230000D03*
D22*
X190020Y207270D02*
X190020Y202480D01*
X202500Y190000D01*
X202500Y152500D01*
X190000Y140000D01*
D23*
X240820Y207270D02*
X240820Y219180D01*
X200000Y260000D01*
D21*
X150000Y260000D03*
D23*
X200000Y260000D01*
D22*
X227144Y139741D02*
X230000Y136885D01*
X230000Y140000D01*
X227144Y193594D02*
X240820Y207270D01*
X227144Y193594D02*
X227144Y139741D01*
D23*
X260000Y213490D02*
X260000Y220000D01*
X260000Y213490D02*
X266220Y207270D01*
X260000Y220000D02*
X210000Y270000D01*
D21*
X140000Y270000D03*
D23*
X210000Y270000D01*
D22*
X266220Y207270D02*
X266220Y202675D01*
X252544Y188999D02*
X252544Y157456D01*
X252544Y188999D02*
X266220Y202675D01*
X252544Y157456D02*
X270000Y140000D01*
D23*
X279682Y195332D02*
X291620Y207270D01*
D21*
X500000Y100000D03*
D23*
X320000Y100000D01*
X290000Y130000D01*
X290000Y140000D02*
X279682Y150318D01*
X279682Y195332D01*
X290000Y140000D02*
X290000Y130000D01*
D21*
X470000Y240000D03*
D23*
X469420Y240000D01*
X469420Y207270D01*
D22*
X469420Y202675D01*
X455744Y188999D01*
X455744Y145744D01*
X450000Y140000D01*
D23*
X494820Y207270D02*
X494820Y525180D01*
X490000Y530000D01*
X280000Y530000D01*
X255000Y555000D01*
X242500Y555000D01*
D22*
X481144Y196094D02*
X481144Y151144D01*
X470000Y140000D01*
X492320Y207270D02*
X494820Y207270D01*
X492320Y207270D02*
X481144Y196094D01*
D21*
X540000Y100000D03*
D23*
X532158Y162158D02*
X532158Y195332D01*
X520220Y207270D01*
X532158Y162158D02*
X510000Y140000D01*
X510000Y130000D02*
X540000Y100000D01*
X510000Y130000D02*
X510000Y140000D01*
X215420Y181870D02*
X215420Y186870D01*
X201958Y200332D01*
X201958Y238042D01*
X190000Y250000D01*
X120000Y250000D01*
D21*
X120000Y250000D03*
D22*
X210000Y176450D02*
X215420Y181870D01*
X210000Y176450D02*
X210000Y140000D01*
D21*
X520000Y100000D03*
D23*
X330000Y110000D02*
X310000Y130000D01*
X310000Y150000D02*
X291620Y168380D01*
X291620Y181870D01*
X310000Y150000D02*
X310000Y140000D01*
X310000Y130000D01*
X510000Y110000D02*
X520000Y100000D01*
X510000Y110000D02*
X330000Y110000D01*
D21*
X495000Y150000D03*
D23*
X495000Y181690D01*
D22*
X495000Y150000D02*
X490000Y140000D01*
D23*
X495000Y181690D02*
X494820Y181870D01*
X545620Y181870D02*
X545620Y165620D01*
X540000Y160000D01*
D21*
X540000Y160000D03*
D22*
X540000Y150000D01*
X530000Y140000D01*
D23*
X905300Y579800D02*
X1030200Y579800D01*
X905300Y579800D02*
X897800Y587300D01*
X1045000Y565000D02*
X1050000Y565000D01*
X1045000Y565000D02*
X1030200Y579800D01*
X1050000Y565000D02*
X1050000Y600000D01*
X889700Y570000D02*
X872400Y587300D01*
X889700Y570000D02*
X1020000Y570000D01*
X1040000Y550000D01*
X1060000Y550000D01*
X1075000Y565000D01*
X1075000Y600000D01*
X874300Y560000D02*
X847000Y587300D01*
X874300Y560000D02*
X1010000Y560000D01*
X1030000Y540000D01*
X1080000Y540000D02*
X1100000Y560000D01*
X1100000Y565000D01*
X1080000Y540000D02*
X1030000Y540000D01*
X1100000Y565000D02*
X1100000Y600000D01*
X839850Y264300D02*
X839850Y259850D01*
X660000Y80000D01*
X810000Y300000D02*
X830000Y300000D01*
X839850Y290150D01*
X839850Y264300D01*
X443665Y80000D02*
X442235Y81430D01*
X418930Y81430D01*
X443665Y80000D02*
X660000Y80000D01*
X418930Y81430D02*
X407500Y70000D01*
X139220Y181870D02*
X113820Y181870D01*
X377500Y80000D02*
X387500Y70000D01*
X377500Y80000D02*
X290000Y80000D01*
X250000Y120000D01*
X139220Y181870D02*
X130000Y172650D01*
X130000Y130000D01*
X140000Y120000D01*
X250000Y120000D01*
D22*
X130000Y130000D02*
X130000Y140000D01*
D23*
X1180000Y340000D02*
X1180000Y375000D01*
X1180000Y330000D02*
X1190000Y320000D01*
X1180000Y330000D02*
X1180000Y340000D01*
X1190000Y320000D02*
X1260000Y320000D01*
X1405000Y175000D02*
X1417500Y175000D01*
X1405000Y175000D02*
X1260000Y320000D01*
D21*
X1417500Y175000D03*
D23*
X1205000Y340000D02*
X1205000Y375000D01*
X1205000Y340000D02*
X1280000Y340000D01*
X1445000Y175000D02*
X1457500Y175000D01*
X1445000Y175000D02*
X1280000Y340000D01*
D21*
X1457500Y175000D03*
D23*
X1080000Y340000D02*
X1080000Y375000D01*
X1080000Y340000D02*
X1040000Y300000D01*
X890000Y300000D01*
X870000Y320000D01*
D21*
X870000Y320000D03*
D23*
X1055000Y340000D02*
X1055000Y375000D01*
X1055000Y340000D02*
X1025000Y310000D01*
X900000Y310000D01*
D21*
X900000Y310000D03*
D23*
X240820Y181870D02*
X240000Y181050D01*
X240000Y150000D01*
X780000Y300000D02*
X820000Y340000D01*
X870000Y340000D01*
D21*
X870000Y340000D03*
D23*
X780000Y300000D02*
X780000Y220000D01*
X650000Y90000D01*
X250000Y140000D02*
X240000Y150000D01*
X250000Y140000D02*
X300000Y90000D01*
X650000Y90000D01*
X596420Y181870D02*
X711870Y181870D01*
X760000Y230000D01*
X760000Y300000D01*
X810000Y350000D01*
X900000Y350000D01*
X923200Y373200D02*
X923200Y377750D01*
X923200Y373200D02*
X900000Y350000D01*
D22*
X596420Y181870D02*
X596420Y146420D01*
X590000Y140000D01*
D23*
X926350Y400000D02*
X948600Y377750D01*
X926350Y400000D02*
X730000Y400000D01*
X545620Y215620D01*
X545620Y207270D01*
D22*
X546025Y207270D02*
X559296Y193999D01*
X546025Y207270D02*
X545620Y207270D01*
X559296Y149296D02*
X550000Y140000D01*
X559296Y149296D02*
X559296Y193999D01*
D23*
X1135000Y565000D02*
X1180000Y565000D01*
X1135000Y565000D02*
X1090000Y520000D01*
X1010000Y520000D02*
X910000Y420000D01*
X620000Y420000D01*
X500000Y540000D01*
X1010000Y520000D02*
X1090000Y520000D01*
X1180000Y565000D02*
X1180000Y600000D01*
X500000Y540000D02*
X420000Y540000D01*
X410000Y550000D01*
X407500Y550000D01*
M02*
