G04 EAGLE Gerber RS-274X export*
G75*
%MOMM*%
%FSLAX34Y34*%
%LPD*%
%IN*%
%IPPOS*%
%AMOC8*
5,1,8,0,0,1.08239X$1,22.5*%
G01*
%ADD10C,0.254000*%


D10*
X0Y100000D02*
X381Y91284D01*
X1519Y82635D01*
X3407Y74118D01*
X6031Y65798D01*
X9369Y57738D01*
X13397Y50000D01*
X18085Y42642D01*
X23396Y35721D01*
X29289Y29289D01*
X35721Y23396D01*
X42642Y18085D01*
X50000Y13397D01*
X57738Y9369D01*
X65798Y6031D01*
X74118Y3407D01*
X82635Y1519D01*
X91284Y381D01*
X100000Y0D01*
X1440000Y0D01*
X1448716Y381D01*
X1457365Y1519D01*
X1465882Y3407D01*
X1474202Y6031D01*
X1482262Y9369D01*
X1490000Y13397D01*
X1497358Y18085D01*
X1504279Y23396D01*
X1510711Y29289D01*
X1516604Y35721D01*
X1521915Y42642D01*
X1526603Y50000D01*
X1530631Y57738D01*
X1533969Y65798D01*
X1536593Y74118D01*
X1538481Y82635D01*
X1539619Y91284D01*
X1540000Y100000D01*
X1540000Y520000D01*
X1539619Y528716D01*
X1538481Y537365D01*
X1536593Y545882D01*
X1533969Y554202D01*
X1530631Y562262D01*
X1526603Y570000D01*
X1521915Y577358D01*
X1516604Y584279D01*
X1510711Y590711D01*
X1504279Y596604D01*
X1497358Y601915D01*
X1490000Y606603D01*
X1482262Y610631D01*
X1474202Y613969D01*
X1465882Y616593D01*
X1457365Y618481D01*
X1448716Y619619D01*
X1440000Y620000D01*
X820000Y620000D01*
X819128Y619962D01*
X818264Y619848D01*
X817412Y619659D01*
X816580Y619397D01*
X815774Y619063D01*
X815000Y618660D01*
X814264Y618192D01*
X813572Y617660D01*
X812929Y617071D01*
X812340Y616428D01*
X811808Y615736D01*
X811340Y615000D01*
X810937Y614226D01*
X810603Y613420D01*
X810341Y612588D01*
X810152Y611736D01*
X810038Y610872D01*
X810000Y610000D01*
X810000Y440000D01*
X730000Y440000D01*
X730000Y610000D01*
X729962Y610872D01*
X729848Y611736D01*
X729659Y612588D01*
X729397Y613420D01*
X729063Y614226D01*
X728660Y615000D01*
X728192Y615736D01*
X727660Y616428D01*
X727071Y617071D01*
X726428Y617660D01*
X725736Y618192D01*
X725000Y618660D01*
X724226Y619063D01*
X723420Y619397D01*
X722588Y619659D01*
X721736Y619848D01*
X720872Y619962D01*
X720000Y620000D01*
X100000Y620000D01*
X91284Y619619D01*
X82635Y618481D01*
X74118Y616593D01*
X65798Y613969D01*
X57738Y610631D01*
X50000Y606603D01*
X42642Y601915D01*
X35721Y596604D01*
X29289Y590711D01*
X23396Y584279D01*
X18085Y577358D01*
X13397Y570000D01*
X9369Y562262D01*
X6031Y554202D01*
X3407Y545882D01*
X1519Y537365D01*
X381Y528716D01*
X0Y520000D01*
X0Y100000D01*
X95000Y79464D02*
X95000Y80536D01*
X94924Y81604D01*
X94771Y82665D01*
X94543Y83712D01*
X94241Y84740D01*
X93867Y85744D01*
X93422Y86719D01*
X92908Y87659D01*
X92329Y88560D01*
X91687Y89418D01*
X90985Y90228D01*
X90228Y90985D01*
X89418Y91687D01*
X88560Y92329D01*
X87659Y92908D01*
X86719Y93422D01*
X85744Y93867D01*
X84740Y94241D01*
X83712Y94543D01*
X82665Y94771D01*
X81604Y94924D01*
X80536Y95000D01*
X79464Y95000D01*
X78396Y94924D01*
X77335Y94771D01*
X76288Y94543D01*
X75260Y94241D01*
X74256Y93867D01*
X73281Y93422D01*
X72341Y92908D01*
X71440Y92329D01*
X70582Y91687D01*
X69772Y90985D01*
X69015Y90228D01*
X68313Y89418D01*
X67671Y88560D01*
X67092Y87659D01*
X66578Y86719D01*
X66133Y85744D01*
X65759Y84740D01*
X65457Y83712D01*
X65229Y82665D01*
X65076Y81604D01*
X65000Y80536D01*
X65000Y79464D01*
X65076Y78396D01*
X65229Y77335D01*
X65457Y76288D01*
X65759Y75260D01*
X66133Y74256D01*
X66578Y73281D01*
X67092Y72341D01*
X67671Y71440D01*
X68313Y70582D01*
X69015Y69772D01*
X69772Y69015D01*
X70582Y68313D01*
X71440Y67671D01*
X72341Y67092D01*
X73281Y66578D01*
X74256Y66133D01*
X75260Y65759D01*
X76288Y65457D01*
X77335Y65229D01*
X78396Y65076D01*
X79464Y65000D01*
X80536Y65000D01*
X81604Y65076D01*
X82665Y65229D01*
X83712Y65457D01*
X84740Y65759D01*
X85744Y66133D01*
X86719Y66578D01*
X87659Y67092D01*
X88560Y67671D01*
X89418Y68313D01*
X90228Y69015D01*
X90985Y69772D01*
X91687Y70582D01*
X92329Y71440D01*
X92908Y72341D01*
X93422Y73281D01*
X93867Y74256D01*
X94241Y75260D01*
X94543Y76288D01*
X94771Y77335D01*
X94924Y78396D01*
X95000Y79464D01*
X95000Y539464D02*
X95000Y540536D01*
X94924Y541604D01*
X94771Y542665D01*
X94543Y543712D01*
X94241Y544740D01*
X93867Y545744D01*
X93422Y546719D01*
X92908Y547659D01*
X92329Y548560D01*
X91687Y549418D01*
X90985Y550228D01*
X90228Y550985D01*
X89418Y551687D01*
X88560Y552329D01*
X87659Y552908D01*
X86719Y553422D01*
X85744Y553867D01*
X84740Y554241D01*
X83712Y554543D01*
X82665Y554771D01*
X81604Y554924D01*
X80536Y555000D01*
X79464Y555000D01*
X78396Y554924D01*
X77335Y554771D01*
X76288Y554543D01*
X75260Y554241D01*
X74256Y553867D01*
X73281Y553422D01*
X72341Y552908D01*
X71440Y552329D01*
X70582Y551687D01*
X69772Y550985D01*
X69015Y550228D01*
X68313Y549418D01*
X67671Y548560D01*
X67092Y547659D01*
X66578Y546719D01*
X66133Y545744D01*
X65759Y544740D01*
X65457Y543712D01*
X65229Y542665D01*
X65076Y541604D01*
X65000Y540536D01*
X65000Y539464D01*
X65076Y538396D01*
X65229Y537335D01*
X65457Y536288D01*
X65759Y535260D01*
X66133Y534256D01*
X66578Y533281D01*
X67092Y532341D01*
X67671Y531440D01*
X68313Y530582D01*
X69015Y529772D01*
X69772Y529015D01*
X70582Y528313D01*
X71440Y527671D01*
X72341Y527092D01*
X73281Y526578D01*
X74256Y526133D01*
X75260Y525759D01*
X76288Y525457D01*
X77335Y525229D01*
X78396Y525076D01*
X79464Y525000D01*
X80536Y525000D01*
X81604Y525076D01*
X82665Y525229D01*
X83712Y525457D01*
X84740Y525759D01*
X85744Y526133D01*
X86719Y526578D01*
X87659Y527092D01*
X88560Y527671D01*
X89418Y528313D01*
X90228Y529015D01*
X90985Y529772D01*
X91687Y530582D01*
X92329Y531440D01*
X92908Y532341D01*
X93422Y533281D01*
X93867Y534256D01*
X94241Y535260D01*
X94543Y536288D01*
X94771Y537335D01*
X94924Y538396D01*
X95000Y539464D01*
X1475000Y79464D02*
X1475000Y80536D01*
X1474924Y81604D01*
X1474771Y82665D01*
X1474543Y83712D01*
X1474241Y84740D01*
X1473867Y85744D01*
X1473422Y86719D01*
X1472908Y87659D01*
X1472329Y88560D01*
X1471687Y89418D01*
X1470985Y90228D01*
X1470228Y90985D01*
X1469418Y91687D01*
X1468560Y92329D01*
X1467659Y92908D01*
X1466719Y93422D01*
X1465744Y93867D01*
X1464740Y94241D01*
X1463712Y94543D01*
X1462665Y94771D01*
X1461604Y94924D01*
X1460536Y95000D01*
X1459464Y95000D01*
X1458396Y94924D01*
X1457335Y94771D01*
X1456288Y94543D01*
X1455260Y94241D01*
X1454256Y93867D01*
X1453281Y93422D01*
X1452341Y92908D01*
X1451440Y92329D01*
X1450582Y91687D01*
X1449772Y90985D01*
X1449015Y90228D01*
X1448313Y89418D01*
X1447671Y88560D01*
X1447092Y87659D01*
X1446578Y86719D01*
X1446133Y85744D01*
X1445759Y84740D01*
X1445457Y83712D01*
X1445229Y82665D01*
X1445076Y81604D01*
X1445000Y80536D01*
X1445000Y79464D01*
X1445076Y78396D01*
X1445229Y77335D01*
X1445457Y76288D01*
X1445759Y75260D01*
X1446133Y74256D01*
X1446578Y73281D01*
X1447092Y72341D01*
X1447671Y71440D01*
X1448313Y70582D01*
X1449015Y69772D01*
X1449772Y69015D01*
X1450582Y68313D01*
X1451440Y67671D01*
X1452341Y67092D01*
X1453281Y66578D01*
X1454256Y66133D01*
X1455260Y65759D01*
X1456288Y65457D01*
X1457335Y65229D01*
X1458396Y65076D01*
X1459464Y65000D01*
X1460536Y65000D01*
X1461604Y65076D01*
X1462665Y65229D01*
X1463712Y65457D01*
X1464740Y65759D01*
X1465744Y66133D01*
X1466719Y66578D01*
X1467659Y67092D01*
X1468560Y67671D01*
X1469418Y68313D01*
X1470228Y69015D01*
X1470985Y69772D01*
X1471687Y70582D01*
X1472329Y71440D01*
X1472908Y72341D01*
X1473422Y73281D01*
X1473867Y74256D01*
X1474241Y75260D01*
X1474543Y76288D01*
X1474771Y77335D01*
X1474924Y78396D01*
X1475000Y79464D01*
X1475000Y539464D02*
X1475000Y540536D01*
X1474924Y541604D01*
X1474771Y542665D01*
X1474543Y543712D01*
X1474241Y544740D01*
X1473867Y545744D01*
X1473422Y546719D01*
X1472908Y547659D01*
X1472329Y548560D01*
X1471687Y549418D01*
X1470985Y550228D01*
X1470228Y550985D01*
X1469418Y551687D01*
X1468560Y552329D01*
X1467659Y552908D01*
X1466719Y553422D01*
X1465744Y553867D01*
X1464740Y554241D01*
X1463712Y554543D01*
X1462665Y554771D01*
X1461604Y554924D01*
X1460536Y555000D01*
X1459464Y555000D01*
X1458396Y554924D01*
X1457335Y554771D01*
X1456288Y554543D01*
X1455260Y554241D01*
X1454256Y553867D01*
X1453281Y553422D01*
X1452341Y552908D01*
X1451440Y552329D01*
X1450582Y551687D01*
X1449772Y550985D01*
X1449015Y550228D01*
X1448313Y549418D01*
X1447671Y548560D01*
X1447092Y547659D01*
X1446578Y546719D01*
X1446133Y545744D01*
X1445759Y544740D01*
X1445457Y543712D01*
X1445229Y542665D01*
X1445076Y541604D01*
X1445000Y540536D01*
X1445000Y539464D01*
X1445076Y538396D01*
X1445229Y537335D01*
X1445457Y536288D01*
X1445759Y535260D01*
X1446133Y534256D01*
X1446578Y533281D01*
X1447092Y532341D01*
X1447671Y531440D01*
X1448313Y530582D01*
X1449015Y529772D01*
X1449772Y529015D01*
X1450582Y528313D01*
X1451440Y527671D01*
X1452341Y527092D01*
X1453281Y526578D01*
X1454256Y526133D01*
X1455260Y525759D01*
X1456288Y525457D01*
X1457335Y525229D01*
X1458396Y525076D01*
X1459464Y525000D01*
X1460536Y525000D01*
X1461604Y525076D01*
X1462665Y525229D01*
X1463712Y525457D01*
X1464740Y525759D01*
X1465744Y526133D01*
X1466719Y526578D01*
X1467659Y527092D01*
X1468560Y527671D01*
X1469418Y528313D01*
X1470228Y529015D01*
X1470985Y529772D01*
X1471687Y530582D01*
X1472329Y531440D01*
X1472908Y532341D01*
X1473422Y533281D01*
X1473867Y534256D01*
X1474241Y535260D01*
X1474543Y536288D01*
X1474771Y537335D01*
X1474924Y538396D01*
X1475000Y539464D01*
M02*
