G04 EAGLE Gerber RS-274X export*
G75*
%MOMM*%
%FSLAX34Y34*%
%LPD*%
%INSilkscreen Top*%
%IPPOS*%
%AMOC8*
5,1,8,0,0,1.08239X$1,22.5*%
G01*
%ADD10R,0.800000X0.040000*%
%ADD11R,1.960000X0.040000*%
%ADD12R,0.080000X0.040000*%
%ADD13R,2.600000X0.040000*%
%ADD14R,0.160000X0.040000*%
%ADD15R,3.160000X0.040000*%
%ADD16R,0.240000X0.040000*%
%ADD17R,3.600000X0.040000*%
%ADD18R,0.320000X0.040000*%
%ADD19R,4.000000X0.040000*%
%ADD20R,0.400000X0.040000*%
%ADD21R,4.360000X0.040000*%
%ADD22R,0.480000X0.040000*%
%ADD23R,4.680000X0.040000*%
%ADD24R,0.560000X0.040000*%
%ADD25R,5.000000X0.040000*%
%ADD26R,0.640000X0.040000*%
%ADD27R,5.280000X0.040000*%
%ADD28R,0.720000X0.040000*%
%ADD29R,5.560000X0.040000*%
%ADD30R,5.800000X0.040000*%
%ADD31R,0.880000X0.040000*%
%ADD32R,6.040000X0.040000*%
%ADD33R,0.960000X0.040000*%
%ADD34R,6.280000X0.040000*%
%ADD35R,1.040000X0.040000*%
%ADD36R,6.520000X0.040000*%
%ADD37R,1.120000X0.040000*%
%ADD38R,6.720000X0.040000*%
%ADD39R,1.200000X0.040000*%
%ADD40R,6.960000X0.040000*%
%ADD41R,1.280000X0.040000*%
%ADD42R,7.160000X0.040000*%
%ADD43R,1.360000X0.040000*%
%ADD44R,7.360000X0.040000*%
%ADD45R,1.440000X0.040000*%
%ADD46R,7.520000X0.040000*%
%ADD47R,1.520000X0.040000*%
%ADD48R,7.720000X0.040000*%
%ADD49R,1.600000X0.040000*%
%ADD50R,7.880000X0.040000*%
%ADD51R,1.680000X0.040000*%
%ADD52R,8.080000X0.040000*%
%ADD53R,1.760000X0.040000*%
%ADD54R,8.240000X0.040000*%
%ADD55R,1.840000X0.040000*%
%ADD56R,8.400000X0.040000*%
%ADD57R,1.920000X0.040000*%
%ADD58R,8.560000X0.040000*%
%ADD59R,2.000000X0.040000*%
%ADD60R,8.720000X0.040000*%
%ADD61R,2.080000X0.040000*%
%ADD62R,8.880000X0.040000*%
%ADD63R,2.120000X0.040000*%
%ADD64R,9.040000X0.040000*%
%ADD65R,9.160000X0.040000*%
%ADD66R,9.320000X0.040000*%
%ADD67R,9.440000X0.040000*%
%ADD68R,9.600000X0.040000*%
%ADD69R,9.720000X0.040000*%
%ADD70R,9.880000X0.040000*%
%ADD71R,10.000000X0.040000*%
%ADD72R,10.120000X0.040000*%
%ADD73R,10.240000X0.040000*%
%ADD74R,10.400000X0.040000*%
%ADD75R,10.480000X0.040000*%
%ADD76R,10.640000X0.040000*%
%ADD77R,10.720000X0.040000*%
%ADD78R,12.920000X0.040000*%
%ADD79R,12.960000X0.040000*%
%ADD80R,13.000000X0.040000*%
%ADD81R,13.040000X0.040000*%
%ADD82R,13.080000X0.040000*%
%ADD83R,13.120000X0.040000*%
%ADD84R,5.600000X0.040000*%
%ADD85R,6.200000X0.040000*%
%ADD86R,5.240000X0.040000*%
%ADD87R,5.920000X0.040000*%
%ADD88R,4.960000X0.040000*%
%ADD89R,5.720000X0.040000*%
%ADD90R,4.720000X0.040000*%
%ADD91R,4.520000X0.040000*%
%ADD92R,5.440000X0.040000*%
%ADD93R,4.320000X0.040000*%
%ADD94R,5.320000X0.040000*%
%ADD95R,4.120000X0.040000*%
%ADD96R,3.960000X0.040000*%
%ADD97R,5.120000X0.040000*%
%ADD98R,3.800000X0.040000*%
%ADD99R,5.040000X0.040000*%
%ADD100R,3.640000X0.040000*%
%ADD101R,3.480000X0.040000*%
%ADD102R,4.880000X0.040000*%
%ADD103R,3.360000X0.040000*%
%ADD104R,4.840000X0.040000*%
%ADD105R,3.200000X0.040000*%
%ADD106R,4.760000X0.040000*%
%ADD107R,3.080000X0.040000*%
%ADD108R,2.960000X0.040000*%
%ADD109R,4.640000X0.040000*%
%ADD110R,2.840000X0.040000*%
%ADD111R,4.560000X0.040000*%
%ADD112R,2.720000X0.040000*%
%ADD113R,4.480000X0.040000*%
%ADD114R,2.480000X0.040000*%
%ADD115R,4.440000X0.040000*%
%ADD116R,2.360000X0.040000*%
%ADD117R,2.240000X0.040000*%
%ADD118R,4.280000X0.040000*%
%ADD119R,4.240000X0.040000*%
%ADD120R,4.200000X0.040000*%
%ADD121R,4.160000X0.040000*%
%ADD122R,4.080000X0.040000*%
%ADD123R,4.040000X0.040000*%
%ADD124R,2.200000X0.040000*%
%ADD125R,2.280000X0.040000*%
%ADD126R,2.320000X0.040000*%
%ADD127R,3.920000X0.040000*%
%ADD128R,2.400000X0.040000*%
%ADD129R,3.880000X0.040000*%
%ADD130R,2.520000X0.040000*%
%ADD131R,3.840000X0.040000*%
%ADD132R,2.640000X0.040000*%
%ADD133R,3.760000X0.040000*%
%ADD134R,2.800000X0.040000*%
%ADD135R,3.720000X0.040000*%
%ADD136R,2.920000X0.040000*%
%ADD137R,3.040000X0.040000*%
%ADD138R,3.680000X0.040000*%
%ADD139R,3.120000X0.040000*%
%ADD140R,3.240000X0.040000*%
%ADD141R,3.280000X0.040000*%
%ADD142R,3.400000X0.040000*%
%ADD143R,3.560000X0.040000*%
%ADD144R,3.520000X0.040000*%
%ADD145R,3.440000X0.040000*%
%ADD146R,3.320000X0.040000*%
%ADD147R,4.600000X0.040000*%
%ADD148R,4.800000X0.040000*%
%ADD149R,5.080000X0.040000*%
%ADD150R,5.160000X0.040000*%
%ADD151R,3.000000X0.040000*%
%ADD152R,2.880000X0.040000*%
%ADD153R,2.440000X0.040000*%
%ADD154R,5.760000X0.040000*%
%ADD155R,10.360000X0.040000*%
%ADD156R,6.080000X0.040000*%
%ADD157C,0.304800*%
%ADD158C,0.076200*%
%ADD159C,0.101600*%
%ADD160C,0.127000*%
%ADD161C,0.203200*%


D10*
X769500Y154500D03*
D11*
X769700Y154900D03*
D12*
X699500Y155300D03*
D13*
X769700Y155300D03*
D14*
X699500Y155700D03*
D15*
X769700Y155700D03*
D16*
X699500Y156100D03*
D17*
X769500Y156100D03*
D18*
X699500Y156500D03*
D19*
X769500Y156500D03*
D20*
X699500Y156900D03*
D21*
X769700Y156900D03*
D22*
X699500Y157300D03*
D23*
X769700Y157300D03*
D24*
X699500Y157700D03*
D25*
X769700Y157700D03*
D26*
X699500Y158100D03*
D27*
X769500Y158100D03*
D28*
X699500Y158500D03*
D29*
X769700Y158500D03*
D10*
X699500Y158900D03*
D30*
X769700Y158900D03*
D31*
X699500Y159300D03*
D32*
X769700Y159300D03*
D33*
X699500Y159700D03*
D34*
X769700Y159700D03*
D35*
X699500Y160100D03*
D36*
X769700Y160100D03*
D37*
X699500Y160500D03*
D38*
X769500Y160500D03*
D39*
X699500Y160900D03*
D40*
X769500Y160900D03*
D41*
X699500Y161300D03*
D42*
X769700Y161300D03*
D43*
X699500Y161700D03*
D44*
X769500Y161700D03*
D45*
X699500Y162100D03*
D46*
X769500Y162100D03*
D47*
X699500Y162500D03*
D48*
X769700Y162500D03*
D49*
X699500Y162900D03*
D50*
X769700Y162900D03*
D51*
X699500Y163300D03*
D52*
X769500Y163300D03*
D53*
X699500Y163700D03*
D54*
X769500Y163700D03*
D55*
X699500Y164100D03*
D56*
X769500Y164100D03*
D57*
X699500Y164500D03*
D58*
X769500Y164500D03*
D59*
X699500Y164900D03*
D60*
X769500Y164900D03*
D61*
X699500Y165300D03*
D62*
X769500Y165300D03*
D63*
X699700Y165700D03*
D64*
X769500Y165700D03*
D63*
X700100Y166100D03*
D65*
X769700Y166100D03*
D63*
X700500Y166500D03*
D66*
X769700Y166500D03*
D63*
X700900Y166900D03*
D67*
X769500Y166900D03*
D63*
X701300Y167300D03*
D68*
X769500Y167300D03*
D63*
X701700Y167700D03*
D69*
X769700Y167700D03*
D63*
X702100Y168100D03*
D70*
X769700Y168100D03*
D63*
X702500Y168500D03*
D71*
X769500Y168500D03*
D63*
X702900Y168900D03*
D72*
X769700Y168900D03*
D12*
X685500Y169300D03*
D63*
X703300Y169300D03*
D73*
X769500Y169300D03*
D14*
X685500Y169700D03*
D63*
X703700Y169700D03*
D74*
X769500Y169700D03*
D16*
X685500Y170100D03*
D63*
X704100Y170100D03*
D75*
X769500Y170100D03*
D18*
X685500Y170500D03*
D63*
X704500Y170500D03*
D76*
X769500Y170500D03*
D20*
X685500Y170900D03*
D63*
X704900Y170900D03*
D77*
X769500Y170900D03*
D22*
X685500Y171300D03*
D78*
X759300Y171300D03*
D24*
X685500Y171700D03*
D78*
X759700Y171700D03*
D26*
X685500Y172100D03*
D79*
X760300Y172100D03*
D28*
X685500Y172500D03*
D79*
X760700Y172500D03*
D10*
X685500Y172900D03*
D79*
X761100Y172900D03*
D31*
X685500Y173300D03*
D80*
X761700Y173300D03*
D33*
X685500Y173700D03*
D80*
X762100Y173700D03*
D35*
X685500Y174100D03*
D80*
X762500Y174100D03*
D37*
X685500Y174500D03*
D81*
X763100Y174500D03*
D39*
X685500Y174900D03*
D81*
X763500Y174900D03*
D41*
X685500Y175300D03*
D81*
X763900Y175300D03*
D43*
X685500Y175700D03*
D81*
X764300Y175700D03*
D45*
X685500Y176100D03*
D82*
X764900Y176100D03*
D47*
X685500Y176500D03*
D82*
X765300Y176500D03*
D49*
X685500Y176900D03*
D82*
X765700Y176900D03*
D51*
X685500Y177300D03*
D82*
X766100Y177300D03*
D53*
X685500Y177700D03*
D82*
X766500Y177700D03*
D55*
X685500Y178100D03*
D82*
X766900Y178100D03*
D57*
X685500Y178500D03*
D83*
X767500Y178500D03*
D59*
X685500Y178900D03*
D83*
X767900Y178900D03*
D61*
X685500Y179300D03*
D83*
X768300Y179300D03*
D63*
X685700Y179700D03*
D83*
X768700Y179700D03*
D63*
X686100Y180100D03*
D83*
X769100Y180100D03*
D63*
X686500Y180500D03*
D83*
X769500Y180500D03*
D63*
X686900Y180900D03*
D83*
X769900Y180900D03*
D63*
X687300Y181300D03*
D83*
X770300Y181300D03*
D63*
X687700Y181700D03*
D83*
X770700Y181700D03*
D63*
X688100Y182100D03*
D83*
X771100Y182100D03*
D63*
X688500Y182500D03*
D83*
X771500Y182500D03*
D63*
X688900Y182900D03*
D83*
X771900Y182900D03*
D63*
X689300Y183300D03*
D83*
X772300Y183300D03*
D63*
X689700Y183700D03*
D84*
X735100Y183700D03*
D85*
X807300Y183700D03*
D63*
X690100Y184100D03*
D86*
X733700Y184100D03*
D87*
X809100Y184100D03*
D63*
X690500Y184500D03*
D88*
X732700Y184500D03*
D89*
X810500Y184500D03*
D63*
X690900Y184900D03*
D90*
X731900Y184900D03*
D84*
X811500Y184900D03*
D63*
X691300Y185300D03*
D91*
X731300Y185300D03*
D92*
X812700Y185300D03*
D63*
X691700Y185700D03*
D93*
X730700Y185700D03*
D94*
X813700Y185700D03*
D63*
X692100Y186100D03*
D95*
X730100Y186100D03*
D86*
X814500Y186100D03*
D63*
X692500Y186500D03*
D96*
X729700Y186500D03*
D97*
X815100Y186500D03*
D63*
X692900Y186900D03*
D98*
X729300Y186900D03*
D99*
X815900Y186900D03*
D63*
X693300Y187300D03*
D100*
X728900Y187300D03*
D88*
X816700Y187300D03*
D63*
X693700Y187700D03*
D101*
X728500Y187700D03*
D102*
X817500Y187700D03*
D63*
X694100Y188100D03*
D103*
X728300Y188100D03*
D104*
X818100Y188100D03*
D63*
X694500Y188500D03*
D105*
X727900Y188500D03*
D106*
X818900Y188500D03*
D63*
X694900Y188900D03*
D107*
X727700Y188900D03*
D90*
X819500Y188900D03*
D63*
X695300Y189300D03*
D108*
X727500Y189300D03*
D109*
X819900Y189300D03*
D63*
X695700Y189700D03*
D110*
X727300Y189700D03*
D111*
X820700Y189700D03*
D63*
X696100Y190100D03*
D112*
X727100Y190100D03*
D91*
X821300Y190100D03*
D63*
X696500Y190500D03*
D13*
X726900Y190500D03*
D113*
X821900Y190500D03*
D63*
X696900Y190900D03*
D114*
X726700Y190900D03*
D115*
X822500Y190900D03*
D63*
X697300Y191300D03*
D116*
X726500Y191300D03*
D21*
X822900Y191300D03*
D63*
X697700Y191700D03*
D117*
X726300Y191700D03*
D21*
X823300Y191700D03*
D63*
X698100Y192100D03*
X726100Y192100D03*
D93*
X823900Y192100D03*
D63*
X698500Y192500D03*
X726500Y192500D03*
D118*
X824500Y192500D03*
D63*
X698900Y192900D03*
X726900Y192900D03*
D119*
X824700Y192900D03*
D63*
X699300Y193300D03*
X727300Y193300D03*
D120*
X825300Y193300D03*
D63*
X699700Y193700D03*
X727700Y193700D03*
D121*
X825900Y193700D03*
D63*
X700100Y194100D03*
X728100Y194100D03*
D121*
X826300Y194100D03*
D63*
X700500Y194500D03*
X728500Y194500D03*
D122*
X826700Y194500D03*
D63*
X700900Y194900D03*
X728900Y194900D03*
D122*
X827100Y194900D03*
D63*
X701300Y195300D03*
X729300Y195300D03*
D123*
X827700Y195300D03*
D63*
X701700Y195700D03*
X729700Y195700D03*
D19*
X827900Y195700D03*
D124*
X701700Y196100D03*
D63*
X730100Y196100D03*
D19*
X828300Y196100D03*
D125*
X701700Y196500D03*
D63*
X730500Y196500D03*
D96*
X828900Y196500D03*
D126*
X701900Y196900D03*
D63*
X730900Y196900D03*
D127*
X829100Y196900D03*
D128*
X701900Y197300D03*
D63*
X731300Y197300D03*
D127*
X829500Y197300D03*
D114*
X701900Y197700D03*
D63*
X731700Y197700D03*
D129*
X830100Y197700D03*
D130*
X702100Y198100D03*
D63*
X732100Y198100D03*
D131*
X830300Y198100D03*
D13*
X702100Y198500D03*
D63*
X732500Y198500D03*
D131*
X830700Y198500D03*
D132*
X702300Y198900D03*
D63*
X732900Y198900D03*
D131*
X831100Y198900D03*
D112*
X702300Y199300D03*
D63*
X733300Y199300D03*
D133*
X831500Y199300D03*
D134*
X702300Y199700D03*
D63*
X733700Y199700D03*
D133*
X831900Y199700D03*
D110*
X702500Y200100D03*
D63*
X734100Y200100D03*
D135*
X832100Y200100D03*
D136*
X702500Y200500D03*
D63*
X734500Y200500D03*
D135*
X832500Y200500D03*
D108*
X702700Y200900D03*
D63*
X734900Y200900D03*
D135*
X832900Y200900D03*
D137*
X702700Y201300D03*
D63*
X735300Y201300D03*
D138*
X833100Y201300D03*
D139*
X702700Y201700D03*
D63*
X735700Y201700D03*
D138*
X833500Y201700D03*
D15*
X702900Y202100D03*
D63*
X736100Y202100D03*
D100*
X833700Y202100D03*
D140*
X702900Y202500D03*
D63*
X736500Y202500D03*
D100*
X834100Y202500D03*
D141*
X703100Y202900D03*
D63*
X736900Y202900D03*
D100*
X834500Y202900D03*
D103*
X703100Y203300D03*
D63*
X737300Y203300D03*
D17*
X834700Y203300D03*
D142*
X703300Y203700D03*
D63*
X737700Y203700D03*
D17*
X835100Y203700D03*
D101*
X703300Y204100D03*
D63*
X738100Y204100D03*
D143*
X835300Y204100D03*
X703300Y204500D03*
D63*
X738500Y204500D03*
D143*
X835700Y204500D03*
D17*
X703500Y204900D03*
D63*
X738900Y204900D03*
D144*
X835900Y204900D03*
D138*
X703500Y205300D03*
D63*
X739300Y205300D03*
D144*
X836300Y205300D03*
D135*
X703700Y205700D03*
D63*
X739700Y205700D03*
D101*
X836500Y205700D03*
D98*
X703700Y206100D03*
D63*
X740100Y206100D03*
D101*
X836900Y206100D03*
D131*
X703900Y206500D03*
D63*
X740500Y206500D03*
D145*
X837100Y206500D03*
D127*
X703900Y206900D03*
D63*
X740900Y206900D03*
D101*
X837300Y206900D03*
D96*
X704100Y207300D03*
D63*
X741300Y207300D03*
D145*
X837500Y207300D03*
D123*
X704100Y207700D03*
D63*
X741700Y207700D03*
D145*
X837900Y207700D03*
D122*
X704300Y208100D03*
D63*
X742100Y208100D03*
D142*
X838100Y208100D03*
D121*
X704300Y208500D03*
D63*
X742500Y208500D03*
D142*
X838500Y208500D03*
D120*
X704500Y208900D03*
D63*
X742900Y208900D03*
D142*
X838500Y208900D03*
D118*
X704500Y209300D03*
D63*
X743300Y209300D03*
D142*
X838900Y209300D03*
D93*
X704700Y209700D03*
D63*
X743700Y209700D03*
D103*
X839100Y209700D03*
D21*
X704900Y210100D03*
D63*
X744100Y210100D03*
D103*
X839500Y210100D03*
D115*
X704900Y210500D03*
D63*
X744500Y210500D03*
D103*
X839500Y210500D03*
D113*
X705100Y210900D03*
D63*
X744900Y210900D03*
D103*
X839900Y210900D03*
D111*
X705100Y211300D03*
D63*
X745300Y211300D03*
D146*
X840100Y211300D03*
D147*
X705300Y211700D03*
D63*
X745700Y211700D03*
D141*
X840300Y211700D03*
D23*
X705300Y212100D03*
D63*
X746100Y212100D03*
D146*
X840500Y212100D03*
D90*
X705500Y212500D03*
D63*
X746500Y212500D03*
D141*
X840700Y212500D03*
D148*
X705500Y212900D03*
D63*
X746900Y212900D03*
D141*
X841100Y212900D03*
D104*
X705700Y213300D03*
D63*
X747300Y213300D03*
D141*
X841100Y213300D03*
D102*
X705900Y213700D03*
D63*
X747700Y213700D03*
D141*
X841500Y213700D03*
D88*
X705900Y214100D03*
D63*
X748100Y214100D03*
D140*
X841700Y214100D03*
D25*
X706100Y214500D03*
D63*
X748500Y214500D03*
D140*
X841700Y214500D03*
D149*
X706100Y214900D03*
D63*
X748900Y214900D03*
D140*
X842100Y214900D03*
D97*
X706300Y215300D03*
D63*
X749300Y215300D03*
D140*
X842100Y215300D03*
D150*
X706500Y215700D03*
D63*
X749700Y215700D03*
D105*
X842300Y215700D03*
D86*
X706500Y216100D03*
D63*
X750100Y216100D03*
D105*
X842700Y216100D03*
D27*
X706700Y216500D03*
D63*
X750500Y216500D03*
D105*
X842700Y216500D03*
D15*
X696100Y216900D03*
D63*
X722900Y216900D03*
X750900Y216900D03*
D105*
X843100Y216900D03*
X695900Y217300D03*
D63*
X723300Y217300D03*
X751300Y217300D03*
D105*
X843100Y217300D03*
D15*
X695700Y217700D03*
D63*
X723700Y217700D03*
X751700Y217700D03*
D15*
X843300Y217700D03*
X695700Y218100D03*
D63*
X724100Y218100D03*
X752100Y218100D03*
D15*
X843700Y218100D03*
X695300Y218500D03*
D63*
X724500Y218500D03*
X752500Y218500D03*
D15*
X843700Y218500D03*
X695300Y218900D03*
D63*
X724900Y218900D03*
X752900Y218900D03*
D139*
X843900Y218900D03*
D15*
X694900Y219300D03*
D63*
X725300Y219300D03*
X753300Y219300D03*
D15*
X844100Y219300D03*
X694900Y219700D03*
D63*
X725700Y219700D03*
X753700Y219700D03*
D139*
X844300Y219700D03*
X694700Y220100D03*
D63*
X726100Y220100D03*
X754100Y220100D03*
D139*
X844300Y220100D03*
X694700Y220500D03*
D63*
X726500Y220500D03*
X754500Y220500D03*
D139*
X844700Y220500D03*
X694300Y220900D03*
D63*
X726900Y220900D03*
X754900Y220900D03*
D139*
X844700Y220900D03*
X694300Y221300D03*
D63*
X727300Y221300D03*
X755300Y221300D03*
D107*
X844900Y221300D03*
X694100Y221700D03*
D63*
X727700Y221700D03*
X755700Y221700D03*
D139*
X845100Y221700D03*
X693900Y222100D03*
D63*
X728100Y222100D03*
X756100Y222100D03*
D139*
X845100Y222100D03*
D107*
X693700Y222500D03*
D63*
X728500Y222500D03*
X756500Y222500D03*
D107*
X845300Y222500D03*
X693700Y222900D03*
D63*
X728900Y222900D03*
X756900Y222900D03*
D107*
X845300Y222900D03*
X693300Y223300D03*
D63*
X729300Y223300D03*
X757300Y223300D03*
D107*
X845700Y223300D03*
X693300Y223700D03*
D63*
X729700Y223700D03*
X757700Y223700D03*
D107*
X845700Y223700D03*
X693300Y224100D03*
D63*
X730100Y224100D03*
X758100Y224100D03*
D137*
X845900Y224100D03*
X693100Y224500D03*
D63*
X730500Y224500D03*
X758500Y224500D03*
D107*
X846100Y224500D03*
X692900Y224900D03*
D63*
X730900Y224900D03*
X758900Y224900D03*
D107*
X846100Y224900D03*
D137*
X692700Y225300D03*
D63*
X731300Y225300D03*
X759300Y225300D03*
D137*
X846300Y225300D03*
X692700Y225700D03*
D63*
X731700Y225700D03*
X759700Y225700D03*
D137*
X846300Y225700D03*
X692700Y226100D03*
D63*
X732100Y226100D03*
X760100Y226100D03*
D137*
X846700Y226100D03*
X692300Y226500D03*
D63*
X732500Y226500D03*
X760500Y226500D03*
D137*
X846700Y226500D03*
X692300Y226900D03*
D63*
X732900Y226900D03*
X760900Y226900D03*
D137*
X846700Y226900D03*
D151*
X692100Y227300D03*
D63*
X733300Y227300D03*
X761300Y227300D03*
D151*
X846900Y227300D03*
X692100Y227700D03*
D63*
X733700Y227700D03*
X761700Y227700D03*
D137*
X847100Y227700D03*
X691900Y228100D03*
D63*
X734100Y228100D03*
X762100Y228100D03*
D137*
X847100Y228100D03*
D151*
X691700Y228500D03*
D63*
X734500Y228500D03*
X762500Y228500D03*
D151*
X847300Y228500D03*
X691700Y228900D03*
D63*
X734900Y228900D03*
X762900Y228900D03*
D151*
X847300Y228900D03*
X691700Y229300D03*
D63*
X735300Y229300D03*
X763300Y229300D03*
D151*
X847300Y229300D03*
X691300Y229700D03*
D63*
X735700Y229700D03*
X763700Y229700D03*
D151*
X847700Y229700D03*
X691300Y230100D03*
D63*
X736100Y230100D03*
X764100Y230100D03*
D151*
X847700Y230100D03*
X691300Y230500D03*
D63*
X736500Y230500D03*
X764500Y230500D03*
D151*
X847700Y230500D03*
D108*
X691100Y230900D03*
D63*
X736900Y230900D03*
X764900Y230900D03*
D108*
X847900Y230900D03*
X691100Y231300D03*
D63*
X737300Y231300D03*
X765300Y231300D03*
D108*
X847900Y231300D03*
D151*
X690900Y231700D03*
D63*
X737700Y231700D03*
X765700Y231700D03*
D151*
X848100Y231700D03*
X690900Y232100D03*
D63*
X738100Y232100D03*
X766100Y232100D03*
D108*
X848300Y232100D03*
X690700Y232500D03*
D63*
X738500Y232500D03*
X766500Y232500D03*
D108*
X848300Y232500D03*
X690700Y232900D03*
D63*
X738900Y232900D03*
X766900Y232900D03*
D108*
X848300Y232900D03*
X690700Y233300D03*
D63*
X739300Y233300D03*
X767300Y233300D03*
D108*
X848300Y233300D03*
X690700Y233700D03*
D63*
X739700Y233700D03*
X767700Y233700D03*
D108*
X848700Y233700D03*
X690300Y234100D03*
D63*
X740100Y234100D03*
X768100Y234100D03*
D108*
X848700Y234100D03*
X690300Y234500D03*
D63*
X740500Y234500D03*
X768500Y234500D03*
D108*
X848700Y234500D03*
X690300Y234900D03*
D63*
X740900Y234900D03*
X768900Y234900D03*
D108*
X848700Y234900D03*
X690300Y235300D03*
D63*
X741300Y235300D03*
X769300Y235300D03*
D108*
X848700Y235300D03*
D136*
X690100Y235700D03*
D63*
X741700Y235700D03*
X769700Y235700D03*
D136*
X848900Y235700D03*
X690100Y236100D03*
D63*
X742100Y236100D03*
X770100Y236100D03*
D136*
X848900Y236100D03*
D108*
X689900Y236500D03*
D63*
X742500Y236500D03*
X770500Y236500D03*
D108*
X849100Y236500D03*
X689900Y236900D03*
D63*
X742900Y236900D03*
X770900Y236900D03*
D108*
X849100Y236900D03*
X689900Y237300D03*
D63*
X743300Y237300D03*
X771300Y237300D03*
D136*
X849300Y237300D03*
X689700Y237700D03*
D63*
X743700Y237700D03*
X771700Y237700D03*
D136*
X849300Y237700D03*
X689700Y238100D03*
D63*
X744100Y238100D03*
X772100Y238100D03*
D136*
X849300Y238100D03*
X689700Y238500D03*
D63*
X744500Y238500D03*
X772500Y238500D03*
D136*
X849300Y238500D03*
X689700Y238900D03*
D63*
X744900Y238900D03*
X772900Y238900D03*
D136*
X849300Y238900D03*
X689700Y239300D03*
D63*
X745300Y239300D03*
X773300Y239300D03*
D136*
X849300Y239300D03*
X689700Y239700D03*
D63*
X745700Y239700D03*
X773700Y239700D03*
D136*
X849700Y239700D03*
X689300Y240100D03*
D63*
X746100Y240100D03*
X774100Y240100D03*
D136*
X849700Y240100D03*
X689300Y240500D03*
D63*
X746500Y240500D03*
X774500Y240500D03*
D136*
X849700Y240500D03*
X689300Y240900D03*
D63*
X746900Y240900D03*
X774900Y240900D03*
D136*
X849700Y240900D03*
X689300Y241300D03*
D63*
X747300Y241300D03*
X775300Y241300D03*
D136*
X849700Y241300D03*
X689300Y241700D03*
D63*
X747700Y241700D03*
X775700Y241700D03*
D136*
X849700Y241700D03*
X689300Y242100D03*
D63*
X748100Y242100D03*
X776100Y242100D03*
D136*
X849700Y242100D03*
X689300Y242500D03*
D63*
X748500Y242500D03*
X776500Y242500D03*
D136*
X849700Y242500D03*
X689300Y242900D03*
D63*
X748900Y242900D03*
X776900Y242900D03*
D152*
X849900Y242900D03*
X689100Y243300D03*
D63*
X749300Y243300D03*
X777300Y243300D03*
D152*
X849900Y243300D03*
X689100Y243700D03*
D63*
X749700Y243700D03*
X777700Y243700D03*
D152*
X849900Y243700D03*
X689100Y244100D03*
D63*
X750100Y244100D03*
X778100Y244100D03*
D152*
X849900Y244100D03*
X689100Y244500D03*
D63*
X750500Y244500D03*
X778500Y244500D03*
D152*
X849900Y244500D03*
X689100Y244900D03*
D63*
X750900Y244900D03*
X778900Y244900D03*
D152*
X849900Y244900D03*
X689100Y245300D03*
D63*
X751300Y245300D03*
X779300Y245300D03*
D152*
X849900Y245300D03*
D136*
X688900Y245700D03*
D63*
X751700Y245700D03*
X779700Y245700D03*
D136*
X850100Y245700D03*
X688900Y246100D03*
D63*
X752100Y246100D03*
X780100Y246100D03*
D136*
X850100Y246100D03*
X688900Y246500D03*
D63*
X752500Y246500D03*
X780500Y246500D03*
D136*
X850100Y246500D03*
X688900Y246900D03*
D63*
X752900Y246900D03*
X780900Y246900D03*
D136*
X850100Y246900D03*
X688900Y247300D03*
D63*
X753300Y247300D03*
X781300Y247300D03*
D136*
X850100Y247300D03*
X688900Y247700D03*
D63*
X753700Y247700D03*
X781700Y247700D03*
D136*
X850100Y247700D03*
X688900Y248100D03*
D63*
X754100Y248100D03*
X782100Y248100D03*
D136*
X850100Y248100D03*
X688900Y248500D03*
D63*
X754500Y248500D03*
X782500Y248500D03*
D136*
X850100Y248500D03*
X688900Y248900D03*
D63*
X754900Y248900D03*
X782900Y248900D03*
D136*
X850100Y248900D03*
X688900Y249300D03*
D63*
X755300Y249300D03*
X783300Y249300D03*
D136*
X850100Y249300D03*
X688900Y249700D03*
D63*
X755700Y249700D03*
X783700Y249700D03*
D136*
X850100Y249700D03*
X688900Y250100D03*
D63*
X756100Y250100D03*
X784100Y250100D03*
D136*
X850100Y250100D03*
X688900Y250500D03*
D63*
X756500Y250500D03*
X784500Y250500D03*
D136*
X850100Y250500D03*
X688900Y250900D03*
D63*
X756900Y250900D03*
X784900Y250900D03*
D136*
X850100Y250900D03*
X688900Y251300D03*
D63*
X757300Y251300D03*
X785300Y251300D03*
D136*
X850100Y251300D03*
X688900Y251700D03*
D63*
X757700Y251700D03*
X785700Y251700D03*
D136*
X850100Y251700D03*
X688900Y252100D03*
D63*
X758100Y252100D03*
X786100Y252100D03*
D136*
X850100Y252100D03*
X688900Y252500D03*
D63*
X758500Y252500D03*
X786500Y252500D03*
D136*
X850100Y252500D03*
X688900Y252900D03*
D63*
X758900Y252900D03*
X786900Y252900D03*
D136*
X850100Y252900D03*
X688900Y253300D03*
D63*
X759300Y253300D03*
X787300Y253300D03*
D136*
X850100Y253300D03*
X688900Y253700D03*
D63*
X759700Y253700D03*
X787700Y253700D03*
D152*
X849900Y253700D03*
X689100Y254100D03*
D63*
X760100Y254100D03*
X788100Y254100D03*
D152*
X849900Y254100D03*
X689100Y254500D03*
D63*
X760500Y254500D03*
X788500Y254500D03*
D152*
X849900Y254500D03*
X689100Y254900D03*
D63*
X760900Y254900D03*
X788900Y254900D03*
D152*
X849900Y254900D03*
X689100Y255300D03*
D63*
X761300Y255300D03*
X789300Y255300D03*
D152*
X849900Y255300D03*
X689100Y255700D03*
D63*
X761700Y255700D03*
X789700Y255700D03*
D152*
X849900Y255700D03*
X689100Y256100D03*
D63*
X762100Y256100D03*
X790100Y256100D03*
D136*
X849700Y256100D03*
X689300Y256500D03*
D63*
X762500Y256500D03*
X790500Y256500D03*
D136*
X849700Y256500D03*
X689300Y256900D03*
D63*
X762900Y256900D03*
X790900Y256900D03*
D136*
X849700Y256900D03*
X689300Y257300D03*
D63*
X763300Y257300D03*
X791300Y257300D03*
D136*
X849700Y257300D03*
X689300Y257700D03*
D63*
X763700Y257700D03*
X791700Y257700D03*
D136*
X849700Y257700D03*
X689300Y258100D03*
D63*
X764100Y258100D03*
X792100Y258100D03*
D136*
X849700Y258100D03*
X689300Y258500D03*
D63*
X764500Y258500D03*
X792500Y258500D03*
D136*
X849700Y258500D03*
X689300Y258900D03*
D63*
X764900Y258900D03*
X792900Y258900D03*
D136*
X849700Y258900D03*
D108*
X689500Y259300D03*
D63*
X765300Y259300D03*
X793300Y259300D03*
D136*
X849300Y259300D03*
X689700Y259700D03*
D63*
X765700Y259700D03*
X793700Y259700D03*
D136*
X849300Y259700D03*
X689700Y260100D03*
D63*
X766100Y260100D03*
X794100Y260100D03*
D136*
X849300Y260100D03*
X689700Y260500D03*
D63*
X766500Y260500D03*
X794500Y260500D03*
D136*
X849300Y260500D03*
X689700Y260900D03*
D63*
X766900Y260900D03*
X794900Y260900D03*
D136*
X849300Y260900D03*
X689700Y261300D03*
D63*
X767300Y261300D03*
X795300Y261300D03*
D136*
X849300Y261300D03*
D108*
X689900Y261700D03*
D63*
X767700Y261700D03*
X795700Y261700D03*
D108*
X849100Y261700D03*
X689900Y262100D03*
D63*
X768100Y262100D03*
X796100Y262100D03*
D108*
X849100Y262100D03*
X689900Y262500D03*
D63*
X768500Y262500D03*
X796500Y262500D03*
D108*
X849100Y262500D03*
D136*
X690100Y262900D03*
D63*
X768900Y262900D03*
X796900Y262900D03*
D136*
X848900Y262900D03*
X690100Y263300D03*
D63*
X769300Y263300D03*
X797300Y263300D03*
D136*
X848900Y263300D03*
D108*
X690300Y263700D03*
D63*
X769700Y263700D03*
X797700Y263700D03*
D108*
X848700Y263700D03*
X690300Y264100D03*
D63*
X770100Y264100D03*
X798100Y264100D03*
D108*
X848700Y264100D03*
X690300Y264500D03*
D63*
X770500Y264500D03*
X798500Y264500D03*
D108*
X848700Y264500D03*
X690300Y264900D03*
D63*
X770900Y264900D03*
X798900Y264900D03*
D108*
X848700Y264900D03*
X690300Y265300D03*
D63*
X771300Y265300D03*
X799300Y265300D03*
D108*
X848300Y265300D03*
X690700Y265700D03*
D63*
X771700Y265700D03*
X799700Y265700D03*
D108*
X848300Y265700D03*
X690700Y266100D03*
D63*
X772100Y266100D03*
X800100Y266100D03*
D108*
X848300Y266100D03*
X690700Y266500D03*
D63*
X772500Y266500D03*
X800500Y266500D03*
D108*
X848300Y266500D03*
D151*
X690900Y266900D03*
D63*
X772900Y266900D03*
X800900Y266900D03*
D151*
X848100Y266900D03*
X690900Y267300D03*
D63*
X773300Y267300D03*
X801300Y267300D03*
D151*
X848100Y267300D03*
D108*
X691100Y267700D03*
D63*
X773700Y267700D03*
X801700Y267700D03*
D108*
X847900Y267700D03*
X691100Y268100D03*
D63*
X774100Y268100D03*
X802100Y268100D03*
D108*
X847900Y268100D03*
D151*
X691300Y268500D03*
D63*
X774500Y268500D03*
X802500Y268500D03*
D151*
X847700Y268500D03*
X691300Y268900D03*
D63*
X774900Y268900D03*
X802900Y268900D03*
D151*
X847700Y268900D03*
X691300Y269300D03*
D63*
X775300Y269300D03*
X803300Y269300D03*
D151*
X847700Y269300D03*
X691700Y269700D03*
D63*
X775700Y269700D03*
X803700Y269700D03*
D151*
X847300Y269700D03*
X691700Y270100D03*
D63*
X776100Y270100D03*
X804100Y270100D03*
D151*
X847300Y270100D03*
X691700Y270500D03*
D63*
X776500Y270500D03*
X804500Y270500D03*
D151*
X847300Y270500D03*
D137*
X691900Y270900D03*
D63*
X776900Y270900D03*
X804900Y270900D03*
D137*
X847100Y270900D03*
X691900Y271300D03*
D63*
X777300Y271300D03*
X805300Y271300D03*
D151*
X846900Y271300D03*
X692100Y271700D03*
D63*
X777700Y271700D03*
X805700Y271700D03*
D151*
X846900Y271700D03*
D137*
X692300Y272100D03*
D63*
X778100Y272100D03*
X806100Y272100D03*
D137*
X846700Y272100D03*
X692300Y272500D03*
D63*
X778500Y272500D03*
X806500Y272500D03*
D137*
X846700Y272500D03*
X692300Y272900D03*
D63*
X778900Y272900D03*
X806900Y272900D03*
D137*
X846300Y272900D03*
X692700Y273300D03*
D63*
X779300Y273300D03*
X807300Y273300D03*
D137*
X846300Y273300D03*
X692700Y273700D03*
D63*
X779700Y273700D03*
X807700Y273700D03*
D137*
X846300Y273700D03*
D107*
X692900Y274100D03*
D63*
X780100Y274100D03*
X808100Y274100D03*
D107*
X846100Y274100D03*
X692900Y274500D03*
D63*
X780500Y274500D03*
X808500Y274500D03*
D137*
X845900Y274500D03*
X693100Y274900D03*
D63*
X780900Y274900D03*
X808900Y274900D03*
D107*
X845700Y274900D03*
X693300Y275300D03*
D63*
X781300Y275300D03*
X809300Y275300D03*
D107*
X845700Y275300D03*
X693300Y275700D03*
D63*
X781700Y275700D03*
X809700Y275700D03*
D107*
X845700Y275700D03*
X693700Y276100D03*
D63*
X782100Y276100D03*
X810100Y276100D03*
D107*
X845300Y276100D03*
X693700Y276500D03*
D63*
X782500Y276500D03*
X810500Y276500D03*
D107*
X845300Y276500D03*
D139*
X693900Y276900D03*
D63*
X782900Y276900D03*
X810900Y276900D03*
D139*
X845100Y276900D03*
X693900Y277300D03*
D63*
X783300Y277300D03*
X811300Y277300D03*
D107*
X844900Y277300D03*
X694100Y277700D03*
D63*
X783700Y277700D03*
X811700Y277700D03*
D139*
X844700Y277700D03*
X694300Y278100D03*
D63*
X784100Y278100D03*
X812100Y278100D03*
D139*
X844700Y278100D03*
X694300Y278500D03*
D63*
X784500Y278500D03*
X812500Y278500D03*
D139*
X844300Y278500D03*
X694700Y278900D03*
D63*
X784900Y278900D03*
X812900Y278900D03*
D139*
X844300Y278900D03*
X694700Y279300D03*
D63*
X785300Y279300D03*
X813300Y279300D03*
D15*
X844100Y279300D03*
X694900Y279700D03*
D63*
X785700Y279700D03*
X813700Y279700D03*
D139*
X843900Y279700D03*
X695100Y280100D03*
D63*
X786100Y280100D03*
X814100Y280100D03*
D15*
X843700Y280100D03*
X695300Y280500D03*
D63*
X786500Y280500D03*
X814500Y280500D03*
D15*
X843700Y280500D03*
D105*
X695500Y280900D03*
D63*
X786900Y280900D03*
X814900Y280900D03*
D15*
X843300Y280900D03*
X695700Y281300D03*
D63*
X787300Y281300D03*
X815300Y281300D03*
D15*
X843300Y281300D03*
D105*
X695900Y281700D03*
D63*
X787700Y281700D03*
X815700Y281700D03*
D105*
X843100Y281700D03*
X695900Y282100D03*
D63*
X788100Y282100D03*
X816100Y282100D03*
D15*
X842900Y282100D03*
D105*
X696300Y282500D03*
D63*
X788500Y282500D03*
D27*
X832300Y282500D03*
D105*
X696300Y282900D03*
D63*
X788900Y282900D03*
D86*
X832500Y282900D03*
D105*
X696700Y283300D03*
D63*
X789300Y283300D03*
D150*
X832500Y283300D03*
D140*
X696900Y283700D03*
D63*
X789700Y283700D03*
D97*
X832700Y283700D03*
D140*
X696900Y284100D03*
D63*
X790100Y284100D03*
D149*
X832900Y284100D03*
D140*
X697300Y284500D03*
D63*
X790500Y284500D03*
D25*
X832900Y284500D03*
D140*
X697300Y284900D03*
D63*
X790900Y284900D03*
D88*
X833100Y284900D03*
D141*
X697500Y285300D03*
D63*
X791300Y285300D03*
D102*
X833100Y285300D03*
D141*
X697900Y285700D03*
D63*
X791700Y285700D03*
D104*
X833300Y285700D03*
D141*
X697900Y286100D03*
D63*
X792100Y286100D03*
D148*
X833500Y286100D03*
D141*
X698300Y286500D03*
D63*
X792500Y286500D03*
D90*
X833500Y286500D03*
D146*
X698500Y286900D03*
D63*
X792900Y286900D03*
D23*
X833700Y286900D03*
D141*
X698700Y287300D03*
D63*
X793300Y287300D03*
D147*
X833700Y287300D03*
D146*
X698900Y287700D03*
D63*
X793700Y287700D03*
D111*
X833900Y287700D03*
D103*
X699100Y288100D03*
D63*
X794100Y288100D03*
D113*
X833900Y288100D03*
D103*
X699500Y288500D03*
D63*
X794500Y288500D03*
D115*
X834100Y288500D03*
D103*
X699500Y288900D03*
D63*
X794900Y288900D03*
D21*
X834100Y288900D03*
D103*
X699900Y289300D03*
D63*
X795300Y289300D03*
D93*
X834300Y289300D03*
D142*
X700100Y289700D03*
D63*
X795700Y289700D03*
D118*
X834500Y289700D03*
D142*
X700500Y290100D03*
D63*
X796100Y290100D03*
D120*
X834500Y290100D03*
D142*
X700500Y290500D03*
D63*
X796500Y290500D03*
D121*
X834700Y290500D03*
D142*
X700900Y290900D03*
D63*
X796900Y290900D03*
D122*
X834700Y290900D03*
D145*
X701100Y291300D03*
D63*
X797300Y291300D03*
D123*
X834900Y291300D03*
D145*
X701500Y291700D03*
D63*
X797700Y291700D03*
D96*
X834900Y291700D03*
D101*
X701700Y292100D03*
D63*
X798100Y292100D03*
D127*
X835100Y292100D03*
D145*
X701900Y292500D03*
D63*
X798500Y292500D03*
D131*
X835100Y292500D03*
D101*
X702100Y292900D03*
D63*
X798900Y292900D03*
D98*
X835300Y292900D03*
D101*
X702500Y293300D03*
D63*
X799300Y293300D03*
D135*
X835300Y293300D03*
D144*
X702700Y293700D03*
D63*
X799700Y293700D03*
D138*
X835500Y293700D03*
D144*
X703100Y294100D03*
D63*
X800100Y294100D03*
D17*
X835500Y294100D03*
D143*
X703300Y294500D03*
D63*
X800500Y294500D03*
D143*
X835700Y294500D03*
X703700Y294900D03*
D63*
X800900Y294900D03*
D101*
X835700Y294900D03*
D17*
X703900Y295300D03*
D63*
X801300Y295300D03*
D142*
X835700Y295300D03*
D17*
X704300Y295700D03*
D63*
X801700Y295700D03*
D103*
X835900Y295700D03*
D100*
X704500Y296100D03*
D63*
X802100Y296100D03*
D141*
X835900Y296100D03*
D100*
X704900Y296500D03*
D63*
X802500Y296500D03*
D140*
X836100Y296500D03*
D100*
X705300Y296900D03*
D63*
X802900Y296900D03*
D15*
X836100Y296900D03*
D138*
X705500Y297300D03*
D63*
X803300Y297300D03*
D139*
X836300Y297300D03*
D138*
X705900Y297700D03*
D63*
X803700Y297700D03*
D137*
X836300Y297700D03*
D135*
X706100Y298100D03*
D63*
X804100Y298100D03*
D108*
X836300Y298100D03*
D135*
X706500Y298500D03*
D63*
X804500Y298500D03*
D136*
X836500Y298500D03*
D133*
X706700Y298900D03*
D63*
X804900Y298900D03*
D110*
X836500Y298900D03*
D133*
X707100Y299300D03*
D63*
X805300Y299300D03*
D134*
X836700Y299300D03*
D133*
X707500Y299700D03*
D63*
X805700Y299700D03*
D112*
X836700Y299700D03*
D131*
X707900Y300100D03*
D63*
X806100Y300100D03*
D132*
X836700Y300100D03*
D131*
X708300Y300500D03*
D63*
X806500Y300500D03*
D13*
X836900Y300500D03*
D131*
X708700Y300900D03*
D63*
X806900Y300900D03*
D130*
X836900Y300900D03*
D129*
X708900Y301300D03*
D63*
X807300Y301300D03*
D153*
X836900Y301300D03*
D127*
X709500Y301700D03*
D63*
X807700Y301700D03*
D128*
X837100Y301700D03*
D127*
X709900Y302100D03*
D63*
X808100Y302100D03*
D126*
X837100Y302100D03*
D96*
X710100Y302500D03*
D63*
X808500Y302500D03*
D117*
X837100Y302500D03*
D96*
X710500Y302900D03*
D63*
X808900Y302900D03*
D124*
X837300Y302900D03*
D19*
X711100Y303300D03*
D63*
X809300Y303300D03*
X837300Y303300D03*
D123*
X711300Y303700D03*
D63*
X809700Y303700D03*
X837700Y303700D03*
D122*
X711900Y304100D03*
D63*
X810100Y304100D03*
X838100Y304100D03*
D122*
X712300Y304500D03*
D63*
X810500Y304500D03*
X838500Y304500D03*
D121*
X712700Y304900D03*
D63*
X810900Y304900D03*
X838900Y304900D03*
D121*
X713100Y305300D03*
D63*
X811300Y305300D03*
X839300Y305300D03*
D120*
X713700Y305700D03*
D63*
X811700Y305700D03*
X839700Y305700D03*
D120*
X714100Y306100D03*
D63*
X812100Y306100D03*
X840100Y306100D03*
D118*
X714500Y306500D03*
D63*
X812500Y306500D03*
X840500Y306500D03*
D93*
X715100Y306900D03*
D63*
X812900Y306900D03*
X840900Y306900D03*
D21*
X715700Y307300D03*
D117*
X812700Y307300D03*
D63*
X841300Y307300D03*
D21*
X716100Y307700D03*
D116*
X812500Y307700D03*
D63*
X841700Y307700D03*
D115*
X716500Y308100D03*
D114*
X812300Y308100D03*
D63*
X842100Y308100D03*
D113*
X717100Y308500D03*
D13*
X812100Y308500D03*
D63*
X842500Y308500D03*
D91*
X717700Y308900D03*
D112*
X811900Y308900D03*
D63*
X842900Y308900D03*
D111*
X718300Y309300D03*
D110*
X811700Y309300D03*
D63*
X843300Y309300D03*
D109*
X719100Y309700D03*
D108*
X811500Y309700D03*
D63*
X843700Y309700D03*
D90*
X719500Y310100D03*
D107*
X811300Y310100D03*
D63*
X844100Y310100D03*
D106*
X720100Y310500D03*
D140*
X810900Y310500D03*
D63*
X844500Y310500D03*
D104*
X720900Y310900D03*
D103*
X810700Y310900D03*
D63*
X844900Y310900D03*
D102*
X721500Y311300D03*
D144*
X810300Y311300D03*
D63*
X845300Y311300D03*
D88*
X722300Y311700D03*
D100*
X810100Y311700D03*
D63*
X845700Y311700D03*
D99*
X723100Y312100D03*
D98*
X809700Y312100D03*
D63*
X846100Y312100D03*
D97*
X723900Y312500D03*
D96*
X809300Y312500D03*
D63*
X846500Y312500D03*
D86*
X724500Y312900D03*
D95*
X808900Y312900D03*
D63*
X846900Y312900D03*
D94*
X725300Y313300D03*
D93*
X808300Y313300D03*
D63*
X847300Y313300D03*
D92*
X726300Y313700D03*
D91*
X807700Y313700D03*
D63*
X847700Y313700D03*
D84*
X727500Y314100D03*
D90*
X807100Y314100D03*
D63*
X848100Y314100D03*
D154*
X728700Y314500D03*
D88*
X806300Y314500D03*
D63*
X848500Y314500D03*
D87*
X729900Y314900D03*
D86*
X805300Y314900D03*
D63*
X848900Y314900D03*
D85*
X731700Y315300D03*
D84*
X803900Y315300D03*
D63*
X849300Y315300D03*
D83*
X766700Y315700D03*
D63*
X849700Y315700D03*
D83*
X767100Y316100D03*
D63*
X850100Y316100D03*
D83*
X767500Y316500D03*
D63*
X850500Y316500D03*
D83*
X767900Y316900D03*
D63*
X850900Y316900D03*
D83*
X768300Y317300D03*
D63*
X851300Y317300D03*
D83*
X768700Y317700D03*
D63*
X851700Y317700D03*
D83*
X769100Y318100D03*
D63*
X852100Y318100D03*
D83*
X769500Y318500D03*
D63*
X852500Y318500D03*
D83*
X769900Y318900D03*
D63*
X852900Y318900D03*
D83*
X770300Y319300D03*
D63*
X853300Y319300D03*
D83*
X770700Y319700D03*
D61*
X853500Y319700D03*
D83*
X771100Y320100D03*
D59*
X853500Y320100D03*
D83*
X771500Y320500D03*
D57*
X853500Y320500D03*
D82*
X772100Y320900D03*
D55*
X853500Y320900D03*
D82*
X772500Y321300D03*
D53*
X853500Y321300D03*
D82*
X772900Y321700D03*
D51*
X853500Y321700D03*
D82*
X773300Y322100D03*
D49*
X853500Y322100D03*
D82*
X773700Y322500D03*
D47*
X853500Y322500D03*
D82*
X774100Y322900D03*
D45*
X853500Y322900D03*
D81*
X774700Y323300D03*
D43*
X853500Y323300D03*
D81*
X775100Y323700D03*
D41*
X853500Y323700D03*
D81*
X775500Y324100D03*
D39*
X853500Y324100D03*
D81*
X775900Y324500D03*
D37*
X853500Y324500D03*
D80*
X776500Y324900D03*
D35*
X853500Y324900D03*
D80*
X776900Y325300D03*
D33*
X853500Y325300D03*
D80*
X777300Y325700D03*
D31*
X853500Y325700D03*
D79*
X777900Y326100D03*
D10*
X853500Y326100D03*
D79*
X778300Y326500D03*
D28*
X853500Y326500D03*
D79*
X778700Y326900D03*
D26*
X853500Y326900D03*
D78*
X779300Y327300D03*
D24*
X853500Y327300D03*
D78*
X779700Y327700D03*
D22*
X853500Y327700D03*
D77*
X769500Y328100D03*
D63*
X834100Y328100D03*
D20*
X853500Y328100D03*
D76*
X769500Y328500D03*
D63*
X834500Y328500D03*
D18*
X853500Y328500D03*
D75*
X769500Y328900D03*
D63*
X834900Y328900D03*
D16*
X853500Y328900D03*
D155*
X769300Y329300D03*
D63*
X835300Y329300D03*
D14*
X853500Y329300D03*
D73*
X769500Y329700D03*
D63*
X835700Y329700D03*
D12*
X853500Y329700D03*
D72*
X769300Y330100D03*
D63*
X836100Y330100D03*
D71*
X769500Y330500D03*
D63*
X836500Y330500D03*
D70*
X769300Y330900D03*
D63*
X836900Y330900D03*
D69*
X769300Y331300D03*
D63*
X837300Y331300D03*
D68*
X769500Y331700D03*
D63*
X837700Y331700D03*
D67*
X769500Y332100D03*
D63*
X838100Y332100D03*
D66*
X769300Y332500D03*
D63*
X838500Y332500D03*
D65*
X769300Y332900D03*
D63*
X838900Y332900D03*
D64*
X769500Y333300D03*
D63*
X839300Y333300D03*
D62*
X769500Y333700D03*
D61*
X839500Y333700D03*
D60*
X769500Y334100D03*
D59*
X839500Y334100D03*
D58*
X769500Y334500D03*
D57*
X839500Y334500D03*
D56*
X769500Y334900D03*
D55*
X839500Y334900D03*
D54*
X769500Y335300D03*
D53*
X839500Y335300D03*
D52*
X769500Y335700D03*
D51*
X839500Y335700D03*
D50*
X769300Y336100D03*
D49*
X839500Y336100D03*
D48*
X769300Y336500D03*
D47*
X839500Y336500D03*
D46*
X769500Y336900D03*
D45*
X839500Y336900D03*
D44*
X769500Y337300D03*
D43*
X839500Y337300D03*
D42*
X769300Y337700D03*
D41*
X839500Y337700D03*
D40*
X769500Y338100D03*
D39*
X839500Y338100D03*
D38*
X769500Y338500D03*
D37*
X839500Y338500D03*
D36*
X769300Y338900D03*
D35*
X839500Y338900D03*
D34*
X769300Y339300D03*
D33*
X839500Y339300D03*
D156*
X769500Y339700D03*
D31*
X839500Y339700D03*
D30*
X769300Y340100D03*
D10*
X839500Y340100D03*
D29*
X769300Y340500D03*
D28*
X839500Y340500D03*
D27*
X769500Y340900D03*
D26*
X839500Y340900D03*
D25*
X769300Y341300D03*
D24*
X839500Y341300D03*
D23*
X769300Y341700D03*
D22*
X839500Y341700D03*
D21*
X769300Y342100D03*
D20*
X839500Y342100D03*
D19*
X769500Y342500D03*
D18*
X839500Y342500D03*
D17*
X769500Y342900D03*
D16*
X839500Y342900D03*
D15*
X769300Y343300D03*
D14*
X839500Y343300D03*
D132*
X769500Y343700D03*
D12*
X839500Y343700D03*
D11*
X769300Y344100D03*
D10*
X769500Y344500D03*
D157*
X567500Y372500D02*
X547500Y372500D01*
X547500Y350000D02*
X567500Y350000D01*
X567500Y325000D02*
X547500Y325000D01*
X547500Y300000D02*
X567500Y300000D01*
X582500Y365000D02*
X547500Y365000D01*
X547500Y357500D02*
X597500Y357500D01*
X582500Y340000D02*
X547500Y340000D01*
X547500Y332500D02*
X597500Y332500D01*
X582500Y317500D02*
X547500Y317500D01*
X547500Y310000D02*
X597500Y310000D01*
D158*
X443536Y447709D02*
X443534Y447620D01*
X443528Y447532D01*
X443519Y447444D01*
X443506Y447356D01*
X443489Y447269D01*
X443469Y447183D01*
X443444Y447098D01*
X443417Y447013D01*
X443385Y446930D01*
X443351Y446849D01*
X443312Y446769D01*
X443271Y446691D01*
X443226Y446614D01*
X443178Y446540D01*
X443127Y446467D01*
X443073Y446397D01*
X443015Y446330D01*
X442955Y446264D01*
X442893Y446202D01*
X442827Y446142D01*
X442760Y446084D01*
X442690Y446030D01*
X442617Y445979D01*
X442543Y445931D01*
X442466Y445886D01*
X442388Y445845D01*
X442308Y445806D01*
X442227Y445772D01*
X442144Y445740D01*
X442059Y445713D01*
X441974Y445688D01*
X441888Y445668D01*
X441801Y445651D01*
X441713Y445638D01*
X441625Y445629D01*
X441537Y445623D01*
X441448Y445621D01*
X441319Y445623D01*
X441190Y445629D01*
X441061Y445638D01*
X440933Y445651D01*
X440805Y445668D01*
X440678Y445689D01*
X440551Y445713D01*
X440425Y445741D01*
X440300Y445773D01*
X440176Y445808D01*
X440053Y445847D01*
X439931Y445890D01*
X439811Y445936D01*
X439692Y445986D01*
X439574Y446039D01*
X439458Y446095D01*
X439344Y446155D01*
X439231Y446218D01*
X439121Y446285D01*
X439012Y446354D01*
X438906Y446427D01*
X438801Y446503D01*
X438699Y446582D01*
X438600Y446664D01*
X438502Y446748D01*
X438407Y446836D01*
X438315Y446926D01*
X438577Y452931D02*
X438579Y453020D01*
X438585Y453108D01*
X438594Y453196D01*
X438607Y453284D01*
X438624Y453371D01*
X438644Y453457D01*
X438669Y453542D01*
X438696Y453627D01*
X438728Y453710D01*
X438762Y453791D01*
X438801Y453871D01*
X438842Y453949D01*
X438887Y454026D01*
X438935Y454100D01*
X438986Y454173D01*
X439040Y454243D01*
X439098Y454310D01*
X439158Y454376D01*
X439220Y454438D01*
X439286Y454498D01*
X439353Y454556D01*
X439423Y454610D01*
X439496Y454661D01*
X439570Y454709D01*
X439647Y454754D01*
X439725Y454795D01*
X439805Y454834D01*
X439886Y454868D01*
X439969Y454900D01*
X440054Y454927D01*
X440139Y454952D01*
X440225Y454972D01*
X440312Y454989D01*
X440400Y455002D01*
X440488Y455011D01*
X440576Y455017D01*
X440665Y455019D01*
X440785Y455017D01*
X440905Y455012D01*
X441025Y455002D01*
X441144Y454990D01*
X441263Y454973D01*
X441381Y454953D01*
X441499Y454929D01*
X441615Y454902D01*
X441731Y454871D01*
X441846Y454837D01*
X441960Y454799D01*
X442073Y454757D01*
X442184Y454712D01*
X442294Y454664D01*
X442402Y454613D01*
X442509Y454558D01*
X442614Y454500D01*
X442717Y454438D01*
X442818Y454374D01*
X442918Y454306D01*
X443015Y454236D01*
X439621Y451104D02*
X439543Y451152D01*
X439467Y451204D01*
X439394Y451258D01*
X439323Y451316D01*
X439254Y451377D01*
X439188Y451441D01*
X439125Y451508D01*
X439065Y451577D01*
X439008Y451649D01*
X438954Y451723D01*
X438904Y451800D01*
X438856Y451879D01*
X438813Y451959D01*
X438772Y452042D01*
X438736Y452126D01*
X438703Y452211D01*
X438674Y452298D01*
X438648Y452387D01*
X438626Y452476D01*
X438609Y452566D01*
X438595Y452656D01*
X438585Y452748D01*
X438579Y452839D01*
X438577Y452931D01*
X442493Y449536D02*
X442571Y449488D01*
X442647Y449436D01*
X442720Y449382D01*
X442791Y449324D01*
X442860Y449263D01*
X442926Y449199D01*
X442989Y449132D01*
X443049Y449063D01*
X443106Y448991D01*
X443160Y448917D01*
X443210Y448840D01*
X443258Y448761D01*
X443301Y448681D01*
X443342Y448598D01*
X443378Y448514D01*
X443411Y448429D01*
X443440Y448342D01*
X443466Y448253D01*
X443488Y448164D01*
X443505Y448074D01*
X443519Y447984D01*
X443529Y447892D01*
X443535Y447801D01*
X443537Y447709D01*
X442492Y449537D02*
X439621Y451103D01*
X446299Y451886D02*
X449431Y451886D01*
X447343Y455019D02*
X447343Y447187D01*
X447345Y447110D01*
X447351Y447034D01*
X447360Y446957D01*
X447373Y446881D01*
X447390Y446806D01*
X447410Y446732D01*
X447435Y446659D01*
X447462Y446588D01*
X447493Y446517D01*
X447528Y446449D01*
X447566Y446382D01*
X447607Y446317D01*
X447651Y446254D01*
X447698Y446194D01*
X447749Y446135D01*
X447802Y446080D01*
X447857Y446027D01*
X447916Y445976D01*
X447976Y445929D01*
X448039Y445885D01*
X448104Y445844D01*
X448171Y445806D01*
X448239Y445771D01*
X448310Y445740D01*
X448381Y445713D01*
X448454Y445688D01*
X448528Y445668D01*
X448603Y445651D01*
X448679Y445638D01*
X448756Y445629D01*
X448832Y445623D01*
X448909Y445621D01*
X449431Y445621D01*
X452813Y445621D02*
X452813Y451886D01*
X452552Y454497D02*
X452552Y455019D01*
X453074Y455019D01*
X453074Y454497D01*
X452552Y454497D01*
X458093Y445621D02*
X460181Y445621D01*
X458093Y445621D02*
X458016Y445623D01*
X457940Y445629D01*
X457863Y445638D01*
X457787Y445651D01*
X457712Y445668D01*
X457638Y445688D01*
X457565Y445713D01*
X457494Y445740D01*
X457423Y445771D01*
X457355Y445806D01*
X457288Y445844D01*
X457223Y445885D01*
X457160Y445929D01*
X457100Y445976D01*
X457041Y446027D01*
X456986Y446080D01*
X456933Y446135D01*
X456882Y446194D01*
X456835Y446254D01*
X456791Y446317D01*
X456750Y446382D01*
X456712Y446449D01*
X456677Y446517D01*
X456646Y446588D01*
X456619Y446659D01*
X456594Y446732D01*
X456574Y446806D01*
X456557Y446881D01*
X456544Y446957D01*
X456535Y447034D01*
X456529Y447110D01*
X456527Y447187D01*
X456526Y447187D02*
X456526Y450320D01*
X456527Y450320D02*
X456529Y450397D01*
X456535Y450473D01*
X456544Y450550D01*
X456557Y450626D01*
X456574Y450701D01*
X456594Y450775D01*
X456619Y450848D01*
X456646Y450919D01*
X456677Y450990D01*
X456712Y451058D01*
X456750Y451125D01*
X456791Y451190D01*
X456835Y451253D01*
X456882Y451313D01*
X456933Y451372D01*
X456986Y451427D01*
X457041Y451480D01*
X457100Y451531D01*
X457160Y451578D01*
X457223Y451622D01*
X457288Y451663D01*
X457355Y451701D01*
X457423Y451736D01*
X457494Y451767D01*
X457565Y451794D01*
X457638Y451819D01*
X457712Y451839D01*
X457787Y451856D01*
X457863Y451869D01*
X457940Y451878D01*
X458016Y451884D01*
X458093Y451886D01*
X460181Y451886D01*
X463936Y455019D02*
X463936Y445621D01*
X463936Y448754D02*
X468113Y451886D01*
X465763Y450059D02*
X468113Y445621D01*
X476738Y445621D02*
X476738Y455019D01*
X480914Y451886D02*
X476738Y448754D01*
X478565Y450059D02*
X480914Y445621D01*
X486034Y449276D02*
X488384Y449276D01*
X486034Y449275D02*
X485950Y449273D01*
X485865Y449267D01*
X485782Y449257D01*
X485698Y449244D01*
X485616Y449226D01*
X485534Y449205D01*
X485453Y449180D01*
X485374Y449152D01*
X485296Y449119D01*
X485220Y449083D01*
X485145Y449044D01*
X485072Y449001D01*
X485001Y448955D01*
X484933Y448906D01*
X484867Y448854D01*
X484803Y448798D01*
X484742Y448740D01*
X484684Y448679D01*
X484628Y448615D01*
X484576Y448549D01*
X484527Y448481D01*
X484481Y448410D01*
X484438Y448337D01*
X484399Y448262D01*
X484363Y448186D01*
X484330Y448108D01*
X484302Y448029D01*
X484277Y447948D01*
X484256Y447866D01*
X484238Y447784D01*
X484225Y447700D01*
X484215Y447617D01*
X484209Y447532D01*
X484207Y447448D01*
X484209Y447364D01*
X484215Y447279D01*
X484225Y447196D01*
X484238Y447112D01*
X484256Y447030D01*
X484277Y446948D01*
X484302Y446867D01*
X484330Y446788D01*
X484363Y446710D01*
X484399Y446634D01*
X484438Y446559D01*
X484481Y446486D01*
X484527Y446415D01*
X484576Y446347D01*
X484628Y446281D01*
X484684Y446217D01*
X484742Y446156D01*
X484803Y446098D01*
X484867Y446042D01*
X484933Y445990D01*
X485001Y445941D01*
X485072Y445895D01*
X485145Y445852D01*
X485220Y445813D01*
X485296Y445777D01*
X485374Y445744D01*
X485453Y445716D01*
X485534Y445691D01*
X485616Y445670D01*
X485698Y445652D01*
X485782Y445639D01*
X485865Y445629D01*
X485950Y445623D01*
X486034Y445621D01*
X488384Y445621D01*
X488384Y450320D01*
X488383Y450320D02*
X488381Y450397D01*
X488375Y450473D01*
X488366Y450550D01*
X488353Y450626D01*
X488336Y450701D01*
X488316Y450775D01*
X488291Y450848D01*
X488264Y450919D01*
X488233Y450990D01*
X488198Y451058D01*
X488160Y451125D01*
X488119Y451190D01*
X488075Y451253D01*
X488028Y451313D01*
X487977Y451372D01*
X487924Y451427D01*
X487869Y451480D01*
X487810Y451531D01*
X487750Y451578D01*
X487687Y451622D01*
X487622Y451663D01*
X487555Y451701D01*
X487487Y451736D01*
X487416Y451767D01*
X487345Y451794D01*
X487272Y451819D01*
X487198Y451839D01*
X487123Y451856D01*
X487047Y451869D01*
X486970Y451878D01*
X486894Y451884D01*
X486817Y451886D01*
X484729Y451886D01*
X492833Y451886D02*
X492833Y442488D01*
X492833Y451886D02*
X495443Y451886D01*
X495520Y451884D01*
X495596Y451878D01*
X495673Y451869D01*
X495749Y451856D01*
X495824Y451839D01*
X495898Y451819D01*
X495971Y451794D01*
X496042Y451767D01*
X496113Y451736D01*
X496181Y451701D01*
X496248Y451663D01*
X496313Y451622D01*
X496376Y451578D01*
X496436Y451531D01*
X496495Y451480D01*
X496550Y451427D01*
X496603Y451372D01*
X496654Y451313D01*
X496701Y451253D01*
X496745Y451190D01*
X496786Y451125D01*
X496824Y451058D01*
X496859Y450990D01*
X496890Y450919D01*
X496917Y450848D01*
X496942Y450775D01*
X496962Y450701D01*
X496979Y450626D01*
X496992Y450550D01*
X497001Y450474D01*
X497007Y450397D01*
X497009Y450320D01*
X497009Y447187D01*
X497007Y447110D01*
X497001Y447034D01*
X496992Y446957D01*
X496979Y446881D01*
X496962Y446806D01*
X496942Y446732D01*
X496917Y446659D01*
X496890Y446588D01*
X496859Y446517D01*
X496824Y446449D01*
X496786Y446382D01*
X496745Y446317D01*
X496701Y446254D01*
X496654Y446194D01*
X496603Y446135D01*
X496550Y446080D01*
X496495Y446027D01*
X496436Y445976D01*
X496376Y445929D01*
X496313Y445885D01*
X496248Y445844D01*
X496181Y445806D01*
X496113Y445771D01*
X496042Y445740D01*
X495971Y445713D01*
X495898Y445688D01*
X495824Y445668D01*
X495749Y445651D01*
X495673Y445638D01*
X495596Y445629D01*
X495520Y445623D01*
X495443Y445621D01*
X492833Y445621D01*
X499943Y451886D02*
X503076Y451886D01*
X500987Y455019D02*
X500987Y447187D01*
X500989Y447110D01*
X500995Y447034D01*
X501004Y446957D01*
X501017Y446881D01*
X501034Y446806D01*
X501054Y446732D01*
X501079Y446659D01*
X501106Y446588D01*
X501137Y446517D01*
X501172Y446449D01*
X501210Y446382D01*
X501251Y446317D01*
X501295Y446254D01*
X501342Y446194D01*
X501393Y446135D01*
X501446Y446080D01*
X501501Y446027D01*
X501560Y445976D01*
X501620Y445929D01*
X501683Y445885D01*
X501748Y445844D01*
X501815Y445806D01*
X501883Y445771D01*
X501954Y445740D01*
X502025Y445713D01*
X502098Y445688D01*
X502172Y445668D01*
X502247Y445651D01*
X502323Y445638D01*
X502400Y445629D01*
X502476Y445623D01*
X502553Y445621D01*
X503076Y445621D01*
X506503Y447709D02*
X506503Y449798D01*
X506505Y449888D01*
X506511Y449977D01*
X506520Y450067D01*
X506534Y450156D01*
X506551Y450244D01*
X506572Y450331D01*
X506597Y450418D01*
X506626Y450503D01*
X506658Y450587D01*
X506693Y450669D01*
X506733Y450750D01*
X506775Y450829D01*
X506821Y450906D01*
X506871Y450981D01*
X506923Y451054D01*
X506979Y451125D01*
X507037Y451193D01*
X507099Y451258D01*
X507163Y451321D01*
X507230Y451381D01*
X507299Y451438D01*
X507371Y451492D01*
X507445Y451543D01*
X507521Y451591D01*
X507599Y451635D01*
X507679Y451676D01*
X507761Y451714D01*
X507844Y451748D01*
X507929Y451778D01*
X508015Y451805D01*
X508101Y451828D01*
X508189Y451847D01*
X508278Y451862D01*
X508367Y451874D01*
X508456Y451882D01*
X508546Y451886D01*
X508636Y451886D01*
X508726Y451882D01*
X508815Y451874D01*
X508904Y451862D01*
X508993Y451847D01*
X509081Y451828D01*
X509167Y451805D01*
X509253Y451778D01*
X509338Y451748D01*
X509421Y451714D01*
X509503Y451676D01*
X509583Y451635D01*
X509661Y451591D01*
X509737Y451543D01*
X509811Y451492D01*
X509883Y451438D01*
X509952Y451381D01*
X510019Y451321D01*
X510083Y451258D01*
X510145Y451193D01*
X510203Y451125D01*
X510259Y451054D01*
X510311Y450981D01*
X510361Y450906D01*
X510407Y450829D01*
X510449Y450750D01*
X510489Y450669D01*
X510524Y450587D01*
X510556Y450503D01*
X510585Y450418D01*
X510610Y450331D01*
X510631Y450244D01*
X510648Y450156D01*
X510662Y450067D01*
X510671Y449977D01*
X510677Y449888D01*
X510679Y449798D01*
X510680Y449798D02*
X510680Y447709D01*
X510679Y447709D02*
X510677Y447619D01*
X510671Y447530D01*
X510662Y447440D01*
X510648Y447351D01*
X510631Y447263D01*
X510610Y447176D01*
X510585Y447089D01*
X510556Y447004D01*
X510524Y446920D01*
X510489Y446838D01*
X510449Y446757D01*
X510407Y446678D01*
X510361Y446601D01*
X510311Y446526D01*
X510259Y446453D01*
X510203Y446382D01*
X510145Y446314D01*
X510083Y446249D01*
X510019Y446186D01*
X509952Y446126D01*
X509883Y446069D01*
X509811Y446015D01*
X509737Y445964D01*
X509661Y445916D01*
X509583Y445872D01*
X509503Y445831D01*
X509421Y445793D01*
X509338Y445759D01*
X509253Y445729D01*
X509167Y445702D01*
X509081Y445679D01*
X508993Y445660D01*
X508904Y445645D01*
X508815Y445633D01*
X508726Y445625D01*
X508636Y445621D01*
X508546Y445621D01*
X508456Y445625D01*
X508367Y445633D01*
X508278Y445645D01*
X508189Y445660D01*
X508101Y445679D01*
X508015Y445702D01*
X507929Y445729D01*
X507844Y445759D01*
X507761Y445793D01*
X507679Y445831D01*
X507599Y445872D01*
X507521Y445916D01*
X507445Y445964D01*
X507371Y446015D01*
X507299Y446069D01*
X507230Y446126D01*
X507163Y446186D01*
X507099Y446249D01*
X507037Y446314D01*
X506979Y446382D01*
X506923Y446453D01*
X506871Y446526D01*
X506821Y446601D01*
X506775Y446678D01*
X506733Y446757D01*
X506693Y446838D01*
X506658Y446920D01*
X506626Y447004D01*
X506597Y447089D01*
X506572Y447176D01*
X506551Y447263D01*
X506534Y447351D01*
X506520Y447440D01*
X506511Y447530D01*
X506505Y447619D01*
X506503Y447709D01*
X514732Y445621D02*
X514732Y451886D01*
X517343Y451886D01*
X517420Y451884D01*
X517496Y451878D01*
X517573Y451869D01*
X517649Y451856D01*
X517724Y451839D01*
X517798Y451819D01*
X517871Y451794D01*
X517942Y451767D01*
X518013Y451736D01*
X518081Y451701D01*
X518148Y451663D01*
X518213Y451622D01*
X518276Y451578D01*
X518336Y451531D01*
X518395Y451480D01*
X518450Y451427D01*
X518503Y451372D01*
X518554Y451313D01*
X518601Y451253D01*
X518645Y451190D01*
X518686Y451125D01*
X518724Y451058D01*
X518759Y450990D01*
X518790Y450919D01*
X518817Y450848D01*
X518842Y450775D01*
X518862Y450701D01*
X518879Y450626D01*
X518892Y450550D01*
X518901Y450474D01*
X518907Y450397D01*
X518909Y450320D01*
X518909Y445621D01*
X527070Y451886D02*
X530203Y451886D01*
X528114Y455019D02*
X528114Y447187D01*
X528115Y447187D02*
X528117Y447110D01*
X528123Y447034D01*
X528132Y446957D01*
X528145Y446881D01*
X528162Y446806D01*
X528182Y446732D01*
X528207Y446659D01*
X528234Y446588D01*
X528265Y446517D01*
X528300Y446449D01*
X528338Y446382D01*
X528379Y446317D01*
X528423Y446254D01*
X528470Y446194D01*
X528521Y446135D01*
X528574Y446080D01*
X528629Y446027D01*
X528688Y445976D01*
X528748Y445929D01*
X528811Y445885D01*
X528876Y445844D01*
X528943Y445806D01*
X529011Y445771D01*
X529082Y445740D01*
X529153Y445713D01*
X529226Y445688D01*
X529300Y445668D01*
X529375Y445651D01*
X529451Y445638D01*
X529528Y445629D01*
X529604Y445623D01*
X529681Y445621D01*
X530203Y445621D01*
X535412Y449276D02*
X537761Y449276D01*
X535412Y449275D02*
X535328Y449273D01*
X535243Y449267D01*
X535160Y449257D01*
X535076Y449244D01*
X534994Y449226D01*
X534912Y449205D01*
X534831Y449180D01*
X534752Y449152D01*
X534674Y449119D01*
X534598Y449083D01*
X534523Y449044D01*
X534450Y449001D01*
X534379Y448955D01*
X534311Y448906D01*
X534245Y448854D01*
X534181Y448798D01*
X534120Y448740D01*
X534062Y448679D01*
X534006Y448615D01*
X533954Y448549D01*
X533905Y448481D01*
X533859Y448410D01*
X533816Y448337D01*
X533777Y448262D01*
X533741Y448186D01*
X533708Y448108D01*
X533680Y448029D01*
X533655Y447948D01*
X533634Y447866D01*
X533616Y447784D01*
X533603Y447700D01*
X533593Y447617D01*
X533587Y447532D01*
X533585Y447448D01*
X533587Y447364D01*
X533593Y447279D01*
X533603Y447196D01*
X533616Y447112D01*
X533634Y447030D01*
X533655Y446948D01*
X533680Y446867D01*
X533708Y446788D01*
X533741Y446710D01*
X533777Y446634D01*
X533816Y446559D01*
X533859Y446486D01*
X533905Y446415D01*
X533954Y446347D01*
X534006Y446281D01*
X534062Y446217D01*
X534120Y446156D01*
X534181Y446098D01*
X534245Y446042D01*
X534311Y445990D01*
X534379Y445941D01*
X534450Y445895D01*
X534523Y445852D01*
X534598Y445813D01*
X534674Y445777D01*
X534752Y445744D01*
X534831Y445716D01*
X534912Y445691D01*
X534994Y445670D01*
X535076Y445652D01*
X535160Y445639D01*
X535243Y445629D01*
X535328Y445623D01*
X535412Y445621D01*
X537761Y445621D01*
X537761Y450320D01*
X537759Y450397D01*
X537753Y450473D01*
X537744Y450550D01*
X537731Y450626D01*
X537714Y450701D01*
X537694Y450775D01*
X537669Y450848D01*
X537642Y450919D01*
X537611Y450990D01*
X537576Y451058D01*
X537538Y451125D01*
X537497Y451190D01*
X537453Y451253D01*
X537406Y451313D01*
X537355Y451372D01*
X537302Y451427D01*
X537247Y451480D01*
X537188Y451531D01*
X537128Y451578D01*
X537065Y451622D01*
X537000Y451663D01*
X536933Y451701D01*
X536865Y451736D01*
X536794Y451767D01*
X536723Y451794D01*
X536650Y451819D01*
X536576Y451839D01*
X536501Y451856D01*
X536425Y451869D01*
X536348Y451878D01*
X536272Y451884D01*
X536195Y451886D01*
X534106Y451886D01*
X542210Y451886D02*
X542210Y442488D01*
X542210Y451886D02*
X544820Y451886D01*
X544897Y451884D01*
X544973Y451878D01*
X545050Y451869D01*
X545126Y451856D01*
X545201Y451839D01*
X545275Y451819D01*
X545348Y451794D01*
X545419Y451767D01*
X545490Y451736D01*
X545558Y451701D01*
X545625Y451663D01*
X545690Y451622D01*
X545753Y451578D01*
X545813Y451531D01*
X545872Y451480D01*
X545927Y451427D01*
X545980Y451372D01*
X546031Y451313D01*
X546078Y451253D01*
X546122Y451190D01*
X546163Y451125D01*
X546201Y451058D01*
X546236Y450990D01*
X546267Y450919D01*
X546294Y450848D01*
X546319Y450775D01*
X546339Y450701D01*
X546356Y450626D01*
X546369Y450550D01*
X546378Y450474D01*
X546384Y450397D01*
X546386Y450320D01*
X546387Y450320D02*
X546387Y447187D01*
X546386Y447187D02*
X546384Y447110D01*
X546378Y447034D01*
X546369Y446957D01*
X546356Y446881D01*
X546339Y446806D01*
X546319Y446732D01*
X546294Y446659D01*
X546267Y446588D01*
X546236Y446517D01*
X546201Y446449D01*
X546163Y446382D01*
X546122Y446317D01*
X546078Y446254D01*
X546031Y446194D01*
X545980Y446135D01*
X545927Y446080D01*
X545872Y446027D01*
X545813Y445976D01*
X545753Y445929D01*
X545690Y445885D01*
X545625Y445844D01*
X545558Y445806D01*
X545490Y445771D01*
X545419Y445740D01*
X545348Y445713D01*
X545275Y445688D01*
X545201Y445668D01*
X545126Y445651D01*
X545050Y445638D01*
X544973Y445629D01*
X544897Y445623D01*
X544820Y445621D01*
X542210Y445621D01*
X551655Y445621D02*
X554266Y445621D01*
X551655Y445621D02*
X551578Y445623D01*
X551502Y445629D01*
X551425Y445638D01*
X551349Y445651D01*
X551274Y445668D01*
X551200Y445688D01*
X551127Y445713D01*
X551056Y445740D01*
X550985Y445771D01*
X550917Y445806D01*
X550850Y445844D01*
X550785Y445885D01*
X550722Y445929D01*
X550662Y445976D01*
X550603Y446027D01*
X550548Y446080D01*
X550495Y446135D01*
X550444Y446194D01*
X550397Y446254D01*
X550353Y446317D01*
X550312Y446382D01*
X550274Y446449D01*
X550239Y446517D01*
X550208Y446588D01*
X550181Y446659D01*
X550156Y446732D01*
X550136Y446806D01*
X550119Y446881D01*
X550106Y446957D01*
X550097Y447034D01*
X550091Y447110D01*
X550089Y447187D01*
X550089Y449798D01*
X550091Y449888D01*
X550097Y449977D01*
X550106Y450067D01*
X550120Y450156D01*
X550137Y450244D01*
X550158Y450331D01*
X550183Y450418D01*
X550212Y450503D01*
X550244Y450587D01*
X550279Y450669D01*
X550319Y450750D01*
X550361Y450829D01*
X550407Y450906D01*
X550457Y450981D01*
X550509Y451054D01*
X550565Y451125D01*
X550623Y451193D01*
X550685Y451258D01*
X550749Y451321D01*
X550816Y451381D01*
X550885Y451438D01*
X550957Y451492D01*
X551031Y451543D01*
X551107Y451591D01*
X551185Y451635D01*
X551265Y451676D01*
X551347Y451714D01*
X551430Y451748D01*
X551515Y451778D01*
X551601Y451805D01*
X551687Y451828D01*
X551775Y451847D01*
X551864Y451862D01*
X551953Y451874D01*
X552042Y451882D01*
X552132Y451886D01*
X552222Y451886D01*
X552312Y451882D01*
X552401Y451874D01*
X552490Y451862D01*
X552579Y451847D01*
X552667Y451828D01*
X552753Y451805D01*
X552839Y451778D01*
X552924Y451748D01*
X553007Y451714D01*
X553089Y451676D01*
X553169Y451635D01*
X553247Y451591D01*
X553323Y451543D01*
X553397Y451492D01*
X553469Y451438D01*
X553538Y451381D01*
X553605Y451321D01*
X553669Y451258D01*
X553731Y451193D01*
X553789Y451125D01*
X553845Y451054D01*
X553897Y450981D01*
X553947Y450906D01*
X553993Y450829D01*
X554035Y450750D01*
X554075Y450669D01*
X554110Y450587D01*
X554142Y450503D01*
X554171Y450418D01*
X554196Y450331D01*
X554217Y450244D01*
X554234Y450156D01*
X554248Y450067D01*
X554257Y449977D01*
X554263Y449888D01*
X554265Y449798D01*
X554266Y449798D02*
X554266Y448754D01*
X550089Y448754D01*
X564672Y449276D02*
X567022Y449276D01*
X564672Y449275D02*
X564588Y449273D01*
X564503Y449267D01*
X564420Y449257D01*
X564336Y449244D01*
X564254Y449226D01*
X564172Y449205D01*
X564091Y449180D01*
X564012Y449152D01*
X563934Y449119D01*
X563858Y449083D01*
X563783Y449044D01*
X563710Y449001D01*
X563639Y448955D01*
X563571Y448906D01*
X563505Y448854D01*
X563441Y448798D01*
X563380Y448740D01*
X563322Y448679D01*
X563266Y448615D01*
X563214Y448549D01*
X563165Y448481D01*
X563119Y448410D01*
X563076Y448337D01*
X563037Y448262D01*
X563001Y448186D01*
X562968Y448108D01*
X562940Y448029D01*
X562915Y447948D01*
X562894Y447866D01*
X562876Y447784D01*
X562863Y447700D01*
X562853Y447617D01*
X562847Y447532D01*
X562845Y447448D01*
X562847Y447364D01*
X562853Y447279D01*
X562863Y447196D01*
X562876Y447112D01*
X562894Y447030D01*
X562915Y446948D01*
X562940Y446867D01*
X562968Y446788D01*
X563001Y446710D01*
X563037Y446634D01*
X563076Y446559D01*
X563119Y446486D01*
X563165Y446415D01*
X563214Y446347D01*
X563266Y446281D01*
X563322Y446217D01*
X563380Y446156D01*
X563441Y446098D01*
X563505Y446042D01*
X563571Y445990D01*
X563639Y445941D01*
X563710Y445895D01*
X563783Y445852D01*
X563858Y445813D01*
X563934Y445777D01*
X564012Y445744D01*
X564091Y445716D01*
X564172Y445691D01*
X564254Y445670D01*
X564336Y445652D01*
X564420Y445639D01*
X564503Y445629D01*
X564588Y445623D01*
X564672Y445621D01*
X567022Y445621D01*
X567022Y450320D01*
X567021Y450320D02*
X567019Y450397D01*
X567013Y450473D01*
X567004Y450550D01*
X566991Y450626D01*
X566974Y450701D01*
X566954Y450775D01*
X566929Y450848D01*
X566902Y450919D01*
X566871Y450990D01*
X566836Y451058D01*
X566798Y451125D01*
X566757Y451190D01*
X566713Y451253D01*
X566666Y451313D01*
X566615Y451372D01*
X566562Y451427D01*
X566507Y451480D01*
X566448Y451531D01*
X566388Y451578D01*
X566325Y451622D01*
X566260Y451663D01*
X566193Y451701D01*
X566125Y451736D01*
X566054Y451767D01*
X565983Y451794D01*
X565910Y451819D01*
X565836Y451839D01*
X565761Y451856D01*
X565685Y451869D01*
X565608Y451878D01*
X565532Y451884D01*
X565455Y451886D01*
X563367Y451886D01*
X572697Y445621D02*
X574785Y445621D01*
X572697Y445621D02*
X572620Y445623D01*
X572544Y445629D01*
X572467Y445638D01*
X572391Y445651D01*
X572316Y445668D01*
X572242Y445688D01*
X572169Y445713D01*
X572098Y445740D01*
X572027Y445771D01*
X571959Y445806D01*
X571892Y445844D01*
X571827Y445885D01*
X571764Y445929D01*
X571704Y445976D01*
X571645Y446027D01*
X571590Y446080D01*
X571537Y446135D01*
X571486Y446194D01*
X571439Y446254D01*
X571395Y446317D01*
X571354Y446382D01*
X571316Y446449D01*
X571281Y446517D01*
X571250Y446588D01*
X571223Y446659D01*
X571198Y446732D01*
X571178Y446806D01*
X571161Y446881D01*
X571148Y446957D01*
X571139Y447034D01*
X571133Y447110D01*
X571131Y447187D01*
X571130Y447187D02*
X571130Y450320D01*
X571131Y450320D02*
X571133Y450397D01*
X571139Y450473D01*
X571148Y450550D01*
X571161Y450626D01*
X571178Y450701D01*
X571198Y450775D01*
X571223Y450848D01*
X571250Y450919D01*
X571281Y450990D01*
X571316Y451058D01*
X571354Y451125D01*
X571395Y451190D01*
X571439Y451253D01*
X571486Y451313D01*
X571537Y451372D01*
X571590Y451427D01*
X571645Y451480D01*
X571704Y451531D01*
X571764Y451578D01*
X571827Y451622D01*
X571892Y451663D01*
X571959Y451701D01*
X572027Y451736D01*
X572098Y451767D01*
X572169Y451794D01*
X572242Y451819D01*
X572316Y451839D01*
X572391Y451856D01*
X572467Y451869D01*
X572544Y451878D01*
X572620Y451884D01*
X572697Y451886D01*
X574785Y451886D01*
X578487Y451886D02*
X578487Y445621D01*
X578487Y451886D02*
X581619Y451886D01*
X581619Y450842D01*
X584531Y449798D02*
X584531Y447709D01*
X584532Y449798D02*
X584534Y449888D01*
X584540Y449977D01*
X584549Y450067D01*
X584563Y450156D01*
X584580Y450244D01*
X584601Y450331D01*
X584626Y450418D01*
X584655Y450503D01*
X584687Y450587D01*
X584722Y450669D01*
X584762Y450750D01*
X584804Y450829D01*
X584850Y450906D01*
X584900Y450981D01*
X584952Y451054D01*
X585008Y451125D01*
X585066Y451193D01*
X585128Y451258D01*
X585192Y451321D01*
X585259Y451381D01*
X585328Y451438D01*
X585400Y451492D01*
X585474Y451543D01*
X585550Y451591D01*
X585628Y451635D01*
X585708Y451676D01*
X585790Y451714D01*
X585873Y451748D01*
X585958Y451778D01*
X586044Y451805D01*
X586130Y451828D01*
X586218Y451847D01*
X586307Y451862D01*
X586396Y451874D01*
X586485Y451882D01*
X586575Y451886D01*
X586665Y451886D01*
X586755Y451882D01*
X586844Y451874D01*
X586933Y451862D01*
X587022Y451847D01*
X587110Y451828D01*
X587196Y451805D01*
X587282Y451778D01*
X587367Y451748D01*
X587450Y451714D01*
X587532Y451676D01*
X587612Y451635D01*
X587690Y451591D01*
X587766Y451543D01*
X587840Y451492D01*
X587912Y451438D01*
X587981Y451381D01*
X588048Y451321D01*
X588112Y451258D01*
X588174Y451193D01*
X588232Y451125D01*
X588288Y451054D01*
X588340Y450981D01*
X588390Y450906D01*
X588436Y450829D01*
X588478Y450750D01*
X588518Y450669D01*
X588553Y450587D01*
X588585Y450503D01*
X588614Y450418D01*
X588639Y450331D01*
X588660Y450244D01*
X588677Y450156D01*
X588691Y450067D01*
X588700Y449977D01*
X588706Y449888D01*
X588708Y449798D01*
X588708Y447709D01*
X588706Y447619D01*
X588700Y447530D01*
X588691Y447440D01*
X588677Y447351D01*
X588660Y447263D01*
X588639Y447176D01*
X588614Y447089D01*
X588585Y447004D01*
X588553Y446920D01*
X588518Y446838D01*
X588478Y446757D01*
X588436Y446678D01*
X588390Y446601D01*
X588340Y446526D01*
X588288Y446453D01*
X588232Y446382D01*
X588174Y446314D01*
X588112Y446249D01*
X588048Y446186D01*
X587981Y446126D01*
X587912Y446069D01*
X587840Y446015D01*
X587766Y445964D01*
X587690Y445916D01*
X587612Y445872D01*
X587532Y445831D01*
X587450Y445793D01*
X587367Y445759D01*
X587282Y445729D01*
X587196Y445702D01*
X587110Y445679D01*
X587022Y445660D01*
X586933Y445645D01*
X586844Y445633D01*
X586755Y445625D01*
X586665Y445621D01*
X586575Y445621D01*
X586485Y445625D01*
X586396Y445633D01*
X586307Y445645D01*
X586218Y445660D01*
X586130Y445679D01*
X586044Y445702D01*
X585958Y445729D01*
X585873Y445759D01*
X585790Y445793D01*
X585708Y445831D01*
X585628Y445872D01*
X585550Y445916D01*
X585474Y445964D01*
X585400Y446015D01*
X585328Y446069D01*
X585259Y446126D01*
X585192Y446186D01*
X585128Y446249D01*
X585066Y446314D01*
X585008Y446382D01*
X584952Y446453D01*
X584900Y446526D01*
X584850Y446601D01*
X584804Y446678D01*
X584762Y446757D01*
X584722Y446838D01*
X584687Y446920D01*
X584655Y447004D01*
X584626Y447089D01*
X584601Y447176D01*
X584580Y447263D01*
X584563Y447351D01*
X584549Y447440D01*
X584540Y447530D01*
X584534Y447619D01*
X584532Y447709D01*
X593239Y449276D02*
X595850Y448232D01*
X593239Y449276D02*
X593173Y449304D01*
X593108Y449337D01*
X593045Y449372D01*
X592984Y449411D01*
X592925Y449453D01*
X592869Y449498D01*
X592815Y449546D01*
X592764Y449597D01*
X592715Y449650D01*
X592670Y449707D01*
X592627Y449765D01*
X592588Y449825D01*
X592551Y449888D01*
X592519Y449953D01*
X592490Y450019D01*
X592464Y450086D01*
X592442Y450155D01*
X592424Y450225D01*
X592409Y450296D01*
X592398Y450367D01*
X592391Y450439D01*
X592388Y450511D01*
X592389Y450583D01*
X592394Y450656D01*
X592402Y450727D01*
X592414Y450799D01*
X592430Y450869D01*
X592450Y450938D01*
X592474Y451007D01*
X592501Y451074D01*
X592531Y451139D01*
X592565Y451203D01*
X592603Y451265D01*
X592643Y451325D01*
X592687Y451382D01*
X592734Y451437D01*
X592784Y451490D01*
X592836Y451539D01*
X592891Y451586D01*
X592948Y451630D01*
X593008Y451671D01*
X593070Y451708D01*
X593134Y451743D01*
X593199Y451773D01*
X593266Y451801D01*
X593334Y451824D01*
X593404Y451844D01*
X593474Y451860D01*
X593545Y451873D01*
X593617Y451881D01*
X593689Y451886D01*
X593761Y451887D01*
X593761Y451886D02*
X593912Y451882D01*
X594063Y451874D01*
X594214Y451863D01*
X594365Y451847D01*
X594515Y451827D01*
X594665Y451804D01*
X594814Y451777D01*
X594962Y451746D01*
X595110Y451711D01*
X595256Y451673D01*
X595402Y451630D01*
X595546Y451584D01*
X595689Y451535D01*
X595831Y451482D01*
X595971Y451425D01*
X596110Y451364D01*
X595850Y448232D02*
X595916Y448204D01*
X595981Y448171D01*
X596044Y448136D01*
X596105Y448097D01*
X596164Y448055D01*
X596220Y448010D01*
X596274Y447962D01*
X596325Y447911D01*
X596374Y447858D01*
X596419Y447801D01*
X596462Y447743D01*
X596501Y447683D01*
X596538Y447620D01*
X596570Y447555D01*
X596599Y447489D01*
X596625Y447422D01*
X596647Y447353D01*
X596665Y447283D01*
X596680Y447212D01*
X596691Y447141D01*
X596698Y447069D01*
X596701Y446997D01*
X596700Y446925D01*
X596695Y446852D01*
X596687Y446781D01*
X596675Y446709D01*
X596659Y446639D01*
X596639Y446570D01*
X596615Y446501D01*
X596588Y446434D01*
X596558Y446369D01*
X596524Y446305D01*
X596486Y446243D01*
X596446Y446183D01*
X596402Y446126D01*
X596355Y446071D01*
X596305Y446018D01*
X596253Y445969D01*
X596198Y445922D01*
X596141Y445878D01*
X596081Y445837D01*
X596019Y445800D01*
X595955Y445765D01*
X595890Y445735D01*
X595823Y445707D01*
X595755Y445684D01*
X595685Y445664D01*
X595615Y445648D01*
X595544Y445635D01*
X595472Y445627D01*
X595400Y445622D01*
X595328Y445621D01*
X595118Y445626D01*
X594909Y445637D01*
X594700Y445652D01*
X594492Y445672D01*
X594284Y445698D01*
X594077Y445728D01*
X593870Y445763D01*
X593665Y445803D01*
X593460Y445847D01*
X593257Y445897D01*
X593054Y445951D01*
X592853Y446011D01*
X592654Y446074D01*
X592456Y446143D01*
X601164Y449276D02*
X603774Y448232D01*
X601164Y449276D02*
X601098Y449304D01*
X601033Y449337D01*
X600970Y449372D01*
X600909Y449411D01*
X600850Y449453D01*
X600794Y449498D01*
X600740Y449546D01*
X600689Y449597D01*
X600640Y449650D01*
X600595Y449707D01*
X600552Y449765D01*
X600513Y449825D01*
X600476Y449888D01*
X600444Y449953D01*
X600415Y450019D01*
X600389Y450086D01*
X600367Y450155D01*
X600349Y450225D01*
X600334Y450296D01*
X600323Y450367D01*
X600316Y450439D01*
X600313Y450511D01*
X600314Y450583D01*
X600319Y450656D01*
X600327Y450727D01*
X600339Y450799D01*
X600355Y450869D01*
X600375Y450938D01*
X600399Y451007D01*
X600426Y451074D01*
X600456Y451139D01*
X600490Y451203D01*
X600528Y451265D01*
X600568Y451325D01*
X600612Y451382D01*
X600659Y451437D01*
X600709Y451490D01*
X600761Y451539D01*
X600816Y451586D01*
X600873Y451630D01*
X600933Y451671D01*
X600995Y451708D01*
X601059Y451743D01*
X601124Y451773D01*
X601191Y451801D01*
X601259Y451824D01*
X601329Y451844D01*
X601399Y451860D01*
X601470Y451873D01*
X601542Y451881D01*
X601614Y451886D01*
X601686Y451887D01*
X601686Y451886D02*
X601837Y451882D01*
X601988Y451874D01*
X602139Y451863D01*
X602290Y451847D01*
X602440Y451827D01*
X602590Y451804D01*
X602739Y451777D01*
X602887Y451746D01*
X603035Y451711D01*
X603181Y451673D01*
X603327Y451630D01*
X603471Y451584D01*
X603614Y451535D01*
X603756Y451482D01*
X603896Y451425D01*
X604035Y451364D01*
X603774Y448232D02*
X603840Y448204D01*
X603905Y448171D01*
X603968Y448136D01*
X604029Y448097D01*
X604088Y448055D01*
X604144Y448010D01*
X604198Y447962D01*
X604249Y447911D01*
X604298Y447858D01*
X604343Y447801D01*
X604386Y447743D01*
X604425Y447683D01*
X604462Y447620D01*
X604494Y447555D01*
X604523Y447489D01*
X604549Y447422D01*
X604571Y447353D01*
X604589Y447283D01*
X604604Y447212D01*
X604615Y447141D01*
X604622Y447069D01*
X604625Y446997D01*
X604624Y446925D01*
X604619Y446852D01*
X604611Y446781D01*
X604599Y446709D01*
X604583Y446639D01*
X604563Y446570D01*
X604539Y446501D01*
X604512Y446434D01*
X604482Y446369D01*
X604448Y446305D01*
X604410Y446243D01*
X604370Y446183D01*
X604326Y446126D01*
X604279Y446071D01*
X604229Y446018D01*
X604177Y445969D01*
X604122Y445922D01*
X604065Y445878D01*
X604005Y445837D01*
X603943Y445800D01*
X603879Y445765D01*
X603814Y445735D01*
X603747Y445707D01*
X603679Y445684D01*
X603609Y445664D01*
X603539Y445648D01*
X603468Y445635D01*
X603396Y445627D01*
X603324Y445622D01*
X603252Y445621D01*
X603042Y445626D01*
X602833Y445637D01*
X602624Y445652D01*
X602416Y445672D01*
X602208Y445698D01*
X602001Y445728D01*
X601794Y445763D01*
X601589Y445803D01*
X601384Y445847D01*
X601181Y445897D01*
X600978Y445951D01*
X600777Y446011D01*
X600578Y446074D01*
X600380Y446143D01*
X612413Y451886D02*
X615546Y451886D01*
X613458Y455019D02*
X613458Y447187D01*
X613460Y447110D01*
X613466Y447034D01*
X613475Y446957D01*
X613488Y446881D01*
X613505Y446806D01*
X613525Y446732D01*
X613550Y446659D01*
X613577Y446588D01*
X613608Y446517D01*
X613643Y446449D01*
X613681Y446382D01*
X613722Y446317D01*
X613766Y446254D01*
X613813Y446194D01*
X613864Y446135D01*
X613917Y446080D01*
X613972Y446027D01*
X614031Y445976D01*
X614091Y445929D01*
X614154Y445885D01*
X614219Y445844D01*
X614286Y445806D01*
X614354Y445771D01*
X614425Y445740D01*
X614496Y445713D01*
X614569Y445688D01*
X614643Y445668D01*
X614718Y445651D01*
X614794Y445638D01*
X614871Y445629D01*
X614947Y445623D01*
X615024Y445621D01*
X615546Y445621D01*
X619278Y445621D02*
X619278Y455019D01*
X619278Y451886D02*
X621889Y451886D01*
X621966Y451884D01*
X622042Y451878D01*
X622119Y451869D01*
X622195Y451856D01*
X622270Y451839D01*
X622344Y451819D01*
X622417Y451794D01*
X622488Y451767D01*
X622559Y451736D01*
X622627Y451701D01*
X622694Y451663D01*
X622759Y451622D01*
X622822Y451578D01*
X622882Y451531D01*
X622941Y451480D01*
X622996Y451427D01*
X623049Y451372D01*
X623100Y451313D01*
X623147Y451253D01*
X623191Y451190D01*
X623232Y451125D01*
X623270Y451058D01*
X623305Y450990D01*
X623336Y450919D01*
X623363Y450848D01*
X623388Y450775D01*
X623408Y450701D01*
X623425Y450626D01*
X623438Y450550D01*
X623447Y450474D01*
X623453Y450397D01*
X623455Y450320D01*
X623455Y445621D01*
X629074Y445621D02*
X631684Y445621D01*
X629074Y445621D02*
X628997Y445623D01*
X628921Y445629D01*
X628844Y445638D01*
X628768Y445651D01*
X628693Y445668D01*
X628619Y445688D01*
X628546Y445713D01*
X628475Y445740D01*
X628404Y445771D01*
X628336Y445806D01*
X628269Y445844D01*
X628204Y445885D01*
X628141Y445929D01*
X628081Y445976D01*
X628022Y446027D01*
X627967Y446080D01*
X627914Y446135D01*
X627863Y446194D01*
X627816Y446254D01*
X627772Y446317D01*
X627731Y446382D01*
X627693Y446449D01*
X627658Y446517D01*
X627627Y446588D01*
X627600Y446659D01*
X627575Y446732D01*
X627555Y446806D01*
X627538Y446881D01*
X627525Y446957D01*
X627516Y447034D01*
X627510Y447110D01*
X627508Y447187D01*
X627508Y449798D01*
X627510Y449888D01*
X627516Y449977D01*
X627525Y450067D01*
X627539Y450156D01*
X627556Y450244D01*
X627577Y450331D01*
X627602Y450418D01*
X627631Y450503D01*
X627663Y450587D01*
X627698Y450669D01*
X627738Y450750D01*
X627780Y450829D01*
X627826Y450906D01*
X627876Y450981D01*
X627928Y451054D01*
X627984Y451125D01*
X628042Y451193D01*
X628104Y451258D01*
X628168Y451321D01*
X628235Y451381D01*
X628304Y451438D01*
X628376Y451492D01*
X628450Y451543D01*
X628526Y451591D01*
X628604Y451635D01*
X628684Y451676D01*
X628766Y451714D01*
X628849Y451748D01*
X628934Y451778D01*
X629020Y451805D01*
X629106Y451828D01*
X629194Y451847D01*
X629283Y451862D01*
X629372Y451874D01*
X629461Y451882D01*
X629551Y451886D01*
X629641Y451886D01*
X629731Y451882D01*
X629820Y451874D01*
X629909Y451862D01*
X629998Y451847D01*
X630086Y451828D01*
X630172Y451805D01*
X630258Y451778D01*
X630343Y451748D01*
X630426Y451714D01*
X630508Y451676D01*
X630588Y451635D01*
X630666Y451591D01*
X630742Y451543D01*
X630816Y451492D01*
X630888Y451438D01*
X630957Y451381D01*
X631024Y451321D01*
X631088Y451258D01*
X631150Y451193D01*
X631208Y451125D01*
X631264Y451054D01*
X631316Y450981D01*
X631366Y450906D01*
X631412Y450829D01*
X631454Y450750D01*
X631494Y450669D01*
X631529Y450587D01*
X631561Y450503D01*
X631590Y450418D01*
X631615Y450331D01*
X631636Y450244D01*
X631653Y450156D01*
X631667Y450067D01*
X631676Y449977D01*
X631682Y449888D01*
X631684Y449798D01*
X631684Y448754D01*
X627508Y448754D01*
X454601Y439779D02*
X454601Y430381D01*
X457211Y430381D01*
X457288Y430383D01*
X457364Y430389D01*
X457441Y430398D01*
X457517Y430411D01*
X457592Y430428D01*
X457666Y430448D01*
X457739Y430473D01*
X457810Y430500D01*
X457881Y430531D01*
X457949Y430566D01*
X458016Y430604D01*
X458081Y430645D01*
X458144Y430689D01*
X458204Y430736D01*
X458263Y430787D01*
X458318Y430840D01*
X458371Y430895D01*
X458422Y430954D01*
X458469Y431014D01*
X458513Y431077D01*
X458554Y431142D01*
X458592Y431209D01*
X458627Y431277D01*
X458658Y431348D01*
X458685Y431419D01*
X458710Y431492D01*
X458730Y431566D01*
X458747Y431641D01*
X458760Y431717D01*
X458769Y431793D01*
X458775Y431870D01*
X458777Y431947D01*
X458777Y435080D01*
X458775Y435157D01*
X458769Y435233D01*
X458760Y435310D01*
X458747Y435386D01*
X458730Y435461D01*
X458710Y435535D01*
X458685Y435608D01*
X458658Y435679D01*
X458627Y435750D01*
X458592Y435818D01*
X458554Y435885D01*
X458513Y435950D01*
X458469Y436013D01*
X458422Y436073D01*
X458371Y436132D01*
X458318Y436187D01*
X458263Y436240D01*
X458204Y436291D01*
X458144Y436338D01*
X458081Y436382D01*
X458016Y436423D01*
X457949Y436461D01*
X457881Y436496D01*
X457810Y436527D01*
X457739Y436554D01*
X457666Y436579D01*
X457592Y436599D01*
X457517Y436616D01*
X457441Y436629D01*
X457364Y436638D01*
X457288Y436644D01*
X457211Y436646D01*
X454601Y436646D01*
X464261Y434036D02*
X466611Y434036D01*
X464261Y434035D02*
X464177Y434033D01*
X464092Y434027D01*
X464009Y434017D01*
X463925Y434004D01*
X463843Y433986D01*
X463761Y433965D01*
X463680Y433940D01*
X463601Y433912D01*
X463523Y433879D01*
X463447Y433843D01*
X463372Y433804D01*
X463299Y433761D01*
X463228Y433715D01*
X463160Y433666D01*
X463094Y433614D01*
X463030Y433558D01*
X462969Y433500D01*
X462911Y433439D01*
X462855Y433375D01*
X462803Y433309D01*
X462754Y433241D01*
X462708Y433170D01*
X462665Y433097D01*
X462626Y433022D01*
X462590Y432946D01*
X462557Y432868D01*
X462529Y432789D01*
X462504Y432708D01*
X462483Y432626D01*
X462465Y432544D01*
X462452Y432460D01*
X462442Y432377D01*
X462436Y432292D01*
X462434Y432208D01*
X462436Y432124D01*
X462442Y432039D01*
X462452Y431956D01*
X462465Y431872D01*
X462483Y431790D01*
X462504Y431708D01*
X462529Y431627D01*
X462557Y431548D01*
X462590Y431470D01*
X462626Y431394D01*
X462665Y431319D01*
X462708Y431246D01*
X462754Y431175D01*
X462803Y431107D01*
X462855Y431041D01*
X462911Y430977D01*
X462969Y430916D01*
X463030Y430858D01*
X463094Y430802D01*
X463160Y430750D01*
X463228Y430701D01*
X463299Y430655D01*
X463372Y430612D01*
X463447Y430573D01*
X463523Y430537D01*
X463601Y430504D01*
X463680Y430476D01*
X463761Y430451D01*
X463843Y430430D01*
X463925Y430412D01*
X464009Y430399D01*
X464092Y430389D01*
X464177Y430383D01*
X464261Y430381D01*
X466611Y430381D01*
X466611Y435080D01*
X466609Y435157D01*
X466603Y435233D01*
X466594Y435310D01*
X466581Y435386D01*
X466564Y435461D01*
X466544Y435535D01*
X466519Y435608D01*
X466492Y435679D01*
X466461Y435750D01*
X466426Y435818D01*
X466388Y435885D01*
X466347Y435950D01*
X466303Y436013D01*
X466256Y436073D01*
X466205Y436132D01*
X466152Y436187D01*
X466097Y436240D01*
X466038Y436291D01*
X465978Y436338D01*
X465915Y436382D01*
X465850Y436423D01*
X465783Y436461D01*
X465715Y436496D01*
X465644Y436527D01*
X465573Y436554D01*
X465500Y436579D01*
X465426Y436599D01*
X465351Y436616D01*
X465275Y436629D01*
X465198Y436638D01*
X465122Y436644D01*
X465045Y436646D01*
X462956Y436646D01*
X472286Y430381D02*
X474374Y430381D01*
X472286Y430381D02*
X472209Y430383D01*
X472133Y430389D01*
X472056Y430398D01*
X471980Y430411D01*
X471905Y430428D01*
X471831Y430448D01*
X471758Y430473D01*
X471687Y430500D01*
X471616Y430531D01*
X471548Y430566D01*
X471481Y430604D01*
X471416Y430645D01*
X471353Y430689D01*
X471293Y430736D01*
X471234Y430787D01*
X471179Y430840D01*
X471126Y430895D01*
X471075Y430954D01*
X471028Y431014D01*
X470984Y431077D01*
X470943Y431142D01*
X470905Y431209D01*
X470870Y431277D01*
X470839Y431348D01*
X470812Y431419D01*
X470787Y431492D01*
X470767Y431566D01*
X470750Y431641D01*
X470737Y431717D01*
X470728Y431794D01*
X470722Y431870D01*
X470720Y431947D01*
X470720Y435080D01*
X470722Y435157D01*
X470728Y435233D01*
X470737Y435310D01*
X470750Y435386D01*
X470767Y435461D01*
X470787Y435535D01*
X470812Y435608D01*
X470839Y435679D01*
X470870Y435750D01*
X470905Y435818D01*
X470943Y435885D01*
X470984Y435950D01*
X471028Y436013D01*
X471075Y436073D01*
X471126Y436132D01*
X471179Y436187D01*
X471234Y436240D01*
X471293Y436291D01*
X471353Y436338D01*
X471416Y436382D01*
X471481Y436423D01*
X471548Y436461D01*
X471616Y436496D01*
X471687Y436527D01*
X471758Y436554D01*
X471831Y436579D01*
X471905Y436599D01*
X471980Y436616D01*
X472056Y436629D01*
X472133Y436638D01*
X472209Y436644D01*
X472286Y436646D01*
X474374Y436646D01*
X478129Y439779D02*
X478129Y430381D01*
X478129Y433514D02*
X482306Y436646D01*
X479957Y434819D02*
X482306Y430381D01*
X490521Y432469D02*
X490521Y434558D01*
X490522Y434558D02*
X490524Y434648D01*
X490530Y434737D01*
X490539Y434827D01*
X490553Y434916D01*
X490570Y435004D01*
X490591Y435091D01*
X490616Y435178D01*
X490645Y435263D01*
X490677Y435347D01*
X490712Y435429D01*
X490752Y435510D01*
X490794Y435589D01*
X490840Y435666D01*
X490890Y435741D01*
X490942Y435814D01*
X490998Y435885D01*
X491056Y435953D01*
X491118Y436018D01*
X491182Y436081D01*
X491249Y436141D01*
X491318Y436198D01*
X491390Y436252D01*
X491464Y436303D01*
X491540Y436351D01*
X491618Y436395D01*
X491698Y436436D01*
X491780Y436474D01*
X491863Y436508D01*
X491948Y436538D01*
X492034Y436565D01*
X492120Y436588D01*
X492208Y436607D01*
X492297Y436622D01*
X492386Y436634D01*
X492475Y436642D01*
X492565Y436646D01*
X492655Y436646D01*
X492745Y436642D01*
X492834Y436634D01*
X492923Y436622D01*
X493012Y436607D01*
X493100Y436588D01*
X493186Y436565D01*
X493272Y436538D01*
X493357Y436508D01*
X493440Y436474D01*
X493522Y436436D01*
X493602Y436395D01*
X493680Y436351D01*
X493756Y436303D01*
X493830Y436252D01*
X493902Y436198D01*
X493971Y436141D01*
X494038Y436081D01*
X494102Y436018D01*
X494164Y435953D01*
X494222Y435885D01*
X494278Y435814D01*
X494330Y435741D01*
X494380Y435666D01*
X494426Y435589D01*
X494468Y435510D01*
X494508Y435429D01*
X494543Y435347D01*
X494575Y435263D01*
X494604Y435178D01*
X494629Y435091D01*
X494650Y435004D01*
X494667Y434916D01*
X494681Y434827D01*
X494690Y434737D01*
X494696Y434648D01*
X494698Y434558D01*
X494698Y432469D01*
X494696Y432379D01*
X494690Y432290D01*
X494681Y432200D01*
X494667Y432111D01*
X494650Y432023D01*
X494629Y431936D01*
X494604Y431849D01*
X494575Y431764D01*
X494543Y431680D01*
X494508Y431598D01*
X494468Y431517D01*
X494426Y431438D01*
X494380Y431361D01*
X494330Y431286D01*
X494278Y431213D01*
X494222Y431142D01*
X494164Y431074D01*
X494102Y431009D01*
X494038Y430946D01*
X493971Y430886D01*
X493902Y430829D01*
X493830Y430775D01*
X493756Y430724D01*
X493680Y430676D01*
X493602Y430632D01*
X493522Y430591D01*
X493440Y430553D01*
X493357Y430519D01*
X493272Y430489D01*
X493186Y430462D01*
X493100Y430439D01*
X493012Y430420D01*
X492923Y430405D01*
X492834Y430393D01*
X492745Y430385D01*
X492655Y430381D01*
X492565Y430381D01*
X492475Y430385D01*
X492386Y430393D01*
X492297Y430405D01*
X492208Y430420D01*
X492120Y430439D01*
X492034Y430462D01*
X491948Y430489D01*
X491863Y430519D01*
X491780Y430553D01*
X491698Y430591D01*
X491618Y430632D01*
X491540Y430676D01*
X491464Y430724D01*
X491390Y430775D01*
X491318Y430829D01*
X491249Y430886D01*
X491182Y430946D01*
X491118Y431009D01*
X491056Y431074D01*
X490998Y431142D01*
X490942Y431213D01*
X490890Y431286D01*
X490840Y431361D01*
X490794Y431438D01*
X490752Y431517D01*
X490712Y431598D01*
X490677Y431680D01*
X490645Y431764D01*
X490616Y431849D01*
X490591Y431936D01*
X490570Y432023D01*
X490553Y432111D01*
X490539Y432200D01*
X490530Y432290D01*
X490524Y432379D01*
X490522Y432469D01*
X498950Y430381D02*
X498950Y438213D01*
X498951Y438213D02*
X498953Y438290D01*
X498959Y438366D01*
X498968Y438443D01*
X498981Y438519D01*
X498998Y438594D01*
X499018Y438668D01*
X499043Y438741D01*
X499070Y438812D01*
X499101Y438883D01*
X499136Y438951D01*
X499174Y439018D01*
X499215Y439083D01*
X499259Y439146D01*
X499306Y439206D01*
X499357Y439265D01*
X499410Y439320D01*
X499465Y439373D01*
X499524Y439424D01*
X499584Y439471D01*
X499647Y439515D01*
X499712Y439556D01*
X499779Y439594D01*
X499847Y439629D01*
X499918Y439660D01*
X499989Y439687D01*
X500062Y439712D01*
X500136Y439732D01*
X500211Y439749D01*
X500287Y439762D01*
X500363Y439771D01*
X500440Y439777D01*
X500517Y439779D01*
X501039Y439779D01*
X501039Y436646D02*
X497906Y436646D01*
X507735Y436646D02*
X510868Y436646D01*
X508780Y439779D02*
X508780Y431947D01*
X508782Y431870D01*
X508788Y431794D01*
X508797Y431717D01*
X508810Y431641D01*
X508827Y431566D01*
X508847Y431492D01*
X508872Y431419D01*
X508899Y431348D01*
X508930Y431277D01*
X508965Y431209D01*
X509003Y431142D01*
X509044Y431077D01*
X509088Y431014D01*
X509135Y430954D01*
X509186Y430895D01*
X509239Y430840D01*
X509294Y430787D01*
X509353Y430736D01*
X509413Y430689D01*
X509476Y430645D01*
X509541Y430604D01*
X509608Y430566D01*
X509676Y430531D01*
X509747Y430500D01*
X509818Y430473D01*
X509891Y430448D01*
X509965Y430428D01*
X510040Y430411D01*
X510116Y430398D01*
X510193Y430389D01*
X510269Y430383D01*
X510346Y430381D01*
X510868Y430381D01*
X514600Y430381D02*
X514600Y439779D01*
X514600Y436646D02*
X517211Y436646D01*
X517288Y436644D01*
X517364Y436638D01*
X517441Y436629D01*
X517517Y436616D01*
X517592Y436599D01*
X517666Y436579D01*
X517739Y436554D01*
X517810Y436527D01*
X517881Y436496D01*
X517949Y436461D01*
X518016Y436423D01*
X518081Y436382D01*
X518144Y436338D01*
X518204Y436291D01*
X518263Y436240D01*
X518318Y436187D01*
X518371Y436132D01*
X518422Y436073D01*
X518469Y436013D01*
X518513Y435950D01*
X518554Y435885D01*
X518592Y435818D01*
X518627Y435750D01*
X518658Y435679D01*
X518685Y435608D01*
X518710Y435535D01*
X518730Y435461D01*
X518747Y435386D01*
X518760Y435310D01*
X518769Y435234D01*
X518775Y435157D01*
X518777Y435080D01*
X518777Y430381D01*
X524396Y430381D02*
X527007Y430381D01*
X524396Y430381D02*
X524319Y430383D01*
X524243Y430389D01*
X524166Y430398D01*
X524090Y430411D01*
X524015Y430428D01*
X523941Y430448D01*
X523868Y430473D01*
X523797Y430500D01*
X523726Y430531D01*
X523658Y430566D01*
X523591Y430604D01*
X523526Y430645D01*
X523463Y430689D01*
X523403Y430736D01*
X523344Y430787D01*
X523289Y430840D01*
X523236Y430895D01*
X523185Y430954D01*
X523138Y431014D01*
X523094Y431077D01*
X523053Y431142D01*
X523015Y431209D01*
X522980Y431277D01*
X522949Y431348D01*
X522922Y431419D01*
X522897Y431492D01*
X522877Y431566D01*
X522860Y431641D01*
X522847Y431717D01*
X522838Y431794D01*
X522832Y431870D01*
X522830Y431947D01*
X522830Y434558D01*
X522832Y434648D01*
X522838Y434737D01*
X522847Y434827D01*
X522861Y434916D01*
X522878Y435004D01*
X522899Y435091D01*
X522924Y435178D01*
X522953Y435263D01*
X522985Y435347D01*
X523020Y435429D01*
X523060Y435510D01*
X523102Y435589D01*
X523148Y435666D01*
X523198Y435741D01*
X523250Y435814D01*
X523306Y435885D01*
X523364Y435953D01*
X523426Y436018D01*
X523490Y436081D01*
X523557Y436141D01*
X523626Y436198D01*
X523698Y436252D01*
X523772Y436303D01*
X523848Y436351D01*
X523926Y436395D01*
X524006Y436436D01*
X524088Y436474D01*
X524171Y436508D01*
X524256Y436538D01*
X524342Y436565D01*
X524428Y436588D01*
X524516Y436607D01*
X524605Y436622D01*
X524694Y436634D01*
X524783Y436642D01*
X524873Y436646D01*
X524963Y436646D01*
X525053Y436642D01*
X525142Y436634D01*
X525231Y436622D01*
X525320Y436607D01*
X525408Y436588D01*
X525494Y436565D01*
X525580Y436538D01*
X525665Y436508D01*
X525748Y436474D01*
X525830Y436436D01*
X525910Y436395D01*
X525988Y436351D01*
X526064Y436303D01*
X526138Y436252D01*
X526210Y436198D01*
X526279Y436141D01*
X526346Y436081D01*
X526410Y436018D01*
X526472Y435953D01*
X526530Y435885D01*
X526586Y435814D01*
X526638Y435741D01*
X526688Y435666D01*
X526734Y435589D01*
X526776Y435510D01*
X526816Y435429D01*
X526851Y435347D01*
X526883Y435263D01*
X526912Y435178D01*
X526937Y435091D01*
X526958Y435004D01*
X526975Y434916D01*
X526989Y434827D01*
X526998Y434737D01*
X527004Y434648D01*
X527006Y434558D01*
X527007Y434558D02*
X527007Y433514D01*
X522830Y433514D01*
X536414Y434036D02*
X539025Y432992D01*
X536414Y434036D02*
X536348Y434064D01*
X536283Y434097D01*
X536220Y434132D01*
X536159Y434171D01*
X536100Y434213D01*
X536044Y434258D01*
X535990Y434306D01*
X535939Y434357D01*
X535890Y434410D01*
X535845Y434467D01*
X535802Y434525D01*
X535763Y434585D01*
X535726Y434648D01*
X535694Y434713D01*
X535665Y434779D01*
X535639Y434846D01*
X535617Y434915D01*
X535599Y434985D01*
X535584Y435056D01*
X535573Y435127D01*
X535566Y435199D01*
X535563Y435271D01*
X535564Y435343D01*
X535569Y435416D01*
X535577Y435487D01*
X535589Y435559D01*
X535605Y435629D01*
X535625Y435698D01*
X535649Y435767D01*
X535676Y435834D01*
X535706Y435899D01*
X535740Y435963D01*
X535778Y436025D01*
X535818Y436085D01*
X535862Y436142D01*
X535909Y436197D01*
X535959Y436250D01*
X536011Y436299D01*
X536066Y436346D01*
X536123Y436390D01*
X536183Y436431D01*
X536245Y436468D01*
X536309Y436503D01*
X536374Y436533D01*
X536441Y436561D01*
X536509Y436584D01*
X536579Y436604D01*
X536649Y436620D01*
X536720Y436633D01*
X536792Y436641D01*
X536864Y436646D01*
X536936Y436647D01*
X536937Y436646D02*
X537088Y436642D01*
X537239Y436634D01*
X537390Y436623D01*
X537541Y436607D01*
X537691Y436587D01*
X537841Y436564D01*
X537990Y436537D01*
X538138Y436506D01*
X538286Y436471D01*
X538432Y436433D01*
X538578Y436390D01*
X538722Y436344D01*
X538865Y436295D01*
X539007Y436242D01*
X539147Y436185D01*
X539286Y436124D01*
X539025Y432992D02*
X539091Y432964D01*
X539156Y432931D01*
X539219Y432896D01*
X539280Y432857D01*
X539339Y432815D01*
X539395Y432770D01*
X539449Y432722D01*
X539500Y432671D01*
X539549Y432618D01*
X539594Y432561D01*
X539637Y432503D01*
X539676Y432443D01*
X539713Y432380D01*
X539745Y432315D01*
X539774Y432249D01*
X539800Y432182D01*
X539822Y432113D01*
X539840Y432043D01*
X539855Y431972D01*
X539866Y431901D01*
X539873Y431829D01*
X539876Y431757D01*
X539875Y431685D01*
X539870Y431612D01*
X539862Y431541D01*
X539850Y431469D01*
X539834Y431399D01*
X539814Y431330D01*
X539790Y431261D01*
X539763Y431194D01*
X539733Y431129D01*
X539699Y431065D01*
X539661Y431003D01*
X539621Y430943D01*
X539577Y430886D01*
X539530Y430831D01*
X539480Y430778D01*
X539428Y430729D01*
X539373Y430682D01*
X539316Y430638D01*
X539256Y430597D01*
X539194Y430560D01*
X539130Y430525D01*
X539065Y430495D01*
X538998Y430467D01*
X538930Y430444D01*
X538860Y430424D01*
X538790Y430408D01*
X538719Y430395D01*
X538647Y430387D01*
X538575Y430382D01*
X538503Y430381D01*
X538293Y430386D01*
X538084Y430397D01*
X537875Y430412D01*
X537667Y430432D01*
X537459Y430458D01*
X537252Y430488D01*
X537045Y430523D01*
X536840Y430563D01*
X536635Y430607D01*
X536432Y430657D01*
X536229Y430711D01*
X536028Y430771D01*
X535829Y430834D01*
X535631Y430903D01*
X545133Y430381D02*
X547221Y430381D01*
X545133Y430381D02*
X545056Y430383D01*
X544980Y430389D01*
X544903Y430398D01*
X544827Y430411D01*
X544752Y430428D01*
X544678Y430448D01*
X544605Y430473D01*
X544534Y430500D01*
X544463Y430531D01*
X544395Y430566D01*
X544328Y430604D01*
X544263Y430645D01*
X544200Y430689D01*
X544140Y430736D01*
X544081Y430787D01*
X544026Y430840D01*
X543973Y430895D01*
X543922Y430954D01*
X543875Y431014D01*
X543831Y431077D01*
X543790Y431142D01*
X543752Y431209D01*
X543717Y431277D01*
X543686Y431348D01*
X543659Y431419D01*
X543634Y431492D01*
X543614Y431566D01*
X543597Y431641D01*
X543584Y431717D01*
X543575Y431794D01*
X543569Y431870D01*
X543567Y431947D01*
X543566Y431947D02*
X543566Y435080D01*
X543567Y435080D02*
X543569Y435157D01*
X543575Y435233D01*
X543584Y435310D01*
X543597Y435386D01*
X543614Y435461D01*
X543634Y435535D01*
X543659Y435608D01*
X543686Y435679D01*
X543717Y435750D01*
X543752Y435818D01*
X543790Y435885D01*
X543831Y435950D01*
X543875Y436013D01*
X543922Y436073D01*
X543973Y436132D01*
X544026Y436187D01*
X544081Y436240D01*
X544140Y436291D01*
X544200Y436338D01*
X544263Y436382D01*
X544328Y436423D01*
X544395Y436461D01*
X544463Y436496D01*
X544534Y436527D01*
X544605Y436554D01*
X544678Y436579D01*
X544752Y436599D01*
X544827Y436616D01*
X544903Y436629D01*
X544980Y436638D01*
X545056Y436644D01*
X545133Y436646D01*
X547221Y436646D01*
X550923Y436646D02*
X550923Y430381D01*
X550923Y436646D02*
X554055Y436646D01*
X554055Y435602D01*
X558533Y430381D02*
X561144Y430381D01*
X558533Y430381D02*
X558456Y430383D01*
X558380Y430389D01*
X558303Y430398D01*
X558227Y430411D01*
X558152Y430428D01*
X558078Y430448D01*
X558005Y430473D01*
X557934Y430500D01*
X557863Y430531D01*
X557795Y430566D01*
X557728Y430604D01*
X557663Y430645D01*
X557600Y430689D01*
X557540Y430736D01*
X557481Y430787D01*
X557426Y430840D01*
X557373Y430895D01*
X557322Y430954D01*
X557275Y431014D01*
X557231Y431077D01*
X557190Y431142D01*
X557152Y431209D01*
X557117Y431277D01*
X557086Y431348D01*
X557059Y431419D01*
X557034Y431492D01*
X557014Y431566D01*
X556997Y431641D01*
X556984Y431717D01*
X556975Y431794D01*
X556969Y431870D01*
X556967Y431947D01*
X556967Y434558D01*
X556968Y434558D02*
X556970Y434648D01*
X556976Y434737D01*
X556985Y434827D01*
X556999Y434916D01*
X557016Y435004D01*
X557037Y435091D01*
X557062Y435178D01*
X557091Y435263D01*
X557123Y435347D01*
X557158Y435429D01*
X557198Y435510D01*
X557240Y435589D01*
X557286Y435666D01*
X557336Y435741D01*
X557388Y435814D01*
X557444Y435885D01*
X557502Y435953D01*
X557564Y436018D01*
X557628Y436081D01*
X557695Y436141D01*
X557764Y436198D01*
X557836Y436252D01*
X557910Y436303D01*
X557986Y436351D01*
X558064Y436395D01*
X558144Y436436D01*
X558226Y436474D01*
X558309Y436508D01*
X558394Y436538D01*
X558480Y436565D01*
X558566Y436588D01*
X558654Y436607D01*
X558743Y436622D01*
X558832Y436634D01*
X558921Y436642D01*
X559011Y436646D01*
X559101Y436646D01*
X559191Y436642D01*
X559280Y436634D01*
X559369Y436622D01*
X559458Y436607D01*
X559546Y436588D01*
X559632Y436565D01*
X559718Y436538D01*
X559803Y436508D01*
X559886Y436474D01*
X559968Y436436D01*
X560048Y436395D01*
X560126Y436351D01*
X560202Y436303D01*
X560276Y436252D01*
X560348Y436198D01*
X560417Y436141D01*
X560484Y436081D01*
X560548Y436018D01*
X560610Y435953D01*
X560668Y435885D01*
X560724Y435814D01*
X560776Y435741D01*
X560826Y435666D01*
X560872Y435589D01*
X560914Y435510D01*
X560954Y435429D01*
X560989Y435347D01*
X561021Y435263D01*
X561050Y435178D01*
X561075Y435091D01*
X561096Y435004D01*
X561113Y434916D01*
X561127Y434827D01*
X561136Y434737D01*
X561142Y434648D01*
X561144Y434558D01*
X561144Y433514D01*
X556967Y433514D01*
X566458Y430381D02*
X569069Y430381D01*
X566458Y430381D02*
X566381Y430383D01*
X566305Y430389D01*
X566228Y430398D01*
X566152Y430411D01*
X566077Y430428D01*
X566003Y430448D01*
X565930Y430473D01*
X565859Y430500D01*
X565788Y430531D01*
X565720Y430566D01*
X565653Y430604D01*
X565588Y430645D01*
X565525Y430689D01*
X565465Y430736D01*
X565406Y430787D01*
X565351Y430840D01*
X565298Y430895D01*
X565247Y430954D01*
X565200Y431014D01*
X565156Y431077D01*
X565115Y431142D01*
X565077Y431209D01*
X565042Y431277D01*
X565011Y431348D01*
X564984Y431419D01*
X564959Y431492D01*
X564939Y431566D01*
X564922Y431641D01*
X564909Y431717D01*
X564900Y431794D01*
X564894Y431870D01*
X564892Y431947D01*
X564892Y434558D01*
X564894Y434648D01*
X564900Y434737D01*
X564909Y434827D01*
X564923Y434916D01*
X564940Y435004D01*
X564961Y435091D01*
X564986Y435178D01*
X565015Y435263D01*
X565047Y435347D01*
X565082Y435429D01*
X565122Y435510D01*
X565164Y435589D01*
X565210Y435666D01*
X565260Y435741D01*
X565312Y435814D01*
X565368Y435885D01*
X565426Y435953D01*
X565488Y436018D01*
X565552Y436081D01*
X565619Y436141D01*
X565688Y436198D01*
X565760Y436252D01*
X565834Y436303D01*
X565910Y436351D01*
X565988Y436395D01*
X566068Y436436D01*
X566150Y436474D01*
X566233Y436508D01*
X566318Y436538D01*
X566404Y436565D01*
X566490Y436588D01*
X566578Y436607D01*
X566667Y436622D01*
X566756Y436634D01*
X566845Y436642D01*
X566935Y436646D01*
X567025Y436646D01*
X567115Y436642D01*
X567204Y436634D01*
X567293Y436622D01*
X567382Y436607D01*
X567470Y436588D01*
X567556Y436565D01*
X567642Y436538D01*
X567727Y436508D01*
X567810Y436474D01*
X567892Y436436D01*
X567972Y436395D01*
X568050Y436351D01*
X568126Y436303D01*
X568200Y436252D01*
X568272Y436198D01*
X568341Y436141D01*
X568408Y436081D01*
X568472Y436018D01*
X568534Y435953D01*
X568592Y435885D01*
X568648Y435814D01*
X568700Y435741D01*
X568750Y435666D01*
X568796Y435589D01*
X568838Y435510D01*
X568878Y435429D01*
X568913Y435347D01*
X568945Y435263D01*
X568974Y435178D01*
X568999Y435091D01*
X569020Y435004D01*
X569037Y434916D01*
X569051Y434827D01*
X569060Y434737D01*
X569066Y434648D01*
X569068Y434558D01*
X569069Y434558D02*
X569069Y433514D01*
X564892Y433514D01*
X573121Y436646D02*
X573121Y430381D01*
X573121Y436646D02*
X575732Y436646D01*
X575809Y436644D01*
X575885Y436638D01*
X575962Y436629D01*
X576038Y436616D01*
X576113Y436599D01*
X576187Y436579D01*
X576260Y436554D01*
X576331Y436527D01*
X576402Y436496D01*
X576470Y436461D01*
X576537Y436423D01*
X576602Y436382D01*
X576665Y436338D01*
X576725Y436291D01*
X576784Y436240D01*
X576839Y436187D01*
X576892Y436132D01*
X576943Y436073D01*
X576990Y436013D01*
X577034Y435950D01*
X577075Y435885D01*
X577113Y435818D01*
X577148Y435750D01*
X577179Y435679D01*
X577206Y435608D01*
X577231Y435535D01*
X577251Y435461D01*
X577268Y435386D01*
X577281Y435310D01*
X577290Y435234D01*
X577296Y435157D01*
X577298Y435080D01*
X577298Y430381D01*
X586732Y430381D02*
X586732Y438213D01*
X586733Y438213D02*
X586735Y438290D01*
X586741Y438366D01*
X586750Y438443D01*
X586763Y438519D01*
X586780Y438594D01*
X586800Y438668D01*
X586825Y438741D01*
X586852Y438812D01*
X586883Y438883D01*
X586918Y438951D01*
X586956Y439018D01*
X586997Y439083D01*
X587041Y439146D01*
X587088Y439206D01*
X587139Y439265D01*
X587192Y439320D01*
X587247Y439373D01*
X587306Y439424D01*
X587366Y439471D01*
X587429Y439515D01*
X587494Y439556D01*
X587561Y439594D01*
X587629Y439629D01*
X587700Y439660D01*
X587771Y439687D01*
X587844Y439712D01*
X587918Y439732D01*
X587993Y439749D01*
X588069Y439762D01*
X588145Y439771D01*
X588222Y439777D01*
X588299Y439779D01*
X588821Y439779D01*
X588821Y436646D02*
X585688Y436646D01*
X591364Y436646D02*
X591364Y430381D01*
X591103Y439257D02*
X591103Y439779D01*
X591625Y439779D01*
X591625Y439257D01*
X591103Y439257D01*
X595423Y436646D02*
X595423Y430381D01*
X595423Y436646D02*
X598556Y436646D01*
X598556Y435602D01*
X602251Y434036D02*
X604861Y432992D01*
X602251Y434036D02*
X602185Y434064D01*
X602120Y434097D01*
X602057Y434132D01*
X601996Y434171D01*
X601937Y434213D01*
X601881Y434258D01*
X601827Y434306D01*
X601776Y434357D01*
X601727Y434410D01*
X601682Y434467D01*
X601639Y434525D01*
X601600Y434585D01*
X601563Y434648D01*
X601531Y434713D01*
X601502Y434779D01*
X601476Y434846D01*
X601454Y434915D01*
X601436Y434985D01*
X601421Y435056D01*
X601410Y435127D01*
X601403Y435199D01*
X601400Y435271D01*
X601401Y435343D01*
X601406Y435416D01*
X601414Y435487D01*
X601426Y435559D01*
X601442Y435629D01*
X601462Y435698D01*
X601486Y435767D01*
X601513Y435834D01*
X601543Y435899D01*
X601577Y435963D01*
X601615Y436025D01*
X601655Y436085D01*
X601699Y436142D01*
X601746Y436197D01*
X601796Y436250D01*
X601848Y436299D01*
X601903Y436346D01*
X601960Y436390D01*
X602020Y436431D01*
X602082Y436468D01*
X602146Y436503D01*
X602211Y436533D01*
X602278Y436561D01*
X602346Y436584D01*
X602416Y436604D01*
X602486Y436620D01*
X602557Y436633D01*
X602629Y436641D01*
X602701Y436646D01*
X602773Y436647D01*
X602773Y436646D02*
X602924Y436642D01*
X603075Y436634D01*
X603226Y436623D01*
X603377Y436607D01*
X603527Y436587D01*
X603677Y436564D01*
X603826Y436537D01*
X603974Y436506D01*
X604122Y436471D01*
X604268Y436433D01*
X604414Y436390D01*
X604558Y436344D01*
X604701Y436295D01*
X604843Y436242D01*
X604983Y436185D01*
X605122Y436124D01*
X604862Y432992D02*
X604928Y432964D01*
X604993Y432931D01*
X605056Y432896D01*
X605117Y432857D01*
X605176Y432815D01*
X605232Y432770D01*
X605286Y432722D01*
X605337Y432671D01*
X605386Y432618D01*
X605431Y432561D01*
X605474Y432503D01*
X605513Y432443D01*
X605550Y432380D01*
X605582Y432315D01*
X605611Y432249D01*
X605637Y432182D01*
X605659Y432113D01*
X605677Y432043D01*
X605692Y431972D01*
X605703Y431901D01*
X605710Y431829D01*
X605713Y431757D01*
X605712Y431685D01*
X605707Y431612D01*
X605699Y431541D01*
X605687Y431469D01*
X605671Y431399D01*
X605651Y431330D01*
X605627Y431261D01*
X605600Y431194D01*
X605570Y431129D01*
X605536Y431065D01*
X605498Y431003D01*
X605458Y430943D01*
X605414Y430886D01*
X605367Y430831D01*
X605317Y430778D01*
X605265Y430729D01*
X605210Y430682D01*
X605153Y430638D01*
X605093Y430597D01*
X605031Y430560D01*
X604967Y430525D01*
X604902Y430495D01*
X604835Y430467D01*
X604767Y430444D01*
X604697Y430424D01*
X604627Y430408D01*
X604556Y430395D01*
X604484Y430387D01*
X604412Y430382D01*
X604340Y430381D01*
X604130Y430386D01*
X603921Y430397D01*
X603712Y430412D01*
X603504Y430432D01*
X603296Y430458D01*
X603089Y430488D01*
X602882Y430523D01*
X602677Y430563D01*
X602472Y430607D01*
X602269Y430657D01*
X602066Y430711D01*
X601865Y430771D01*
X601666Y430834D01*
X601468Y430903D01*
X608624Y436646D02*
X611756Y436646D01*
X609668Y439779D02*
X609668Y431947D01*
X609670Y431870D01*
X609676Y431794D01*
X609685Y431717D01*
X609698Y431641D01*
X609715Y431566D01*
X609735Y431492D01*
X609760Y431419D01*
X609787Y431348D01*
X609818Y431277D01*
X609853Y431209D01*
X609891Y431142D01*
X609932Y431077D01*
X609976Y431014D01*
X610023Y430954D01*
X610074Y430895D01*
X610127Y430840D01*
X610182Y430787D01*
X610241Y430736D01*
X610301Y430689D01*
X610364Y430645D01*
X610429Y430604D01*
X610496Y430566D01*
X610564Y430531D01*
X610635Y430500D01*
X610706Y430473D01*
X610779Y430448D01*
X610853Y430428D01*
X610928Y430411D01*
X611004Y430398D01*
X611081Y430389D01*
X611157Y430383D01*
X611234Y430381D01*
X611756Y430381D01*
X614877Y430381D02*
X614877Y430903D01*
X615399Y430903D01*
X615399Y430381D01*
X614877Y430381D01*
D157*
X87500Y190000D02*
X77500Y190000D01*
X117500Y190000D02*
X127500Y190000D01*
X82500Y195000D02*
X82500Y185000D01*
X1412500Y190000D02*
X1422500Y190000D01*
X1452500Y190000D02*
X1462500Y190000D01*
X1417500Y195000D02*
X1417500Y185000D01*
D159*
X523754Y411192D02*
X520508Y408596D01*
X523754Y411192D02*
X523754Y399508D01*
X526999Y399508D02*
X520508Y399508D01*
X513754Y217192D02*
X510508Y214596D01*
X513754Y217192D02*
X513754Y205508D01*
X516999Y205508D02*
X510508Y205508D01*
X521938Y208754D02*
X521940Y208867D01*
X521946Y208980D01*
X521956Y209093D01*
X521970Y209206D01*
X521987Y209318D01*
X522009Y209429D01*
X522034Y209539D01*
X522064Y209649D01*
X522097Y209757D01*
X522134Y209864D01*
X522174Y209970D01*
X522219Y210074D01*
X522267Y210177D01*
X522318Y210278D01*
X522373Y210377D01*
X522431Y210474D01*
X522493Y210569D01*
X522558Y210662D01*
X522626Y210752D01*
X522697Y210840D01*
X522772Y210926D01*
X522849Y211009D01*
X522929Y211089D01*
X523012Y211166D01*
X523098Y211241D01*
X523186Y211312D01*
X523276Y211380D01*
X523369Y211445D01*
X523464Y211507D01*
X523561Y211565D01*
X523660Y211620D01*
X523761Y211671D01*
X523864Y211719D01*
X523968Y211764D01*
X524074Y211804D01*
X524181Y211841D01*
X524289Y211874D01*
X524399Y211904D01*
X524509Y211929D01*
X524620Y211951D01*
X524732Y211968D01*
X524845Y211982D01*
X524958Y211992D01*
X525071Y211998D01*
X525184Y212000D01*
X525297Y211998D01*
X525410Y211992D01*
X525523Y211982D01*
X525636Y211968D01*
X525748Y211951D01*
X525859Y211929D01*
X525969Y211904D01*
X526079Y211874D01*
X526187Y211841D01*
X526294Y211804D01*
X526400Y211764D01*
X526504Y211719D01*
X526607Y211671D01*
X526708Y211620D01*
X526807Y211565D01*
X526904Y211507D01*
X526999Y211445D01*
X527092Y211380D01*
X527182Y211312D01*
X527270Y211241D01*
X527356Y211166D01*
X527439Y211089D01*
X527519Y211009D01*
X527596Y210926D01*
X527671Y210840D01*
X527742Y210752D01*
X527810Y210662D01*
X527875Y210569D01*
X527937Y210474D01*
X527995Y210377D01*
X528050Y210278D01*
X528101Y210177D01*
X528149Y210074D01*
X528194Y209970D01*
X528234Y209864D01*
X528271Y209757D01*
X528304Y209649D01*
X528334Y209539D01*
X528359Y209429D01*
X528381Y209318D01*
X528398Y209206D01*
X528412Y209093D01*
X528422Y208980D01*
X528428Y208867D01*
X528430Y208754D01*
X528428Y208641D01*
X528422Y208528D01*
X528412Y208415D01*
X528398Y208302D01*
X528381Y208190D01*
X528359Y208079D01*
X528334Y207969D01*
X528304Y207859D01*
X528271Y207751D01*
X528234Y207644D01*
X528194Y207538D01*
X528149Y207434D01*
X528101Y207331D01*
X528050Y207230D01*
X527995Y207131D01*
X527937Y207034D01*
X527875Y206939D01*
X527810Y206846D01*
X527742Y206756D01*
X527671Y206668D01*
X527596Y206582D01*
X527519Y206499D01*
X527439Y206419D01*
X527356Y206342D01*
X527270Y206267D01*
X527182Y206196D01*
X527092Y206128D01*
X526999Y206063D01*
X526904Y206001D01*
X526807Y205943D01*
X526708Y205888D01*
X526607Y205837D01*
X526504Y205789D01*
X526400Y205744D01*
X526294Y205704D01*
X526187Y205667D01*
X526079Y205634D01*
X525969Y205604D01*
X525859Y205579D01*
X525748Y205557D01*
X525636Y205540D01*
X525523Y205526D01*
X525410Y205516D01*
X525297Y205510D01*
X525184Y205508D01*
X525071Y205510D01*
X524958Y205516D01*
X524845Y205526D01*
X524732Y205540D01*
X524620Y205557D01*
X524509Y205579D01*
X524399Y205604D01*
X524289Y205634D01*
X524181Y205667D01*
X524074Y205704D01*
X523968Y205744D01*
X523864Y205789D01*
X523761Y205837D01*
X523660Y205888D01*
X523561Y205943D01*
X523464Y206001D01*
X523369Y206063D01*
X523276Y206128D01*
X523186Y206196D01*
X523098Y206267D01*
X523012Y206342D01*
X522929Y206419D01*
X522849Y206499D01*
X522772Y206582D01*
X522697Y206668D01*
X522626Y206756D01*
X522558Y206846D01*
X522493Y206939D01*
X522431Y207034D01*
X522373Y207131D01*
X522318Y207230D01*
X522267Y207331D01*
X522219Y207434D01*
X522174Y207538D01*
X522134Y207644D01*
X522097Y207751D01*
X522064Y207859D01*
X522034Y207969D01*
X522009Y208079D01*
X521987Y208190D01*
X521970Y208302D01*
X521956Y208415D01*
X521946Y208528D01*
X521940Y208641D01*
X521938Y208754D01*
X522588Y214596D02*
X522590Y214697D01*
X522596Y214797D01*
X522606Y214897D01*
X522619Y214997D01*
X522637Y215096D01*
X522658Y215195D01*
X522683Y215292D01*
X522712Y215389D01*
X522745Y215484D01*
X522781Y215578D01*
X522821Y215670D01*
X522864Y215761D01*
X522911Y215850D01*
X522961Y215937D01*
X523015Y216023D01*
X523072Y216106D01*
X523132Y216186D01*
X523195Y216265D01*
X523262Y216341D01*
X523331Y216414D01*
X523403Y216484D01*
X523477Y216552D01*
X523554Y216617D01*
X523634Y216678D01*
X523716Y216737D01*
X523800Y216792D01*
X523886Y216844D01*
X523974Y216893D01*
X524064Y216938D01*
X524156Y216980D01*
X524249Y217018D01*
X524344Y217052D01*
X524439Y217083D01*
X524536Y217110D01*
X524634Y217133D01*
X524733Y217153D01*
X524833Y217168D01*
X524933Y217180D01*
X525033Y217188D01*
X525134Y217192D01*
X525234Y217192D01*
X525335Y217188D01*
X525435Y217180D01*
X525535Y217168D01*
X525635Y217153D01*
X525734Y217133D01*
X525832Y217110D01*
X525929Y217083D01*
X526024Y217052D01*
X526119Y217018D01*
X526212Y216980D01*
X526304Y216938D01*
X526394Y216893D01*
X526482Y216844D01*
X526568Y216792D01*
X526652Y216737D01*
X526734Y216678D01*
X526814Y216617D01*
X526891Y216552D01*
X526965Y216484D01*
X527037Y216414D01*
X527106Y216341D01*
X527173Y216265D01*
X527236Y216186D01*
X527296Y216106D01*
X527353Y216023D01*
X527407Y215937D01*
X527457Y215850D01*
X527504Y215761D01*
X527547Y215670D01*
X527587Y215578D01*
X527623Y215484D01*
X527656Y215389D01*
X527685Y215292D01*
X527710Y215195D01*
X527731Y215096D01*
X527749Y214997D01*
X527762Y214897D01*
X527772Y214797D01*
X527778Y214697D01*
X527780Y214596D01*
X527778Y214495D01*
X527772Y214395D01*
X527762Y214295D01*
X527749Y214195D01*
X527731Y214096D01*
X527710Y213997D01*
X527685Y213900D01*
X527656Y213803D01*
X527623Y213708D01*
X527587Y213614D01*
X527547Y213522D01*
X527504Y213431D01*
X527457Y213342D01*
X527407Y213255D01*
X527353Y213169D01*
X527296Y213086D01*
X527236Y213006D01*
X527173Y212927D01*
X527106Y212851D01*
X527037Y212778D01*
X526965Y212708D01*
X526891Y212640D01*
X526814Y212575D01*
X526734Y212514D01*
X526652Y212455D01*
X526568Y212400D01*
X526482Y212348D01*
X526394Y212299D01*
X526304Y212254D01*
X526212Y212212D01*
X526119Y212174D01*
X526024Y212140D01*
X525929Y212109D01*
X525832Y212082D01*
X525734Y212059D01*
X525635Y212039D01*
X525535Y212024D01*
X525435Y212012D01*
X525335Y212004D01*
X525234Y212000D01*
X525134Y212000D01*
X525033Y212004D01*
X524933Y212012D01*
X524833Y212024D01*
X524733Y212039D01*
X524634Y212059D01*
X524536Y212082D01*
X524439Y212109D01*
X524344Y212140D01*
X524249Y212174D01*
X524156Y212212D01*
X524064Y212254D01*
X523974Y212299D01*
X523886Y212348D01*
X523800Y212400D01*
X523716Y212455D01*
X523634Y212514D01*
X523554Y212575D01*
X523477Y212640D01*
X523403Y212708D01*
X523331Y212778D01*
X523262Y212851D01*
X523195Y212927D01*
X523132Y213006D01*
X523072Y213086D01*
X523015Y213169D01*
X522961Y213255D01*
X522911Y213342D01*
X522864Y213431D01*
X522821Y213522D01*
X522781Y213614D01*
X522745Y213708D01*
X522712Y213803D01*
X522683Y213900D01*
X522658Y213997D01*
X522637Y214096D01*
X522619Y214195D01*
X522606Y214295D01*
X522596Y214395D01*
X522590Y214495D01*
X522588Y214596D01*
D160*
X353000Y580000D02*
X1127000Y580000D01*
X1127000Y40000D01*
X353000Y40000D01*
X353000Y580000D01*
X535000Y395000D02*
X535000Y215000D01*
D161*
X192100Y442600D02*
X192100Y467700D01*
X202100Y480400D02*
X232900Y480400D01*
X242900Y467400D02*
X242900Y442600D01*
X232900Y429600D02*
X202100Y429600D01*
X192100Y327700D02*
X192100Y302600D01*
X202100Y340400D02*
X232900Y340400D01*
X242900Y327400D02*
X242900Y302600D01*
X232900Y289600D02*
X202100Y289600D01*
X122100Y372600D02*
X122100Y397700D01*
X132100Y410400D02*
X162900Y410400D01*
X172900Y397400D02*
X172900Y372600D01*
X162900Y359600D02*
X132100Y359600D01*
X262100Y372600D02*
X262100Y397700D01*
X272100Y410400D02*
X302900Y410400D01*
X312900Y397400D02*
X312900Y372600D01*
X302900Y359600D02*
X272100Y359600D01*
X1297100Y447600D02*
X1297100Y472700D01*
X1307100Y485400D02*
X1337900Y485400D01*
X1347900Y472400D02*
X1347900Y447600D01*
X1337900Y434600D02*
X1307100Y434600D01*
X1297100Y322700D02*
X1297100Y297600D01*
X1307100Y335400D02*
X1337900Y335400D01*
X1347900Y322400D02*
X1347900Y297600D01*
X1337900Y284600D02*
X1307100Y284600D01*
X1222100Y372600D02*
X1222100Y397700D01*
X1232100Y410400D02*
X1262900Y410400D01*
X1272900Y397400D02*
X1272900Y372600D01*
X1262900Y359600D02*
X1232100Y359600D01*
X1372100Y372600D02*
X1372100Y397700D01*
X1382100Y410400D02*
X1412900Y410400D01*
X1422900Y397400D02*
X1422900Y372600D01*
X1412900Y359600D02*
X1382100Y359600D01*
X191100Y172600D02*
X191100Y147500D01*
X201100Y185300D02*
X231900Y185300D01*
X241900Y172300D02*
X241900Y147500D01*
X231900Y134500D02*
X201100Y134500D01*
X1297100Y147600D02*
X1297100Y172700D01*
X1307100Y185400D02*
X1337900Y185400D01*
X1347900Y172400D02*
X1347900Y147600D01*
X1337900Y134600D02*
X1307100Y134600D01*
D160*
X1367500Y235000D02*
X1367521Y236718D01*
X1367584Y238435D01*
X1367690Y240150D01*
X1367837Y241861D01*
X1368026Y243569D01*
X1368258Y245271D01*
X1368531Y246967D01*
X1368845Y248656D01*
X1369201Y250337D01*
X1369598Y252009D01*
X1370036Y253670D01*
X1370514Y255320D01*
X1371033Y256958D01*
X1371592Y258582D01*
X1372191Y260193D01*
X1372828Y261788D01*
X1373505Y263367D01*
X1374221Y264929D01*
X1374974Y266473D01*
X1375766Y267998D01*
X1376594Y269503D01*
X1377459Y270987D01*
X1378360Y272450D01*
X1379297Y273890D01*
X1380269Y275307D01*
X1381275Y276699D01*
X1382316Y278066D01*
X1383389Y279408D01*
X1384495Y280722D01*
X1385633Y282009D01*
X1386803Y283268D01*
X1388003Y284497D01*
X1389232Y285697D01*
X1390491Y286867D01*
X1391778Y288005D01*
X1393092Y289111D01*
X1394434Y290184D01*
X1395801Y291225D01*
X1397193Y292231D01*
X1398610Y293203D01*
X1400050Y294140D01*
X1401513Y295041D01*
X1402997Y295906D01*
X1404502Y296734D01*
X1406027Y297526D01*
X1407571Y298279D01*
X1409133Y298995D01*
X1410712Y299672D01*
X1412307Y300309D01*
X1413918Y300908D01*
X1415542Y301467D01*
X1417180Y301986D01*
X1418830Y302464D01*
X1420491Y302902D01*
X1422163Y303299D01*
X1423844Y303655D01*
X1425533Y303969D01*
X1427229Y304242D01*
X1428931Y304474D01*
X1430639Y304663D01*
X1432350Y304810D01*
X1434065Y304916D01*
X1435782Y304979D01*
X1437500Y305000D01*
X1439218Y304979D01*
X1440935Y304916D01*
X1442650Y304810D01*
X1444361Y304663D01*
X1446069Y304474D01*
X1447771Y304242D01*
X1449467Y303969D01*
X1451156Y303655D01*
X1452837Y303299D01*
X1454509Y302902D01*
X1456170Y302464D01*
X1457820Y301986D01*
X1459458Y301467D01*
X1461082Y300908D01*
X1462693Y300309D01*
X1464288Y299672D01*
X1465867Y298995D01*
X1467429Y298279D01*
X1468973Y297526D01*
X1470498Y296734D01*
X1472003Y295906D01*
X1473487Y295041D01*
X1474950Y294140D01*
X1476390Y293203D01*
X1477807Y292231D01*
X1479199Y291225D01*
X1480566Y290184D01*
X1481908Y289111D01*
X1483222Y288005D01*
X1484509Y286867D01*
X1485768Y285697D01*
X1486997Y284497D01*
X1488197Y283268D01*
X1489367Y282009D01*
X1490505Y280722D01*
X1491611Y279408D01*
X1492684Y278066D01*
X1493725Y276699D01*
X1494731Y275307D01*
X1495703Y273890D01*
X1496640Y272450D01*
X1497541Y270987D01*
X1498406Y269503D01*
X1499234Y267998D01*
X1500026Y266473D01*
X1500779Y264929D01*
X1501495Y263367D01*
X1502172Y261788D01*
X1502809Y260193D01*
X1503408Y258582D01*
X1503967Y256958D01*
X1504486Y255320D01*
X1504964Y253670D01*
X1505402Y252009D01*
X1505799Y250337D01*
X1506155Y248656D01*
X1506469Y246967D01*
X1506742Y245271D01*
X1506974Y243569D01*
X1507163Y241861D01*
X1507310Y240150D01*
X1507416Y238435D01*
X1507479Y236718D01*
X1507500Y235000D01*
X1507479Y233282D01*
X1507416Y231565D01*
X1507310Y229850D01*
X1507163Y228139D01*
X1506974Y226431D01*
X1506742Y224729D01*
X1506469Y223033D01*
X1506155Y221344D01*
X1505799Y219663D01*
X1505402Y217991D01*
X1504964Y216330D01*
X1504486Y214680D01*
X1503967Y213042D01*
X1503408Y211418D01*
X1502809Y209807D01*
X1502172Y208212D01*
X1501495Y206633D01*
X1500779Y205071D01*
X1500026Y203527D01*
X1499234Y202002D01*
X1498406Y200497D01*
X1497541Y199013D01*
X1496640Y197550D01*
X1495703Y196110D01*
X1494731Y194693D01*
X1493725Y193301D01*
X1492684Y191934D01*
X1491611Y190592D01*
X1490505Y189278D01*
X1489367Y187991D01*
X1488197Y186732D01*
X1486997Y185503D01*
X1485768Y184303D01*
X1484509Y183133D01*
X1483222Y181995D01*
X1481908Y180889D01*
X1480566Y179816D01*
X1479199Y178775D01*
X1477807Y177769D01*
X1476390Y176797D01*
X1474950Y175860D01*
X1473487Y174959D01*
X1472003Y174094D01*
X1470498Y173266D01*
X1468973Y172474D01*
X1467429Y171721D01*
X1465867Y171005D01*
X1464288Y170328D01*
X1462693Y169691D01*
X1461082Y169092D01*
X1459458Y168533D01*
X1457820Y168014D01*
X1456170Y167536D01*
X1454509Y167098D01*
X1452837Y166701D01*
X1451156Y166345D01*
X1449467Y166031D01*
X1447771Y165758D01*
X1446069Y165526D01*
X1444361Y165337D01*
X1442650Y165190D01*
X1440935Y165084D01*
X1439218Y165021D01*
X1437500Y165000D01*
X1435782Y165021D01*
X1434065Y165084D01*
X1432350Y165190D01*
X1430639Y165337D01*
X1428931Y165526D01*
X1427229Y165758D01*
X1425533Y166031D01*
X1423844Y166345D01*
X1422163Y166701D01*
X1420491Y167098D01*
X1418830Y167536D01*
X1417180Y168014D01*
X1415542Y168533D01*
X1413918Y169092D01*
X1412307Y169691D01*
X1410712Y170328D01*
X1409133Y171005D01*
X1407571Y171721D01*
X1406027Y172474D01*
X1404502Y173266D01*
X1402997Y174094D01*
X1401513Y174959D01*
X1400050Y175860D01*
X1398610Y176797D01*
X1397193Y177769D01*
X1395801Y178775D01*
X1394434Y179816D01*
X1393092Y180889D01*
X1391778Y181995D01*
X1390491Y183133D01*
X1389232Y184303D01*
X1388003Y185503D01*
X1386803Y186732D01*
X1385633Y187991D01*
X1384495Y189278D01*
X1383389Y190592D01*
X1382316Y191934D01*
X1381275Y193301D01*
X1380269Y194693D01*
X1379297Y196110D01*
X1378360Y197550D01*
X1377459Y199013D01*
X1376594Y200497D01*
X1375766Y202002D01*
X1374974Y203527D01*
X1374221Y205071D01*
X1373505Y206633D01*
X1372828Y208212D01*
X1372191Y209807D01*
X1371592Y211418D01*
X1371033Y213042D01*
X1370514Y214680D01*
X1370036Y216330D01*
X1369598Y217991D01*
X1369201Y219663D01*
X1368845Y221344D01*
X1368531Y223033D01*
X1368258Y224729D01*
X1368026Y226431D01*
X1367837Y228139D01*
X1367690Y229850D01*
X1367584Y231565D01*
X1367521Y233282D01*
X1367500Y235000D01*
X32500Y235000D02*
X32521Y236718D01*
X32584Y238435D01*
X32690Y240150D01*
X32837Y241861D01*
X33026Y243569D01*
X33258Y245271D01*
X33531Y246967D01*
X33845Y248656D01*
X34201Y250337D01*
X34598Y252009D01*
X35036Y253670D01*
X35514Y255320D01*
X36033Y256958D01*
X36592Y258582D01*
X37191Y260193D01*
X37828Y261788D01*
X38505Y263367D01*
X39221Y264929D01*
X39974Y266473D01*
X40766Y267998D01*
X41594Y269503D01*
X42459Y270987D01*
X43360Y272450D01*
X44297Y273890D01*
X45269Y275307D01*
X46275Y276699D01*
X47316Y278066D01*
X48389Y279408D01*
X49495Y280722D01*
X50633Y282009D01*
X51803Y283268D01*
X53003Y284497D01*
X54232Y285697D01*
X55491Y286867D01*
X56778Y288005D01*
X58092Y289111D01*
X59434Y290184D01*
X60801Y291225D01*
X62193Y292231D01*
X63610Y293203D01*
X65050Y294140D01*
X66513Y295041D01*
X67997Y295906D01*
X69502Y296734D01*
X71027Y297526D01*
X72571Y298279D01*
X74133Y298995D01*
X75712Y299672D01*
X77307Y300309D01*
X78918Y300908D01*
X80542Y301467D01*
X82180Y301986D01*
X83830Y302464D01*
X85491Y302902D01*
X87163Y303299D01*
X88844Y303655D01*
X90533Y303969D01*
X92229Y304242D01*
X93931Y304474D01*
X95639Y304663D01*
X97350Y304810D01*
X99065Y304916D01*
X100782Y304979D01*
X102500Y305000D01*
X104218Y304979D01*
X105935Y304916D01*
X107650Y304810D01*
X109361Y304663D01*
X111069Y304474D01*
X112771Y304242D01*
X114467Y303969D01*
X116156Y303655D01*
X117837Y303299D01*
X119509Y302902D01*
X121170Y302464D01*
X122820Y301986D01*
X124458Y301467D01*
X126082Y300908D01*
X127693Y300309D01*
X129288Y299672D01*
X130867Y298995D01*
X132429Y298279D01*
X133973Y297526D01*
X135498Y296734D01*
X137003Y295906D01*
X138487Y295041D01*
X139950Y294140D01*
X141390Y293203D01*
X142807Y292231D01*
X144199Y291225D01*
X145566Y290184D01*
X146908Y289111D01*
X148222Y288005D01*
X149509Y286867D01*
X150768Y285697D01*
X151997Y284497D01*
X153197Y283268D01*
X154367Y282009D01*
X155505Y280722D01*
X156611Y279408D01*
X157684Y278066D01*
X158725Y276699D01*
X159731Y275307D01*
X160703Y273890D01*
X161640Y272450D01*
X162541Y270987D01*
X163406Y269503D01*
X164234Y267998D01*
X165026Y266473D01*
X165779Y264929D01*
X166495Y263367D01*
X167172Y261788D01*
X167809Y260193D01*
X168408Y258582D01*
X168967Y256958D01*
X169486Y255320D01*
X169964Y253670D01*
X170402Y252009D01*
X170799Y250337D01*
X171155Y248656D01*
X171469Y246967D01*
X171742Y245271D01*
X171974Y243569D01*
X172163Y241861D01*
X172310Y240150D01*
X172416Y238435D01*
X172479Y236718D01*
X172500Y235000D01*
X172479Y233282D01*
X172416Y231565D01*
X172310Y229850D01*
X172163Y228139D01*
X171974Y226431D01*
X171742Y224729D01*
X171469Y223033D01*
X171155Y221344D01*
X170799Y219663D01*
X170402Y217991D01*
X169964Y216330D01*
X169486Y214680D01*
X168967Y213042D01*
X168408Y211418D01*
X167809Y209807D01*
X167172Y208212D01*
X166495Y206633D01*
X165779Y205071D01*
X165026Y203527D01*
X164234Y202002D01*
X163406Y200497D01*
X162541Y199013D01*
X161640Y197550D01*
X160703Y196110D01*
X159731Y194693D01*
X158725Y193301D01*
X157684Y191934D01*
X156611Y190592D01*
X155505Y189278D01*
X154367Y187991D01*
X153197Y186732D01*
X151997Y185503D01*
X150768Y184303D01*
X149509Y183133D01*
X148222Y181995D01*
X146908Y180889D01*
X145566Y179816D01*
X144199Y178775D01*
X142807Y177769D01*
X141390Y176797D01*
X139950Y175860D01*
X138487Y174959D01*
X137003Y174094D01*
X135498Y173266D01*
X133973Y172474D01*
X132429Y171721D01*
X130867Y171005D01*
X129288Y170328D01*
X127693Y169691D01*
X126082Y169092D01*
X124458Y168533D01*
X122820Y168014D01*
X121170Y167536D01*
X119509Y167098D01*
X117837Y166701D01*
X116156Y166345D01*
X114467Y166031D01*
X112771Y165758D01*
X111069Y165526D01*
X109361Y165337D01*
X107650Y165190D01*
X105935Y165084D01*
X104218Y165021D01*
X102500Y165000D01*
X100782Y165021D01*
X99065Y165084D01*
X97350Y165190D01*
X95639Y165337D01*
X93931Y165526D01*
X92229Y165758D01*
X90533Y166031D01*
X88844Y166345D01*
X87163Y166701D01*
X85491Y167098D01*
X83830Y167536D01*
X82180Y168014D01*
X80542Y168533D01*
X78918Y169092D01*
X77307Y169691D01*
X75712Y170328D01*
X74133Y171005D01*
X72571Y171721D01*
X71027Y172474D01*
X69502Y173266D01*
X67997Y174094D01*
X66513Y174959D01*
X65050Y175860D01*
X63610Y176797D01*
X62193Y177769D01*
X60801Y178775D01*
X59434Y179816D01*
X58092Y180889D01*
X56778Y181995D01*
X55491Y183133D01*
X54232Y184303D01*
X53003Y185503D01*
X51803Y186732D01*
X50633Y187991D01*
X49495Y189278D01*
X48389Y190592D01*
X47316Y191934D01*
X46275Y193301D01*
X45269Y194693D01*
X44297Y196110D01*
X43360Y197550D01*
X42459Y199013D01*
X41594Y200497D01*
X40766Y202002D01*
X39974Y203527D01*
X39221Y205071D01*
X38505Y206633D01*
X37828Y208212D01*
X37191Y209807D01*
X36592Y211418D01*
X36033Y213042D01*
X35514Y214680D01*
X35036Y216330D01*
X34598Y217991D01*
X34201Y219663D01*
X33845Y221344D01*
X33531Y223033D01*
X33258Y224729D01*
X33026Y226431D01*
X32837Y228139D01*
X32690Y229850D01*
X32584Y231565D01*
X32521Y233282D01*
X32500Y235000D01*
M02*
