G04 EAGLE Gerber RS-274X export*
G75*
%MOMM*%
%FSLAX34Y34*%
%LPD*%
%INSoldermask Bottom*%
%IPPOS*%
%AMOC8*
5,1,8,0,0,1.08239X$1,22.5*%
G01*
%ADD10C,0.889000*%
%ADD11C,1.270000*%
%ADD12R,1.981200X1.981200*%
%ADD13R,1.727200X1.981200*%
%ADD14R,2.235200X1.981200*%
%ADD15C,1.981200*%
%ADD16R,1.303200X1.603200*%
%ADD17C,1.703200*%
%ADD18C,1.879600*%
%ADD19C,1.625600*%
%ADD20C,1.303200*%
%ADD21C,0.959600*%


D10*
X242500Y555000D03*
X192500Y555000D03*
D11*
X182500Y530000D03*
X252500Y530000D03*
D10*
X1347500Y555000D03*
X1297500Y555000D03*
D11*
X1287500Y530000D03*
X1357500Y530000D03*
D10*
X192500Y65000D03*
X242500Y65000D03*
D11*
X252500Y90000D03*
X182500Y90000D03*
D12*
X839850Y35700D03*
X700150Y35700D03*
D13*
X839850Y264300D03*
D14*
X804290Y264300D03*
X734440Y264300D03*
D13*
X700150Y264300D03*
D12*
X113820Y207270D03*
D15*
X113820Y181870D03*
X139220Y207270D03*
X139220Y181870D03*
X164620Y207270D03*
X164620Y181870D03*
X190020Y207270D03*
X190020Y181870D03*
X215420Y207270D03*
X215420Y181870D03*
X240820Y207270D03*
X240820Y181870D03*
X266220Y207270D03*
X266220Y181870D03*
X291620Y207270D03*
X291620Y181870D03*
X317020Y207270D03*
X317020Y181870D03*
X342420Y207270D03*
X342420Y181870D03*
X367820Y207270D03*
X367820Y181870D03*
X393220Y207270D03*
X393220Y181870D03*
X418620Y207270D03*
X418620Y181870D03*
X444020Y207270D03*
X444020Y181870D03*
X469420Y207270D03*
X469420Y181870D03*
X494820Y207270D03*
X494820Y181870D03*
X520220Y207270D03*
X520220Y181870D03*
X545620Y207270D03*
X545620Y181870D03*
X571020Y207270D03*
X571020Y181870D03*
X596420Y207270D03*
X596420Y181870D03*
D16*
X750000Y340000D03*
X730000Y340000D03*
D17*
X1050000Y565000D03*
X1075000Y565000D03*
X1205000Y565000D03*
X1180000Y565000D03*
X1055000Y375000D03*
X1080000Y375000D03*
X1180000Y375000D03*
X1205000Y375000D03*
X1100000Y565000D03*
D18*
X847000Y587300D03*
X872400Y587300D03*
X897800Y587300D03*
X847000Y377750D03*
X821600Y377750D03*
X796200Y377750D03*
X770800Y377750D03*
X745400Y377750D03*
X872400Y377750D03*
X897800Y377750D03*
X923200Y377750D03*
X948600Y377750D03*
X974000Y377750D03*
X999400Y377750D03*
D19*
X427500Y70000D03*
X407500Y70000D03*
X387500Y70000D03*
X367500Y550000D03*
X387500Y550000D03*
X407500Y550000D03*
D20*
X110000Y140000D03*
X370000Y140000D03*
X350000Y140000D03*
X430000Y140000D03*
X390000Y140000D03*
X410000Y140000D03*
X330000Y140000D03*
X150000Y140000D03*
X170000Y140000D03*
X230000Y140000D03*
X270000Y140000D03*
X290000Y140000D03*
X510000Y140000D03*
X210000Y140000D03*
X310000Y140000D03*
X530000Y140000D03*
X190000Y140000D03*
X130000Y140000D03*
X250000Y140000D03*
X590000Y140000D03*
X550000Y140000D03*
X470000Y140000D03*
X490000Y140000D03*
X450000Y140000D03*
X570000Y140000D03*
X1050000Y600000D03*
X1075000Y600000D03*
X1100000Y600000D03*
X1055000Y340000D03*
X1080000Y340000D03*
X1180000Y340000D03*
X1205000Y340000D03*
X1180000Y600000D03*
X1205000Y600000D03*
X730000Y300000D03*
X810000Y300000D03*
D21*
X450000Y230000D03*
X640000Y260000D03*
X1100000Y80000D03*
X900000Y280000D03*
X900000Y340000D03*
X480000Y120000D03*
X470000Y180000D03*
X520000Y180000D03*
X360000Y310000D03*
X670000Y310000D03*
X680000Y300000D03*
X430000Y380000D03*
X440000Y360000D03*
X400000Y350000D03*
X450000Y340000D03*
X410000Y335000D03*
X420000Y320000D03*
X140000Y230000D03*
X160000Y230000D03*
X120000Y230000D03*
X150000Y260000D03*
X140000Y270000D03*
X500000Y100000D03*
X470000Y240000D03*
X540000Y100000D03*
X120000Y250000D03*
X520000Y100000D03*
X495000Y150000D03*
X540000Y160000D03*
X1417500Y175000D03*
X1457500Y175000D03*
X870000Y320000D03*
X900000Y310000D03*
X870000Y340000D03*
M02*
