G04 EAGLE Gerber RS-274X export*
G75*
%MOMM*%
%FSLAX34Y34*%
%LPD*%
%INSolderpaste Top*%
%IPPOS*%
%AMOC8*
5,1,8,0,0,1.08239X$1,22.5*%
G01*
%ADD10R,5.000000X0.400000*%
%ADD11R,1.524000X0.762000*%
%ADD12C,1.500000*%
%ADD13R,0.812800X0.406400*%


D10*
X520000Y309000D03*
X520000Y301000D03*
X520000Y317000D03*
X520000Y325000D03*
X520000Y333000D03*
X520000Y341000D03*
X520000Y349000D03*
X520000Y357000D03*
X520000Y293000D03*
X520000Y285000D03*
X520000Y277000D03*
X520000Y269000D03*
X520000Y261000D03*
X520000Y253000D03*
X520000Y365000D03*
X520000Y373000D03*
X520000Y245000D03*
X520000Y237000D03*
D11*
X189560Y474050D03*
X245440Y474050D03*
X189560Y435950D03*
X245440Y435950D03*
X189560Y334050D03*
X245440Y334050D03*
X189560Y295950D03*
X245440Y295950D03*
X119560Y404050D03*
X175440Y404050D03*
X119560Y365950D03*
X175440Y365950D03*
X259560Y404050D03*
X315440Y404050D03*
X259560Y365950D03*
X315440Y365950D03*
X1294560Y479050D03*
X1350440Y479050D03*
X1294560Y440950D03*
X1350440Y440950D03*
X1294560Y329050D03*
X1350440Y329050D03*
X1294560Y290950D03*
X1350440Y290950D03*
X1219560Y404050D03*
X1275440Y404050D03*
X1219560Y365950D03*
X1275440Y365950D03*
X1369560Y404050D03*
X1425440Y404050D03*
X1369560Y365950D03*
X1425440Y365950D03*
X188560Y178950D03*
X244440Y178950D03*
X188560Y140850D03*
X244440Y140850D03*
X1294560Y179050D03*
X1350440Y179050D03*
X1294560Y140950D03*
X1350440Y140950D03*
D12*
X1457500Y155000D03*
X1417500Y155000D03*
X122500Y155000D03*
X82500Y155000D03*
D13*
G36*
X1345149Y476903D02*
X1339403Y482649D01*
X1342277Y485523D01*
X1348023Y479777D01*
X1345149Y476903D01*
G37*
G36*
X1302723Y434477D02*
X1296977Y440223D01*
X1299851Y443097D01*
X1305597Y437351D01*
X1302723Y434477D01*
G37*
G36*
X1345149Y326903D02*
X1339403Y332649D01*
X1342277Y335523D01*
X1348023Y329777D01*
X1345149Y326903D01*
G37*
G36*
X1302723Y284477D02*
X1296977Y290223D01*
X1299851Y293097D01*
X1305597Y287351D01*
X1302723Y284477D01*
G37*
G36*
X1270149Y401903D02*
X1264403Y407649D01*
X1267277Y410523D01*
X1273023Y404777D01*
X1270149Y401903D01*
G37*
G36*
X1227723Y359477D02*
X1221977Y365223D01*
X1224851Y368097D01*
X1230597Y362351D01*
X1227723Y359477D01*
G37*
G36*
X1420149Y401903D02*
X1414403Y407649D01*
X1417277Y410523D01*
X1423023Y404777D01*
X1420149Y401903D01*
G37*
G36*
X1377723Y359477D02*
X1371977Y365223D01*
X1374851Y368097D01*
X1380597Y362351D01*
X1377723Y359477D01*
G37*
G36*
X240149Y471903D02*
X234403Y477649D01*
X237277Y480523D01*
X243023Y474777D01*
X240149Y471903D01*
G37*
G36*
X197723Y429477D02*
X191977Y435223D01*
X194851Y438097D01*
X200597Y432351D01*
X197723Y429477D01*
G37*
G36*
X310149Y401903D02*
X304403Y407649D01*
X307277Y410523D01*
X313023Y404777D01*
X310149Y401903D01*
G37*
G36*
X267723Y359477D02*
X261977Y365223D01*
X264851Y368097D01*
X270597Y362351D01*
X267723Y359477D01*
G37*
G36*
X240149Y331903D02*
X234403Y337649D01*
X237277Y340523D01*
X243023Y334777D01*
X240149Y331903D01*
G37*
G36*
X197723Y289477D02*
X191977Y295223D01*
X194851Y298097D01*
X200597Y292351D01*
X197723Y289477D01*
G37*
G36*
X170149Y401903D02*
X164403Y407649D01*
X167277Y410523D01*
X173023Y404777D01*
X170149Y401903D01*
G37*
G36*
X127723Y359477D02*
X121977Y365223D01*
X124851Y368097D01*
X130597Y362351D01*
X127723Y359477D01*
G37*
M02*
