G04 EAGLE Gerber RS-274X export*
G75*
%MOMM*%
%FSLAX34Y34*%
%LPD*%
%INSolderpaste Bottom*%
%IPPOS*%
%AMOC8*
5,1,8,0,0,1.08239X$1,22.5*%
G01*
%ADD10R,1.524000X1.778000*%
%ADD11R,2.032000X1.778000*%
%ADD12R,1.778000X1.778000*%
%ADD13C,1.778000*%
%ADD14R,1.100000X1.400000*%
%ADD15C,1.500000*%


D10*
X839850Y264300D03*
D11*
X804290Y264300D03*
X734440Y264300D03*
D10*
X700150Y264300D03*
D12*
X113820Y207270D03*
D13*
X113820Y181870D03*
X139220Y207270D03*
X139220Y181870D03*
X164620Y207270D03*
X164620Y181870D03*
X190020Y207270D03*
X190020Y181870D03*
X215420Y207270D03*
X215420Y181870D03*
X240820Y207270D03*
X240820Y181870D03*
X266220Y207270D03*
X266220Y181870D03*
X291620Y207270D03*
X291620Y181870D03*
X317020Y207270D03*
X317020Y181870D03*
X342420Y207270D03*
X342420Y181870D03*
X367820Y207270D03*
X367820Y181870D03*
X393220Y207270D03*
X393220Y181870D03*
X418620Y207270D03*
X418620Y181870D03*
X444020Y207270D03*
X444020Y181870D03*
X469420Y207270D03*
X469420Y181870D03*
X494820Y207270D03*
X494820Y181870D03*
X520220Y207270D03*
X520220Y181870D03*
X545620Y207270D03*
X545620Y181870D03*
X571020Y207270D03*
X571020Y181870D03*
X596420Y207270D03*
X596420Y181870D03*
D14*
X750000Y340000D03*
X730000Y340000D03*
D15*
X1050000Y565000D03*
X1075000Y565000D03*
X1205000Y565000D03*
X1180000Y565000D03*
X1055000Y375000D03*
X1080000Y375000D03*
X1180000Y375000D03*
X1205000Y375000D03*
X1100000Y565000D03*
M02*
